<?xml version="1.0" encoding="UTF-8"?><svg id="uuid-137af5f0-ad8e-4459-8b76-c5c913d343fd" xmlns="http://www.w3.org/2000/svg" width="289.66" height="340.99" viewBox="0 0 289.66 340.99"><defs><style>.uuid-fc7665e3-bf56-4fb3-9f06-6ed34886d8cf{fill:#fff;}.uuid-fc7665e3-bf56-4fb3-9f06-6ed34886d8cf,.uuid-61a75ad1-497b-40af-90d1-60368417ff10,.uuid-6bae8d10-c78d-4d1c-9235-f355bde5edf8,.uuid-621bd309-2a08-4712-88c8-2b71caa49328{stroke:#221f20;}.uuid-fc7665e3-bf56-4fb3-9f06-6ed34886d8cf,.uuid-61a75ad1-497b-40af-90d1-60368417ff10,.uuid-6bae8d10-c78d-4d1c-9235-f355bde5edf8,.uuid-621bd309-2a08-4712-88c8-2b71caa49328,.uuid-cb0d3520-e877-404a-ad88-5df56785a369{stroke-miterlimit:10;}.uuid-61a75ad1-497b-40af-90d1-60368417ff10{fill:#194224;}.uuid-6bae8d10-c78d-4d1c-9235-f355bde5edf8{fill:#116a3f;}.uuid-621bd309-2a08-4712-88c8-2b71caa49328,.uuid-cb0d3520-e877-404a-ad88-5df56785a369{fill:none;}.uuid-cb0d3520-e877-404a-ad88-5df56785a369{stroke:#fff;}.uuid-e85f2326-70f7-47e9-8504-f6683f6a49be{fill:#221f20;stroke-width:0px;}</style></defs><path class="uuid-fc7665e3-bf56-4fb3-9f06-6ed34886d8cf" d="m1.66,118.07C3.08,72.8,31.18,32.45,73.09,15.48c41.63-16.86,89.54-7.69,122.08,23.38-24.66,1.3-62,6.15-103.9,23.38C49.81,79.27,20.07,101.78,1.66,118.07Z"/><path class="uuid-fc7665e3-bf56-4fb3-9f06-6ed34886d8cf" d="m195.17,38.85c-16.78,15.9-43.8,37.71-81.82,54.55C67.68,113.62,26.6,117.59,1.66,118.07"/><path class="uuid-e85f2326-70f7-47e9-8504-f6683f6a49be" d="m69.32,16.82c-2.27-4.55-4.54-9.1-6.81-13.65-.32-.64-.64-1.29-.97-1.93-.59-1.17-2.34-1.6-3.42-.9-1.2.77-1.52,2.17-.9,3.42,2.27,4.55,4.54,9.1,6.81,13.65.32.64.64,1.29.97,1.93.59,1.17,2.34,1.6,3.42.9,1.2-.77,1.52-2.17.9-3.42h0Z"/><polyline class="uuid-6bae8d10-c78d-4d1c-9235-f355bde5edf8" points="1.66 118.07 3.06 103.45 5.97 90.37 11.49 75.15 17.09 64.18 24.44 53.05 32.07 43.87 39.63 36.41 43.94 32.71 49.23 28.66 54.17 25.29 60.13 21.71 67.16 18.08 47.45 84.36"/><polyline class="uuid-6bae8d10-c78d-4d1c-9235-f355bde5edf8" points="47.68 83.6 67.16 18.08 131.91 48.66"/><polyline class="uuid-6bae8d10-c78d-4d1c-9235-f355bde5edf8" points="67.16 18.08 80.64 12.72 91.64 9.75 102.72 7.9 116.27 7.14 128.9 7.87 140.94 9.9 152.31 13.05 166.76 18.99 180.63 27.08 194.5 38.22 193.16 38.97 181.72 39.85 163.17 42.18 151.79 44.16 140.7 46.5 131.84 48.69 130.83 48.94"/><line class="uuid-621bd309-2a08-4712-88c8-2b71caa49328" x1="67.16" y1="18.08" x2="128.53" y2="48.94"/><line class="uuid-621bd309-2a08-4712-88c8-2b71caa49328" x1="47.45" y1="84.36" x2="128.53" y2="48.94"/><polygon class="uuid-61a75ad1-497b-40af-90d1-60368417ff10" points="87.99 66.65 47.45 84.36 1.66 118.07 26.22 116.56 47.68 113.52 69.79 108.64 92.43 101.7 103.36 97.6 103.82 97.06 88.57 66.37 87.99 66.65"/><polygon class="uuid-61a75ad1-497b-40af-90d1-60368417ff10" points="92.96 64.28 122.62 51.52 139.01 46.9 164.22 42.01 194.5 38.89 180.81 51.58 162.81 65.37 146.07 76.32 127.81 86.51 111.4 94.25 108.34 95.48 92.96 64.28"/><path class="uuid-e85f2326-70f7-47e9-8504-f6683f6a49be" d="m88.5,66.43c2.52,5.04,5.03,10.09,7.55,15.13l18.13,36.32c7.27,14.56,14.54,29.13,21.81,43.69,6.31,12.65,12.63,25.3,18.94,37.96,2.07,4.15,4.14,8.3,6.21,12.45.99,1.98,1.9,4.02,2.97,5.96.04.08.08.17.12.25,1.44,2.88,5.75.35,4.32-2.52-2.52-5.04-5.03-10.09-7.55-15.13-6.04-12.11-12.08-24.21-18.13-36.32l-21.81-43.69c-6.31-12.65-12.63-25.3-18.94-37.96l-6.21-12.45c-.99-1.98-1.9-4.02-2.97-5.96-.04-.08-.08-.17-.12-.25-1.44-2.88-5.75-.35-4.32,2.52h0Z"/><line class="uuid-621bd309-2a08-4712-88c8-2b71caa49328" x1="131.38" y1="48.94" x2="127.92" y2="49.72"/><line class="uuid-cb0d3520-e877-404a-ad88-5df56785a369" x1="81.36" y1="340.49" x2="82.36" y2="340.49"/><line class="uuid-cb0d3520-e877-404a-ad88-5df56785a369" x1="288.66" y1="246.84" x2="289.66" y2="246.84"/></svg>