<?xml version="1.0" encoding="utf-8"?>
<!-- Generator: Adobe Illustrator 27.9.0, SVG Export Plug-In . SVG Version: 6.00 Build 0)  -->
<svg version="1.1" id="uuid-7ffe7285-4533-4a01-8e15-43b9c0a58e36"
	 xmlns="http://www.w3.org/2000/svg" xmlns:xlink="http://www.w3.org/1999/xlink" x="0px" y="0px" viewBox="0 0 331.3 393.1"
	 style="enable-background:new 0 0 331.3 393.1;" xml:space="preserve">
<style type="text/css">
	.st0{fill:none;stroke:#FFFFFF;stroke-miterlimit:10;}
	.st1{fill:none;}
	.st2{fill:#D83745;}
	.st3{fill:#D73847;}
	.st4{font-family:'Arial-BoldMT';}
	.st5{font-size:12.9878px;}
	.st6{font-family:'ArialMT';}
	.st7{font-size:21.0423px;}
</style>
<line class="st0" x1="19.6" y1="369.5" x2="19.8" y2="369.6"/>
<line class="st0" x1="68.5" y1="392.5" x2="68.8" y2="392.6"/>
<line class="st1" x1="4.3" y1="383.1" x2="75.9" y2="382.4"/>
<path class="st2" d="M4.4,385.3c8.1-0.1,16.2-0.2,24.3-0.3c12.8-0.1,25.6-0.3,38.5-0.4c3,0,5.9-0.1,8.9-0.1c2.3,0,2.1-4.4-0.2-4.4
	c-8.1,0.1-16.2,0.2-24.3,0.3c-12.8,0.1-25.6,0.3-38.5,0.4c-3,0-5.9,0.1-8.9,0.1C1.9,380.9,2.1,385.3,4.4,385.3L4.4,385.3L4.4,385.3z
	"/>
<path class="st2" d="M4.5,363.8c8-0.1,16.1-0.2,24.1-0.3c12.8-0.1,25.5-0.3,38.3-0.4c2.9,0,5.9-0.1,8.8-0.1c2.2,0,2-4.3-0.2-4.2
	c-8,0.1-16.1,0.2-24.1,0.3c-12.8,0.1-25.5,0.3-38.3,0.4c-2.9,0-5.9,0.1-8.8,0.1C2.1,359.6,2.3,363.8,4.5,363.8L4.5,363.8z"/>
<g>
	<text transform="matrix(0.7609 -7.874844e-03 6.781155e-03 1 2.2505 375.9756)" class="st3 st4 st5">BEST IN CLASS</text>
</g>
<text transform="matrix(0.8094 0 0 1 19.5723 325.7318)" class="st6 st7">drip</text>
<text transform="matrix(0.8094 0 0 1 2.5303 350.9818)" class="st6 st7">      drop</text>
</svg>
