<?xml version="1.0" encoding="UTF-8"?><svg id="uuid-d43a96d0-74a3-431d-a274-9f6e7e86fed8" xmlns="http://www.w3.org/2000/svg" width="322.43" height="340.99" viewBox="0 0 322.43 340.99"><defs><style>.uuid-a7d0c5b5-67d6-4e2e-9b43-2374b579b365{fill:#fff;}.uuid-a7d0c5b5-67d6-4e2e-9b43-2374b579b365,.uuid-bbd31a80-bca9-43ac-826d-478a710e4e62,.uuid-eab969d9-e4f9-4bdd-8738-ae7e64823064,.uuid-3f86c466-f991-4b6b-b8ac-5b7312ecd05a,.uuid-32b7d376-d725-492b-918c-5977b6cffcc0{stroke:#221f20;}.uuid-a7d0c5b5-67d6-4e2e-9b43-2374b579b365,.uuid-bbd31a80-bca9-43ac-826d-478a710e4e62,.uuid-eab969d9-e4f9-4bdd-8738-ae7e64823064,.uuid-3f86c466-f991-4b6b-b8ac-5b7312ecd05a,.uuid-32b7d376-d725-492b-918c-5977b6cffcc0,.uuid-133d47bf-af55-4a9a-aa3b-9f1f42a40e39{stroke-miterlimit:10;}.uuid-bbd31a80-bca9-43ac-826d-478a710e4e62{fill:#1dade5;}.uuid-eab969d9-e4f9-4bdd-8738-ae7e64823064{fill:#194224;}.uuid-3f86c466-f991-4b6b-b8ac-5b7312ecd05a{fill:#116a3f;}.uuid-32b7d376-d725-492b-918c-5977b6cffcc0,.uuid-133d47bf-af55-4a9a-aa3b-9f1f42a40e39{fill:none;}.uuid-133d47bf-af55-4a9a-aa3b-9f1f42a40e39{stroke:#fff;}.uuid-6f732f65-767a-46ab-a9b5-1396872e0c66{fill:#d73847;font-family:Arial-BoldMT, Arial;font-size:44.44px;font-weight:700;}.uuid-0671e80c-6a71-459d-8dab-d3931f9fbf1e{fill:#221f20;}.uuid-0671e80c-6a71-459d-8dab-d3931f9fbf1e,.uuid-365d8596-b8ff-42b1-88d4-0145513a8c76,.uuid-203a3ef9-d4a9-4ec6-ae60-7233fd091fb8{stroke-width:0px;}.uuid-365d8596-b8ff-42b1-88d4-0145513a8c76{fill:#d83646;}.uuid-203a3ef9-d4a9-4ec6-ae60-7233fd091fb8{fill:#d83745;}</style></defs><path class="uuid-a7d0c5b5-67d6-4e2e-9b43-2374b579b365" d="m3.18,118.07c1.42-45.27,29.51-85.62,71.43-102.6,41.63-16.86,89.54-7.69,122.08,23.38-24.66,1.3-62,6.15-103.9,23.38C51.32,79.27,21.59,101.78,3.18,118.07Z"/><path class="uuid-a7d0c5b5-67d6-4e2e-9b43-2374b579b365" d="m196.68,38.85c-16.78,15.9-43.8,37.71-81.82,54.55-45.67,20.22-86.75,24.2-111.69,24.68"/><path class="uuid-0671e80c-6a71-459d-8dab-d3931f9fbf1e" d="m70.83,16.82c-2.27-4.55-4.54-9.1-6.81-13.65-.32-.64-.64-1.29-.97-1.93-.59-1.17-2.34-1.6-3.42-.9-1.2.77-1.52,2.17-.9,3.42,2.27,4.55,4.54,9.1,6.81,13.65.32.64.64,1.29.97,1.93.59,1.17,2.34,1.6,3.42.9,1.2-.77,1.52-2.17.9-3.42h0Z"/><polyline class="uuid-3f86c466-f991-4b6b-b8ac-5b7312ecd05a" points="3.18 118.07 4.58 103.45 7.49 90.37 13.01 75.15 18.61 64.18 25.95 53.05 33.58 43.87 41.14 36.41 45.46 32.71 50.75 28.66 55.68 25.29 61.64 21.71 68.67 18.08 48.97 84.36"/><polyline class="uuid-3f86c466-f991-4b6b-b8ac-5b7312ecd05a" points="49.19 83.6 68.67 18.08 133.42 48.66"/><polyline class="uuid-3f86c466-f991-4b6b-b8ac-5b7312ecd05a" points="68.67 18.08 82.16 12.72 93.16 9.75 104.23 7.9 117.78 7.14 130.41 7.87 142.46 9.9 153.83 13.05 168.28 18.99 182.14 27.08 196.01 38.22 194.68 38.97 183.24 39.85 164.68 42.18 153.31 44.16 142.21 46.5 133.36 48.69 132.34 48.94"/><line class="uuid-32b7d376-d725-492b-918c-5977b6cffcc0" x1="68.67" y1="18.08" x2="130.04" y2="48.94"/><line class="uuid-32b7d376-d725-492b-918c-5977b6cffcc0" x1="48.97" y1="84.36" x2="130.04" y2="48.94"/><polygon class="uuid-eab969d9-e4f9-4bdd-8738-ae7e64823064" points="89.51 66.65 48.97 84.36 3.18 118.07 27.74 116.56 49.19 113.52 71.3 108.64 93.94 101.7 104.88 97.6 105.33 97.06 90.08 66.37 89.51 66.65"/><polygon class="uuid-eab969d9-e4f9-4bdd-8738-ae7e64823064" points="94.47 64.28 124.14 51.52 140.52 46.9 165.74 42.01 196.01 38.89 182.33 51.58 164.32 65.37 147.58 76.32 129.32 86.51 112.91 94.25 109.86 95.48 94.47 64.28"/><path class="uuid-0671e80c-6a71-459d-8dab-d3931f9fbf1e" d="m90.02,66.43c2.52,5.04,5.03,10.09,7.55,15.13l18.13,36.32c7.27,14.56,14.54,29.13,21.81,43.69,6.31,12.65,12.63,25.3,18.94,37.96,2.07,4.15,4.14,8.3,6.21,12.45.99,1.98,1.9,4.02,2.97,5.96.04.08.08.17.12.25,1.44,2.88,5.75.35,4.32-2.52-2.52-5.04-5.03-10.09-7.55-15.13-6.04-12.11-12.08-24.21-18.13-36.32l-21.81-43.69c-6.31-12.65-12.63-25.3-18.94-37.96l-6.21-12.45c-.99-1.98-1.9-4.02-2.97-5.96-.04-.08-.08-.17-.12-.25-1.44-2.88-5.75-.35-4.32,2.52h0Z"/><line class="uuid-32b7d376-d725-492b-918c-5977b6cffcc0" x1="130.47" y1="49.44" x2="130.47" y2="49.44"/><line class="uuid-32b7d376-d725-492b-918c-5977b6cffcc0" x1="134.16" y1="48.47" x2="134.16" y2="48.47"/><line class="uuid-32b7d376-d725-492b-918c-5977b6cffcc0" x1="132.9" y1="48.94" x2="129.44" y2="49.72"/><path class="uuid-bbd31a80-bca9-43ac-826d-478a710e4e62" d="m65.89,131.9c-.59.19.04,1.85-.66,4.62-.63,2.53-1.55,2.74-1.54,4.4.01,1.74,1.04,4.14,3.08,4.62,1.6.38,3.15-.61,3.96-1.54,1.3-1.49,1.15-3.32,1.1-3.74-.13-1.14-.6-1.61-2.64-4.4-2.36-3.21-2.86-4.11-3.3-3.96Z"/><path class="uuid-bbd31a80-bca9-43ac-826d-478a710e4e62" d="m63.35,172.23c-.59.19.04,1.85-.66,4.62-.63,2.53-1.55,2.74-1.54,4.4.01,1.74,1.04,4.14,3.08,4.62,1.6.38,3.15-.61,3.96-1.54,1.3-1.49,1.15-3.32,1.1-3.74-.13-1.14-.6-1.61-2.64-4.4-2.36-3.21-2.86-4.11-3.3-3.96Z"/><path class="uuid-bbd31a80-bca9-43ac-826d-478a710e4e62" d="m39.14,150.19c-.59.19.04,1.85-.66,4.62-.63,2.53-1.55,2.74-1.54,4.4.01,1.74,1.04,4.14,3.08,4.62,1.6.38,3.15-.61,3.96-1.54,1.3-1.49,1.15-3.32,1.1-3.74-.13-1.14-.6-1.61-2.64-4.4-2.36-3.21-2.86-4.11-3.3-3.96Z"/><path class="uuid-bbd31a80-bca9-43ac-826d-478a710e4e62" d="m55.94,150.19c-.59.19.04,1.85-.66,4.62-.63,2.53-1.55,2.74-1.54,4.4.01,1.74,1.04,4.14,3.08,4.62,1.6.38,3.15-.61,3.96-1.54,1.3-1.49,1.15-3.32,1.1-3.74-.13-1.14-.6-1.61-2.64-4.4-2.36-3.21-2.86-4.11-3.3-3.96Z"/><path class="uuid-bbd31a80-bca9-43ac-826d-478a710e4e62" d="m52.37,187.87c-.59.19.04,1.85-.66,4.62-.63,2.53-1.55,2.74-1.54,4.4.01,1.74,1.04,4.14,3.08,4.62,1.6.38,3.15-.61,3.96-1.54,1.3-1.49,1.15-3.32,1.1-3.74-.13-1.14-.6-1.61-2.64-4.4-2.36-3.21-2.86-4.11-3.3-3.96Z"/><path class="uuid-bbd31a80-bca9-43ac-826d-478a710e4e62" d="m76.57,204.47c4.8.27-.29,2.54,5.39,6.34,5.18,3.47,12.69,3.77,12.58,6.04-.12,2.38-8.53,5.69-25.15,6.34-13.09.52-25.69-.83-32.34-2.11-10.61-2.04-9.37-4.56-8.98-5.13,1.05-1.56,4.86-2.21,21.56-6.04,19.26-4.41,23.33-5.64,26.95-5.44Z"/><path class="uuid-bbd31a80-bca9-43ac-826d-478a710e4e62" d="m38.19,179.1c-.59.19.04,1.85-.66,4.62-.63,2.53-1.55,2.74-1.54,4.4.01,1.74,1.04,4.14,3.08,4.62,1.6.38,3.15-.61,3.96-1.54,1.3-1.49,1.15-3.32,1.1-3.74-.13-1.14-.6-1.61-2.64-4.4-2.36-3.21-2.86-4.11-3.3-3.96Z"/><path class="uuid-bbd31a80-bca9-43ac-826d-478a710e4e62" d="m43.22,121.29c-.59.19.04,1.85-.66,4.62-.63,2.53-1.55,2.74-1.54,4.4.01,1.74,1.04,4.14,3.08,4.62,1.6.38,3.15-.61,3.96-1.54,1.3-1.49,1.15-3.32,1.1-3.74-.13-1.14-.6-1.61-2.64-4.4-2.36-3.21-2.86-4.11-3.3-3.96Z"/><line class="uuid-133d47bf-af55-4a9a-aa3b-9f1f42a40e39" x1="82.88" y1="340.49" x2="83.88" y2="340.49"/><line class="uuid-133d47bf-af55-4a9a-aa3b-9f1f42a40e39" x1="290.17" y1="246.84" x2="291.17" y2="246.84"/><line class="uuid-365d8596-b8ff-42b1-88d4-0145513a8c76" x1="46.45" y1="288.11" x2="314.89" y2="147.86"/><path class="uuid-203a3ef9-d4a9-4ec6-ae60-7233fd091fb8" d="m50.24,294.58c30.37-15.87,60.74-31.73,91.1-47.6,48.04-25.1,96.09-50.2,144.13-75.3,11.07-5.78,22.13-11.56,33.2-17.35,8.56-4.47.98-17.42-7.57-12.95-30.37,15.87-60.74,31.73-91.1,47.6-48.04,25.1-96.09,50.2-144.13,75.3-11.07,5.78-22.13,11.56-33.2,17.35-8.56,4.47-.98,17.42,7.57,12.95h0Z"/><line class="uuid-365d8596-b8ff-42b1-88d4-0145513a8c76" x1="7.55" y1="222.12" x2="282.94" y2="78.24"/><path class="uuid-203a3ef9-d4a9-4ec6-ae60-7233fd091fb8" d="m11.33,228.59c31.1-16.25,62.2-32.5,93.3-48.75,49.37-25.79,98.74-51.59,148.11-77.38,11.33-5.92,22.65-11.83,33.98-17.75,8.56-4.47.98-17.42-7.57-12.95-31.1,16.25-62.2,32.5-93.3,48.75-49.37,25.79-98.74,51.59-148.11,77.38-11.33,5.92-22.65,11.83-33.98,17.75-8.56,4.47-.98,17.42,7.57,12.95h0Z"/><text class="uuid-6f732f65-767a-46ab-a9b5-1396872e0c66" transform="translate(27.79 270.24) rotate(-27.58) scale(.94 1)"><tspan x="0" y="0">BEST IN CLASS</tspan></text></svg>