<?xml version="1.0" encoding="UTF-8"?><svg id="uuid-af245ec0-43d4-4734-9ec7-d2efac5efadf" xmlns="http://www.w3.org/2000/svg" width="338.11" height="493.98" viewBox="0 0 338.11 493.98"><defs><style>.uuid-08ad2020-c6e9-4684-9362-5803d90b258a{stroke-width:3px;}.uuid-08ad2020-c6e9-4684-9362-5803d90b258a,.uuid-16f1db60-f3a2-49c7-9bd6-2c36f4d5fcc1,.uuid-f1680ae8-48d7-41f0-9a4b-297ff40449e6,.uuid-3a5a2dc4-36e9-40df-afc9-97564277fb13,.uuid-ef496125-1d5e-49a7-8762-14983ed05bfd,.uuid-bc98591b-ecb8-461a-945b-e00efb57e539,.uuid-5cd737f2-fc11-4844-8e80-0f689e860087,.uuid-b4640c51-f6b7-4572-b68a-0f3c66609b02,.uuid-54f7b773-004a-485f-9a55-913aeb298979,.uuid-75e54a63-90dc-4b42-995a-c618e390dbdd,.uuid-9e1ac64d-9846-43dd-9457-018ac1380292,.uuid-3df17c78-d091-4797-9a96-bfc93e07e2e6,.uuid-8c535d77-8bca-4831-aaf6-49cc770b313c,.uuid-27b67672-1d68-477d-81b2-4b177eb2c2ee,.uuid-4a59fce9-2384-4fa0-a549-108a44ba36bc,.uuid-f184ed4e-95ee-44a4-9191-9924baaaa421,.uuid-360f1b9d-e85a-4a69-94e7-d27d38be369a,.uuid-d85bd537-4960-4f5c-9541-7cbec01c7821,.uuid-892090bc-43a8-443f-b343-f7291b772065,.uuid-dfe7794f-008b-42f9-aede-eb357dbcb46b,.uuid-a44f45a9-30ef-4506-8230-3986fcab1cce,.uuid-45e5ee53-129e-4b42-a554-1dd996907996,.uuid-285f0c16-e25a-4ceb-96cd-dc40b3cceb9f,.uuid-fe74124b-cadf-4579-8800-df36b0b97a94,.uuid-b606eab8-93d8-48cc-9b48-978e2fadf7c1,.uuid-43389c35-995b-44da-9506-519051a0e40a,.uuid-29d7efec-bc80-4c56-9960-e7fb8bd81449,.uuid-f717756a-a695-4cf2-8052-f65f06f29c6c,.uuid-5a8a2ff8-dd08-4289-b042-a89f38a87261,.uuid-8aa86691-e634-40f5-a187-9734a0797951,.uuid-557d45cd-0692-4aab-9b5c-0e22d9c5b229,.uuid-eb9deba1-b8f3-4c1b-9c4e-5b8186cee88b,.uuid-2bd33ea3-d6a7-42c8-8684-fcdfcf4108f4{stroke-miterlimit:10;}.uuid-08ad2020-c6e9-4684-9362-5803d90b258a,.uuid-16f1db60-f3a2-49c7-9bd6-2c36f4d5fcc1,.uuid-8c535d77-8bca-4831-aaf6-49cc770b313c,.uuid-892090bc-43a8-443f-b343-f7291b772065,.uuid-dfe7794f-008b-42f9-aede-eb357dbcb46b,.uuid-a44f45a9-30ef-4506-8230-3986fcab1cce,.uuid-45e5ee53-129e-4b42-a554-1dd996907996,.uuid-285f0c16-e25a-4ceb-96cd-dc40b3cceb9f,.uuid-fe74124b-cadf-4579-8800-df36b0b97a94,.uuid-b606eab8-93d8-48cc-9b48-978e2fadf7c1,.uuid-43389c35-995b-44da-9506-519051a0e40a,.uuid-8aa86691-e634-40f5-a187-9734a0797951,.uuid-557d45cd-0692-4aab-9b5c-0e22d9c5b229,.uuid-eb9deba1-b8f3-4c1b-9c4e-5b8186cee88b,.uuid-2bd33ea3-d6a7-42c8-8684-fcdfcf4108f4{fill:none;}.uuid-08ad2020-c6e9-4684-9362-5803d90b258a,.uuid-f1680ae8-48d7-41f0-9a4b-297ff40449e6,.uuid-ef496125-1d5e-49a7-8762-14983ed05bfd,.uuid-f184ed4e-95ee-44a4-9191-9924baaaa421,.uuid-d85bd537-4960-4f5c-9541-7cbec01c7821,.uuid-892090bc-43a8-443f-b343-f7291b772065,.uuid-a44f45a9-30ef-4506-8230-3986fcab1cce,.uuid-285f0c16-e25a-4ceb-96cd-dc40b3cceb9f,.uuid-43389c35-995b-44da-9506-519051a0e40a,.uuid-eb9deba1-b8f3-4c1b-9c4e-5b8186cee88b{stroke:#221f20;}.uuid-16f1db60-f3a2-49c7-9bd6-2c36f4d5fcc1{stroke-width:15px;}.uuid-16f1db60-f3a2-49c7-9bd6-2c36f4d5fcc1,.uuid-54f7b773-004a-485f-9a55-913aeb298979,.uuid-9e1ac64d-9846-43dd-9457-018ac1380292,.uuid-b606eab8-93d8-48cc-9b48-978e2fadf7c1,.uuid-8aa86691-e634-40f5-a187-9734a0797951,.uuid-2bd33ea3-d6a7-42c8-8684-fcdfcf4108f4{stroke:#d83832;}.uuid-f1680ae8-48d7-41f0-9a4b-297ff40449e6,.uuid-3a5a2dc4-36e9-40df-afc9-97564277fb13,.uuid-ef496125-1d5e-49a7-8762-14983ed05bfd,.uuid-bc98591b-ecb8-461a-945b-e00efb57e539,.uuid-892090bc-43a8-443f-b343-f7291b772065,.uuid-dfe7794f-008b-42f9-aede-eb357dbcb46b{stroke-width:2px;}.uuid-f1680ae8-48d7-41f0-9a4b-297ff40449e6,.uuid-f184ed4e-95ee-44a4-9191-9924baaaa421{fill:#59b277;}.uuid-3a5a2dc4-36e9-40df-afc9-97564277fb13{fill:#dd5f36;stroke:#dd5f36;}.uuid-ef496125-1d5e-49a7-8762-14983ed05bfd{fill:#d83745;}.uuid-bc98591b-ecb8-461a-945b-e00efb57e539,.uuid-f717756a-a695-4cf2-8052-f65f06f29c6c{fill:#d3373d;stroke:#d3373d;}.uuid-5cd737f2-fc11-4844-8e80-0f689e860087{fill:#e68d3d;stroke:#e68d3d;}.uuid-5cd737f2-fc11-4844-8e80-0f689e860087,.uuid-9e1ac64d-9846-43dd-9457-018ac1380292,.uuid-3df17c78-d091-4797-9a96-bfc93e07e2e6,.uuid-eb9deba1-b8f3-4c1b-9c4e-5b8186cee88b,.uuid-2bd33ea3-d6a7-42c8-8684-fcdfcf4108f4{stroke-width:.5px;}.uuid-b4640c51-f6b7-4572-b68a-0f3c66609b02{fill:#af312e;}.uuid-b4640c51-f6b7-4572-b68a-0f3c66609b02,.uuid-54f7b773-004a-485f-9a55-913aeb298979,.uuid-75e54a63-90dc-4b42-995a-c618e390dbdd,.uuid-8aa86691-e634-40f5-a187-9734a0797951,.uuid-557d45cd-0692-4aab-9b5c-0e22d9c5b229{stroke-width:.25px;}.uuid-b4640c51-f6b7-4572-b68a-0f3c66609b02,.uuid-557d45cd-0692-4aab-9b5c-0e22d9c5b229{stroke:#af312e;}.uuid-54f7b773-004a-485f-9a55-913aeb298979,.uuid-9e1ac64d-9846-43dd-9457-018ac1380292{fill:#d83832;}.uuid-75e54a63-90dc-4b42-995a-c618e390dbdd,.uuid-27b67672-1d68-477d-81b2-4b177eb2c2ee{fill:#87539a;stroke:#87539a;}.uuid-3df17c78-d091-4797-9a96-bfc93e07e2e6{fill:#e3833b;stroke:#e3833b;}.uuid-8c535d77-8bca-4831-aaf6-49cc770b313c{stroke:#070505;}.uuid-8c535d77-8bca-4831-aaf6-49cc770b313c,.uuid-29d7efec-bc80-4c56-9960-e7fb8bd81449,.uuid-f717756a-a695-4cf2-8052-f65f06f29c6c,.uuid-5a8a2ff8-dd08-4289-b042-a89f38a87261{stroke-width:.75px;}.uuid-4a59fce9-2384-4fa0-a549-108a44ba36bc{fill:#8acbdc;stroke:#8acbdc;}.uuid-360f1b9d-e85a-4a69-94e7-d27d38be369a{fill:#188db5;}.uuid-360f1b9d-e85a-4a69-94e7-d27d38be369a,.uuid-45e5ee53-129e-4b42-a554-1dd996907996{stroke:#198db5;}.uuid-d85bd537-4960-4f5c-9541-7cbec01c7821{fill:#116a3f;}.uuid-dfe7794f-008b-42f9-aede-eb357dbcb46b{stroke:#d53363;}.uuid-a44f45a9-30ef-4506-8230-3986fcab1cce{stroke-width:4px;}.uuid-fe74124b-cadf-4579-8800-df36b0b97a94,.uuid-5a8a2ff8-dd08-4289-b042-a89f38a87261{stroke:#000;}.uuid-43389c35-995b-44da-9506-519051a0e40a{stroke-width:8px;}.uuid-29d7efec-bc80-4c56-9960-e7fb8bd81449{stroke:#c63531;}.uuid-29d7efec-bc80-4c56-9960-e7fb8bd81449,.uuid-4b9ecc42-baa0-4233-a744-60120d38874c{fill:#b7332f;}.uuid-4b9ecc42-baa0-4233-a744-60120d38874c{stroke-width:0px;}.uuid-5a8a2ff8-dd08-4289-b042-a89f38a87261{fill:#c93f3f;}</style></defs><line class="uuid-54f7b773-004a-485f-9a55-913aeb298979" x1="64.43" y1="394.23" x2="66.57" y2="396.57"/><path class="uuid-eb9deba1-b8f3-4c1b-9c4e-5b8186cee88b" d="m123.1,298.4c-.12.08-.49.36-.61.85-.15.61.14,1.24.62,1.57.46.31.95.27,1.11.25.14-.01.62-.07,1.02-.46.08-.08.56-.57.46-1.28-.11-.81-.86-1.16-.9-1.18-.56-.25-1.22-.15-1.71.24Z"/><path class="uuid-d85bd537-4960-4f5c-9541-7cbec01c7821" d="m62.25,145.37c-25.19,13.9-38.12,34.01-42.72,42-17.53,30.48-21.39,71.77-10.18,76.8,3.22,1.45,6.86-.48,36.07-23.75,26.21-20.88,29.98-24.67,48.6-39.54,14.75-11.78,28.79-24.42,43.72-35.98,14.63-11.32,19.54-14.42,18.88-18.73-1.6-10.43-34.16-17.23-61.88-12.48-3.28.56-16.85,3.06-32.49,11.68Z"/><line class="uuid-a44f45a9-30ef-4506-8230-3986fcab1cce" x1="41.41" y1="143.35" x2="49.5" y2="153.44"/><line class="uuid-08ad2020-c6e9-4684-9362-5803d90b258a" x1="39.89" y1="173.29" x2="66.64" y2="212.82"/><line class="uuid-892090bc-43a8-443f-b343-f7291b772065" x1="73.11" y1="147.25" x2="137.73" y2="164.91"/><line class="uuid-892090bc-43a8-443f-b343-f7291b772065" x1="15.21" y1="218.82" x2="27.57" y2="250.17"/><path class="uuid-f184ed4e-95ee-44a4-9191-9924baaaa421" d="m156.49,148.17c-4.55,14.83-12.92,34.78-28.96,54.44-40.1,49.14-97.95,59.42-114.83,61.81"/><polyline class="uuid-f1680ae8-48d7-41f0-9a4b-297ff40449e6" points="11.79 264.45 37.88 243.63 75.74 213.33 110.25 185.75 131.18 168.36 156.2 148.93"/><path class="uuid-ef496125-1d5e-49a7-8762-14983ed05bfd" d="m124.25,225.88c-1.12-1.68-4.3-5.94-9.94-7.48-7.54-2.06-16.37,1.56-21.69,9.24l2.4,5.85-2.4,1.01-2.34-5.97"/><line class="uuid-892090bc-43a8-443f-b343-f7291b772065" x1="89.85" y1="228.81" x2="92.82" y2="227.7"/><polygon class="uuid-3a5a2dc4-36e9-40df-afc9-97564277fb13" points="91.42 229.23 92.49 228.8 94.01 232.94 92.89 233.51 91.42 229.23"/><path class="uuid-bc98591b-ecb8-461a-945b-e00efb57e539" d="m122.76,227.53c.42-1.03,1.34-2.88,3.27-4.48.74-.61,1.98-1.64,3.89-2.07.36-.08,4.89-1.03,7.43,1.98.2.24,1.82,2.22,1.33,4.65-.44,2.2-2.33,3.41-3.89,4.39-3.05,1.91-4.44,1.39-9.73,3.1-2.46.8-4.94,1.62-7.7,3.36-3.4,2.15-5,4.31-5.22,4.14-.25-.19,1.51-3.04,10.29-14.68"/><line class="uuid-dfe7794f-008b-42f9-aede-eb357dbcb46b" x1="122.23" y1="227.62" x2="122.85" y2="226.81"/><path class="uuid-eb9deba1-b8f3-4c1b-9c4e-5b8186cee88b" d="m136.06,221.39c.12.88.29,2.98-.9,5.11-2.25,4.05-7.24,4.41-7.6,4.43"/><path class="uuid-285f0c16-e25a-4ceb-96cd-dc40b3cceb9f" d="m115.5,242.18c-.56-.69-1.06-.74-1.22-.74-1.25-.05-2.53,1.76-2.36,3.21.05.44.27.83.72,1.6.49.85.98,1.48,1.33,1.9"/><path class="uuid-285f0c16-e25a-4ceb-96cd-dc40b3cceb9f" d="m114.6,242.64c-.6-.12-1.2.12-1.51.59-.39.58-.14,1.23-.11,1.29"/><line class="uuid-285f0c16-e25a-4ceb-96cd-dc40b3cceb9f" x1="113.09" y1="243.23" x2="113.94" y2="243.8"/><path class="uuid-8c535d77-8bca-4831-aaf6-49cc770b313c" d="m129.95,234.69c1.32,3.42,1.27,6.01.94,7.8-.51,2.77-1.91,4.76-.94,6.22.81,1.22,2.4.76,2.82,1.95.39,1.11-.52,2.88-1.76,3.66-.97.61-1.92.47-2.11,1.1-.13.43.25.74.47,1.34.51,1.43-.26,3.48-1.41,4.27-.79.55-1.81.52-4.7-.49-1.89-.66-4.45-1.68-7.4-3.29"/><polyline class="uuid-8c535d77-8bca-4831-aaf6-49cc770b313c" points="118.63 258.66 118.63 264.07 112.87 266.54 106.4 265.21 102.49 262.6 98 266.54 99.95 269.74 107.27 270.92"/><path class="uuid-8c535d77-8bca-4831-aaf6-49cc770b313c" d="m121.72,270.21c1.22.57.21,2.05,1.22,3.03,0,.49-.5.98-1.01,1.47-3.03.98-6.06,1.47-9.08,1.47-5.05.49-10.09,0-14.63-1.97-2.02-.49-3.53-2.95-5.05-4.91-.5-.49,0-.98.5-1.47,2.02-2.46,4.04-4.42,6.56-5.9.5-.49,2.02.49,2.85,1.07l2.06-6.23,1.07-.76,1.05-.47"/><line class="uuid-8c535d77-8bca-4831-aaf6-49cc770b313c" x1="122.54" y1="270.33" x2="118.63" y2="264.07"/><path class="uuid-8c535d77-8bca-4831-aaf6-49cc770b313c" d="m109.61,272.4c.78-.91,1.99-2.04,3.37-1.93,1.47.11,1.96,1.54,3.57,2.12,1.06.39,2.78.47,5.55-1.16"/><path class="uuid-f717756a-a695-4cf2-8052-f65f06f29c6c" d="m112.25,242c-.5.61-1.1,1.45-1.61,2.47-.43.86-1.42,2.94-.98,5.38.48,2.67,2.12,2.63,1.95,4.95-.17,2.29-1.84,3.45-2.41,3.8-.4.25-.78.44-1.06.56"/><path class="uuid-f717756a-a695-4cf2-8052-f65f06f29c6c" d="m97.1,231.79c-.31.47-5.06,7.86-.81,15.49,3.39,6.1,10.03,7.85,11.12,8.12l2.24-4.82-.47-3.67.23.42,1.25-3.43,1.9-3.11,5.12-7.26,5.26-6.84v-.84l-16.37,1.14-12.54,1-.58.29.79,1.96,1.52,3.7"/><path class="uuid-bc98591b-ecb8-461a-945b-e00efb57e539" d="m95.7,233.32c-1.5,4.67-1.42,7.99.13,8.77.11.06.27.11.5.09,1.93-.18,5.56-5.31,8.64-10.18"/><path class="uuid-5a8a2ff8-dd08-4289-b042-a89f38a87261" d="m91.85,234.58c-1.39,1.07-2.79,2.46-3.94,4.25-3.91,6.08-1.92,13.75-.55,19.34,1.26,5.15,2.16,5.41,2.89,10,.62,3.89.53,7.15.16,11.25-.8,8.93-1.58,17.6-5.94,28.28-2.35,5.78-6.39,13.7-7.67,13.28-2.15-.71,10.98-22.75,1.8-39.29-3.91-7.04-9.76-9.29-11.52-18.59-1.19-6.24.15-12.06.57-13.8.74-3.09,1.79-7.51,5.15-11.63,5.67-6.96,14.15-8.49,17.05-8.88"/><polygon class="uuid-29d7efec-bc80-4c56-9960-e7fb8bd81449" points="89.8 229.15 91.85 234.15 90.29 235.5 87.66 238.5 86.2 240.91 85.33 245.94 85.71 254.85 87.17 258.98 89.57 266.14 90.43 273.04 89.98 280.82 88.9 290.64 87.06 299.29 83.28 267.2 81.99 266.53 81.42 264.22 83.61 261.56 81.58 257.92 77.57 256.66 76.79 253.3 79.42 247.37 79.8 239 80.89 236 89.8 229.15"/><polygon class="uuid-29d7efec-bc80-4c56-9960-e7fb8bd81449" points="93.44 228.25 100.42 230.93 104.96 246.04 107.27 242 105.93 238.88 110.19 236.12 124.25 232 124.36 235.34 124.36 235.84 120.59 237.15 117.17 239.16 114.6 241.11 112.25 241.26 111.69 242.18 111.57 244.79 109.97 250.95 107.27 255.53 104.96 254.81 93.44 228.25"/><polygon class="uuid-4b9ecc42-baa0-4233-a744-60120d38874c" points="105.5 255.17 102.51 253.64 98.73 250.83 96.64 248.47 94.84 245.14 94.08 242.66 93.64 238.79 94.69 235.33 95.58 233.06 95.74 232.46 95.02 231.33 93.51 227.28 96.66 233.5 106.07 255.21 105.5 255.17"/><polyline class="uuid-285f0c16-e25a-4ceb-96cd-dc40b3cceb9f" points="94.62 271.23 92.96 278.86 91.34 289.23 94.62 318.7"/><path class="uuid-285f0c16-e25a-4ceb-96cd-dc40b3cceb9f" d="m94.62,318.7c2.52-2.31,7.83-7.86,9.67-16.5,3.48-16.37-8.69-28.85-9.87-30.03"/><path class="uuid-285f0c16-e25a-4ceb-96cd-dc40b3cceb9f" d="m94.62,318.7c-5.57,3.69-11.14,7.39-16.71,11.08"/><path class="uuid-285f0c16-e25a-4ceb-96cd-dc40b3cceb9f" d="m77.91,329.78c1.63,2.65,3.46,6.62,3.63,11.55.48,14.22-16.5,25.17-16.46,25.22.05.05,18.39-8.88,28.56-25.69,3.89-6.43,2.92-8,9.92-20.74,4.74-8.63,6.2-9.77,8.23-14.14,2.87-6.2,5.43-15.76,3.15-29.94"/><polyline class="uuid-285f0c16-e25a-4ceb-96cd-dc40b3cceb9f" points="100.16 326.43 110.68 335.02 112.25 336.3 116.11 331.13 114.8 329.77 111.01 334.7 111.06 334.47"/><line class="uuid-285f0c16-e25a-4ceb-96cd-dc40b3cceb9f" x1="114.92" y1="330.05" x2="104.91" y2="317.7"/><path class="uuid-892090bc-43a8-443f-b343-f7291b772065" d="m110.98,326.43c-1.31.89-2.63,1.78-3.94,2.67"/><path class="uuid-892090bc-43a8-443f-b343-f7291b772065" d="m106.67,320.16c.11.17,1.04,1.67.36,3.19-.26.59-.68.98-.97,1.2"/><path class="uuid-892090bc-43a8-443f-b343-f7291b772065" d="m107.12,276.29c1.22,2.85,2.76,7.37,2.96,13.05.31,8.51-2.55,14.88-4.57,19.39-1.57,3.5-4.21,8.41-8.61,13.62"/><line class="uuid-892090bc-43a8-443f-b343-f7291b772065" x1="115.77" y1="288.38" x2="125.71" y2="283.22"/><path class="uuid-892090bc-43a8-443f-b343-f7291b772065" d="m121.93,274.71c3.01,1.42,9.39,4.63,8.86,6.77-.16.63-1.04,1.67-5.92,2.02"/><path class="uuid-892090bc-43a8-443f-b343-f7291b772065" d="m130.06,280.18c2.64,1.35,4.3,4.57,4.12,8-.17,3.33-2.03,6.22-4.67,7.25"/><line class="uuid-892090bc-43a8-443f-b343-f7291b772065" x1="130.35" y1="295.04" x2="126.26" y2="316.68"/><path class="uuid-892090bc-43a8-443f-b343-f7291b772065" d="m129.85,295.29c-.99.22-2.02.42-3.08.6-.63.11-1.24.2-1.85.29"/><line class="uuid-a44f45a9-30ef-4506-8230-3986fcab1cce" x1="86.71" y1="204.61" x2="98.58" y2="220.78"/><line class="uuid-a44f45a9-30ef-4506-8230-3986fcab1cce" x1="128.76" y1="260.74" x2="148.8" y2="290.36"/><path class="uuid-892090bc-43a8-443f-b343-f7291b772065" d="m125.32,296.18c-1.29-.22-2.58-.43-3.88-.65"/><path class="uuid-eb9deba1-b8f3-4c1b-9c4e-5b8186cee88b" d="m123.1,298.4c-.12.08-.49.36-.61.85-.15.61.14,1.24.62,1.57.46.31.95.27,1.11.25.14-.01.62-.07,1.02-.46.08-.08.56-.57.46-1.28-.11-.81-.86-1.16-.9-1.18-.56-.25-1.22-.15-1.71.24Z"/><path class="uuid-eb9deba1-b8f3-4c1b-9c4e-5b8186cee88b" d="m123.38,306.64c-.12.08-.49.36-.61.85-.15.61.14,1.24.62,1.57.46.31.95.27,1.11.25.14-.01.62-.07,1.02-.46.08-.08.56-.57.46-1.28-.11-.81-.86-1.16-.9-1.18-.56-.25-1.22-.15-1.71.24Z"/><path class="uuid-eb9deba1-b8f3-4c1b-9c4e-5b8186cee88b" d="m129.55,299.17c3.9-1.16,7.81-2.33,11.71-3.49"/><path class="uuid-eb9deba1-b8f3-4c1b-9c4e-5b8186cee88b" d="m141.26,295.98c.82,2.17,1.64,4.34,2.46,6.5l-15.2,5.31"/><polygon class="uuid-285f0c16-e25a-4ceb-96cd-dc40b3cceb9f" points="141.06 295.86 141.26 295.29 142.48 294.61 143.43 294.61 144.08 296.53 145.44 299.05 146.67 300.69 147.74 301.89 147.74 303.33 146.79 304.17 145.03 303.81 144.4 303.29 143.72 302.49 141.06 295.86"/><polyline class="uuid-285f0c16-e25a-4ceb-96cd-dc40b3cceb9f" points="145.74 296.89 144.17 295.73 144.51 295.08 146.04 292.18 149.08 292.68 149.58 293.37 149.38 293.82 147.74 293.37 146.64 293.22"/><polyline class="uuid-285f0c16-e25a-4ceb-96cd-dc40b3cceb9f" points="146.88 300.88 150.46 299.34 152.97 298.43 154.2 296.53 149.33 293.82"/><path class="uuid-eb9deba1-b8f3-4c1b-9c4e-5b8186cee88b" d="m147.43,289.94c.26-.15,1.06-.54,1.81-.28.02,0,.13.04.23.1.74.41,1.34,1.74.97,2.88-.25.78-1.08,1.88-1.46,2.38-.08.1-.26.34-.2.61.08.32.49.58.81.61.97.09,2.26-1.85,2.47-3.73.09-.82.22-2.03-.7-2.75-1.01-.79-2.49-.39-2.65-.34"/><path class="uuid-eb9deba1-b8f3-4c1b-9c4e-5b8186cee88b" d="m150.67,289.43c.92,0,1.4.38,1.61.6,1.35,1.43.73,5.4-1.03,6.23-.28.13-.83.3-1.66-.01"/><path class="uuid-eb9deba1-b8f3-4c1b-9c4e-5b8186cee88b" d="m152.98,291.15c.18.15.46.42.68.81,1.1,2.02-.89,4.95-1.52,4.83-.13-.03-.29-.2-.36-.87"/><path class="uuid-eb9deba1-b8f3-4c1b-9c4e-5b8186cee88b" d="m153.97,293.04c.14.09.37.27.53.56.31.6.02,1.21-.06,1.38-.07.13-.32.67-.94.9-.16.06-.3.08-.4.09"/><path class="uuid-eb9deba1-b8f3-4c1b-9c4e-5b8186cee88b" d="m123.1,298.4c-.12.08-.49.36-.61.85-.15.61.14,1.24.62,1.57.46.31.95.27,1.11.25.14-.01.62-.07,1.02-.46.08-.08.56-.57.46-1.28-.11-.81-.86-1.16-.9-1.18-.56-.25-1.22-.15-1.71.24Z"/><line class="uuid-43389c35-995b-44da-9506-519051a0e40a" x1="144.89" y1="284.58" x2="150.09" y2="292.26"/><path class="uuid-43389c35-995b-44da-9506-519051a0e40a" d="m152.8,296.21l2.72,4.02c.02.15.32,1.81,1.61,2.61,1.34.83,2.78.11,3.4-.65,1.04-1.28.71-3.88-1.07-6.2"/><line class="uuid-08ad2020-c6e9-4684-9362-5803d90b258a" x1="118.65" y1="329.36" x2="111.18" y2="338.74"/><path class="uuid-892090bc-43a8-443f-b343-f7291b772065" d="m106.67,314.84c.42,1.3.83,2.61,1.25,3.91"/><line class="uuid-285f0c16-e25a-4ceb-96cd-dc40b3cceb9f" x1="107.7" y1="317.15" x2="112.51" y2="318.75"/><line class="uuid-892090bc-43a8-443f-b343-f7291b772065" x1="126.26" y1="316.71" x2="127.38" y2="333.1"/><line class="uuid-892090bc-43a8-443f-b343-f7291b772065" x1="127.38" y1="333.1" x2="143.72" y2="400.72"/><path class="uuid-892090bc-43a8-443f-b343-f7291b772065" d="m143.72,400.1c-11.57,7.8-18.77,7.83-23.23,6.34-5.37-1.79-6.96-5.82-10.86-5.29-6.78.92-6.35,13.69-13.82,15.63-5.14,1.33-10.96-3.25-17.53-8.41-5.63-4.43-6.33-6.58-9.38-8.9-4.88-3.7-13.8-6.33-31.56-1.08"/><line class="uuid-892090bc-43a8-443f-b343-f7291b772065" x1="37.33" y1="398.4" x2="81.49" y2="343.26"/><polygon class="uuid-fe74124b-cadf-4579-8800-df36b0b97a94" points="68.48 398.4 58.54 425.95 57.48 427.14 55.95 427.75 53.51 428.51 52.06 429.82 51.16 431.13 50.73 432.64 51.64 434.57 53.28 437.08 55 440.27 55.78 443.83 56.02 448.07 55.76 449.39 56.34 450.34 58.95 451.35 64.04 452.63 66.3 453.18 67.88 452.96 69.11 451.86 69.39 449.94 68.13 448.15 65.99 447.15 63.92 445.81 64.57 443.59 67.53 436.27 70.7 427.21 71.17 424.76 67.23 427.15 66.21 427.65 72.54 423.55 75.01 418.52 78.32 411.75 79.42 409.89 68.48 398.4"/><polyline class="uuid-fe74124b-cadf-4579-8800-df36b0b97a94" points="50.68 432.97 49.32 433.94 48.97 434.9 49.08 436.5 50.13 438.6 51.19 440.75 52.51 441.88 53.81 442.69 54.47 443.7 54.63 446.13 53.93 449.99 53.78 452.1 54.08 453.19 55.99 454.24 59.23 454.87 62.37 455.72 65.61 456.24 66.77 455.95 67.52 454.74 67.89 454 67.84 453.22"/><polyline class="uuid-fe74124b-cadf-4579-8800-df36b0b97a94" points="105.33 411.61 103.85 412.39 104.59 415.6 106.24 422.81 107.83 428.79 108.4 432.12 108.4 434.11 109.2 437.99 113.97 443.53 110.33 439.99 111.16 444.31 111.48 447.93 111.23 451.49 111.29 455.61 112.19 457.68 114.24 458.55 117.96 458.11 122.39 457.36 123.77 457.11 125.85 457.36 129.44 457.8 134.57 457.05 138.62 456.11 141.18 454.49 141.69 453.3 141.25 452.24 139.45 451.49 136.69 451.3 132.97 451.49 131.05 450.49 128.99 448.55 126.36 446.3 122.32 443.37 121.23 442.06 120.33 437.68 117.9 440.81 120.53 436.71 121.3 434.68 121.3 431.31 120.27 424.69 119.82 419.38 119.63 415.63 119.95 411.61 119.82 410.63 118.92 410.17 118.09 410.17 118.02 411.63 118.11 412.22 119.59 411.74 118.37 412.38 115.62 413.18 108.63 413.7 105.12 413.62 104.16 412.97 103.97 412.47"/><line class="uuid-fe74124b-cadf-4579-8800-df36b0b97a94" x1="104.44" y1="405.63" x2="106.48" y2="413.65"/><polyline class="uuid-fe74124b-cadf-4579-8800-df36b0b97a94" points="112.46 457.9 112.99 461.56 113.87 461.9 116.93 462.19 119.75 462.19 121.75 461.85 122.34 461.11 122.53 460.31 122.53 458.8 122.69 458.29 123.26 458.17 124.33 458.17 125.24 458.19 126.22 458.23 126.92 458.35 127.21 458.78 127.61 459.33 128.05 459.88 128.81 460.35 129.56 460.72 131.72 460.58 134.77 459.94 138.36 459.13 140.55 458.02 141.24 456.55 141.39 455.08 141.39 454.02"/><polygon class="uuid-8aa86691-e634-40f5-a187-9734a0797951" points="104.34 413.39 104.66 414.85 105.21 417.21 106 420.62 107.25 425.69 108.06 428.69 108.16 429.27 108.64 431.99 108.64 432.99 108.64 434.04 109.03 436.01 109.41 437.9 112.26 441.17 114.17 443.37 113.76 443.72 110.72 440.75 111.15 442.95 111.42 444.34 111.73 447.98 111.48 451.41 111.53 455.61 112.37 457.51 114.31 458.31 117.88 457.88 123.73 456.87 129.43 457.55 134.47 456.82 138.61 455.85 140.93 454.35 141.39 453.29 140.96 452.38 139.4 451.73 136.68 451.54 132.89 451.74 130.89 450.68 128.71 448.64 126.3 446.6 123.65 444.64 122.12 443.54 120.97 442.13 120.19 438.28 118.1 440.95 117.64 440.64 118.42 439.52 120.01 437.02 120.29 436.6 121.02 434.66 121.03 431.32 120.32 426.66 120 424.64 119.75 421.65 119.54 418.83 119.37 415.61 119.59 413.04 119.67 412 118.47 412.59 115.6 413.44 109.48 413.87 108.52 413.93 105.01 413.86 104.34 413.39"/><polyline class="uuid-16f1db60-f3a2-49c7-9bd6-2c36f4d5fcc1" points="111.71 414.13 113.15 423 115.17 432.71 115.01 435.84"/><polyline class="uuid-2bd33ea3-d6a7-42c8-8684-fcdfcf4108f4" points="107.95 414.68 115.23 413.65 113.38 413.76 109.94 414.13 107.78 414.52 110.43 414.17 110.94 414.17 107.43 414.17 106.38 414.04 107.94 414.03 109.76 413.98 111.1 413.87 113.28 413.65"/><polyline class="uuid-b606eab8-93d8-48cc-9b48-978e2fadf7c1" points="104.67 413.91 105.15 414.68 105.69 416.6 105.5 417.6 105.69 418.26 106.04 419.41 106.49 421.12 106.92 423.15 107.35 425.28 107.99 427.37 108.62 429.22 108.89 431.67 109.02 433.96 109.1 435.09 109.51 436.98 109.67 437.68 110.49 438.68 112.24 440.47 113.49 442.07 114.42 442.96"/><path class="uuid-2bd33ea3-d6a7-42c8-8684-fcdfcf4108f4" d="m110.47,439l.12.06s.04.02.06.04.03.04.02.06c0,0-.01,0-.02-.01"/><path class="uuid-2bd33ea3-d6a7-42c8-8684-fcdfcf4108f4" d="m110.5,438.95s.09.06.14.1c.08.06.15.17.24.22"/><path class="uuid-2bd33ea3-d6a7-42c8-8684-fcdfcf4108f4" d="m111.04,439.59c.14.14.28.29.4.44,0,0-.01-.01-.02-.02.16.24.4.45.63.64"/><path class="uuid-2bd33ea3-d6a7-42c8-8684-fcdfcf4108f4" d="m112.16,440.73c.07.15.16.3.26.44"/><path class="uuid-2bd33ea3-d6a7-42c8-8684-fcdfcf4108f4" d="m112.29,440.78c-.14-.09-.29-.17-.44-.24.04.03.09.11.14.14.04.03.09.06.12.11.02.02.03.05.05.07,0,0-.01-.01-.02-.02"/><path class="uuid-2bd33ea3-d6a7-42c8-8684-fcdfcf4108f4" d="m112.37,441.09l.52.59s-.01-.02-.02-.03c.24.18.4.39.57.62,0,0-.01-.01-.02-.02.4.11.71.47.94.8"/><path class="uuid-2bd33ea3-d6a7-42c8-8684-fcdfcf4108f4" d="m113.93,442.97l.41.32"/><path class="uuid-2bd33ea3-d6a7-42c8-8684-fcdfcf4108f4" d="m109.45,437.81c.24.13.42.35.49.6,0,.01.02.02.02.02"/><path class="uuid-2bd33ea3-d6a7-42c8-8684-fcdfcf4108f4" d="m110.1,438.61s-.01-.1-.04-.14c-.03-.05-.08-.1-.09-.16"/><path class="uuid-2bd33ea3-d6a7-42c8-8684-fcdfcf4108f4" d="m108.69,431.48c-.03-.16-.02-.32-.05-.48-.02-.09-.06-.18-.08-.27-.03-.16-.02-.33-.01-.49s.04-.32,0-.48"/><path class="uuid-2bd33ea3-d6a7-42c8-8684-fcdfcf4108f4" d="m108.45,430.57c0-.12-.05-.24-.06-.36-.02-.39-.01-.78.02-1.17"/><path class="uuid-2bd33ea3-d6a7-42c8-8684-fcdfcf4108f4" d="m108.05,428.43v-.61"/><path class="uuid-2bd33ea3-d6a7-42c8-8684-fcdfcf4108f4" d="m105.38,417.38s-.02-.09-.03-.14c-.01-.04,0-.06,0-.1.01-.1,0-.2,0-.3,0-.13-.02-.23-.06-.35-.09-.33.01-.63-.11-.94-.11-.29-.24-.57-.4-.84-.07-.12-.13-.23-.17-.36"/><path class="uuid-2bd33ea3-d6a7-42c8-8684-fcdfcf4108f4" d="m105.29,416.96v-.43"/><path class="uuid-2bd33ea3-d6a7-42c8-8684-fcdfcf4108f4" d="m105.08,416.37v-.39s0-.09,0-.13c0,0,0,.01,0,.02"/><path class="uuid-2bd33ea3-d6a7-42c8-8684-fcdfcf4108f4" d="m105.01,415.83c-.01-.12-.02-.24-.02-.35,0-.05,0-.09,0-.14,0-.06-.01-.11-.01-.17"/><path class="uuid-2bd33ea3-d6a7-42c8-8684-fcdfcf4108f4" d="m105.03,415.95c0-.05,0-.1,0-.15"/><path class="uuid-2bd33ea3-d6a7-42c8-8684-fcdfcf4108f4" d="m104.96,415.38c-.02-.15-.09-.29-.09-.43"/><path class="uuid-2bd33ea3-d6a7-42c8-8684-fcdfcf4108f4" d="m104.9,415.5c-.01-.08-.02-.16-.02-.24"/><path class="uuid-2bd33ea3-d6a7-42c8-8684-fcdfcf4108f4" d="m104.77,414.98v-.34"/><path class="uuid-2bd33ea3-d6a7-42c8-8684-fcdfcf4108f4" d="m104.63,414.35v-.16"/><path class="uuid-2bd33ea3-d6a7-42c8-8684-fcdfcf4108f4" d="m104.7,414.09c-.04-.05-.14-.09-.14-.15,0-.07-.06-.13-.08-.19"/><path class="uuid-2bd33ea3-d6a7-42c8-8684-fcdfcf4108f4" d="m104.73,413.92c-.06-.04-.13-.09-.18-.15"/><path class="uuid-2bd33ea3-d6a7-42c8-8684-fcdfcf4108f4" d="m104.59,413.77s-.02-.03-.03-.05"/><path class="uuid-2bd33ea3-d6a7-42c8-8684-fcdfcf4108f4" d="m104.44,413.63h.15"/><path class="uuid-2bd33ea3-d6a7-42c8-8684-fcdfcf4108f4" d="m104.72,413.89s-.06-.1-.09-.14"/><path class="uuid-2bd33ea3-d6a7-42c8-8684-fcdfcf4108f4" d="m104.84,413.85s-.04,0-.06-.02c-.01,0-.03,0-.04-.01"/><path class="uuid-2bd33ea3-d6a7-42c8-8684-fcdfcf4108f4" d="m104.65,413.73s-.02-.02-.04-.03"/><path class="uuid-2bd33ea3-d6a7-42c8-8684-fcdfcf4108f4" d="m104.53,413.69l.05.02s.03-.02.03-.02c.01,0,0-.01.01-.01"/><path class="uuid-2bd33ea3-d6a7-42c8-8684-fcdfcf4108f4" d="m104.44,413.54h0"/><path class="uuid-2bd33ea3-d6a7-42c8-8684-fcdfcf4108f4" d="m104.43,413.54h-.02"/><path class="uuid-2bd33ea3-d6a7-42c8-8684-fcdfcf4108f4" d="m104.42,413.53s.08.09.12.13"/><polygon class="uuid-9e1ac64d-9846-43dd-9457-018ac1380292" points="105.03 413.92 106.21 419.6 110.18 419.23 108.53 414.19 105.03 413.92"/><polygon class="uuid-9e1ac64d-9846-43dd-9457-018ac1380292" points="106.38 419.68 108.09 427.66 108.94 430.62 111.97 429.9 108.91 419.17 106.38 419.68"/><polygon class="uuid-9e1ac64d-9846-43dd-9457-018ac1380292" points="108.94 430.62 109.45 436.72 110.88 439.27 113.36 441.91 115.7 435.73 111 429.67 108.94 430.62"/><polyline class="uuid-9e1ac64d-9846-43dd-9457-018ac1380292" points="115.17 413.53 118.45 412.67 119.33 412.27 119.49 412.22 119.57 412.12"/><path class="uuid-2bd33ea3-d6a7-42c8-8684-fcdfcf4108f4" d="m119.57,412.17v-.06s.03.05,0,.06Z"/><polygon class="uuid-9e1ac64d-9846-43dd-9457-018ac1380292" points="119.58 412.3 119.29 415.67 119.89 424.48 120.95 431.29 120.95 434.68 120.31 436.54 118.59 435.96 118.16 430.38 117.25 423.58 115.01 414.74 115.3 413.49 119.58 412.3"/><polygon class="uuid-9e1ac64d-9846-43dd-9457-018ac1380292" points="115.47 435.67 120.04 435.94 120.26 436.65 117.56 440.65 114.42 443.17 112.66 441.01 115.47 435.67"/><polyline class="uuid-54f7b773-004a-485f-9a55-913aeb298979" points="111.04 442.08 110.77 440.95 110.95 440.97 112.08 442.22 113.77 443.81 113.84 443.97 120.26 449.89 131.41 457.26 129.34 457.54 123.73 456.77 119.68 457.54 114.25 458.29 112.46 457.47 111.69 449.22"/><polyline class="uuid-54f7b773-004a-485f-9a55-913aeb298979" points="111.69 449.7 111.51 451.02 111.56 452.36 111.6 455.58 112.4 457.42"/><polyline class="uuid-54f7b773-004a-485f-9a55-913aeb298979" points="113.76 443.72 117.56 440.65 118.1 440.95 120.93 441.91 122.12 443.54 125.3 445.86 128.3 448.29 130.89 450.68 132.79 451.68 132.08 457.16 131.06 457.31 114.42 445.58"/><path class="uuid-8aa86691-e634-40f5-a187-9734a0797951" d="m117.78,449.54c1.16.17,2.29.55,3.31,1.12-.01-.26-.02-.53.14-.74.02-.03.05-.06.05-.1,0-.04-.02-.08-.05-.11-.26-.32-.67-.51-1.09-.5-.08,0-.18.05-.15.12.15.35.39.7.69.96.09-.81.53-1.51,1.02-2.18.39-.53.8-1.04,1.24-1.53"/><polygon class="uuid-54f7b773-004a-485f-9a55-913aeb298979" points="118.2 440.95 120.09 438.4 120.9 441.77 118.2 440.95"/><polyline class="uuid-54f7b773-004a-485f-9a55-913aeb298979" points="132.79 451.82 132.1 457.04 134.19 456.86 138.59 455.79 140.9 454.3 141.32 453.28 140.93 452.37 139.38 451.76 136.49 451.55 132.34 451.82"/><polygon class="uuid-54f7b773-004a-485f-9a55-913aeb298979" points="118.32 410.43 118.28 411.81 118.32 411.91 119.49 411.5 119.66 411.82 119.71 411.6 119.59 410.83 118.88 410.43 118.32 410.43"/><polygon class="uuid-54f7b773-004a-485f-9a55-913aeb298979" points="105.69 411.75 105.38 411.86 104.23 412.46 104.34 412.82 105.25 413.39 106.17 413.39 105.69 411.75"/><polyline class="uuid-b4640c51-f6b7-4572-b68a-0f3c66609b02" points="112.74 458.29 113.19 461.25 113.19 461.39 113.98 461.68 116.59 461.9 119.11 461.95 119.89 461.95 121.63 461.62"/><polygon class="uuid-b4640c51-f6b7-4572-b68a-0f3c66609b02" points="121.63 461.62 122.13 460.97 122.26 460.31 122.26 458.75 122.49 458.1 122.29 457.6 114.23 458.75 121.49 461.65 121.63 461.62"/><path class="uuid-557d45cd-0692-4aab-9b5c-0e22d9c5b229" d="m242.46,437.5c-.03.08.07.14.15.16s.18.04.21.11c-.08,0-.16.02-.24.02"/><polyline class="uuid-b4640c51-f6b7-4572-b68a-0f3c66609b02" points="126.24 457.98 127.06 458.15 128.22 459.71 129.57 460.45 131.7 460.34 138.29 458.89 129.45 458.04 126.24 457.65"/><polyline class="uuid-b4640c51-f6b7-4572-b68a-0f3c66609b02" points="129.75 458.02 134.46 457.31 138.74 456.32 141.12 454.8 141 456.51 140.32 457.91 138.24 458.9"/><polyline class="uuid-54f7b773-004a-485f-9a55-913aeb298979" points="68.01 399.7 58.72 426.1 57.58 427.4 53.64 428.74 52.2 429.99 51.31 431.29 51.01 432.68 66.16 427.38 72.35 423.35 76.2 415.6 78.09 411.63 79.13 409.93 77.97 408.69 70.83 402.13 68.17 399.81"/><polygon class="uuid-54f7b773-004a-485f-9a55-913aeb298979" points="68.29 399.65 68.2 399.84 71.26 402.68 71.6 402.83 69.34 400.45 68.29 399.65"/><polyline class="uuid-54f7b773-004a-485f-9a55-913aeb298979" points="66.07 427.41 66.34 427.84 67.37 427.35 70.81 425.26 70.42 427.29 69.09 431.07 67.29 436.14 64.64 442.85 63.64 445.9 61.7 451.78 58.87 451.09 56.45 450.12 55.96 449.23 56.27 448.05 56.02 443.65 55.39 440.99 55.21 440.12 54.21 438.33 53.5 436.98 51.85 434.52 50.93 432.75"/><polyline class="uuid-54f7b773-004a-485f-9a55-913aeb298979" points="63.63 445.95 63.91 446.07 64.53 446.51 65.8 447.34 67.97 448.33 69.16 450.06 68.87 451.78 67.8 452.76 66.21 452.94 61.63 451.78"/><polyline class="uuid-b4640c51-f6b7-4572-b68a-0f3c66609b02" points="50.73 433.26 49.52 434.11 49.21 434.92 49.31 436.42 51.4 440.59 52.74 441.79 53.99 442.52 54.67 443.51 55.19 442.27 54.76 440.18 52.85 436.88"/><polyline class="uuid-b4640c51-f6b7-4572-b68a-0f3c66609b02" points="54.67 443.6 54.87 446.14 54.38 448.93 55.79 448.1 55.52 443.84 55.19 442.27"/><polygon class="uuid-b4640c51-f6b7-4572-b68a-0f3c66609b02" points="54.38 449.02 54.14 450.19 54.01 452.06 54.28 453.08 56.04 454.02 59.22 454.62 56.17 450.52 55.45 449.44 55.69 448.16 54.38 449.02"/><polyline class="uuid-b4640c51-f6b7-4572-b68a-0f3c66609b02" points="56.22 450.58 58.92 451.59 66.26 453.4 67.61 453.24 67.61 453.96 66.59 455.79 65.57 456.02 62.3 455.48 59.22 454.62"/><polyline class="uuid-3df17c78-d091-4797-9a96-bfc93e07e2e6" points="134.87 366.53 138.91 380.92 141.69 393.02 143.03 400.1 138.14 402.95 133.62 405.03 129.85 406.23 127.38 406.55 124.58 406.74 121.38 406.23 118.11 405.03 113.92 401.91 111.78 400.87 109.78 400.69 107.52 401.3 105.2 403.31 103.13 407.04 100.74 412.17 98.73 414.64 96.79 415.95 93.71 416.74 91.52 416.26 88.69 415.16 85.05 412.82 78.91 408.41 75.23 405.09 72.12 401.9 68.2 398.4 64.4 396.48 60.95 395.44 57.16 394.97 53.62 394.97 48.47 395.44 44.14 396.15 38.7 397.43 63.28 366.77"/><polyline class="uuid-3df17c78-d091-4797-9a96-bfc93e07e2e6" points="100.16 326.93 97.2 334.05 95.12 338.76 92.24 343.5 88.54 348.38 82.72 354.49 74.91 360.95 68.77 364.86 65.08 366.75 94.58 366.75 118.36 366.53 134.95 366.28"/><polyline class="uuid-3df17c78-d091-4797-9a96-bfc93e07e2e6" points="63.28 366.77 66.93 362.21 68.35 363.77 64.85 366.42 64.83 366.75 63.43 366.77"/><polyline class="uuid-3df17c78-d091-4797-9a96-bfc93e07e2e6" points="68.4 363.7 69.91 362.41 70.89 361.52 72.26 360.17 74.52 357.77 76.29 355.47 77.88 353.1 79.25 350.56 80.36 347.63 80.68 346.6 81.02 344.98"/><polyline class="uuid-3df17c78-d091-4797-9a96-bfc93e07e2e6" points="81.1 344.56 80.89 344.81 79.91 346.01 78.35 347.99 66.93 362.21 68.4 363.7 80.31 346.84"/><polyline class="uuid-3df17c78-d091-4797-9a96-bfc93e07e2e6" points="110.29 338.36 110.59 338.29 112.05 336.45 110.29 335.02 106.12 331.61 103.29 329.31 100.34 326.87 100.23 327.06"/><polyline class="uuid-3df17c78-d091-4797-9a96-bfc93e07e2e6" points="107.04 335.07 107.81 334.89 110.77 338.36 111.74 339.16 119.2 329.8 126.93 332.96 127.84 337.01 131.28 351.25 134.95 366.28"/><path class="uuid-3df17c78-d091-4797-9a96-bfc93e07e2e6" d="m119.09,329.69l-1.06-.77-1.66,2.11c-1.66-1.64-2.69-2.88-2.69-2.88l-3.15-3.9-3.51-4.27-1.86-2.26,2.24,1.17.95-.3-.3-1.05,4.33,1.43.18-.46,13.2-1.96,1.12,16.28"/><polyline class="uuid-3df17c78-d091-4797-9a96-bfc93e07e2e6" points="106.36 315.68 105.17 317.58 107.4 318.73 106.41 315.59"/><polyline class="uuid-3df17c78-d091-4797-9a96-bfc93e07e2e6" points="112.44 318.47 107.85 316.92 107.16 314.71 106.93 314.71 108.34 312.51 110.51 308.95 112.01 305.86 113.43 302.7 122.45 307.56 122.61 307.59 122.61 307.93 122.72 308.39 122.92 308.86 123.17 309.06 123.61 309.33 123.98 309.44 124.82 309.44 125.23 309.23 125.63 308.91 125.89 308.58 126.12 308.07 127.28 308.41 125.78 316.53"/><polyline class="uuid-3df17c78-d091-4797-9a96-bfc93e07e2e6" points="122.65 307.45 122.84 306.94 123.3 306.53 124.19 306.11 124.89 306.18 125.32 306.39 125.62 306.61 125.86 306.89 126.07 307.34 126.13 307.91 127.33 308.3 128.01 304.69 128.3 302.92 128.67 301.03 129.67 295.86 127.59 296.18"/><polyline class="uuid-3df17c78-d091-4797-9a96-bfc93e07e2e6" points="125.47 298.5 124.92 296.62 127.59 296.18 126.16 299.5"/><polyline class="uuid-3df17c78-d091-4797-9a96-bfc93e07e2e6" points="125.72 298.82 125.85 299.55 125.79 299.93 126.01 300.01 126.31 298.82"/><polyline class="uuid-3df17c78-d091-4797-9a96-bfc93e07e2e6" points="125.72 300.01 125.53 300.47 125.01 300.97 124.15 301.21 123.18 301 118.95 305.52 122.45 307.62 122.61 307.59 123.68 305.67 126.26 300.18"/><polyline class="uuid-3df17c78-d091-4797-9a96-bfc93e07e2e6" points="123.08 300.96 122.61 300.53 122.34 299.78 122.34 298.98 115.46 294.61 114.7 298.38 113.39 302.6 118.95 305.68"/><polyline class="uuid-3df17c78-d091-4797-9a96-bfc93e07e2e6" points="122.48 298.92 122.68 298.64 123.42 298.02 123.97 297.89 124.63 297.93 125.29 298.33 124.77 296.58 121.36 296 119.03 296.74 115.46 294.46"/><polyline class="uuid-3df17c78-d091-4797-9a96-bfc93e07e2e6" points="115.46 294.46 116 288.97 125.83 283.91 121.51 295.12 121.36 295.86 118.89 296.79"/><polyline class="uuid-3df17c78-d091-4797-9a96-bfc93e07e2e6" points="121.65 295.04 125.2 295.74 129.85 294.82 131.07 293.94 132.32 292.65 133.38 290.23 133.75 287.73 133.34 284.98 132.12 282.42 130.82 282.42 130.08 282.95 128.43 283.5 126.03 283.91 125.83 283.84"/><polyline class="uuid-3df17c78-d091-4797-9a96-bfc93e07e2e6" points="130.89 282.06 131.14 281.74 131.26 281.43 131.86 282.06 130.98 282.36"/><polyline class="uuid-3df17c78-d091-4797-9a96-bfc93e07e2e6" points="104.91 318.22 100.54 326.52 105.7 330.82"/><polyline class="uuid-3df17c78-d091-4797-9a96-bfc93e07e2e6" points="107.7 321.61 107.79 322.21 107.7 323.05 107.28 323.87 106.36 324.88 105.27 325.7 105.7 330.6 106.77 328.71 110.69 326.1 111.14 325.78 107.92 321.68"/><polyline class="uuid-3df17c78-d091-4797-9a96-bfc93e07e2e6" points="110.8 326.27 111.21 325.96 112.69 327.8 114.43 329.98 114.21 330.27 114.09 330.42 113.93 330.6 113.85 330.72 111.23 326.93"/><polyline class="uuid-3df17c78-d091-4797-9a96-bfc93e07e2e6" points="111.14 326.91 107.33 329.5 106.31 331.14 110.8 334.79 113.81 330.69"/><line class="uuid-3df17c78-d091-4797-9a96-bfc93e07e2e6" x1="111.06" y1="326.83" x2="111.22" y2="326.69"/><polyline class="uuid-3df17c78-d091-4797-9a96-bfc93e07e2e6" points="94.62 272.7 92.96 279.88 91.54 289.09 94.77 318.19 97.72 315.03 100.54 311.04 102.03 308.3 103.5 304.17 104.73 297.84 104.59 295.53 104.37 291.89 103.5 287.76 101.64 283.1 99.26 278.76 94.91 273.05"/><polyline class="uuid-5cd737f2-fc11-4844-8e80-0f689e860087" points="114.81 330.27 111.06 335.19 112.22 336.14 115.81 331.29"/><polyline class="uuid-5cd737f2-fc11-4844-8e80-0f689e860087" points="141.36 295.89 141.45 295.44 142.53 294.87 143.17 294.87 143.88 296.64 145.27 299.27 147.43 301.89 147.49 303.35 146.73 303.93 145.03 303.52 143.9 302.36"/><polyline class="uuid-5cd737f2-fc11-4844-8e80-0f689e860087" points="115.16 276.29 115.81 280.93 116.06 287.81 124.99 283.24 129.51 282.12 130.15 281.65 130.15 280.93 129.7 280.01 127.94 278.57 125.11 276.86 121.65 275.06"/><polyline class="uuid-3df17c78-d091-4797-9a96-bfc93e07e2e6" points="130.09 299.27 128.51 307.62 143.35 302.42 140.82 295.98"/><polyline class="uuid-3df17c78-d091-4797-9a96-bfc93e07e2e6" points="130.05 299.2 133.05 298.35 133.55 298.22"/><polygon class="uuid-27b67672-1d68-477d-81b2-4b177eb2c2ee" points="100.67 261.98 101.27 262.14 102.15 262.61 101.07 263.61 97.71 266.46 94.02 270.08 93.1 268.9 94.02 267.72 96.55 264.96 99.46 262.48 100.67 261.98"/><polyline class="uuid-75e54a63-90dc-4b42-995a-c618e390dbdd" points="98.23 266.57 100.06 269.57 107.24 270.75 112.89 266.74 106.35 265.39 102.5 262.82"/><polyline class="uuid-75e54a63-90dc-4b42-995a-c618e390dbdd" points="97.85 266.66 99.8 269.91 107.21 271.09 105.7 275.96 104.66 275.85 102.99 275.54 101.17 275.13 98.32 274.09 97.09 273.61 95.82 272.48 93.93 269.97"/><polyline class="uuid-75e54a63-90dc-4b42-995a-c618e390dbdd" points="107.21 271.09 109.46 272.29 110.01 271.69 110.92 270.92 111.74 270.47 112.49 270.33 113.01 270.33 113.76 270.47 113.03 266.66 107.24 270.75 107.21 271.31"/><polyline class="uuid-75e54a63-90dc-4b42-995a-c618e390dbdd" points="113.03 266.66 118.51 264.31 122.24 270.16 122.2 271.57 122.01 271.31 121.72 271.45 120.66 272 119.83 272.33 118.56 272.62 117.51 272.62 116.73 272.49 115.71 271.98 114.77 271.2 113.85 270.54 113.71 270.47"/><polyline class="uuid-75e54a63-90dc-4b42-995a-c618e390dbdd" points="107.21 271.09 105.73 276.03 107.64 276.16 109.56 276.16 111.41 276.1 113.03 276.03 115.62 275.96 109.77 272.5 109.5 272.29"/><polyline class="uuid-75e54a63-90dc-4b42-995a-c618e390dbdd" points="109.77 272.5 110.49 271.76 110.92 271.37 111.61 270.92 112.04 270.75 112.51 270.63 112.96 270.63 113.66 270.82 114.09 271.09 114.68 271.57 115.48 272.22 116.39 272.74 117 272.9 118.04 273.03 118.76 272.95 119.46 272.83 120.59 275 115.55 275.92"/><polyline class="uuid-75e54a63-90dc-4b42-995a-c618e390dbdd" points="119.49 272.83 120.59 272.43 122.1 271.65 122.24 271.86 122.24 272.29 122.43 272.83 122.74 273.28 122.4 273.99 121.82 274.54 120.59 274.94"/><polyline class="uuid-75e54a63-90dc-4b42-995a-c618e390dbdd" points="94.77 271.73 94.69 272.06 95.88 273.42 96.72 274.38 97.44 275.34 96.63 273.6"/><polyline class="uuid-75e54a63-90dc-4b42-995a-c618e390dbdd" points="96.75 273.71 98.22 274.41 99.96 275.09 101.8 275.58 99.02 277.52 97.57 275.52"/><polyline class="uuid-75e54a63-90dc-4b42-995a-c618e390dbdd" points="101.8 275.58 103.5 276.03 106.69 276.36 108.04 280.21 108.9 283.72 109.5 287.71 109.6 290.35 109.47 293.4 109.12 296.23 108.28 300.14 107.33 303.03 103.59 286.25 102.06 282.78 99.28 277.71 99.02 277.52"/><polyline class="uuid-75e54a63-90dc-4b42-995a-c618e390dbdd" points="104.83 300.32 104.47 302.45 103.83 304.96 102.7 307.96 101.88 309.68 104.14 310.32 104.31 309.97 106.27 306.13 107.66 302.03 106.5 299.32"/><polyline class="uuid-75e54a63-90dc-4b42-995a-c618e390dbdd" points="101.88 309.68 100.8 311.55 98.13 315.44 94.76 318.9 89.47 322.35 78.22 329.9 96.53 322.07 99.19 318.7 102.39 313.71 104.24 310.1"/><polyline class="uuid-75e54a63-90dc-4b42-995a-c618e390dbdd" points="96.53 322.07 97.29 322.68 100.01 326.22 96.69 333.98 94.62 338.69 81.34 338.13 80.28 332.61 78.22 329.9 80.53 334.82 81.1 335.83 88.38 329.32 96.36 322.35 78.5 329.78"/><polyline class="uuid-75e54a63-90dc-4b42-995a-c618e390dbdd" points="78.22 329.9 81.07 334.66 89 329.9 95.06 324.95 96.17 322.07"/><polyline class="uuid-75e54a63-90dc-4b42-995a-c618e390dbdd" points="80.39 333.92 81.12 336.01 86.61 332.07 84.49 330.48"/><polyline class="uuid-75e54a63-90dc-4b42-995a-c618e390dbdd" points="81.34 338.13 81.75 340.64 81.75 343.4 81.1 346.84 84.63 351.84 87.7 348.66 90.58 344.95 93.57 340.56 94.62 338.69"/><polyline class="uuid-75e54a63-90dc-4b42-995a-c618e390dbdd" points="81.1 347.02 80.31 349.22 78.84 352.44 76.78 355.59 75.99 359.38 79.55 356.57 84.49 351.97 85.74 350.3"/><line class="uuid-75e54a63-90dc-4b42-995a-c618e390dbdd" x1="80.92" y1="355.6" x2="83.8" y2="353"/><polyline class="uuid-75e54a63-90dc-4b42-995a-c618e390dbdd" points="76.66 355.8 74.71 358.24 71.78 361.33 67.84 364.78 68.4 364.61 70.88 363.12 73.77 361.16 76.11 359.38"/><polyline class="uuid-75e54a63-90dc-4b42-995a-c618e390dbdd" points="107.75 276.5 111.03 276.5 114.73 276.29 114.96 277.87 115.36 281.69 115.57 286.4 115.46 289.84 109.75 283.06"/><polyline class="uuid-75e54a63-90dc-4b42-995a-c618e390dbdd" points="109.82 283.32 110.48 287.66 110.56 290.85 110.45 293.94 110.1 297.41 114.37 297.3 114.85 295.56 115.24 292.45 115.57 289.67"/><polyline class="uuid-75e54a63-90dc-4b42-995a-c618e390dbdd" points="110.1 295.99 109.6 298.92 108.02 304.06 107.11 306.29 110.56 307.9 112.17 304.56 113.39 301.14 114.4 297.21"/><polyline class="uuid-75e54a63-90dc-4b42-995a-c618e390dbdd" points="107.11 306.37 106.01 308.84 104.63 311.74 103.09 314.44 101.38 317.24 97.29 322.68 100.16 326.43 102.05 322.43 105.07 316.91 107.49 312.94 109.49 309.85 110.6 307.81"/><polygon class="uuid-4a59fce9-2384-4fa0-a549-108a44ba36bc" points="38.77 454.24 17.55 454.68 13.46 455.62 12.43 456.85 13.59 457.74 20.1 459.38 27.28 459.95 36.49 460.78 46.35 460.98 58.35 460.67 65.55 459.63 67.2 458.68 65.61 456.7 57.43 455.46 38.77 454.24"/><path class="uuid-45e5ee53-129e-4b42-a554-1dd996907996" d="m13.12,455.64c-.16.08-1.24.6-1.15,1.19.06.42.67.67,1.02.81,4.56,1.77,7.26,1.75,7.26,1.75,4.9-.03,9.75.91,14.65,1.09,28.91,1.09,12.69.3,16.86.48,2.56.12,5.92.29,10.32-.41,2.06-.33,3.72-.74,4.84-1.06"/><polyline class="uuid-4a59fce9-2384-4fa0-a549-108a44ba36bc" points="62.55 464.15 16.44 467.06 2.6 471.74 .76 474.79 10.7 477.9 41.34 479.33 93.58 480.82 109.73 480.72 82.58 486.43 81.75 487.68 91.03 489.49 139.56 492.71 166.29 493.47 172.94 489.57 164.02 484.38 185.76 481.48 221.42 476.71 225.97 473.74 220.71 468.66 209.97 465.67 143.04 461.65"/><polygon class="uuid-4a59fce9-2384-4fa0-a549-108a44ba36bc" points="308.92 482.36 287.7 482.79 283.61 483.74 282.58 484.96 283.74 485.85 290.25 487.5 297.43 488.07 306.64 488.9 316.5 489.09 328.5 488.79 335.7 487.74 337.35 486.8 335.76 484.82 327.58 483.58 308.92 482.36"/><path class="uuid-45e5ee53-129e-4b42-a554-1dd996907996" d="m283.27,483.75c-.16.08-1.24.6-1.15,1.19.06.42.67.67,1.02.81,4.56,1.77,7.26,1.75,7.26,1.75,4.9-.03,9.75.91,14.65,1.09,28.91,1.09,12.69.3,16.86.48,2.56.12,5.92.29,10.32-.41,2.06-.33,3.72-.74,4.84-1.06"/><polyline class="uuid-45e5ee53-129e-4b42-a554-1dd996907996" points="2.6 471.74 .76 474.79 10.7 477.9 39.14 479.23 83.82 480.94 106.52 480.94 82.58 486.43 81.75 487.68 91.03 489.49 116.12 491.15 166.29 493.47 172.94 489.57 164.02 484.38 195.76 480.14 221.42 476.71 225.97 473.74 224.49 472.32 196.84 479.47 196.51 479.55"/><polyline class="uuid-360f1b9d-e85a-4a69-94e7-d27d38be369a" points="196.74 479.73 198.23 479.3 202.39 478.23 206.57 477.16 211.95 475.83 221.12 473.41 224.42 472.59 225.52 473.68 221.39 476.46 201.42 479.21"/><path class="uuid-360f1b9d-e85a-4a69-94e7-d27d38be369a" d="m191.91,470.41c-.87.76-.67,2.1.88,2.85,1.54.74,3.74.57,5.07-.13,1.19-.62,1.73-1.7,1.1-2.46-1.09-1.31-5.61-1.53-7.05-.26Z"/><path class="uuid-360f1b9d-e85a-4a69-94e7-d27d38be369a" d="m76.78,468.44c-2.15.81-1.67,2.24,2.19,3.04,3.83.79,9.3.61,12.61-.14,2.95-.67,4.31-1.82,2.74-2.63-2.72-1.4-13.95-1.63-17.54-.28Z"/><path class="uuid-360f1b9d-e85a-4a69-94e7-d27d38be369a" d="m108.83,484.99c-1.92.73-1.49,2.01,1.95,2.73,3.41.71,8.28.55,11.22-.12,2.63-.6,3.83-1.63,2.44-2.36-2.42-1.26-12.42-1.46-15.61-.25Z"/><path class="uuid-360f1b9d-e85a-4a69-94e7-d27d38be369a" d="m13.17,472.06c-1.25.37-.97,1.01,1.28,1.36,2.23.35,5.41.27,7.33-.06,1.72-.3,2.51-.82,1.59-1.18-1.58-.63-8.12-.73-10.2-.12Z"/><path class="uuid-360f1b9d-e85a-4a69-94e7-d27d38be369a" d="m173.42,468.96c-1.2.49-.93,1.34,1.22,1.81,2.13.47,5.18.36,7.02-.08,1.64-.4,2.4-1.08,1.53-1.57-1.51-.84-7.77-.97-9.77-.16Z"/></svg>