<?xml version="1.0" encoding="UTF-8"?><svg id="uuid-6c9d4a63-2837-4b67-981e-4cfbe4bcb186" xmlns="http://www.w3.org/2000/svg" width="181.67" height="239.03" viewBox="0 0 181.67 239.03"><defs><style>.uuid-09300e98-243d-4f4d-8443-e3a786c6e837{stroke-width:3px;}.uuid-09300e98-243d-4f4d-8443-e3a786c6e837,.uuid-38c70acc-00c1-4288-9aa5-6ea7b03a0d50,.uuid-38a84b51-5a68-4c50-9c4e-18af468bdfc0,.uuid-0486e46d-370b-4a71-8661-d4bb0da27ecf,.uuid-7277c418-9437-40dd-96c1-c4178a2fe1b5,.uuid-84508442-824a-4911-83e4-1953920b70d1,.uuid-27f68765-c8ec-4592-bd3d-8686e2e110eb,.uuid-4c36d7c6-59cc-4933-aa23-813ff6df9de4,.uuid-d7872558-f361-40b3-aba3-c3049da21396,.uuid-0e950e89-0cba-4806-a8c9-a4c2855f6a7e,.uuid-1e4c6dbd-2206-470f-a1d5-0f323a66bb63,.uuid-b34553ea-c843-4f27-a8a3-afea540f9fa7,.uuid-6066d550-60ed-4f42-a0f2-b02c8aefa2e5,.uuid-6a1ba80f-c3f4-45ff-a449-f33d78295145,.uuid-b1cb3688-b773-481b-ad82-341650f09005,.uuid-e143c888-7232-48bf-a8f6-877958ddd232,.uuid-31dd578a-15a7-4cba-9e0f-d066357dfd2d,.uuid-0b849533-45ec-490b-a67e-227767a4ea53,.uuid-516a0be7-eeba-4677-a182-d8be350f2a44,.uuid-995ba45d-72d0-4bb3-9513-9ae3fd5bb84e,.uuid-185bf4cf-ee16-4cbe-8b0d-b591fd1c6404,.uuid-07c41be0-40b4-441b-9de6-9911170739ad,.uuid-e9f20d85-65fd-4967-95df-bb7bd4d23ed1,.uuid-412ee5b2-2936-44d9-ac8d-3f92c328d47c,.uuid-3ccfe16c-5e97-46ec-9a47-d2cf9afa3880,.uuid-33a6aef0-dac3-4020-a006-0f5265aeb658,.uuid-6d34cffe-1936-44d2-9320-c0041c21fb9c,.uuid-12813b5e-4407-4345-9902-c4d6726d6bd9,.uuid-38e636f2-7afb-41c7-9ca6-581fb2a1a910,.uuid-a24f51d6-840c-4b87-8342-75b866fc3624,.uuid-1af68d13-56bd-466f-8cf4-f5b509cbf8a5,.uuid-6fdd1870-dbaa-47e2-95e8-4fbfcb1274a8,.uuid-528c7355-802b-41ce-92c4-c684366b14de,.uuid-059754e2-e542-40cf-aba4-75a056d4fe19,.uuid-fdbefed7-d09d-42da-b3de-65bcc2c6fbec{stroke-miterlimit:10;}.uuid-09300e98-243d-4f4d-8443-e3a786c6e837,.uuid-38c70acc-00c1-4288-9aa5-6ea7b03a0d50,.uuid-0486e46d-370b-4a71-8661-d4bb0da27ecf,.uuid-e143c888-7232-48bf-a8f6-877958ddd232,.uuid-0b849533-45ec-490b-a67e-227767a4ea53,.uuid-516a0be7-eeba-4677-a182-d8be350f2a44,.uuid-185bf4cf-ee16-4cbe-8b0d-b591fd1c6404,.uuid-e9f20d85-65fd-4967-95df-bb7bd4d23ed1,.uuid-33a6aef0-dac3-4020-a006-0f5265aeb658,.uuid-528c7355-802b-41ce-92c4-c684366b14de{stroke:#221f20;}.uuid-09300e98-243d-4f4d-8443-e3a786c6e837,.uuid-6066d550-60ed-4f42-a0f2-b02c8aefa2e5,.uuid-516a0be7-eeba-4677-a182-d8be350f2a44,.uuid-995ba45d-72d0-4bb3-9513-9ae3fd5bb84e,.uuid-185bf4cf-ee16-4cbe-8b0d-b591fd1c6404,.uuid-07c41be0-40b4-441b-9de6-9911170739ad,.uuid-e9f20d85-65fd-4967-95df-bb7bd4d23ed1,.uuid-412ee5b2-2936-44d9-ac8d-3f92c328d47c,.uuid-3ccfe16c-5e97-46ec-9a47-d2cf9afa3880,.uuid-33a6aef0-dac3-4020-a006-0f5265aeb658,.uuid-a24f51d6-840c-4b87-8342-75b866fc3624,.uuid-1af68d13-56bd-466f-8cf4-f5b509cbf8a5,.uuid-6fdd1870-dbaa-47e2-95e8-4fbfcb1274a8,.uuid-528c7355-802b-41ce-92c4-c684366b14de,.uuid-059754e2-e542-40cf-aba4-75a056d4fe19,.uuid-fdbefed7-d09d-42da-b3de-65bcc2c6fbec{fill:none;}.uuid-38c70acc-00c1-4288-9aa5-6ea7b03a0d50,.uuid-38a84b51-5a68-4c50-9c4e-18af468bdfc0,.uuid-0486e46d-370b-4a71-8661-d4bb0da27ecf,.uuid-7277c418-9437-40dd-96c1-c4178a2fe1b5,.uuid-516a0be7-eeba-4677-a182-d8be350f2a44,.uuid-995ba45d-72d0-4bb3-9513-9ae3fd5bb84e{stroke-width:2px;}.uuid-38c70acc-00c1-4288-9aa5-6ea7b03a0d50,.uuid-e143c888-7232-48bf-a8f6-877958ddd232{fill:#59b277;}.uuid-38a84b51-5a68-4c50-9c4e-18af468bdfc0{fill:#dd5f36;stroke:#dd5f36;}.uuid-0486e46d-370b-4a71-8661-d4bb0da27ecf{fill:#d83745;}.uuid-7277c418-9437-40dd-96c1-c4178a2fe1b5,.uuid-12813b5e-4407-4345-9902-c4d6726d6bd9{fill:#d3373d;stroke:#d3373d;}.uuid-84508442-824a-4911-83e4-1953920b70d1{fill:#f0b444;stroke:#f0b444;}.uuid-84508442-824a-4911-83e4-1953920b70d1,.uuid-4c36d7c6-59cc-4933-aa23-813ff6df9de4,.uuid-d7872558-f361-40b3-aba3-c3049da21396,.uuid-0e950e89-0cba-4806-a8c9-a4c2855f6a7e,.uuid-a24f51d6-840c-4b87-8342-75b866fc3624,.uuid-1af68d13-56bd-466f-8cf4-f5b509cbf8a5,.uuid-6fdd1870-dbaa-47e2-95e8-4fbfcb1274a8{stroke-width:.25px;}.uuid-27f68765-c8ec-4592-bd3d-8686e2e110eb{fill:#e68d3d;stroke:#e68d3d;}.uuid-27f68765-c8ec-4592-bd3d-8686e2e110eb,.uuid-1e4c6dbd-2206-470f-a1d5-0f323a66bb63,.uuid-b34553ea-c843-4f27-a8a3-afea540f9fa7,.uuid-528c7355-802b-41ce-92c4-c684366b14de,.uuid-059754e2-e542-40cf-aba4-75a056d4fe19,.uuid-fdbefed7-d09d-42da-b3de-65bcc2c6fbec{stroke-width:.5px;}.uuid-4c36d7c6-59cc-4933-aa23-813ff6df9de4{fill:#af312e;}.uuid-4c36d7c6-59cc-4933-aa23-813ff6df9de4,.uuid-1af68d13-56bd-466f-8cf4-f5b509cbf8a5{stroke:#af312e;}.uuid-d7872558-f361-40b3-aba3-c3049da21396,.uuid-1e4c6dbd-2206-470f-a1d5-0f323a66bb63{fill:#d83832;}.uuid-d7872558-f361-40b3-aba3-c3049da21396,.uuid-1e4c6dbd-2206-470f-a1d5-0f323a66bb63,.uuid-3ccfe16c-5e97-46ec-9a47-d2cf9afa3880,.uuid-a24f51d6-840c-4b87-8342-75b866fc3624,.uuid-fdbefed7-d09d-42da-b3de-65bcc2c6fbec{stroke:#d83832;}.uuid-0e950e89-0cba-4806-a8c9-a4c2855f6a7e,.uuid-6a1ba80f-c3f4-45ff-a449-f33d78295145{fill:#87539a;}.uuid-0e950e89-0cba-4806-a8c9-a4c2855f6a7e,.uuid-6a1ba80f-c3f4-45ff-a449-f33d78295145,.uuid-6fdd1870-dbaa-47e2-95e8-4fbfcb1274a8{stroke:#87539a;}.uuid-b34553ea-c843-4f27-a8a3-afea540f9fa7{fill:#e3833b;}.uuid-b34553ea-c843-4f27-a8a3-afea540f9fa7,.uuid-059754e2-e542-40cf-aba4-75a056d4fe19{stroke:#e3833b;}.uuid-6066d550-60ed-4f42-a0f2-b02c8aefa2e5{stroke:#070505;}.uuid-6066d550-60ed-4f42-a0f2-b02c8aefa2e5,.uuid-6d34cffe-1936-44d2-9320-c0041c21fb9c,.uuid-12813b5e-4407-4345-9902-c4d6726d6bd9,.uuid-38e636f2-7afb-41c7-9ca6-581fb2a1a910{stroke-width:.75px;}.uuid-b1cb3688-b773-481b-ad82-341650f09005{fill:#8acbdc;stroke:#8acbdc;}.uuid-31dd578a-15a7-4cba-9e0f-d066357dfd2d{fill:#188db5;}.uuid-31dd578a-15a7-4cba-9e0f-d066357dfd2d,.uuid-07c41be0-40b4-441b-9de6-9911170739ad{stroke:#198db5;}.uuid-0b849533-45ec-490b-a67e-227767a4ea53{fill:#116a3f;}.uuid-995ba45d-72d0-4bb3-9513-9ae3fd5bb84e{stroke:#d53363;}.uuid-185bf4cf-ee16-4cbe-8b0d-b591fd1c6404{stroke-width:4px;}.uuid-412ee5b2-2936-44d9-ac8d-3f92c328d47c,.uuid-38e636f2-7afb-41c7-9ca6-581fb2a1a910{stroke:#000;}.uuid-33a6aef0-dac3-4020-a006-0f5265aeb658{stroke-width:8px;}.uuid-6d34cffe-1936-44d2-9320-c0041c21fb9c{stroke:#c63531;}.uuid-6d34cffe-1936-44d2-9320-c0041c21fb9c,.uuid-ef81d4b6-a445-4b1f-abe7-561392c1f150{fill:#b7332f;}.uuid-ef81d4b6-a445-4b1f-abe7-561392c1f150{stroke-width:0px;}.uuid-38e636f2-7afb-41c7-9ca6-581fb2a1a910{fill:#c93f3f;}</style></defs><path class="uuid-528c7355-802b-41ce-92c4-c684366b14de" d="m66.22,110.01c-.07.05-.26.24-.33.56-.08.4.08.82.33,1.04.25.21.51.17.6.16.08-.01.33-.05.55-.31.04-.05.3-.37.25-.85-.06-.54-.46-.77-.48-.78-.3-.16-.66-.1-.91.16h0Z"/><path class="uuid-0b849533-45ec-490b-a67e-227767a4ea53" d="m33.63,9.21c-13.5,9.16-20.42,22.4-22.88,27.66C1.35,56.95-.72,84.15,5.29,87.46c1.73.95,3.67-.32,19.32-15.64,14.04-13.75,16.06-16.25,26.03-26.05,7.9-7.76,15.42-16.09,23.42-23.7,7.84-7.46,10.47-9.5,10.11-12.34-.85-6.87-18.3-11.35-33.14-8.22-1.75.37-9.03,2.01-17.4,7.7h0Z"/><line class="uuid-185bf4cf-ee16-4cbe-8b0d-b591fd1c6404" x1="22.46" y1="7.88" x2="26.8" y2="14.52"/><line class="uuid-09300e98-243d-4f4d-8443-e3a786c6e837" x1="21.65" y1="27.59" x2="35.98" y2="53.64"/><line class="uuid-516a0be7-eeba-4677-a182-d8be350f2a44" x1="39.44" y1="10.45" x2="74.06" y2="22.07"/><line class="uuid-516a0be7-eeba-4677-a182-d8be350f2a44" x1="8.43" y1="57.59" x2="15.05" y2="78.24"/><path class="uuid-e143c888-7232-48bf-a8f6-877958ddd232" d="m84.1,11.05c-2.44,9.77-6.92,22.91-15.52,35.86-21.48,32.37-52.46,39.14-61.51,40.72"/><polyline class="uuid-38c70acc-00c1-4288-9aa5-6ea7b03a0d50" points="6.6 87.65 20.57 73.94 40.85 53.97 59.34 35.8 70.55 24.35 83.95 11.55"/><path class="uuid-0486e46d-370b-4a71-8661-d4bb0da27ecf" d="m66.84,62.24c-.6-1.1-2.31-3.91-5.32-4.93-4.04-1.36-8.77,1.03-11.62,6.09l1.28,3.85-1.28.67-1.25-3.93"/><line class="uuid-516a0be7-eeba-4677-a182-d8be350f2a44" x1="48.41" y1="64.17" x2="50" y2="63.44"/><polygon class="uuid-38a84b51-5a68-4c50-9c4e-18af468bdfc0" points="49.25 64.45 49.82 64.16 50.64 66.9 50.04 67.27 49.25 64.45"/><path class="uuid-7277c418-9437-40dd-96c1-c4178a2fe1b5" d="m66.04,63.33c.23-.68.72-1.9,1.75-2.95.4-.4,1.06-1.08,2.08-1.36.19-.05,2.62-.68,3.98,1.31.11.16.98,1.46.71,3.07-.24,1.45-1.24,2.25-2.08,2.9-1.64,1.26-2.38.91-5.21,2.04-1.32.52-2.65,1.07-4.12,2.21-1.82,1.42-2.68,2.84-2.8,2.72-.13-.13.81-2,5.51-9.68"/><line class="uuid-995ba45d-72d0-4bb3-9513-9ae3fd5bb84e" x1="65.76" y1="63.39" x2="66.09" y2="62.86"/><path class="uuid-528c7355-802b-41ce-92c4-c684366b14de" d="m73.16,59.28c.07.58.16,1.96-.48,3.37-1.21,2.67-3.88,2.9-4.07,2.91"/><path class="uuid-e9f20d85-65fd-4967-95df-bb7bd4d23ed1" d="m62.15,72.98c-.3-.45-.57-.49-.65-.49-.67-.03-1.36,1.16-1.26,2.12.03.29.15.55.39,1.05.26.56.52.98.71,1.25"/><path class="uuid-e9f20d85-65fd-4967-95df-bb7bd4d23ed1" d="m61.67,73.28c-.32-.08-.64.08-.81.39-.21.38-.08.81-.06.85"/><line class="uuid-e9f20d85-65fd-4967-95df-bb7bd4d23ed1" x1="60.86" y1="73.67" x2="61.31" y2="74.04"/><path class="uuid-6066d550-60ed-4f42-a0f2-b02c8aefa2e5" d="m69.89,68.04c.71,2.25.68,3.96.5,5.14-.27,1.83-1.02,3.13-.5,4.09.43.81,1.29.5,1.51,1.28.21.73-.28,1.9-.94,2.41-.52.4-1.03.31-1.13.72-.07.28.14.49.25.89.28.94-.14,2.29-.75,2.81-.42.36-.97.34-2.52-.32-1.01-.43-2.39-1.1-3.96-2.17"/><polyline class="uuid-6066d550-60ed-4f42-a0f2-b02c8aefa2e5" points="63.83 83.83 63.83 87.4 60.74 89.03 57.27 88.15 55.18 86.43 52.78 89.03 53.82 91.13 57.74 91.91"/><path class="uuid-6066d550-60ed-4f42-a0f2-b02c8aefa2e5" d="m65.49,91.44c.65.38.11,1.35.65,2,0,.32-.27.64-.54.97-1.62.64-3.24.97-4.87.97-2.7.32-5.41,0-7.84-1.3-1.08-.32-1.89-1.94-2.7-3.24-.27-.32,0-.64.27-.97,1.08-1.62,2.16-2.91,3.51-3.89.27-.32,1.08.32,1.53.7l1.1-4.11.58-.5.56-.31"/><line class="uuid-6066d550-60ed-4f42-a0f2-b02c8aefa2e5" x1="65.92" y1="91.52" x2="63.83" y2="87.4"/><path class="uuid-6066d550-60ed-4f42-a0f2-b02c8aefa2e5" d="m59,92.89c.42-.6,1.07-1.34,1.81-1.27.79.08,1.05,1.01,1.91,1.4.57.26,1.49.31,2.97-.77"/><path class="uuid-12813b5e-4407-4345-9902-c4d6726d6bd9" d="m60.41,72.86c-.27.4-.59.96-.86,1.63-.23.57-.76,1.93-.53,3.55.26,1.76,1.13,1.73,1.04,3.26-.09,1.51-.99,2.27-1.29,2.5-.22.16-.42.29-.57.37"/><path class="uuid-12813b5e-4407-4345-9902-c4d6726d6bd9" d="m52.29,66.14c-.17.31-2.71,5.18-.43,10.2,1.82,4.02,5.37,5.17,5.95,5.35l1.2-3.18-.25-2.42.12.27.67-2.26,1.02-2.05,2.74-4.78,2.81-4.5v-.56l-8.77.75-6.72.66-.31.19.42,1.29.81,2.43"/><path class="uuid-7277c418-9437-40dd-96c1-c4178a2fe1b5" d="m51.54,67.14c-.8,3.08-.76,5.27.07,5.77.06.04.14.08.27.06,1.03-.12,2.97-3.5,4.63-6.71"/><path class="uuid-38e636f2-7afb-41c7-9ca6-581fb2a1a910" d="m49.49,67.98c-.74.71-1.49,1.62-2.11,2.8-2.09,4.01-1.03,9.06-.3,12.74.67,3.39,1.16,3.56,1.55,6.59.33,2.56.28,4.71.08,7.41-.43,5.88-.85,11.59-3.18,18.63-1.26,3.8-3.42,9.02-4.11,8.75-1.16-.47,5.88-14.98.97-25.88-2.09-4.64-5.23-6.12-6.17-12.25-.64-4.11.08-7.95.3-9.09.4-2.04.96-4.95,2.76-7.66,3.04-4.59,7.58-5.6,9.14-5.85"/><polygon class="uuid-6d34cffe-1936-44d2-9320-c0041c21fb9c" points="48.38 64.39 49.49 67.69 48.65 68.58 47.24 70.55 46.45 72.14 45.99 75.46 46.19 81.33 46.98 84.05 48.26 88.76 48.72 93.31 48.48 98.43 47.9 104.9 46.92 110.6 44.89 89.46 44.2 89.02 43.89 87.5 45.07 85.74 43.98 83.35 41.83 82.52 41.42 80.3 42.82 76.4 43.03 70.89 43.61 68.91 48.38 64.39"/><polygon class="uuid-6d34cffe-1936-44d2-9320-c0041c21fb9c" points="50.33 63.81 54.07 65.57 56.51 75.52 57.74 72.86 57.02 70.8 59.31 68.98 66.84 66.27 66.9 68.47 66.9 68.8 64.87 69.66 63.04 70.99 61.67 72.27 60.41 72.37 60.11 72.98 60.05 74.7 59.19 78.75 57.74 81.77 56.51 81.3 50.33 63.81"/><polygon class="uuid-ef81d4b6-a445-4b1f-abe7-561392c1f150" points="56.79 81.53 55.19 80.53 53.17 78.67 52.05 77.12 51.09 74.93 50.68 73.3 50.44 70.74 51 68.46 51.48 66.97 51.57 66.57 51.18 65.83 50.37 63.16 52.06 67.26 57.1 81.57 56.79 81.53"/><polyline class="uuid-e9f20d85-65fd-4967-95df-bb7bd4d23ed1" points="50.97 92.12 50.08 97.14 49.21 103.98 50.97 123.39"/><path class="uuid-e9f20d85-65fd-4967-95df-bb7bd4d23ed1" d="m50.97,123.39c1.35-1.53,4.2-5.18,5.18-10.87,1.87-10.78-4.66-19.01-5.29-19.78"/><path class="uuid-e9f20d85-65fd-4967-95df-bb7bd4d23ed1" d="m50.97,123.39c-2.98,2.43-5.97,4.86-8.95,7.3"/><path class="uuid-e9f20d85-65fd-4967-95df-bb7bd4d23ed1" d="m42.01,130.68c.87,1.74,1.85,4.36,1.94,7.61.26,9.36-8.84,16.58-8.82,16.62.03.03,9.85-5.85,15.3-16.92,2.08-4.23,1.57-5.27,5.31-13.67,2.54-5.69,3.32-6.43,4.41-9.31,1.54-4.08,2.91-10.39,1.68-19.72"/><polyline class="uuid-e9f20d85-65fd-4967-95df-bb7bd4d23ed1" points="53.94 128.48 59.57 134.14 60.41 134.98 62.48 131.58 61.78 130.68 59.75 133.93 59.77 133.78"/><line class="uuid-e9f20d85-65fd-4967-95df-bb7bd4d23ed1" x1="61.84" y1="130.86" x2="56.48" y2="122.73"/><path class="uuid-516a0be7-eeba-4677-a182-d8be350f2a44" d="m59.73,128.48c-.7.58-1.4,1.18-2.11,1.76l-.52,1.13"/><path class="uuid-516a0be7-eeba-4677-a182-d8be350f2a44" d="m57.42,124.34c.06.11.56,1.1.19,2.1-.14.39-.36.64-.52.79"/><path class="uuid-516a0be7-eeba-4677-a182-d8be350f2a44" d="m57.66,95.45c.66,1.87,1.48,4.86,1.59,8.6.17,5.61-1.36,9.8-2.45,12.77-.84,2.31-2.25,5.54-4.61,8.98"/><line class="uuid-516a0be7-eeba-4677-a182-d8be350f2a44" x1="62.3" y1="103.41" x2="67.62" y2="100.01"/><path class="uuid-516a0be7-eeba-4677-a182-d8be350f2a44" d="m65.6,94.41c1.61.93,5.03,3.05,4.74,4.46-.08.42-.56,1.1-3.17,1.33"/><path class="uuid-516a0be7-eeba-4677-a182-d8be350f2a44" d="m69.95,98.01c1.41.89,2.3,3.01,2.21,5.27-.09,2.19-1.09,4.1-2.5,4.78"/><line class="uuid-516a0be7-eeba-4677-a182-d8be350f2a44" x1="70.1" y1="107.8" x2="67.91" y2="122.06"/><path class="uuid-516a0be7-eeba-4677-a182-d8be350f2a44" d="m69.84,107.97c-.53.14-1.08.28-1.65.39-.33.07-.66.13-.99.19"/><line class="uuid-185bf4cf-ee16-4cbe-8b0d-b591fd1c6404" x1="46.73" y1="48.23" x2="53.09" y2="58.88"/><line class="uuid-185bf4cf-ee16-4cbe-8b0d-b591fd1c6404" x1="69.25" y1="85.2" x2="79.99" y2="104.72"/><path class="uuid-516a0be7-eeba-4677-a182-d8be350f2a44" d="m67.41,108.55c-.69-.14-1.39-.28-2.07-.43"/><path class="uuid-528c7355-802b-41ce-92c4-c684366b14de" d="m66.22,110.01c-.07.05-.26.24-.33.56-.08.4.08.82.33,1.04.25.21.51.17.6.16.08-.01.33-.05.55-.31.04-.05.3-.37.25-.85-.06-.54-.46-.77-.48-.78-.3-.16-.66-.1-.91.16h0Z"/><path class="uuid-528c7355-802b-41ce-92c4-c684366b14de" d="m66.37,115.44c-.07.05-.26.24-.33.56-.08.4.08.82.33,1.04.25.21.51.17.6.16.08-.01.33-.05.55-.31.04-.05.3-.37.25-.85-.06-.54-.46-.77-.48-.78-.3-.16-.66-.1-.91.16h0Z"/><path class="uuid-528c7355-802b-41ce-92c4-c684366b14de" d="m69.67,110.52c2.09-.77,4.18-1.54,6.28-2.3"/><path class="uuid-528c7355-802b-41ce-92c4-c684366b14de" d="m75.95,108.42c.44,1.43.88,2.85,1.32,4.29l-8.14,3.5"/><polygon class="uuid-e9f20d85-65fd-4967-95df-bb7bd4d23ed1" points="75.84 108.34 75.95 107.97 76.6 107.52 77.11 107.52 77.46 108.78 78.19 110.44 78.85 111.53 79.42 112.31 79.42 113.26 78.91 113.82 77.97 113.58 77.63 113.24 77.26 112.71 75.84 108.34"/><polyline class="uuid-e9f20d85-65fd-4967-95df-bb7bd4d23ed1" points="78.35 109.02 77.5 108.26 77.69 107.83 78.51 105.92 80.13 106.25 80.41 106.7 80.3 106.99 79.42 106.7 78.83 106.61"/><polyline class="uuid-e9f20d85-65fd-4967-95df-bb7bd4d23ed1" points="78.96 111.65 80.88 110.63 82.22 110.03 82.88 108.78 80.28 107"/><path class="uuid-528c7355-802b-41ce-92c4-c684366b14de" d="m79.25,104.44c.14-.1.57-.36.97-.19,0,0,.07.03.13.07.4.27.72,1.14.52,1.9-.13.51-.58,1.24-.78,1.57-.04.07-.14.22-.11.4.04.21.26.38.43.4.52.06,1.21-1.22,1.32-2.46.05-.54.12-1.34-.38-1.81-.54-.52-1.33-.25-1.42-.22"/><path class="uuid-528c7355-802b-41ce-92c4-c684366b14de" d="m80.99,104.11c.5,0,.75.25.86.39.73.94.39,3.56-.55,4.11-.15.09-.44.2-.89-.01"/><path class="uuid-528c7355-802b-41ce-92c4-c684366b14de" d="m82.23,105.23c.1.1.25.28.36.54.59,1.33-.48,3.26-.82,3.18-.07-.02-.15-.13-.19-.57"/><path class="uuid-528c7355-802b-41ce-92c4-c684366b14de" d="m82.76,106.49c.08.06.2.17.28.37.17.4,0,.8-.03.91-.03.09-.17.44-.5.6-.08.04-.16.05-.21.06"/><path class="uuid-528c7355-802b-41ce-92c4-c684366b14de" d="m66.22,110.01c-.07.05-.26.24-.33.56-.08.4.08.82.33,1.04.25.21.51.17.6.16.08-.01.33-.05.55-.31.04-.05.3-.37.25-.85-.06-.54-.46-.77-.48-.78-.3-.16-.66-.1-.91.16h0Z"/><line class="uuid-33a6aef0-dac3-4020-a006-0f5265aeb658" x1="77.9" y1="100.91" x2="80.68" y2="105.97"/><path class="uuid-33a6aef0-dac3-4020-a006-0f5265aeb658" d="m82.13,108.57l1.46,2.65c.01.1.17,1.2.86,1.72.72.55,1.49.07,1.82-.43.56-.84.38-2.56-.58-4.09"/><line class="uuid-09300e98-243d-4f4d-8443-e3a786c6e837" x1="63.84" y1="130.41" x2="59.84" y2="136.58"/><path class="uuid-516a0be7-eeba-4677-a182-d8be350f2a44" d="m57.42,120.85c.22.86.45,1.72.67,2.57"/><line class="uuid-e9f20d85-65fd-4967-95df-bb7bd4d23ed1" x1="57.97" y1="122.37" x2="60.55" y2="123.42"/><line class="uuid-516a0be7-eeba-4677-a182-d8be350f2a44" x1="67.91" y1="122.08" x2="68.52" y2="132.87"/><line class="uuid-516a0be7-eeba-4677-a182-d8be350f2a44" x1="68.52" y1="132.87" x2="77.26" y2="177.42"/><path class="uuid-516a0be7-eeba-4677-a182-d8be350f2a44" d="m77.26,177.01c-6.19,5.14-10.05,5.16-12.45,4.18-2.88-1.18-3.73-3.83-5.82-3.48-3.63.61-3.4,9.02-7.41,10.29-2.75.87-5.87-2.14-9.39-5.54-3.01-2.92-3.39-4.33-5.03-5.86-2.61-2.44-7.39-4.17-16.91-.71"/><line class="uuid-516a0be7-eeba-4677-a182-d8be350f2a44" x1="20.28" y1="175.89" x2="43.94" y2="139.57"/><polygon class="uuid-412ee5b2-2936-44d9-ac8d-3f92c328d47c" points="36.96 175.89 31.64 194.04 31.07 194.82 30.25 195.23 28.94 195.73 28.17 196.58 27.69 197.45 27.46 198.45 27.94 199.72 28.82 201.37 29.75 203.47 30.16 205.82 30.29 208.61 30.15 209.48 30.46 210.1 31.86 210.77 34.59 211.62 35.79 211.98 36.64 211.83 37.3 211.11 37.45 209.84 36.77 208.66 35.63 208.01 34.52 207.12 34.87 205.66 36.45 200.84 38.15 194.87 38.41 193.26 36.3 194.83 35.75 195.16 39.14 192.46 40.46 189.14 42.23 184.68 42.82 183.46 36.96 175.89"/><polyline class="uuid-412ee5b2-2936-44d9-ac8d-3f92c328d47c" points="27.43 198.66 26.7 199.3 26.52 199.93 26.57 200.99 27.14 202.37 27.7 203.79 28.41 204.54 29.1 205.07 29.46 205.73 29.54 207.33 29.17 209.88 29.09 211.27 29.25 211.99 30.27 212.68 32.01 213.09 33.69 213.65 35.43 213.99 36.04 213.8 36.45 213 36.65 212.51 36.62 212"/><polyline class="uuid-412ee5b2-2936-44d9-ac8d-3f92c328d47c" points="56.55 184.25 55.76 184.76 56.16 186.87 57.04 191.62 57.89 195.56 58.2 197.76 58.2 199.07 58.62 201.63 61.18 205.27 59.23 202.94 59.68 205.78 59.85 208.17 59.71 210.51 59.75 213.23 60.23 214.59 61.33 215.17 63.32 214.88 65.69 214.38 66.43 214.22 67.54 214.38 69.47 214.67 72.22 214.18 74.39 213.56 75.76 212.49 76.04 211.71 75.8 211.01 74.83 210.51 73.35 210.39 71.36 210.51 70.33 209.86 69.23 208.58 67.82 207.1 65.66 205.17 65.07 204.3 64.59 201.42 63.29 203.48 64.7 200.78 65.11 199.45 65.11 197.22 64.56 192.86 64.32 189.36 64.21 186.89 64.39 184.25 64.32 183.6 63.83 183.29 63.39 183.29 63.35 184.26 63.4 184.64 64.19 184.33 63.54 184.75 62.07 185.28 58.32 185.62 56.44 185.57 55.93 185.15 55.82 184.81"/><line class="uuid-412ee5b2-2936-44d9-ac8d-3f92c328d47c" x1="56.22" y1="180.65" x2="57.32" y2="185.94"/><polyline class="uuid-412ee5b2-2936-44d9-ac8d-3f92c328d47c" points="60.15 215.03 60.44 217.44 60.91 217.67 62.55 217.86 64.06 217.86 65.13 217.63 65.44 217.15 65.55 216.62 65.55 215.62 65.64 215.29 65.94 215.21 66.51 215.21 67 215.22 67.53 215.25 67.89 215.33 68.05 215.61 68.27 215.97 68.5 216.34 68.91 216.65 69.31 216.89 70.47 216.8 72.1 216.38 74.03 215.84 75.2 215.11 75.57 214.14 75.65 213.17 75.65 212.47"/><polygon class="uuid-a24f51d6-840c-4b87-8342-75b866fc3624" points="56.02 185.42 56.2 186.38 56.49 187.93 56.91 190.19 57.58 193.52 58.02 195.5 58.07 195.88 58.33 197.67 58.33 198.33 58.33 199.02 58.54 200.32 58.74 201.56 60.27 203.72 61.29 205.17 61.07 205.4 59.44 203.44 59.67 204.89 59.82 205.8 59.98 208.21 59.85 210.47 59.87 213.23 60.33 214.48 61.36 215.01 63.28 214.72 66.41 214.06 69.46 214.51 72.16 214.02 74.38 213.38 75.63 212.4 75.87 211.7 75.64 211.1 74.81 210.67 73.35 210.55 71.32 210.68 70.25 209.98 69.08 208.64 67.79 207.29 66.37 206 65.55 205.28 64.93 204.35 64.51 201.81 63.39 203.57 63.15 203.37 63.57 202.63 64.42 200.99 64.57 200.71 64.96 199.43 64.97 197.23 64.58 194.16 64.41 192.83 64.28 190.86 64.17 189.01 64.07 186.88 64.19 185.18 64.24 184.5 63.59 184.89 62.06 185.45 58.78 185.74 58.26 185.77 56.39 185.73 56.02 185.42"/><polyline class="uuid-fdbefed7-d09d-42da-b3de-65bcc2c6fbec" points="58.11 186.62 62 185.94 61.02 186.01 59.17 186.25 58.02 186.5 59.43 186.27 59.71 186.27 57.83 186.27 57.26 186.19 58.1 186.18 59.08 186.15 59.8 186.08 60.97 185.94"/><polyline class="uuid-3ccfe16c-5e97-46ec-9a47-d2cf9afa3880" points="56.44 185.57 56.71 186.1 57.01 187.4 56.9 188.07 57.01 188.52 57.2 189.3 57.44 190.46 57.68 191.82 57.92 193.27 58.27 194.69 58.62 195.94 58.77 197.6 58.84 199.14 58.88 199.91 59.1 201.19 59.2 201.66 59.65 202.34 60.61 203.56 61.3 204.64 61.81 205.24"/><path class="uuid-fdbefed7-d09d-42da-b3de-65bcc2c6fbec" d="m58.16,186.01l1.76-.17s-.05.01-.07,0c.61-.2,1.21-.21,1.87-.23,0,0-.04.02-.06.03.64-.56,1.71-.64,2.63-.65"/><path class="uuid-fdbefed7-d09d-42da-b3de-65bcc2c6fbec" d="m58.38,197.09c0-.08-.03-.16-.03-.24,0-.26,0-.51,0-.77"/><path class="uuid-fdbefed7-d09d-42da-b3de-65bcc2c6fbec" d="m58.16,195.67v-.4"/><path class="uuid-fdbefed7-d09d-42da-b3de-65bcc2c6fbec" d="m56.73,188.4s0-.06-.01-.09c0-.03,0-.04,0-.07,0-.07,0-.14,0-.2,0-.08-.01-.15-.03-.23-.05-.22,0-.42-.06-.62-.06-.19-.13-.38-.21-.56-.03-.08-.07-.15-.09-.24"/><path class="uuid-fdbefed7-d09d-42da-b3de-65bcc2c6fbec" d="m56.68,188.11v-.28"/><path class="uuid-fdbefed7-d09d-42da-b3de-65bcc2c6fbec" d="m56.57,187.73v-.35h0"/><path class="uuid-fdbefed7-d09d-42da-b3de-65bcc2c6fbec" d="m56.53,187.37c0-.08-.01-.15,0-.23v-.09s0-.08,0-.11"/><path class="uuid-fdbefed7-d09d-42da-b3de-65bcc2c6fbec" d="m56.54,187.45v-.1"/><path class="uuid-fdbefed7-d09d-42da-b3de-65bcc2c6fbec" d="m56.51,187.07c-.01-.1-.05-.19-.05-.28"/><path class="uuid-fdbefed7-d09d-42da-b3de-65bcc2c6fbec" d="m56.47,187.15c0-.05,0-.1,0-.16"/><path class="uuid-fdbefed7-d09d-42da-b3de-65bcc2c6fbec" d="m56.4,186.81v-.22"/><path class="uuid-fdbefed7-d09d-42da-b3de-65bcc2c6fbec" d="m56.33,186.4v-.1"/><path class="uuid-fdbefed7-d09d-42da-b3de-65bcc2c6fbec" d="m56.36,186.23s-.07-.05-.08-.1c0-.04-.03-.08-.04-.13"/><path class="uuid-fdbefed7-d09d-42da-b3de-65bcc2c6fbec" d="m56.38,186.11s-.07-.06-.1-.1"/><path class="uuid-fdbefed7-d09d-42da-b3de-65bcc2c6fbec" d="m56.31,186.02s0-.02-.01-.03"/><path class="uuid-fdbefed7-d09d-42da-b3de-65bcc2c6fbec" d="m56.22,185.92h.08"/><path class="uuid-fdbefed7-d09d-42da-b3de-65bcc2c6fbec" d="m56.37,186.09s-.03-.07-.05-.09"/><path class="uuid-fdbefed7-d09d-42da-b3de-65bcc2c6fbec" d="m56.44,186.07s-.02,0-.03-.01c0,0-.01,0-.02,0"/><path class="uuid-fdbefed7-d09d-42da-b3de-65bcc2c6fbec" d="m56.34,185.99s0-.02-.02-.02"/><path class="uuid-fdbefed7-d09d-42da-b3de-65bcc2c6fbec" d="m56.27,185.96h.03s.01,0,.02,0,0,0,0,0"/><path class="uuid-fdbefed7-d09d-42da-b3de-65bcc2c6fbec" d="m56.22,185.86h0"/><path class="uuid-fdbefed7-d09d-42da-b3de-65bcc2c6fbec" d="m56.22,185.85s.04.06.07.09"/><polygon class="uuid-1e4c6dbd-2206-470f-a1d5-0f323a66bb63" points="56.78 185.85 57.41 189.6 59.54 189.35 58.66 186.03 56.78 185.85"/><polygon class="uuid-1e4c6dbd-2206-470f-a1d5-0f323a66bb63" points="59.2 189.24 59.78 193.05 60.07 194.46 61.11 194.12 60.06 189 59.2 189.24"/><polygon class="uuid-1e4c6dbd-2206-470f-a1d5-0f323a66bb63" points="59.3 197.06 59.66 201.48 60.65 203.32 62.39 205.24 64.02 200.76 60.74 196.37 59.3 197.06"/><polyline class="uuid-1e4c6dbd-2206-470f-a1d5-0f323a66bb63" points="61.97 185.85 63.73 185.29 64.2 185.03 64.29 184.99 64.33 184.93"/><path class="uuid-fdbefed7-d09d-42da-b3de-65bcc2c6fbec" d="m64.33,184.96v-.04s.02.03,0,.04Z"/><polygon class="uuid-1e4c6dbd-2206-470f-a1d5-0f323a66bb63" points="63.96 185.4 63.81 187.52 64.13 193.1 64.68 197.41 64.68 199.56 64.35 200.73 63.44 200.37 63.22 196.83 62.75 192.53 61.58 186.94 61.72 186.15 63.96 185.4"/><polygon class="uuid-1e4c6dbd-2206-470f-a1d5-0f323a66bb63" points="57.47 187.07 61.65 185.81 62.41 187.03 63.31 195.37 62.62 201.19 59.36 197.91 57.47 187.07"/><polyline class="uuid-d7872558-f361-40b3-aba3-c3049da21396" points="59.61 204.32 59.47 203.57 59.57 203.59 60.17 204.41 61.08 205.46 61.11 205.57 64.55 209.46 70.53 214.32 69.41 214.5 66.41 213.99 64.24 214.5 61.34 215 60.37 214.46 59.96 209.02"/><polyline class="uuid-d7872558-f361-40b3-aba3-c3049da21396" points="60.01 209.28 59.91 210.15 59.94 211.03 59.96 213.15 60.39 214.37"/><polyline class="uuid-d7872558-f361-40b3-aba3-c3049da21396" points="61.07 205.4 63.1 203.38 63.39 203.57 64.91 204.21 65.55 205.28 67.25 206.81 68.86 208.41 70.25 209.98 71.26 210.65 70.88 214.25 70.34 214.35 61.42 206.62"/><path class="uuid-a24f51d6-840c-4b87-8342-75b866fc3624" d="m65.15,204.76c-.41-.48-.72-1.06-.9-1.7-.1.14-.22.28-.37.33-.02,0-.05.01-.06.03s-.02.05-.03.07c-.03.25.07.49.24.63.03.03.1.04.11,0,.09-.23.13-.49.12-.72-.38.39-.86.6-1.34.78-.38.14-.77.26-1.16.37"/><polyline class="uuid-d7872558-f361-40b3-aba3-c3049da21396" points="71.5 210.84 71.13 214.29 72.25 214.16 74.6 213.46 75.84 212.48 76.07 211.8 75.86 211.2 75.03 210.8 73.48 210.67 71.26 210.84"/><polygon class="uuid-d7872558-f361-40b3-aba3-c3049da21396" points="63.66 183.82 63.64 184.72 63.66 184.79 64.28 184.52 64.38 184.73 64.41 184.59 64.34 184.08 63.96 183.82 63.66 183.82"/><polygon class="uuid-d7872558-f361-40b3-aba3-c3049da21396" points="56.9 184.68 56.73 184.76 56.11 185.15 56.17 185.39 56.66 185.77 57.15 185.77 56.9 184.68"/><polyline class="uuid-4c36d7c6-59cc-4933-aa23-813ff6df9de4" points="60.67 215.34 60.91 217.29 60.91 217.39 61.33 217.57 62.73 217.72 64.08 217.75 64.51 217.75 65.43 217.54"/><polygon class="uuid-4c36d7c6-59cc-4933-aa23-813ff6df9de4" points="65.34 217.54 65.6 217.1 65.66 216.67 65.66 215.64 65.79 215.22 65.68 214.89 61.47 215.64 65.26 217.56 65.34 217.54"/><path class="uuid-1af68d13-56bd-466f-8cf4-f5b509cbf8a5" d="m130.16,201.65s.04.09.08.11.1.03.11.08c-.04,0-.08.01-.13.02"/><polyline class="uuid-4c36d7c6-59cc-4933-aa23-813ff6df9de4" points="67.9 215.14 68.34 215.25 68.97 216.28 69.69 216.76 70.83 216.69 74.35 215.74 69.62 215.18 67.9 214.92"/><polyline class="uuid-4c36d7c6-59cc-4933-aa23-813ff6df9de4" points="69.53 215.28 71.86 214.89 73.96 214.33 75.14 213.5 75.08 214.44 74.74 215.22 73.71 215.76"/><polyline class="uuid-d7872558-f361-40b3-aba3-c3049da21396" points="36.71 176.75 31.73 194.14 31.13 194.99 29.01 195.88 28.25 196.7 27.77 197.56 27.61 198.47 35.72 194.98 39.04 192.33 41.1 187.22 42.11 184.61 42.67 183.49 42.05 182.67 38.22 178.34 36.8 176.82"/><polygon class="uuid-d7872558-f361-40b3-aba3-c3049da21396" points="36.86 176.71 36.82 176.84 38.45 178.71 38.63 178.81 37.43 177.24 36.86 176.71"/><polyline class="uuid-d7872558-f361-40b3-aba3-c3049da21396" points="35.67 195 35.82 195.28 36.37 194.96 38.21 193.59 38.01 194.92 37.29 197.41 36.33 200.75 34.9 205.17 34.38 207.18 33.33 211.05 31.82 210.6 30.52 209.97 30.25 209.37 30.42 208.6 30.29 205.7 29.95 203.95 29.85 203.37 29.32 202.2 28.94 201.31 28.06 199.68 27.57 198.52"/><polyline class="uuid-d7872558-f361-40b3-aba3-c3049da21396" points="34.37 207.21 34.51 207.29 34.85 207.59 35.53 208.13 36.69 208.78 37.33 209.92 37.17 211.05 36.6 211.7 35.75 211.82 33.29 211.05"/><polyline class="uuid-4c36d7c6-59cc-4933-aa23-813ff6df9de4" points="27.46 198.86 26.81 199.42 26.64 199.95 26.7 200.94 27.82 203.68 28.53 204.48 29.2 204.95 29.57 205.6 29.84 204.79 29.61 203.42 28.59 201.24"/><polyline class="uuid-4c36d7c6-59cc-4933-aa23-813ff6df9de4" points="29.57 205.66 29.67 207.34 29.41 209.18 30.17 208.63 30.02 205.83 29.84 204.79"/><polygon class="uuid-4c36d7c6-59cc-4933-aa23-813ff6df9de4" points="29.41 209.24 29.28 210 29.21 211.24 29.36 211.91 30.3 212.53 32 212.93 30.37 210.23 29.98 209.52 30.11 208.67 29.41 209.24"/><polyline class="uuid-4c36d7c6-59cc-4933-aa23-813ff6df9de4" points="30.4 210.27 31.84 210.93 35.77 212.12 36.5 212.02 36.5 212.49 35.95 213.7 35.4 213.85 33.65 213.5 32 212.93"/><polyline class="uuid-b34553ea-c843-4f27-a8a3-afea540f9fa7" points="72.53 154.89 74.69 164.38 76.18 172.34 76.9 177.01 74.27 178.88 71.86 180.26 69.84 181.05 68.52 181.26 67.02 181.38 65.3 181.05 63.55 180.26 61.3 178.2 60.16 177.52 59.08 177.4 57.87 177.8 56.63 179.13 55.52 181.59 54.25 184.96 53.17 186.59 52.13 187.45 50.48 187.97 49.31 187.65 47.79 186.93 45.84 185.39 42.55 182.48 40.58 180.3 38.92 178.2 36.82 175.89 34.78 174.63 32.93 173.94 30.9 173.63 29 173.63 26.24 173.94 23.93 174.41 21.01 175.25 34.18 155.05"/><polyline class="uuid-b34553ea-c843-4f27-a8a3-afea540f9fa7" points="53.94 128.81 52.35 133.5 51.23 136.6 49.69 139.73 47.71 142.94 44.59 146.96 40.41 151.22 37.12 153.8 35.14 155.04 50.95 155.04 63.68 154.89 72.57 154.74"/><polyline class="uuid-b34553ea-c843-4f27-a8a3-afea540f9fa7" points="34.18 155.05 36.13 152.05 36.89 153.07 35.02 154.83 35.01 155.04 34.26 155.05"/><polyline class="uuid-b34553ea-c843-4f27-a8a3-afea540f9fa7" points="36.92 153.03 37.73 152.18 38.26 151.6 38.99 150.71 40.2 149.12 41.15 147.61 42 146.05 42.73 144.37 43.33 142.45 43.5 141.76 43.68 140.7"/><polyline class="uuid-b34553ea-c843-4f27-a8a3-afea540f9fa7" points="43.72 140.43 43.61 140.58 43.08 141.38 42.25 142.68 36.13 152.05 36.92 153.03 43.3 141.92"/><polyline class="uuid-b34553ea-c843-4f27-a8a3-afea540f9fa7" points="59.36 136.34 59.52 136.29 60.3 135.08 59.36 134.14 57.13 131.89 55.61 130.38 54.03 128.77 53.97 128.9"/><polyline class="uuid-b34553ea-c843-4f27-a8a3-afea540f9fa7" points="57.62 134.17 58.03 134.05 59.62 136.34 60.14 136.86 64.13 130.7 68.27 132.78 68.76 135.45 70.6 144.83 72.57 154.74"/><path class="uuid-b34553ea-c843-4f27-a8a3-afea540f9fa7" d="m64.07,130.62l-.57-.51-.89,1.39c-.89-1.08-1.44-1.9-1.44-1.9l-1.69-2.57-1.88-2.82-1-1.49,1.2.77.51-.2-.17-.69,2.32.95.1-.31,7.07-1.29.6,10.73"/><polyline class="uuid-b34553ea-c843-4f27-a8a3-afea540f9fa7" points="57.26 121.4 56.62 122.65 57.81 123.4 57.28 121.34"/><polyline class="uuid-b34553ea-c843-4f27-a8a3-afea540f9fa7" points="60.51 123.23 58.05 122.21 57.68 120.76 57.56 120.76 58.31 119.3 59.48 116.96 60.28 114.93 61.05 112.85 65.87 116.05 65.96 116.07 65.96 116.29 66.02 116.6 66.13 116.9 66.26 117.04 66.5 117.21 66.69 117.29 67.15 117.29 67.36 117.15 67.58 116.94 67.72 116.72 67.84 116.39 68.46 116.61 67.66 121.96"/><polyline class="uuid-b34553ea-c843-4f27-a8a3-afea540f9fa7" points="65.98 115.98 66.08 115.64 66.33 115.37 66.81 115.1 67.18 115.14 67.41 115.28 67.57 115.42 67.7 115.6 67.81 115.9 67.85 116.28 68.49 116.53 68.85 114.16 69.01 112.99 69.21 111.74 69.74 108.34 68.63 108.55"/><polyline class="uuid-b34553ea-c843-4f27-a8a3-afea540f9fa7" points="67.49 110.08 67.2 108.84 68.63 108.55 67.86 110.74"/><polyline class="uuid-b34553ea-c843-4f27-a8a3-afea540f9fa7" points="67.63 110.29 67.69 110.77 67.66 111.02 67.78 111.08 67.94 110.29"/><polyline class="uuid-b34553ea-c843-4f27-a8a3-afea540f9fa7" points="67.63 111.08 67.52 111.38 67.25 111.71 66.78 111.86 66.26 111.73 64 114.71 65.87 116.09 65.96 116.07 66.53 114.8 67.91 111.19"/><polyline class="uuid-b34553ea-c843-4f27-a8a3-afea540f9fa7" points="66.21 111.7 65.96 111.42 65.82 110.92 65.82 110.39 62.13 107.52 61.72 110 61.02 112.78 64 114.81"/><polyline class="uuid-b34553ea-c843-4f27-a8a3-afea540f9fa7" points="65.89 110.36 66 110.17 66.39 109.76 66.69 109.68 67.04 109.7 67.4 109.97 67.12 108.81 65.29 108.44 64.04 108.92 62.13 107.42"/><polyline class="uuid-b34553ea-c843-4f27-a8a3-afea540f9fa7" points="62.13 107.42 62.42 103.8 67.68 100.47 65.37 107.85 65.29 108.34 63.97 108.95"/><polyline class="uuid-b34553ea-c843-4f27-a8a3-afea540f9fa7" points="65.44 107.8 67.35 108.26 69.84 107.66 70.49 107.08 71.16 106.22 71.73 104.63 71.93 102.99 71.71 101.17 71.05 99.48 70.36 99.48 69.96 99.83 69.08 100.2 67.79 100.47 67.68 100.42"/><polyline class="uuid-b34553ea-c843-4f27-a8a3-afea540f9fa7" points="70.39 99.25 70.53 99.04 70.59 98.83 70.91 99.25 70.44 99.45"/><polyline class="uuid-b34553ea-c843-4f27-a8a3-afea540f9fa7" points="56.48 123.08 54.14 128.54 56.9 131.37"/><polyline class="uuid-b34553ea-c843-4f27-a8a3-afea540f9fa7" points="57.97 125.3 58.02 125.7 57.97 126.25 57.75 126.79 57.26 127.46 56.67 128 56.9 131.23 57.47 129.98 59.57 128.26 59.82 128.05 58.09 125.35"/><polyline class="uuid-b34553ea-c843-4f27-a8a3-afea540f9fa7" points="59.63 128.37 59.85 128.17 60.64 129.38 61.58 130.82 61.46 131.01 61.39 131.11 61.31 131.23 61.27 131.31 59.86 128.81"/><polyline class="uuid-b34553ea-c843-4f27-a8a3-afea540f9fa7" points="59.82 128.79 57.78 130.5 57.23 131.58 59.63 133.98 61.24 131.29"/><line class="uuid-059754e2-e542-40cf-aba4-75a056d4fe19" x1="59.77" y1="128.74" x2="59.86" y2="128.65"/><polyline class="uuid-b34553ea-c843-4f27-a8a3-afea540f9fa7" points="50.97 93.08 50.08 97.81 49.32 103.88 51.05 123.05 52.63 120.97 54.14 118.34 54.94 116.53 55.72 113.82 56.38 109.65 56.3 108.13 56.19 105.73 55.72 103 54.72 99.93 53.46 97.07 51.13 93.31"/><polyline class="uuid-27f68765-c8ec-4592-bd3d-8686e2e110eb" points="61.78 131.01 59.77 134.25 60.39 134.88 62.32 131.68"/><polyline class="uuid-27f68765-c8ec-4592-bd3d-8686e2e110eb" points="76 108.36 76.05 108.06 76.63 107.69 76.97 107.69 77.35 108.85 78.1 110.59 79.25 112.31 79.29 113.28 78.88 113.66 77.97 113.39 77.36 112.62"/><polyline class="uuid-27f68765-c8ec-4592-bd3d-8686e2e110eb" points="61.97 95.45 62.32 98.5 62.45 103.04 67.24 100.03 69.66 99.29 70 98.98 70 98.5 69.76 97.9 68.82 96.95 67.3 95.82 65.44 94.64"/><polyline class="uuid-b34553ea-c843-4f27-a8a3-afea540f9fa7" points="69.97 110.59 69.12 116.09 77.07 112.66 75.71 108.42"/><polyline class="uuid-b34553ea-c843-4f27-a8a3-afea540f9fa7" points="69.94 110.54 71.55 109.98 71.82 109.9"/><polygon class="uuid-6a1ba80f-c3f4-45ff-a449-f33d78295145" points="54.21 86.02 54.53 86.12 55 86.44 54.42 87.1 52.62 88.97 50.64 91.36 50.15 90.58 50.64 89.8 52 87.98 53.56 86.35 54.21 86.02"/><polyline class="uuid-0e950e89-0cba-4806-a8c9-a4c2855f6a7e" points="52.9 89.05 53.88 91.02 57.73 91.8 60.75 89.15 57.25 88.27 55.19 86.57"/><polyline class="uuid-0e950e89-0cba-4806-a8c9-a4c2855f6a7e" points="52.7 89.1 53.74 91.25 57.71 92.03 56.9 95.23 56.34 95.16 55.45 94.96 54.47 94.68 52.95 94 52.29 93.68 51.61 92.94 50.59 91.28"/><polyline class="uuid-0e950e89-0cba-4806-a8c9-a4c2855f6a7e" points="57.71 92.03 58.92 92.81 59.21 92.42 59.7 91.91 60.14 91.61 60.54 91.52 60.82 91.52 61.22 91.61 60.83 89.1 57.73 91.8 57.71 92.17"/><polyline class="uuid-0e950e89-0cba-4806-a8c9-a4c2855f6a7e" points="60.83 89.1 63.77 87.56 65.76 91.41 65.74 92.34 65.64 92.17 65.48 92.26 64.92 92.62 64.47 92.84 63.79 93.03 63.23 93.03 62.81 92.95 62.26 92.61 61.76 92.09 61.27 91.66 61.19 91.61"/><polyline class="uuid-0e950e89-0cba-4806-a8c9-a4c2855f6a7e" points="57.71 92.03 56.92 95.28 57.94 95.36 58.97 95.36 59.96 95.32 60.83 95.28 62.21 95.23 59.08 92.95 58.94 92.81"/><polyline class="uuid-0e950e89-0cba-4806-a8c9-a4c2855f6a7e" points="59.08 92.95 59.47 92.47 59.7 92.21 60.06 91.91 60.3 91.8 60.55 91.72 60.79 91.72 61.16 91.85 61.39 92.03 61.71 92.33 62.14 92.77 62.62 93.11 62.95 93.22 63.51 93.3 63.9 93.25 64.28 93.17 64.87 94.6 62.18 95.2"/><polyline class="uuid-0e950e89-0cba-4806-a8c9-a4c2855f6a7e" points="64.29 93.17 64.87 92.9 65.68 92.39 65.76 92.53 65.76 92.81 65.86 93.17 66.03 93.47 65.85 93.93 65.54 94.3 64.87 94.56"/><polyline class="uuid-0e950e89-0cba-4806-a8c9-a4c2855f6a7e" points="51.05 92.44 51 92.66 51.64 93.56 52.09 94.19 52.48 94.82 52.04 93.68"/><polyline class="uuid-0e950e89-0cba-4806-a8c9-a4c2855f6a7e" points="52.11 93.75 52.89 94.21 53.83 94.66 54.81 94.99 53.32 96.26 52.55 94.94"/><polyline class="uuid-0e950e89-0cba-4806-a8c9-a4c2855f6a7e" points="54.81 94.99 55.72 95.28 57.43 95.5 58.16 98.03 58.62 100.34 58.94 102.97 58.99 104.71 58.92 106.72 58.74 108.59 58.28 111.17 57.77 113.06 55.77 102.01 54.95 99.72 53.46 96.38 53.32 96.26"/><polyline class="uuid-0e950e89-0cba-4806-a8c9-a4c2855f6a7e" points="54.86 117.44 54.28 118.68 52.85 121.24 51.04 123.52 48.21 125.79 42.18 130.77 51.99 125.61 53.41 123.39 55.13 120.1 56.12 117.72"/><polyline class="uuid-0e950e89-0cba-4806-a8c9-a4c2855f6a7e" points="51.99 125.61 52.39 126.01 53.86 128.35 52.07 133.45 50.97 136.56 43.85 136.19 43.29 132.55 42.18 130.77 43.42 134.01 43.72 134.67 47.62 130.38 51.9 125.79 42.33 130.68"/><polyline class="uuid-0e950e89-0cba-4806-a8c9-a4c2855f6a7e" points="42.18 130.77 43.71 133.9 47.96 130.77 51.2 127.51 51.8 125.61"/><polyline class="uuid-0e950e89-0cba-4806-a8c9-a4c2855f6a7e" points="43.34 133.42 43.74 134.79 46.68 132.19 45.54 131.15"/><polyline class="uuid-0e950e89-0cba-4806-a8c9-a4c2855f6a7e" points="43.85 136.19 44.07 137.84 44.07 139.65 43.72 141.92 45.61 145.21 47.26 143.13 48.8 140.68 50.4 137.79 50.97 136.56"/><polyline class="uuid-0e950e89-0cba-4806-a8c9-a4c2855f6a7e" points="43.72 142.04 43.3 143.49 42.51 145.62 41.41 147.69 40.99 150.18 42.89 148.33 45.54 145.3 46.21 144.2"/><line class="uuid-6fdd1870-dbaa-47e2-95e8-4fbfcb1274a8" x1="43.63" y1="147.7" x2="45.17" y2="145.98"/><polyline class="uuid-0e950e89-0cba-4806-a8c9-a4c2855f6a7e" points="41.35 147.83 40.3 149.43 38.73 151.47 36.62 153.74 36.92 153.63 38.25 152.65 39.8 151.36 41.05 150.18"/><polyline class="uuid-0e950e89-0cba-4806-a8c9-a4c2855f6a7e" points="58 95.59 59.76 95.59 61.74 95.45 61.86 96.49 62.07 99.01 62.19 102.11 62.13 104.37 59.07 99.91"/><polyline class="uuid-0e950e89-0cba-4806-a8c9-a4c2855f6a7e" points="59.11 100.08 59.47 102.94 59.5 105.04 59.44 107.08 59.26 109.36 61.55 109.29 61.8 108.14 62.01 106.09 62.19 104.26"/><polyline class="uuid-0e950e89-0cba-4806-a8c9-a4c2855f6a7e" points="59.26 108.43 58.99 110.36 58.15 113.74 57.66 115.22 59.5 116.27 60.37 114.07 61.02 111.82 61.56 109.23"/><polyline class="uuid-0e950e89-0cba-4806-a8c9-a4c2855f6a7e" points="57.66 115.26 57.07 116.89 56.33 118.8 55.5 120.58 54.59 122.43 52.39 126.01 53.94 128.48 54.94 125.85 56.56 122.21 57.86 119.59 58.93 117.56 59.53 116.21"/><polygon class="uuid-b1cb3688-b773-481b-ad82-341650f09005" points="21.05 212.68 9.68 212.96 7.49 213.58 6.94 214.39 7.56 214.98 11.05 216.06 14.89 216.44 19.83 216.98 25.11 217.11 31.54 216.91 35.39 216.22 36.28 215.6 35.43 214.3 31.04 213.48 21.05 212.68"/><path class="uuid-07c41be0-40b4-441b-9de6-9911170739ad" d="m7.31,213.59c-.08.05-.66.39-.62.78.03.27.36.44.54.53,2.44,1.16,3.89,1.15,3.89,1.15,2.62-.02,5.22.6,7.85.72,15.49.72,6.8.2,9.03.32,1.37.08,3.17.19,5.53-.27,1.1-.21,1.99-.49,2.59-.7"/><polyline class="uuid-b1cb3688-b773-481b-ad82-341650f09005" points="33.79 219.2 9.09 221.12 1.67 224.2 .69 226.22 6.01 228.26 22.42 229.21 50.41 230.18 59.06 230.12 44.52 233.88 44.07 234.7 49.05 235.9 75.04 238.02 89.36 238.52 92.92 235.95 88.14 232.53 99.79 230.62 118.89 227.48 121.32 225.52 118.51 222.17 112.76 220.21 76.91 217.56"/><polygon class="uuid-b1cb3688-b773-481b-ad82-341650f09005" points="165.76 231.2 154.39 231.49 152.2 232.11 151.65 232.91 152.27 233.5 155.76 234.58 159.6 234.96 164.54 235.51 169.82 235.63 176.25 235.44 180.1 234.74 180.99 234.13 180.14 232.82 175.75 232 165.76 231.2"/><path class="uuid-07c41be0-40b4-441b-9de6-9911170739ad" d="m152.02,232.12c-.08.05-.66.39-.62.78.03.27.36.44.54.53,2.44,1.16,3.89,1.15,3.89,1.15,2.62-.02,5.22.6,7.85.72,15.49.72,6.8.2,9.03.32,1.37.08,3.17.19,5.53-.27,1.1-.21,1.99-.49,2.59-.7"/><polyline class="uuid-07c41be0-40b4-441b-9de6-9911170739ad" points="1.67 224.2 .69 226.22 6.01 228.26 21.25 229.13 45.18 230.26 57.34 230.26 44.52 233.88 44.07 234.7 49.05 235.9 62.48 236.99 89.36 238.52 92.92 235.95 88.14 232.53 105.14 229.74 118.89 227.48 121.32 225.52 120.53 224.58 105.72 229.29 105.54 229.35"/><polyline class="uuid-31dd578a-15a7-4cba-9e0f-d066357dfd2d" points="105.67 229.47 106.47 229.18 108.7 228.48 110.93 227.77 113.81 226.89 118.72 225.3 120.5 224.77 121.09 225.48 118.87 227.31 108.17 229.12"/><path class="uuid-31dd578a-15a7-4cba-9e0f-d066357dfd2d" d="m103.08,223.33c-.46.5-.36,1.38.47,1.87.83.49,2,.38,2.72-.09.64-.41.93-1.12.59-1.62-.58-.86-3-1.01-3.78-.17Z"/><path class="uuid-31dd578a-15a7-4cba-9e0f-d066357dfd2d" d="m41.41,222.03c-1.16.54-.9,1.48,1.17,2,2.05.52,4.98.4,6.75-.09,1.58-.44,2.31-1.2,1.47-1.73-1.46-.92-7.47-1.08-9.4-.18h0Z"/><path class="uuid-31dd578a-15a7-4cba-9e0f-d066357dfd2d" d="m58.58,232.93c-1.03.48-.8,1.33,1.05,1.8,1.83.46,4.44.36,6.01-.08,1.4-.39,2.06-1.08,1.31-1.55-1.3-.83-6.65-.97-8.36-.16h0Z"/><path class="uuid-31dd578a-15a7-4cba-9e0f-d066357dfd2d" d="m7.34,224.41c-.67.24-.52.66.68.9,1.19.24,2.9.18,3.93-.04.92-.2,1.34-.54.85-.78-.85-.42-4.35-.48-5.46-.08Z"/><path class="uuid-31dd578a-15a7-4cba-9e0f-d066357dfd2d" d="m93.18,222.37c-.64.32-.5.88.66,1.2,1.15.31,2.78.24,3.76-.05.88-.26,1.29-.72.82-1.03-.81-.55-4.16-.64-5.23-.11h0Z"/><polyline class="uuid-0e950e89-0cba-4806-a8c9-a4c2855f6a7e" points="56.68 107.34 56.68 107.9 56.71 109.32 56.68 109.88 56.57 111.21 57.33 110.62 57.95 112.41 57.21 115.11 56.16 117.64 56.06 117.87 54.86 117.44 55.29 116.31 55.9 114.34 56.24 112.68 56.44 111.28"/><polyline class="uuid-0e950e89-0cba-4806-a8c9-a4c2855f6a7e" points="56.79 107.64 56.7 108.69 56.75 109.47 56.83 110.71 56.83 111.21 56.62 110.55 56.58 111.02 56.58 111.36 56.98 110.62 57.2 109.89"/><polyline class="uuid-0e950e89-0cba-4806-a8c9-a4c2855f6a7e" points="57.34 110.19 56.67 109.97 56.58 111.36 57.34 110.96"/><line class="uuid-412ee5b2-2936-44d9-ac8d-3f92c328d47c" x1="62.96" y1="180.14" x2="63.29" y2="185.23"/><line class="uuid-528c7355-802b-41ce-92c4-c684366b14de" x1="60.67" y1="135.08" x2="54" y2="128.36"/><line class="uuid-528c7355-802b-41ce-92c4-c684366b14de" x1="62.68" y1="131.73" x2="56.44" y2="122.61"/><line class="uuid-528c7355-802b-41ce-92c4-c684366b14de" x1="61.84" y1="130.56" x2="59.64" y2="134.01"/><polyline class="uuid-b34553ea-c843-4f27-a8a3-afea540f9fa7" points="56.59 123.11 56.54 123.26 56.74 126.77 56.92 126.61 57.17 126.27 57.34 125.79 57.34 125.27 57.09 124.54 57.34 124.31 56.82 123.41"/><polyline class="uuid-b34553ea-c843-4f27-a8a3-afea540f9fa7" points="56.94 126.77 57.24 127.2 56.74 127.75 56.5 126.95"/><polyline class="uuid-84508442-824a-4911-83e4-1953920b70d1" points="66.9 115.35 66.68 115.43 66.54 115.52 66.44 115.64 66.33 115.78 66.26 115.89 66.21 116.03 66.18 116.16 66.18 116.31 66.22 116.48 66.26 116.6 66.36 116.75 66.45 116.88 66.54 116.96 66.65 117.01 66.82 117.06 67.15 117.02 67.31 116.9 67.48 116.67 67.58 116.46 67.59 116.17 67.59 115.98 67.52 115.81 67.35 115.54 67.13 115.41 66.95 115.35 66.83 115.35 66.57 115.63 66.42 115.84 66.3 116.07 66.27 116.24 66.3 116.42 66.41 116.66 66.56 116.82 66.7 116.9 66.84 116.94 67.12 116.9 67.35 116.68 67.41 116.54 67.48 116.38 67.49 116.11 67.42 115.84 67.32 115.7 67.18 115.57 66.97 115.48 66.8 115.52 66.64 115.71 66.5 115.9 66.42 116.11 66.4 116.22 66.42 116.4 66.46 116.51 66.55 116.63 66.65 116.74 66.78 116.79 66.93 116.82 67.12 116.8 67.24 116.65 67.34 116.44 67.38 116.22 67.38 116.06 67.31 115.86 67.19 115.73 67.07 115.64 66.94 115.61 66.8 115.64 66.7 115.78 66.59 115.93 66.55 116.05 66.52 116.16 66.52 116.29 66.53 116.46 66.59 116.53 66.67 116.6 66.83 116.68 66.97 116.71 67.1 116.69 67.19 116.56 67.23 116.42 67.25 116.3 67.27 116.17 67.26 116.02 67.21 115.94 67.13 115.86 67.02 115.79 66.94 115.77 66.85 115.78 66.77 115.86 66.7 115.99 66.67 116.08 66.65 116.17 66.64 116.31 66.64 116.41 66.73 116.48 66.87 116.53 66.99 116.56 67.09 116.56 67.15 116.42 67.18 116.2 67.17 116.07 67.13 115.99 67.02 115.92 66.94 115.9 66.84 115.95 66.79 116.06 66.76 116.19 66.76 116.31 66.77 116.37 66.83 116.43 66.93 116.43 67.03 116.44 67.09 116.36 67.08 116.18 67.09 116.11 67.02 116.01 66.94 116.01 66.86 116.05 66.86 116.18 66.85 116.28 66.87 116.35 66.92 116.35 66.98 116.34 67.01 116.3 67 116.18 67 116.09 66.93 116.08 66.92 116.2 66.92 116.32"/><polyline class="uuid-84508442-824a-4911-83e4-1953920b70d1" points="66.75 109.94 66.52 110.02 66.38 110.1 66.28 110.22 66.17 110.36 66.1 110.46 66.04 110.6 66.02 110.73 66.02 110.88 66.05 111.04 66.09 111.15 66.2 111.31 66.29 111.43 66.38 111.51 66.49 111.56 66.66 111.61 67 111.56 67.17 111.45 67.34 111.23 67.43 111.02 67.45 110.73 67.45 110.55 67.38 110.38 67.2 110.13 66.98 110 66.8 109.94 66.67 109.94 66.42 110.21 66.26 110.42 66.14 110.64 66.11 110.8 66.14 110.98 66.25 111.22 66.41 111.37 66.54 111.46 66.68 111.49 66.97 111.45 67.21 111.24 67.26 111.09 67.34 110.94 67.35 110.68 67.28 110.42 67.17 110.27 67.03 110.15 66.82 110.07 66.65 110.1 66.49 110.29 66.34 110.48 66.26 110.68 66.24 110.79 66.26 110.96 66.3 111.07 66.39 111.19 66.49 111.29 66.62 111.35 66.78 111.37 66.97 111.35 67.09 111.21 67.2 111 67.24 110.79 67.24 110.62 67.17 110.43 67.04 110.31 66.92 110.21 66.79 110.2 66.65 110.22 66.55 110.36 66.43 110.51 66.39 110.61 66.37 110.73 66.37 110.85 66.37 111.02 66.43 111.09 66.52 111.16 66.67 111.24 66.82 111.26 66.95 111.24 67.04 111.12 67.08 110.98 67.1 110.86 67.12 110.74 67.11 110.59 67.07 110.51 66.98 110.43 66.87 110.37 66.79 110.35 66.7 110.36 66.61 110.44 66.55 110.56 66.51 110.65 66.49 110.74 66.48 110.88 66.49 110.97 66.58 111.04 66.72 111.09 66.84 111.12 66.94 111.12 67 110.98 67.03 110.77 67.03 110.64 66.98 110.56 66.87 110.49 66.79 110.47 66.69 110.52 66.64 110.63 66.61 110.76 66.61 110.87 66.62 110.94 66.67 110.99 66.78 111 66.88 111 66.94 110.93 66.92 110.74 66.94 110.68 66.87 110.58 66.79 110.58 66.71 110.62 66.71 110.74 66.69 110.85 66.72 110.91 66.77 110.91 66.83 110.9 66.86 110.87 66.85 110.74 66.84 110.66 66.78 110.66 66.77 110.77 66.76 110.88"/></svg>