<?xml version="1.0" encoding="UTF-8"?><svg id="uuid-cdc0d1ad-6ed5-4e3b-8a33-968b1aae388b" xmlns="http://www.w3.org/2000/svg" width="62.03" height="75.64" viewBox="0 0 62.03 75.64"><defs><style>.uuid-cf5544c9-da10-446c-80fa-5d0511d9841d{fill:#fff;}.uuid-cf5544c9-da10-446c-80fa-5d0511d9841d,.uuid-fb3d687e-65c6-47bd-8437-50d3f91d19ae,.uuid-60d5caed-7e20-415c-bc9c-d43368003dc0,.uuid-df846149-4174-4213-9914-a8dab94e91fd,.uuid-401fc5d0-eb0a-4bd7-bf94-c42c4b2f171e{stroke:#221f20;stroke-miterlimit:10;}.uuid-fb3d687e-65c6-47bd-8437-50d3f91d19ae{fill:#1dade5;}.uuid-60d5caed-7e20-415c-bc9c-d43368003dc0{fill:#194224;}.uuid-df846149-4174-4213-9914-a8dab94e91fd{fill:#116a3f;}.uuid-401fc5d0-eb0a-4bd7-bf94-c42c4b2f171e{fill:none;}.uuid-c8a462c1-d550-4605-9d1c-ea2a09244f38,.uuid-40143f38-02ab-4bbe-a443-87118ed609d9{isolation:isolate;}.uuid-f9ff52d5-67f7-4e8f-ac8c-5be9500a95f1{stroke-width:0px;}.uuid-f9ff52d5-67f7-4e8f-ac8c-5be9500a95f1,.uuid-40143f38-02ab-4bbe-a443-87118ed609d9{fill:#221f20;}.uuid-40143f38-02ab-4bbe-a443-87118ed609d9{font-family:ArialRoundedMTBold, 'Arial Rounded MT Bold';font-size:9.42px;}</style></defs><path class="uuid-cf5544c9-da10-446c-80fa-5d0511d9841d" d="m1.55,39.73C1.98,24.5,10.6,10.92,23.45,5.21c12.77-5.67,27.46-2.59,37.44,7.87-7.56.44-19.01,2.07-31.87,7.87-12.72,5.73-21.84,13.31-27.48,18.79Z"/><path class="uuid-cf5544c9-da10-446c-80fa-5d0511d9841d" d="m60.89,13.07c-5.15,5.35-13.43,12.69-25.09,18.36-14.01,6.8-26.61,8.14-34.25,8.3"/><path class="uuid-f9ff52d5-67f7-4e8f-ac8c-5be9500a95f1" d="m22.3,5.66c-.7-1.53-1.39-3.06-2.09-4.59-.1-.22-.2-.43-.3-.65-.18-.39-.72-.54-1.05-.3-.37.26-.47.73-.28,1.15.7,1.53,1.39,3.06,2.09,4.59.1.22.2.43.3.65.18.39.72.54,1.05.3.37-.26.47-.73.28-1.15h0Z"/><polyline class="uuid-df846149-4174-4213-9914-a8dab94e91fd" points="1.55 39.73 1.97 34.81 2.87 30.41 4.56 25.29 6.28 21.6 8.53 17.85 10.87 14.76 13.19 12.25 14.51 11.01 16.13 9.64 17.65 8.51 19.48 7.3 21.63 6.08 15.59 28.39"/><polyline class="uuid-df846149-4174-4213-9914-a8dab94e91fd" points="15.66 28.13 21.63 6.08 41.49 16.37"/><polyline class="uuid-df846149-4174-4213-9914-a8dab94e91fd" points="21.63 6.08 25.77 4.28 29.14 3.28 32.54 2.66 36.7 2.4 40.57 2.65 44.26 3.33 47.75 4.39 52.18 6.39 56.43 9.11 60.69 12.86 60.28 13.11 56.77 13.41 51.08 14.19 47.59 14.86 44.19 15.65 41.47 16.38 41.16 16.47"/><line class="uuid-401fc5d0-eb0a-4bd7-bf94-c42c4b2f171e" x1="21.63" y1="6.08" x2="40.46" y2="16.47"/><line class="uuid-401fc5d0-eb0a-4bd7-bf94-c42c4b2f171e" x1="15.59" y1="28.39" x2="40.46" y2="16.47"/><polygon class="uuid-60d5caed-7e20-415c-bc9c-d43368003dc0" points="28.02 22.43 15.59 28.39 1.55 39.73 9.08 39.22 15.66 38.2 22.44 36.56 29.38 34.22 32.74 32.84 32.88 32.66 28.2 22.33 28.02 22.43"/><polygon class="uuid-60d5caed-7e20-415c-bc9c-d43368003dc0" points="29.55 21.63 38.64 17.34 43.67 15.78 51.4 14.14 60.69 13.09 56.49 17.36 50.97 22 45.83 25.68 40.23 29.11 35.2 31.71 34.26 32.13 29.55 21.63"/><path class="uuid-f9ff52d5-67f7-4e8f-ac8c-5be9500a95f1" d="m28.18,22.35c.77,1.7,1.54,3.4,2.32,5.09l5.56,12.22c2.23,4.9,4.46,9.8,6.69,14.7,1.94,4.26,3.87,8.51,5.81,12.77.63,1.4,1.27,2.79,1.9,4.19.3.67.58,1.35.91,2.01.01.03.02.06.04.08.44.97,1.76.12,1.32-.85-.77-1.7-1.54-3.4-2.32-5.09-1.85-4.08-3.7-8.15-5.56-12.22l-6.69-14.7c-1.94-4.26-3.87-8.51-5.81-12.77l-1.9-4.19c-.3-.67-.58-1.35-.91-2.01-.01-.03-.02-.06-.04-.08-.44-.97-1.76-.12-1.32.85h0Z"/><line class="uuid-401fc5d0-eb0a-4bd7-bf94-c42c4b2f171e" x1="41.33" y1="16.47" x2="40.27" y2="16.73"/><path class="uuid-fb3d687e-65c6-47bd-8437-50d3f91d19ae" d="m20.78,44.38c-.18.06.01.62-.2,1.55-.19.85-.48.92-.47,1.48,0,.59.32,1.39.94,1.55.49.13.97-.21,1.21-.52.4-.5.35-1.12.34-1.26-.04-.38-.18-.54-.81-1.48-.72-1.08-.88-1.38-1.01-1.33h0Z"/><path class="uuid-fb3d687e-65c6-47bd-8437-50d3f91d19ae" d="m20,57.96c-.18.06.01.62-.2,1.55-.19.85-.48.92-.47,1.48,0,.59.32,1.39.94,1.55.49.13.97-.21,1.21-.52.4-.5.35-1.12.34-1.26-.04-.38-.18-.54-.81-1.48-.72-1.08-.88-1.38-1.01-1.33h0Z"/><path class="uuid-fb3d687e-65c6-47bd-8437-50d3f91d19ae" d="m12.57,50.54c-.18.06.01.62-.2,1.55-.19.85-.48.92-.47,1.48,0,.59.32,1.39.94,1.55.49.13.97-.21,1.21-.52.4-.5.35-1.12.34-1.26-.04-.38-.18-.54-.81-1.48-.72-1.08-.88-1.38-1.01-1.33h0Z"/><path class="uuid-fb3d687e-65c6-47bd-8437-50d3f91d19ae" d="m17.73,50.54c-.18.06.01.62-.2,1.55-.19.85-.48.92-.47,1.48,0,.59.32,1.39.94,1.55.49.13.97-.21,1.21-.52.4-.5.35-1.12.34-1.26-.04-.38-.18-.54-.81-1.48-.72-1.08-.88-1.38-1.01-1.33h0Z"/><path class="uuid-fb3d687e-65c6-47bd-8437-50d3f91d19ae" d="m16.63,63.22c-.18.06.01.62-.2,1.55-.19.85-.48.92-.47,1.48,0,.59.32,1.39.94,1.55.49.13.97-.21,1.21-.52.4-.5.35-1.12.34-1.26-.04-.38-.18-.54-.81-1.48-.72-1.08-.88-1.38-1.01-1.33h0Z"/><path class="uuid-fb3d687e-65c6-47bd-8437-50d3f91d19ae" d="m24.06,68.8c1.47.09-.09.85,1.65,2.13,1.59,1.17,3.89,1.27,3.86,2.03-.04.8-2.62,1.91-7.71,2.13-4.01.17-7.88-.28-9.92-.71-3.25-.69-2.87-1.53-2.75-1.73.32-.52,1.49-.74,6.61-2.03,5.91-1.48,7.16-1.9,8.27-1.83h0Z"/><path class="uuid-fb3d687e-65c6-47bd-8437-50d3f91d19ae" d="m12.28,60.27c-.18.06.01.62-.2,1.55-.19.85-.48.92-.47,1.48,0,.59.32,1.39.94,1.55.49.13.97-.21,1.21-.52.4-.5.35-1.12.34-1.26-.04-.38-.18-.54-.81-1.48-.72-1.08-.88-1.38-1.01-1.33h0Z"/><path class="uuid-fb3d687e-65c6-47bd-8437-50d3f91d19ae" d="m13.83,40.81c-.18.06.01.62-.2,1.55-.19.85-.48.92-.47,1.48,0,.59.32,1.39.94,1.55.49.13.97-.21,1.21-.52.4-.5.35-1.12.34-1.26-.04-.38-.18-.54-.81-1.48-.72-1.08-.88-1.38-1.01-1.33Z"/><g class="uuid-c8a462c1-d550-4605-9d1c-ea2a09244f38"><text class="uuid-40143f38-02ab-4bbe-a443-87118ed609d9" transform="translate(40.3 41.16) rotate(63.42) scale(1.05 1) skewX(4.25)"><tspan x="0" y="0">d</tspan></text></g><g class="uuid-c8a462c1-d550-4605-9d1c-ea2a09244f38"><text class="uuid-40143f38-02ab-4bbe-a443-87118ed609d9" transform="translate(43.07 46.69) rotate(63.42) scale(1.05 1) skewX(4.25)"><tspan x="0" y="0">r</tspan></text></g><g class="uuid-c8a462c1-d550-4605-9d1c-ea2a09244f38"><text class="uuid-40143f38-02ab-4bbe-a443-87118ed609d9" transform="translate(45.01 50.56) rotate(63.42) scale(1.05 1) skewX(4.25)"><tspan x="0" y="0">i</tspan></text></g><g class="uuid-c8a462c1-d550-4605-9d1c-ea2a09244f38"><text class="uuid-40143f38-02ab-4bbe-a443-87118ed609d9" transform="translate(46.21 52.96) rotate(63.42) scale(1.05 1) skewX(4.25)"><tspan x="0" y="0">p</tspan></text></g><g class="uuid-c8a462c1-d550-4605-9d1c-ea2a09244f38"><text class="uuid-40143f38-02ab-4bbe-a443-87118ed609d9" transform="translate(33.62 53.67) rotate(63.42) scale(1.05 1) skewX(4.25)"><tspan x="0" y="0">d</tspan></text></g><g class="uuid-c8a462c1-d550-4605-9d1c-ea2a09244f38"><text class="uuid-40143f38-02ab-4bbe-a443-87118ed609d9" transform="translate(36.39 59.21) rotate(63.42) scale(1.05 1) skewX(4.25)"><tspan x="0" y="0">r</tspan></text><text class="uuid-40143f38-02ab-4bbe-a443-87118ed609d9" transform="translate(38.16 62.75) rotate(63.42) scale(1.05 1) skewX(4.25)"><tspan x="0" y="0">o</tspan></text></g><g class="uuid-c8a462c1-d550-4605-9d1c-ea2a09244f38"><text class="uuid-40143f38-02ab-4bbe-a443-87118ed609d9" transform="translate(40.84 68.09) rotate(63.42) scale(1.05 1) skewX(4.25)"><tspan x="0" y="0">p</tspan></text></g></svg>