<?xml version="1.0" encoding="UTF-8"?>
<svg id="uuid-37bf2d7d-eccb-4de1-bf04-b59e957154ae" data-name="Lag 1" xmlns="http://www.w3.org/2000/svg" viewBox="0 0 196.35 231.93">
  <defs>
    <style>
      .uuid-156fb078-9264-4f54-9f05-d8d2a24ec683 {
        fill: #fff;
      }

      .uuid-156fb078-9264-4f54-9f05-d8d2a24ec683, .uuid-c3bab69c-da3a-4950-9c2d-0b8f83c9935a, .uuid-d344e249-c0dd-4ea7-aeea-8f975326765e, .uuid-c6631442-8b02-4a87-8dcf-dc19de3f710b, .uuid-0236eb1f-37fc-4b73-8f2d-75a74f77d2c6 {
        stroke: #221f20;
        stroke-miterlimit: 10;
      }

      .uuid-c3bab69c-da3a-4950-9c2d-0b8f83c9935a {
        fill: #1dade5;
      }

      .uuid-d344e249-c0dd-4ea7-aeea-8f975326765e {
        fill: #194224;
      }

      .uuid-c6631442-8b02-4a87-8dcf-dc19de3f710b {
        fill: #116a3f;
      }

      .uuid-0236eb1f-37fc-4b73-8f2d-75a74f77d2c6 {
        fill: none;
      }

      .uuid-45be4451-de3f-4082-851f-37a2c8813e20 {
        font-family: ArialRoundedMTBold, 'Arial Rounded MT Bold';
        font-size: 30px;
      }

      .uuid-45be4451-de3f-4082-851f-37a2c8813e20, .uuid-00bff890-eb1f-45fe-8346-7fc816cba740 {
        fill: #221f20;
      }

      .uuid-00bff890-eb1f-45fe-8346-7fc816cba740 {
        stroke-width: 0px;
      }
    </style>
  </defs>
  <path class="uuid-156fb078-9264-4f54-9f05-d8d2a24ec683" d="m1.66,118.07C3.08,72.8,31.18,32.45,73.09,15.48c41.63-16.86,89.54-7.69,122.08,23.38-24.66,1.3-62,6.15-103.9,23.38C49.81,79.27,20.07,101.78,1.66,118.07Z"/>
  <path class="uuid-156fb078-9264-4f54-9f05-d8d2a24ec683" d="m195.17,38.85c-16.78,15.9-43.8,37.71-81.82,54.55C67.68,113.62,26.6,117.59,1.66,118.07"/>
  <path class="uuid-00bff890-eb1f-45fe-8346-7fc816cba740" d="m69.32,16.82c-2.27-4.55-4.54-9.1-6.81-13.65-.32-.64-.64-1.29-.97-1.93-.59-1.17-2.34-1.6-3.42-.9-1.2.77-1.52,2.17-.9,3.42,2.27,4.55,4.54,9.1,6.81,13.65.32.64.64,1.29.97,1.93.59,1.17,2.34,1.6,3.42.9,1.2-.77,1.52-2.17.9-3.42h0Z"/>
  <polyline class="uuid-c6631442-8b02-4a87-8dcf-dc19de3f710b" points="1.66 118.07 3.06 103.45 5.97 90.37 11.49 75.15 17.09 64.18 24.44 53.05 32.07 43.87 39.63 36.41 43.94 32.71 49.23 28.66 54.17 25.29 60.13 21.71 67.16 18.08 47.45 84.36"/>
  <polyline class="uuid-c6631442-8b02-4a87-8dcf-dc19de3f710b" points="47.68 83.6 67.16 18.08 131.91 48.66"/>
  <polyline class="uuid-c6631442-8b02-4a87-8dcf-dc19de3f710b" points="67.16 18.08 80.64 12.72 91.64 9.75 102.72 7.9 116.27 7.14 128.9 7.87 140.94 9.9 152.31 13.05 166.76 18.99 180.63 27.08 194.5 38.22 193.16 38.97 181.72 39.85 163.17 42.18 151.79 44.16 140.7 46.5 131.84 48.69 130.83 48.94"/>
  <line class="uuid-0236eb1f-37fc-4b73-8f2d-75a74f77d2c6" x1="67.16" y1="18.08" x2="128.53" y2="48.94"/>
  <line class="uuid-0236eb1f-37fc-4b73-8f2d-75a74f77d2c6" x1="47.45" y1="84.36" x2="128.53" y2="48.94"/>
  <polygon class="uuid-d344e249-c0dd-4ea7-aeea-8f975326765e" points="87.99 66.65 47.45 84.36 1.66 118.07 26.22 116.56 47.68 113.52 69.79 108.64 92.43 101.7 103.36 97.6 103.82 97.06 88.57 66.37 87.99 66.65"/>
  <polygon class="uuid-d344e249-c0dd-4ea7-aeea-8f975326765e" points="92.96 64.28 122.62 51.52 139.01 46.9 164.22 42.01 194.5 38.89 180.81 51.58 162.81 65.37 146.07 76.32 127.81 86.51 111.4 94.25 108.34 95.48 92.96 64.28"/>
  <g>
    <path class="uuid-00bff890-eb1f-45fe-8346-7fc816cba740" d="m88.5,66.43c2.52,5.04,5.03,10.09,7.55,15.13l18.13,36.32c7.27,14.56,14.54,29.13,21.81,43.69,6.31,12.65,12.63,25.3,18.94,37.96,2.07,4.15,4.14,8.3,6.21,12.45.99,1.98,1.9,4.02,2.97,5.96.04.08.08.17.12.25,1.44,2.88,5.75.35,4.32-2.52-2.52-5.04-5.03-10.09-7.55-15.13-6.04-12.11-12.08-24.21-18.13-36.32l-21.81-43.69c-6.31-12.65-12.63-25.3-18.94-37.96l-6.21-12.45c-.99-1.98-1.9-4.02-2.97-5.96-.04-.08-.08-.17-.12-.25-1.44-2.88-5.75-.35-4.32,2.52h0Z"/>
    <line class="uuid-0236eb1f-37fc-4b73-8f2d-75a74f77d2c6" x1="128.96" y1="49.44" x2="128.96" y2="49.44"/>
    <line class="uuid-0236eb1f-37fc-4b73-8f2d-75a74f77d2c6" x1="132.65" y1="48.47" x2="132.65" y2="48.47"/>
    <line class="uuid-0236eb1f-37fc-4b73-8f2d-75a74f77d2c6" x1="131.38" y1="48.94" x2="127.92" y2="49.72"/>
    <path class="uuid-c3bab69c-da3a-4950-9c2d-0b8f83c9935a" d="m64.38,131.9c-.59.19.04,1.85-.66,4.62-.63,2.53-1.55,2.74-1.54,4.4.01,1.74,1.04,4.14,3.08,4.62,1.6.38,3.15-.61,3.96-1.54,1.3-1.49,1.15-3.32,1.1-3.74-.13-1.14-.6-1.61-2.64-4.4-2.36-3.21-2.86-4.11-3.3-3.96Z"/>
    <path class="uuid-c3bab69c-da3a-4950-9c2d-0b8f83c9935a" d="m61.83,172.23c-.59.19.04,1.85-.66,4.62-.63,2.53-1.55,2.74-1.54,4.4.01,1.74,1.04,4.14,3.08,4.62,1.6.38,3.15-.61,3.96-1.54,1.3-1.49,1.15-3.32,1.1-3.74-.13-1.14-.6-1.61-2.64-4.4-2.36-3.21-2.86-4.11-3.3-3.96Z"/>
    <path class="uuid-c3bab69c-da3a-4950-9c2d-0b8f83c9935a" d="m37.62,150.19c-.59.19.04,1.85-.66,4.62-.63,2.53-1.55,2.74-1.54,4.4.01,1.74,1.04,4.14,3.08,4.62,1.6.38,3.15-.61,3.96-1.54,1.3-1.49,1.15-3.32,1.1-3.74-.13-1.14-.6-1.61-2.64-4.4-2.36-3.21-2.86-4.11-3.3-3.96Z"/>
    <path class="uuid-c3bab69c-da3a-4950-9c2d-0b8f83c9935a" d="m54.43,150.19c-.59.19.04,1.85-.66,4.62-.63,2.53-1.55,2.74-1.54,4.4.01,1.74,1.04,4.14,3.08,4.62,1.6.38,3.15-.61,3.96-1.54,1.3-1.49,1.15-3.32,1.1-3.74-.13-1.14-.6-1.61-2.64-4.4-2.36-3.21-2.86-4.11-3.3-3.96Z"/>
    <path class="uuid-c3bab69c-da3a-4950-9c2d-0b8f83c9935a" d="m50.86,187.87c-.59.19.04,1.85-.66,4.62-.63,2.53-1.55,2.74-1.54,4.4.01,1.74,1.04,4.14,3.08,4.62,1.6.38,3.15-.61,3.96-1.54,1.3-1.49,1.15-3.32,1.1-3.74-.13-1.14-.6-1.61-2.64-4.4-2.36-3.21-2.86-4.11-3.3-3.96Z"/>
    <path class="uuid-c3bab69c-da3a-4950-9c2d-0b8f83c9935a" d="m75.06,204.47c4.8.27-.29,2.54,5.39,6.34,5.18,3.47,12.69,3.77,12.58,6.04-.12,2.38-8.53,5.69-25.15,6.34-13.09.52-25.69-.83-32.34-2.11-10.61-2.04-9.37-4.56-8.98-5.13,1.05-1.56,4.86-2.21,21.56-6.04,19.26-4.41,23.33-5.64,26.95-5.44Z"/>
    <path class="uuid-c3bab69c-da3a-4950-9c2d-0b8f83c9935a" d="m36.67,179.1c-.59.19.04,1.85-.66,4.62-.63,2.53-1.55,2.74-1.54,4.4.01,1.74,1.04,4.14,3.08,4.62,1.6.38,3.15-.61,3.96-1.54,1.3-1.49,1.15-3.32,1.1-3.74-.13-1.14-.6-1.61-2.64-4.4-2.36-3.21-2.86-4.11-3.3-3.96Z"/>
    <path class="uuid-c3bab69c-da3a-4950-9c2d-0b8f83c9935a" d="m41.71,121.29c-.59.19.04,1.85-.66,4.62-.63,2.53-1.55,2.74-1.54,4.4.01,1.74,1.04,4.14,3.08,4.62,1.6.38,3.15-.61,3.96-1.54,1.3-1.49,1.15-3.32,1.1-3.74-.13-1.14-.6-1.61-2.64-4.4-2.36-3.21-2.86-4.11-3.3-3.96Z"/>
    <text class="uuid-45be4451-de3f-4082-851f-37a2c8813e20" transform="translate(128.03 122.31) rotate(61.23)"><tspan x="0" y="0">d</tspan></text>
    <text class="uuid-45be4451-de3f-4082-851f-37a2c8813e20" transform="translate(137.06 138.75) rotate(61.23)"><tspan x="0" y="0">r</tspan></text>
    <text class="uuid-45be4451-de3f-4082-851f-37a2c8813e20" transform="translate(143.38 150.26) rotate(61.23)"><tspan x="0" y="0">i</tspan></text>
    <text class="uuid-45be4451-de3f-4082-851f-37a2c8813e20" transform="translate(147.29 157.4) rotate(61.23)"><tspan x="0" y="0">p</tspan></text>
    <text class="uuid-45be4451-de3f-4082-851f-37a2c8813e20" transform="translate(106.26 159.51) rotate(61.23)"><tspan x="0" y="0">d</tspan></text>
    <text class="uuid-45be4451-de3f-4082-851f-37a2c8813e20" transform="translate(115.29 175.96) rotate(61.23)"><tspan x="0" y="0">r</tspan><tspan x="11.99" y="0">o</tspan></text>
    <text class="uuid-45be4451-de3f-4082-851f-37a2c8813e20" transform="translate(129.77 202.35) rotate(61.23)"><tspan x="0" y="0">p</tspan></text>
  </g>
</svg>