<?xml version="1.0" encoding="UTF-8"?><svg id="uuid-f5fce883-275d-40ee-aa14-b1a34901c8d0" xmlns="http://www.w3.org/2000/svg" width="90.76" height="111.82" viewBox="0 0 90.76 111.82"><defs><style>.uuid-613794a8-123f-44ba-bcfd-ad0d04aa756b{fill:#fff;}.uuid-613794a8-123f-44ba-bcfd-ad0d04aa756b,.uuid-a5c3f1fa-bc21-47d3-9c31-b9e24155bef9,.uuid-ea7464b2-1e9c-4936-8eb4-bf339079fcb7,.uuid-7225e344-4493-4966-8d17-166b7da6e21e,.uuid-5268954c-b6d0-4882-b926-e2b8fb90db4e{stroke:#221f20;stroke-miterlimit:10;}.uuid-a5c3f1fa-bc21-47d3-9c31-b9e24155bef9{fill:#1dade5;}.uuid-ea7464b2-1e9c-4936-8eb4-bf339079fcb7{fill:#194224;}.uuid-7225e344-4493-4966-8d17-166b7da6e21e{fill:#116a3f;}.uuid-75725759-c84d-4ccb-81ec-fd264ac91c66{font-family:ArialRoundedMTBold, 'Arial Rounded MT Bold';font-size:13.97px;isolation:isolate;}.uuid-75725759-c84d-4ccb-81ec-fd264ac91c66,.uuid-2a97ff8d-12b5-4d2a-8041-2be46fc7bba1{fill:#221f20;}.uuid-5268954c-b6d0-4882-b926-e2b8fb90db4e{fill:none;}.uuid-2a97ff8d-12b5-4d2a-8041-2be46fc7bba1{stroke-width:0px;}</style></defs><path class="uuid-613794a8-123f-44ba-bcfd-ad0d04aa756b" d="m1.55,58.89C2.18,36.29,14.98,16.13,34.06,7.7c18.94-8.43,40.75-3.84,55.59,11.67-11.25.65-28.23,3.09-47.31,11.67C23.45,39.53,9.92,50.75,1.55,58.89Z"/><path class="uuid-613794a8-123f-44ba-bcfd-ad0d04aa756b" d="m89.65,19.33c-7.65,7.93-19.94,18.81-37.24,27.19C31.6,56.59,12.88,58.59,1.55,58.84"/><path class="uuid-2a97ff8d-12b5-4d2a-8041-2be46fc7bba1" d="m32.33,8.35c-1.05-2.24-2.05-4.54-3.1-6.78-.14-.3-.27-.65-.46-.95-.27-.6-1.05-.8-1.55-.45-.55.4-.68,1.1-.41,1.7,1.05,2.29,2.05,4.54,3.1,6.78.14.3.27.65.46.95.27.6,1.05.8,1.55.45.55-.35.68-1.05.41-1.7h0Z"/><path class="uuid-2a97ff8d-12b5-4d2a-8041-2be46fc7bba1" d="m41.07,33.1c1.14,2.49,2.28,5.04,3.46,7.53l8.24,18.11c3.32,7.28,6.6,14.52,9.93,21.8,2.87,6.29,5.74,12.62,8.61,18.96.96,2.05,1.87,4.14,2.82,6.19.46,1,.87,2,1.37,2.99,0,.05.05.1.05.1.64,1.45,2.64.2,1.96-1.25-1.14-2.49-2.28-5.04-3.46-7.53-2.73-6.04-5.51-12.07-8.24-18.11l-9.93-21.8c-2.87-6.34-5.74-12.62-8.61-18.96l-2.82-6.19c-.46-1-.87-2-1.37-2.99,0-.05-.05-.1-.05-.1-.64-1.45-2.6-.15-1.96,1.25h0Z"/><polyline class="uuid-7225e344-4493-4966-8d17-166b7da6e21e" points="1.55 58.89 2.18 51.55 3.5 45.07 6.01 37.44 8.56 32 11.88 26.41 15.39 21.87 18.8 18.13 20.76 16.28 23.17 14.29 25.45 12.59 28.14 10.8 31.37 9 22.4 42.07"/><polyline class="uuid-7225e344-4493-4966-8d17-166b7da6e21e" points="22.49 41.68 31.37 9 60.83 24.27"/><polyline class="uuid-7225e344-4493-4966-8d17-166b7da6e21e" points="31.37 9 37.47 6.31 42.48 4.81 47.53 3.91 53.72 3.51 59.46 3.91 64.92 4.91 70.11 6.46 76.72 9.45 83 13.49 89.33 19.03 88.74 19.43 83.5 19.83 75.08 21.02 69.89 22.02 64.83 23.17 60.78 24.27 60.33 24.37"/><line class="uuid-5268954c-b6d0-4882-b926-e2b8fb90db4e" x1="31.37" y1="9" x2="59.28" y2="24.37"/><line class="uuid-5268954c-b6d0-4882-b926-e2b8fb90db4e" x1="22.4" y1="42.07" x2="59.28" y2="24.37"/><line class="uuid-5268954c-b6d0-4882-b926-e2b8fb90db4e" x1="60.6" y1="24.37" x2="59.01" y2="24.76"/><polygon class="uuid-ea7464b2-1e9c-4936-8eb4-bf339079fcb7" points="40.84 33.2 22.4 42.07 1.55 58.89 12.7 58.14 22.49 56.59 32.55 54.15 42.84 50.7 47.85 48.66 48.03 48.41 41.11 33.1 40.84 33.2"/><polygon class="uuid-ea7464b2-1e9c-4936-8eb4-bf339079fcb7" points="43.12 32.05 56.59 25.66 64.06 23.37 75.53 20.92 89.33 19.38 83.09 25.71 74.9 32.6 67.29 38.03 58.96 43.12 51.49 46.96 50.08 47.61 43.12 32.05"/><path class="uuid-a5c3f1fa-bc21-47d3-9c31-b9e24155bef9" d="m30.09,65.77c-.27.1,0,.95-.32,2.29-.27,1.25-.68,1.35-.68,2.19s.46,2.05,1.41,2.29c.73.2,1.46-.3,1.82-.75.59-.75.55-1.65.5-1.85-.05-.55-.27-.8-1.18-2.19-1.14-1.65-1.37-2.1-1.55-2h0Z"/><path class="uuid-a5c3f1fa-bc21-47d3-9c31-b9e24155bef9" d="m28.91,85.87c-.27.1,0,.95-.32,2.29-.27,1.25-.68,1.35-.68,2.19s.46,2.05,1.41,2.29c.73.2,1.46-.3,1.82-.75.59-.75.55-1.65.5-1.85-.05-.55-.27-.8-1.18-2.19-1.09-1.6-1.32-2.05-1.55-2h0Z"/><path class="uuid-a5c3f1fa-bc21-47d3-9c31-b9e24155bef9" d="m17.89,74.9c-.27.1,0,.95-.32,2.29-.27,1.25-.68,1.35-.68,2.19s.46,2.05,1.41,2.29c.73.2,1.46-.3,1.82-.75.59-.75.55-1.65.5-1.85-.05-.55-.27-.8-1.18-2.19-1.09-1.65-1.32-2.1-1.55-2h0Z"/><path class="uuid-a5c3f1fa-bc21-47d3-9c31-b9e24155bef9" d="m25.54,74.9c-.27.1,0,.95-.32,2.29-.27,1.25-.68,1.35-.68,2.19s.46,2.05,1.41,2.29c.73.2,1.46-.3,1.82-.75.59-.75.55-1.65.5-1.85-.05-.55-.27-.8-1.18-2.19-1.09-1.65-1.32-2.1-1.55-2h0Z"/><path class="uuid-a5c3f1fa-bc21-47d3-9c31-b9e24155bef9" d="m23.95,93.71c-.27.1,0,.95-.32,2.29-.27,1.25-.68,1.35-.68,2.19s.46,2.05,1.41,2.29c.73.2,1.46-.3,1.82-.75.59-.75.55-1.65.5-1.85-.05-.55-.27-.8-1.18-2.19-1.14-1.65-1.37-2.1-1.55-2h0Z"/><path class="uuid-a5c3f1fa-bc21-47d3-9c31-b9e24155bef9" d="m34.97,101.99c2.19.15-.14,1.25,2.46,3.14,2.37,1.75,5.78,1.9,5.74,2.99-.05,1.2-3.87,2.84-11.47,3.14-5.96.25-11.7-.4-14.71-1.05-4.83-1-4.28-2.29-4.1-2.54.46-.8,2.23-1.1,9.83-2.99,8.74-2.19,10.56-2.79,12.25-2.69h0Z"/><path class="uuid-a5c3f1fa-bc21-47d3-9c31-b9e24155bef9" d="m17.48,89.32c-.27.1,0,.95-.32,2.29-.27,1.25-.68,1.35-.68,2.19s.46,2.05,1.41,2.29c.73.2,1.46-.3,1.82-.75.59-.75.55-1.65.5-1.85-.05-.55-.27-.8-1.18-2.19-1.14-1.65-1.37-2.1-1.55-2h0Z"/><path class="uuid-a5c3f1fa-bc21-47d3-9c31-b9e24155bef9" d="m19.76,60.48c-.27.1,0,.9-.32,2.29-.27,1.25-.68,1.35-.68,2.19s.46,2.05,1.41,2.29c.73.2,1.46-.3,1.82-.75.59-.75.55-1.65.5-1.85-.05-.55-.27-.8-1.18-2.19-1.14-1.65-1.37-2.1-1.55-2Z"/><text class="uuid-75725759-c84d-4ccb-81ec-fd264ac91c66" transform="translate(59.06 60.99) rotate(63.38) scale(1.05 1) skewX(4.19)"><tspan x="0" y="0">d</tspan></text><text class="uuid-75725759-c84d-4ccb-81ec-fd264ac91c66" transform="translate(63.18 69.19) rotate(63.38) scale(1.05 1) skewX(4.19)"><tspan x="0" y="0">r</tspan></text><text class="uuid-75725759-c84d-4ccb-81ec-fd264ac91c66" transform="translate(66.05 74.93) rotate(63.38) scale(1.05 1) skewX(4.19)"><tspan x="0" y="0">i</tspan></text><text class="uuid-75725759-c84d-4ccb-81ec-fd264ac91c66" transform="translate(67.83 78.49) rotate(63.38) scale(1.05 1) skewX(4.19)"><tspan x="0" y="0">p</tspan></text><text class="uuid-75725759-c84d-4ccb-81ec-fd264ac91c66" transform="translate(49.15 79.54) rotate(63.38) scale(1.05 1) skewX(4.19)"><tspan x="0" y="0">d</tspan></text><text class="uuid-75725759-c84d-4ccb-81ec-fd264ac91c66" transform="translate(53.26 87.75) rotate(63.38) scale(1.05 1) skewX(4.19)"><tspan x="0" y="0">r</tspan></text><text class="uuid-75725759-c84d-4ccb-81ec-fd264ac91c66" transform="translate(55.89 92.99) rotate(63.38) scale(1.05 1) skewX(4.19)"><tspan x="0" y="0">o</tspan></text><text class="uuid-75725759-c84d-4ccb-81ec-fd264ac91c66" transform="translate(59.86 100.91) rotate(63.38) scale(1.05 1) skewX(4.19)"><tspan x="0" y="0">p</tspan></text></svg>