<?xml version="1.0" encoding="UTF-8"?><svg id="uuid-a71a7898-05ed-40e5-b419-bd5add7f49f3" xmlns="http://www.w3.org/2000/svg" width="75.44" height="85.39" viewBox="0 0 75.44 85.39"><defs><style>.uuid-3a54089f-cd8f-403d-8b61-1bf3cb776e25,.uuid-2f540416-8189-42d2-84fd-25be15dc9472{fill:none;}.uuid-3a54089f-cd8f-403d-8b61-1bf3cb776e25,.uuid-5609d8ea-5972-4911-a45d-3ff9c6e52888{stroke-width:0px;}.uuid-b6a10ee4-cd92-42d7-8048-7c9b9ca90dad{fill:#d73847;font-family:Arial-BoldMT, Arial;font-size:12.99px;font-weight:700;}.uuid-b6a10ee4-cd92-42d7-8048-7c9b9ca90dad,.uuid-d7cdf032-008f-4bb1-b9b6-a13b9af59b02,.uuid-45b9a9dd-6a82-4ef7-9069-d2af115b0c8d{isolation:isolate;}.uuid-d7cdf032-008f-4bb1-b9b6-a13b9af59b02{font-family:ArialMT, Arial;font-size:21.04px;}.uuid-2f540416-8189-42d2-84fd-25be15dc9472{stroke:#fff;stroke-miterlimit:10;}.uuid-5609d8ea-5972-4911-a45d-3ff9c6e52888{fill:#d83745;}</style></defs><line class="uuid-2f540416-8189-42d2-84fd-25be15dc9472" x1="17.41" y1="61.8" x2="17.62" y2="61.94"/><line class="uuid-2f540416-8189-42d2-84fd-25be15dc9472" x1="66.36" y1="84.83" x2="66.58" y2="84.97"/><line class="uuid-3a54089f-cd8f-403d-8b61-1bf3cb776e25" x1="2.08" y1="75.44" x2="73.73" y2="74.69"/><path class="uuid-5609d8ea-5972-4911-a45d-3ff9c6e52888" d="m2.18,77.62c8.11-.08,16.21-.17,24.31-.25,12.82-.13,25.65-.27,38.47-.4,2.95-.03,5.91-.06,8.86-.09,2.29-.02,2.08-4.4-.2-4.38-8.11.08-16.21.17-24.31.25-12.82.13-25.65.27-38.47.4-2.95.03-5.91.06-8.86.09-2.29.02-2.08,4.4.2,4.38h0Z"/><path class="uuid-5609d8ea-5972-4911-a45d-3ff9c6e52888" d="m2.33,56.15c8.04-.08,16.07-.17,24.11-.26,12.76-.13,25.51-.27,38.27-.41,2.93-.03,5.85-.06,8.78-.09,2.21-.02,2.02-4.26-.19-4.24-8.04.08-16.07.17-24.11.26-12.76.13-25.51.27-38.27.41-2.93.03-5.85.06-8.78.09-2.21.02-2.02,4.26.19,4.24h0Z"/><g class="uuid-45b9a9dd-6a82-4ef7-9069-d2af115b0c8d"><text class="uuid-b6a10ee4-cd92-42d7-8048-7c9b9ca90dad" transform="translate(.08 68.3) rotate(-.59) scale(.76 1) skewX(-.27)"><tspan x="0" y="0">BEST IN CLASS</tspan></text></g><g class="uuid-45b9a9dd-6a82-4ef7-9069-d2af115b0c8d"><text class="uuid-d7cdf032-008f-4bb1-b9b6-a13b9af59b02" transform="translate(17.4 18.06) scale(.81 1)"><tspan x="0" y="0">drip</tspan></text><text class="uuid-d7cdf032-008f-4bb1-b9b6-a13b9af59b02" transform="translate(.36 43.31) scale(.81 1)"><tspan x="0" y="0" xml:space="preserve">      drop</tspan></text></g></svg>