<?xml version="1.0" encoding="utf-8"?>
<!-- Generator: Adobe Illustrator 27.9.0, SVG Export Plug-In . SVG Version: 6.00 Build 0)  -->
<svg version="1.1" id="uuid-b94fca0c-438c-461b-a058-9eb3d577eae3"
	 xmlns="http://www.w3.org/2000/svg" xmlns:xlink="http://www.w3.org/1999/xlink" x="0px" y="0px" viewBox="0 0 296.4 357.3"
	 style="enable-background:new 0 0 296.4 357.3;" xml:space="preserve">
<style type="text/css">
	.st0{fill:#221F20;}
	.st1{fill:none;stroke:#FFFFFF;stroke-miterlimit:10;}
	.st2{fill:none;stroke:#221F20;stroke-miterlimit:10;}
	.st3{fill:#221F20;stroke:#221F20;stroke-width:7;stroke-miterlimit:10;}
	.st4{fill:none;}
	.st5{fill:#026928;stroke:#221F20;stroke-width:0.75;stroke-miterlimit:10;}
</style>
<path class="st0" d="M17.9,290.7c0.4-0.2,0.8,0,1.1,0.2c0.1,0,0.1,0.1,0.2,0.2l-0.1-3.5c0-0.9,0-1.7,0-2.6c0,0,0-0.1,0-0.1
	c0-1.3-1.5-1.1-1.5,0.2c0,1.9,0.1,3.9,0.1,5.8C17.8,290.8,17.8,290.7,17.9,290.7L17.9,290.7z"/>
<path class="st0" d="M20.1,342.6c0-0.3,0-0.9,0-1.6c-0.2,0.1-0.4,0.2-0.7,0.2c-0.3,0-0.6-0.1-0.8-0.3c0,0.7,0,1.5,0,2.2
	c0,1.8,0.1,3.6,0.1,5.4c0,0.9,0,1.7,0,2.6c0,0,0,0.1,0,0.1c0,1.3,1.5,1.1,1.5-0.2c0-2.2-0.1-4.4-0.1-6.6
	C20.1,344.5,20.1,344.5,20.1,342.6L20.1,342.6z"/>
<line class="st1" x1="17.5" y1="356.8" x2="17.8" y2="356.8"/>
<line class="st1" x1="74.7" y1="325.4" x2="75" y2="325.4"/>
<path class="st2" d="M19.8,342.7l21.3-53.2c-3.1,2.2-5.3,2.2-6.8,1.7c-2.2-0.6-2.9-2.2-5.2-2.3c-2.1-0.2-2.5,1.1-5,1.7
	c-3.9,1.1-5.2-1.3-9.4-1c-2.7,0.2-3.4,2.4-6.2,2.3c-1.5,0-2.7-0.5-3.5-1"/>
<path class="st2" d="M18.9,343.2L0.7,291.3c0.7-0.3,1.3-0.7,2-1"/>
<path class="st2" d="M2.6,290.4c0.4-0.1,0.8-0.2,1.2-0.2c0.3,0,0.6,0.2,0.9,0.5c0.2,0.2,0.3,0.5,0.6,0.6"/>
<path class="st3" d="M24.9,278.5c0-1.5,0-3.1-0.1-4.6c0-0.3,0-0.8-0.1-1.4c-0.1-1.2-0.3-2.1-0.3-2.2c0-0.1-0.1-0.2-0.1-0.2
	c-0.1-0.4-0.8-2.6-2-3.5c-1.2-0.9-2.8-0.5-3.6,1.2c-0.4,0.9-0.4,2-0.4,3.2c-0.2,9.3-0.5,12.6,0.1,13c0.2,0.1,0.5-0.1,0.6-0.3
	c0,0,0,0,0-0.1c0-0.2,0.1-0.5,0.2-0.7c0-0.6,0-1.4-0.1-2.6c-0.1-1.2-0.2-1.4-0.2-2.6c0-0.2,0-0.8,0-1.7c0-2.1,0.2-3.8,0.1-3.8
	c0,0-0.1,0.8-0.1,0.8s0-0.8,0.2-1.7c0.1-0.4,0.3-1.5,0.8-2.1c0.4-0.5,0.8-0.4,1.2-0.4c0.2,0,0.5,0,0.9,0.2c0.2,0.1,0.9,0.5,1.3,1.8
	c0.2,0.5,0.2,1.4,0.3,3.1c0,1.2,0,1.6,0.1,2.9c0.1,1.7,0.2,2.2,0.4,2.4c0.1,0.1,0.3,0.1,0.4-0.1C24.9,279,24.9,278.7,24.9,278.5z"/>
<line class="st4" x1="8.9" y1="296.2" x2="16.1" y2="326.8"/>
<polygon class="st5" points="18.7,341.9 0.9,291.5 1.7,291 2.4,290.7 2.7,290.5 3.3,290.4 3.9,290.4 4.3,290.6 4.5,290.8 4.8,291.1 
	5.1,291.4 5.5,291.6 6,291.8 6.7,292 8,292.2 8.8,292.3 9.6,292.2 10.4,291.9 11.2,291.5 12.4,290.7 13.2,290.3 13.9,290.1 
	14.6,289.9 15.5,289.9 16.9,290 17.7,290.2 19.3,290.6 20.3,290.9 20.9,291 21.8,291.2 22.8,291.1 23.7,291 24.8,290.7 25.8,290.2 
	26.7,289.8 27.7,289.3 28.2,289.2 29,289.2 30.1,289.3 31,289.7 32,290.3 33.4,291.1 34.8,291.6 36.2,291.7 37.7,291.4 39,290.9 
	40,290.4 40.7,290 40.6,290.5 38.3,296.1 34.4,305.8 31.3,313.6 28.1,321.6 24.8,330 21.7,337.6 20.1,341.6 20,341.8 20,341.9 "/>
<line class="st2" x1="8.4" y1="293.9" x2="15.5" y2="324.6"/>
<path class="st2" d="M28.2,294.5c-2.8,15-4.9,29.8-7.5,44.2"/>
<line class="st2" x1="18.1" y1="300.4" x2="18.7" y2="333.1"/>
<polygon class="st2" points="81.9,246.9 57.4,261.2 54,269.8 54.5,272.6 52.9,273.9 51.1,269.8 50.4,268.1 47.5,269.8 43.7,273.3 
	41.8,274.9 40.1,276.8 38.5,276.5 37.5,275.4 36.3,276.1 34.3,274.7 33.8,275.1 32,273.6 34.1,271.5 32.2,269.8 34.8,266.5 
	36.6,264 38.6,261.4 40.4,259.7 43.4,257.2 50.2,252.2 64.6,242.1 71.6,237.4 "/>
<line class="st2" x1="37.5" y1="275.4" x2="40" y2="272.4"/>
<line class="st2" x1="46.6" y1="266.8" x2="43.7" y2="268.7"/>
<line class="st2" x1="40" y1="272.4" x2="43.7" y2="268.7"/>
<line class="st2" x1="34.3" y1="274.7" x2="37.4" y2="271.6"/>
<line class="st2" x1="46.2" y1="263.5" x2="41.6" y2="266.6"/>
<line class="st2" x1="41.6" y1="266.6" x2="38.9" y2="270"/>
<line class="st2" x1="37.4" y1="271.6" x2="38.9" y2="270"/>
<line class="st2" x1="34.1" y1="271.5" x2="36.7" y2="268.2"/>
<line class="st2" x1="42.9" y1="261.7" x2="39.5" y2="264.1"/>
<line class="st2" x1="36.7" y1="268.2" x2="39.5" y2="264.1"/>
</svg>
