<?xml version="1.0" encoding="UTF-8"?><svg id="uuid-05c828a3-e669-4176-8a36-14aec6bdec09" xmlns="http://www.w3.org/2000/svg" width="82.68" height="120.52" viewBox="0 0 82.68 120.52"><defs><style>.uuid-d6b79c12-9476-459d-af5e-f598eae5e59d,.uuid-9443c9ef-6925-48d9-b03f-a3297b60e4ee,.uuid-1dbd638e-64da-4288-be70-0b0df6455c59{fill:none;}.uuid-d6b79c12-9476-459d-af5e-f598eae5e59d,.uuid-7bbdede0-61aa-4888-aef3-7f3ed28b1851{stroke-width:0px;}.uuid-3070b549-0ff9-4984-bab7-2fa548eadd0d{stroke-width:7px;}.uuid-3070b549-0ff9-4984-bab7-2fa548eadd0d,.uuid-9443c9ef-6925-48d9-b03f-a3297b60e4ee,.uuid-1dbd638e-64da-4288-be70-0b0df6455c59,.uuid-92f578a3-b5be-4042-9689-656c9b1ba923{stroke-miterlimit:10;}.uuid-3070b549-0ff9-4984-bab7-2fa548eadd0d,.uuid-9443c9ef-6925-48d9-b03f-a3297b60e4ee,.uuid-92f578a3-b5be-4042-9689-656c9b1ba923{stroke:#221f20;}.uuid-3070b549-0ff9-4984-bab7-2fa548eadd0d,.uuid-7bbdede0-61aa-4888-aef3-7f3ed28b1851{fill:#221f20;}.uuid-1dbd638e-64da-4288-be70-0b0df6455c59{stroke:#fff;}.uuid-92f578a3-b5be-4042-9689-656c9b1ba923{fill:#026928;stroke-width:.75px;}</style></defs><path class="uuid-7bbdede0-61aa-4888-aef3-7f3ed28b1851" d="m17.84,53.92c.36-.15.83-.05,1.14.2.06.05.11.1.16.16l-.06-3.53c-.02-.86,0-1.74-.04-2.6v-.11c-.02-1.26-1.5-1.08-1.48.17.04,1.93.07,3.87.1,5.81.06-.03.12-.07.18-.09h0Z"/><path class="uuid-7bbdede0-61aa-4888-aef3-7f3ed28b1851" d="m20.04,105.83c0-.27-.01-.85-.03-1.57-.19.13-.42.21-.69.21-.32,0-.58-.11-.79-.29.01.73.02,1.45.04,2.18.03,1.81.06,3.63.09,5.44.02.86,0,1.74.04,2.6v.11c.02,1.26,1.5,1.08,1.48-.17-.04-2.2-.07-4.41-.11-6.61,0,0,0,0-.03-1.9h0Z"/><line class="uuid-1dbd638e-64da-4288-be70-0b0df6455c59" x1="17.5" y1="120.02" x2="17.78" y2="120.02"/><line class="uuid-1dbd638e-64da-4288-be70-0b0df6455c59" x1="74.63" y1="88.63" x2="74.91" y2="88.63"/><path class="uuid-9443c9ef-6925-48d9-b03f-a3297b60e4ee" d="m19.79,105.95l21.27-53.18c-3.11,2.18-5.34,2.17-6.83,1.75-2.15-.61-2.86-2.15-5.16-2.33-2.13-.16-2.51,1.07-5.02,1.75-3.9,1.05-5.21-1.32-9.44-.97-2.68.22-3.41,2.41-6.2,2.33-1.48-.04-2.68-.55-3.46-.97"/><path class="uuid-9443c9ef-6925-48d9-b03f-a3297b60e4ee" d="m18.88,106.42L.62,54.57c.65-.33,1.31-.66,1.96-.99"/><path class="uuid-9443c9ef-6925-48d9-b03f-a3297b60e4ee" d="m2.56,53.59c.38-.12.77-.24,1.16-.19.31.04.61.19.86.46.18.2.34.46.55.59"/><path class="uuid-3070b549-0ff9-4984-bab7-2fa548eadd0d" d="m24.87,41.76c-.04-1.53,0-3.06-.08-4.58-.02-.28-.05-.78-.08-1.4-.13-1.22-.26-2.1-.29-2.23-.02-.08-.06-.17-.06-.17-.11-.36-.82-2.58-1.98-3.49-1.17-.91-2.82-.52-3.57,1.21-.41.94-.42,2-.44,3.16-.18,9.3-.54,12.58.12,12.98.22.13.48-.1.61-.32.01-.02.02-.05.03-.07.02-.24.08-.48.17-.7.05-.57-.01-1.39-.1-2.58-.09-1.16-.16-1.43-.21-2.58,0-.15-.04-.79-.04-1.66,0-2.13.16-3.79.14-3.8,0,0-.06.77-.06.77,0,0,0-.82.16-1.66.08-.43.28-1.5.85-2.13.42-.46.84-.45,1.25-.45.21,0,.53.01.9.23.16.09.93.55,1.34,1.81.18.54.21,1.39.28,3.08.04,1.17.03,1.65.1,2.88.1,1.66.21,2.24.44,2.41.12.09.31.09.42-.08.11-.18.1-.5.1-.64Z"/><line class="uuid-d6b79c12-9476-459d-af5e-f598eae5e59d" x1="8.86" y1="59.4" x2="16.03" y2="90.06"/><polygon class="uuid-92f578a3-b5be-4042-9689-656c9b1ba923" points="18.67 105.14 .82 54.69 1.69 54.27 2.37 53.91 2.65 53.74 3.26 53.59 3.84 53.59 4.26 53.81 4.5 53.99 4.76 54.33 5.07 54.6 5.47 54.79 5.95 54.98 6.69 55.24 7.93 55.47 8.76 55.48 9.56 55.38 10.33 55.13 11.16 54.7 12.37 53.91 13.19 53.49 13.86 53.28 14.54 53.15 15.43 53.09 16.9 53.21 17.66 53.39 19.28 53.83 20.28 54.15 20.88 54.27 21.76 54.4 22.74 54.37 23.65 54.22 24.73 53.93 25.77 53.46 26.63 52.99 27.62 52.53 28.13 52.39 29 52.39 30.09 52.56 30.96 52.95 31.92 53.54 33.31 54.36 34.76 54.82 36.2 54.92 37.63 54.66 38.98 54.17 39.98 53.67 40.69 53.23 40.55 53.7 38.28 59.33 34.38 69.07 31.29 76.78 28.1 84.8 24.73 93.18 21.67 100.85 20.08 104.86 19.98 105.04 19.93 105.14 18.67 105.14"/><line class="uuid-9443c9ef-6925-48d9-b03f-a3297b60e4ee" x1="8.33" y1="57.14" x2="15.5" y2="87.8"/><path class="uuid-9443c9ef-6925-48d9-b03f-a3297b60e4ee" d="m28.12,57.73c-2.8,14.99-4.88,29.85-7.48,44.19"/><line class="uuid-9443c9ef-6925-48d9-b03f-a3297b60e4ee" x1="18.08" y1="63.67" x2="18.63" y2="96.34"/><polygon class="uuid-9443c9ef-6925-48d9-b03f-a3297b60e4ee" points="81.85 10.13 57.41 24.44 53.95 33.03 54.46 35.85 52.91 37.08 51.03 33.02 50.36 31.29 47.44 33.05 43.64 36.48 41.77 38.08 40.02 40.07 38.42 39.76 37.49 38.59 36.29 39.34 34.3 37.96 33.73 38.34 31.99 36.83 34.01 34.77 32.14 33.04 34.74 29.72 36.54 27.26 38.54 24.65 40.32 22.9 43.37 20.41 50.13 15.45 64.52 5.35 71.54 .64 81.85 10.13"/><line class="uuid-9443c9ef-6925-48d9-b03f-a3297b60e4ee" x1="37.49" y1="38.59" x2="40" y2="35.67"/><line class="uuid-9443c9ef-6925-48d9-b03f-a3297b60e4ee" x1="46.52" y1="30.04" x2="43.63" y2="31.92"/><line class="uuid-9443c9ef-6925-48d9-b03f-a3297b60e4ee" x1="40" y1="35.67" x2="43.63" y2="31.92"/><line class="uuid-9443c9ef-6925-48d9-b03f-a3297b60e4ee" x1="34.3" y1="37.96" x2="37.33" y2="34.78"/><line class="uuid-9443c9ef-6925-48d9-b03f-a3297b60e4ee" x1="46.18" y1="26.69" x2="41.6" y2="29.8"/><line class="uuid-9443c9ef-6925-48d9-b03f-a3297b60e4ee" x1="41.6" y1="29.8" x2="38.81" y2="33.21"/><line class="uuid-9443c9ef-6925-48d9-b03f-a3297b60e4ee" x1="37.33" y1="34.78" x2="38.81" y2="33.21"/><line class="uuid-9443c9ef-6925-48d9-b03f-a3297b60e4ee" x1="34.01" y1="34.77" x2="36.61" y2="31.46"/><line class="uuid-9443c9ef-6925-48d9-b03f-a3297b60e4ee" x1="42.86" y1="24.95" x2="39.41" y2="27.37"/><line class="uuid-9443c9ef-6925-48d9-b03f-a3297b60e4ee" x1="36.61" y1="31.46" x2="39.41" y2="27.37"/></svg>