<?xml version="1.0" encoding="utf-8"?>
<!-- Generator: Adobe Illustrator 27.9.0, SVG Export Plug-In . SVG Version: 6.00 Build 0)  -->
<svg version="1.1" id="uuid-39c97131-7ecd-48e0-95ee-2f3af97aec49"
	 xmlns="http://www.w3.org/2000/svg" xmlns:xlink="http://www.w3.org/1999/xlink" x="0px" y="0px" viewBox="0 0 196.4 231.9"
	 style="enable-background:new 0 0 196.4 231.9;" xml:space="preserve">
<style type="text/css">
	.st0{fill:#FFFFFF;stroke:#221F20;stroke-miterlimit:10;}
	.st1{fill:#221F20;}
	.st2{fill:#116A3F;stroke:#221F20;stroke-miterlimit:10;}
	.st3{fill:none;stroke:#221F20;stroke-miterlimit:10;}
	.st4{fill:#194224;stroke:#221F20;stroke-miterlimit:10;}
	.st5{fill:#1DADE5;stroke:#221F20;stroke-miterlimit:10;}
	.st6{font-family:'ArialRoundedMTBold';}
	.st7{font-size:13.973px;}
</style>
<g>
	<path class="st0" d="M1.7,170.8c0.6-22.6,13.4-42.8,32.5-51.2c18.9-8.4,40.7-3.8,55.6,11.7c-11.2,0.6-28.2,3.1-47.3,11.7
		C23.6,151.4,10.1,162.6,1.7,170.8z"/>
	<path class="st0" d="M89.8,131.2c-7.6,7.9-19.9,18.8-37.2,27.2C31.7,168.5,13,170.5,1.7,170.7"/>
	<path class="st1" d="M32.5,120.2c-1-2.2-2-4.5-3.1-6.8c-0.1-0.3-0.3-0.6-0.5-0.9c-0.3-0.6-1-0.8-1.5-0.4c-0.5,0.4-0.7,1.1-0.4,1.7
		c1,2.3,2,4.5,3.1,6.8c0.1,0.3,0.3,0.6,0.5,0.9c0.3,0.6,1,0.8,1.5,0.4C32.6,121.6,32.8,120.9,32.5,120.2L32.5,120.2z"/>
	<path class="st1" d="M41.2,145c1.1,2.5,2.3,5,3.5,7.5l8.2,18.1c3.3,7.3,6.6,14.5,9.9,21.8c2.9,6.3,5.7,12.6,8.6,19
		c1,2,1.9,4.1,2.8,6.2c0.5,1,0.9,2,1.4,3c0,0,0,0.1,0,0.1c0.6,1.4,2.6,0.2,2-1.2c-1.1-2.5-2.3-5-3.5-7.5c-2.7-6-5.5-12.1-8.2-18.1
		L56,172c-2.9-6.3-5.7-12.6-8.6-19l-2.8-6.2c-0.5-1-0.9-2-1.4-3c0,0,0-0.1,0-0.1C42.5,142.3,40.6,143.6,41.2,145L41.2,145z"/>
	<polyline class="st2" points="1.7,170.8 2.3,163.4 3.7,157 6.2,149.3 8.7,143.9 12,138.3 15.5,133.8 19,130 20.9,128.2 23.3,126.2 
		25.6,124.5 28.3,122.7 31.5,120.9 22.6,154 	"/>
	<polyline class="st2" points="22.6,153.6 31.5,120.9 61,136.2 	"/>
	<polyline class="st2" points="31.5,120.9 37.6,118.2 42.6,116.7 47.7,115.8 53.9,115.4 59.6,115.8 65.1,116.8 70.3,118.3 
		76.9,121.3 83.2,125.4 89.5,130.9 88.9,131.3 83.7,131.7 75.2,132.9 70,133.9 65,135.1 60.9,136.2 60.5,136.3 	"/>
	<line class="st3" x1="31.5" y1="120.9" x2="59.4" y2="136.3"/>
	<line class="st3" x1="22.6" y1="154" x2="59.4" y2="136.3"/>
	<line class="st3" x1="59.7" y1="136.5" x2="59.7" y2="136.5"/>
	<line class="st3" x1="61.3" y1="136.1" x2="61.3" y2="136.1"/>
	<line class="st3" x1="60.8" y1="136.3" x2="59.2" y2="136.7"/>
	<polygon class="st4" points="41,145.1 22.6,154 1.7,170.8 12.9,170 22.6,168.5 32.7,166 43,162.6 48,160.5 48.2,160.3 41.3,145 	
		"/>
	<polygon class="st4" points="43.3,143.9 56.7,137.6 64.2,135.3 75.7,132.8 89.5,131.3 83.2,137.6 75,144.5 67.4,149.9 59.1,155 
		51.6,158.9 50.2,159.5 	"/>
	<path class="st5" d="M30.2,177.7c-0.3,0.1,0,0.9-0.3,2.3c-0.3,1.2-0.7,1.3-0.7,2.2s0.5,2,1.4,2.3c0.7,0.2,1.5-0.3,1.8-0.7
		c0.6-0.7,0.5-1.6,0.5-1.8c0-0.5-0.3-0.8-1.2-2.2C30.7,178,30.4,177.6,30.2,177.7L30.2,177.7z"/>
	<path class="st5" d="M29.1,197.8c-0.3,0.1,0,0.9-0.3,2.3c-0.3,1.2-0.7,1.3-0.7,2.2s0.5,2,1.4,2.3c0.7,0.2,1.5-0.3,1.8-0.7
		c0.6-0.7,0.5-1.6,0.5-1.8c0-0.5-0.3-0.8-1.2-2.2C29.5,198.2,29.3,197.7,29.1,197.8L29.1,197.8z"/>
	<path class="st5" d="M18,186.8c-0.3,0.1,0,0.9-0.3,2.3c-0.3,1.2-0.7,1.3-0.7,2.2s0.5,2,1.4,2.3c0.7,0.2,1.5-0.3,1.8-0.7
		c0.6-0.7,0.5-1.6,0.5-1.8c0-0.5-0.3-0.8-1.2-2.2C18.5,187.1,18.3,186.7,18,186.8L18,186.8z"/>
	<path class="st5" d="M25.7,186.8c-0.3,0.1,0,0.9-0.3,2.3c-0.3,1.2-0.7,1.3-0.7,2.2s0.5,2,1.4,2.3c0.7,0.2,1.5-0.3,1.8-0.7
		c0.6-0.7,0.5-1.6,0.5-1.8c0-0.5-0.3-0.8-1.2-2.2C26.1,187.1,25.9,186.7,25.7,186.8L25.7,186.8z"/>
	<path class="st5" d="M24.1,205.6c-0.3,0.1,0,0.9-0.3,2.3c-0.3,1.2-0.7,1.3-0.7,2.2s0.5,2,1.4,2.3c0.7,0.2,1.5-0.3,1.8-0.7
		c0.6-0.7,0.5-1.6,0.5-1.8c0-0.5-0.3-0.8-1.2-2.2C24.5,205.9,24.3,205.5,24.1,205.6L24.1,205.6z"/>
	<path class="st5" d="M35.1,213.9c2.2,0.1-0.1,1.2,2.5,3.1c2.4,1.7,5.8,1.9,5.7,3c0,1.2-3.9,2.8-11.5,3.1c-6,0.2-11.7-0.4-14.7-1
		c-4.8-1-4.3-2.3-4.1-2.5c0.5-0.8,2.2-1.1,9.8-3C31.6,214.4,33.4,213.8,35.1,213.9L35.1,213.9z"/>
	<path class="st5" d="M17.6,201.2c-0.3,0.1,0,0.9-0.3,2.3c-0.3,1.2-0.7,1.3-0.7,2.2s0.5,2,1.4,2.3c0.7,0.2,1.5-0.3,1.8-0.7
		c0.6-0.7,0.5-1.6,0.5-1.8c0-0.5-0.3-0.8-1.2-2.2C18,201.6,17.8,201.1,17.6,201.2L17.6,201.2z"/>
	<path class="st5" d="M19.9,172.4c-0.3,0.1,0,0.9-0.3,2.3c-0.3,1.2-0.7,1.3-0.7,2.2s0.5,2,1.4,2.3c0.7,0.2,1.5-0.3,1.8-0.7
		c0.6-0.7,0.5-1.6,0.5-1.8c0-0.5-0.3-0.8-1.2-2.2C20.3,172.7,20.1,172.3,19.9,172.4z"/>
	<text transform="matrix(0.4705 0.9389 -0.8569 0.5155 59.2179 172.8763)" class="st1 st6 st7">d</text>
	<text transform="matrix(0.4705 0.9389 -0.8569 0.5155 63.3296 181.077)" class="st1 st6 st7">r</text>
	<text transform="matrix(0.4705 0.9389 -0.8569 0.5155 66.2063 186.8185)" class="st1 st6 st7">i</text>
	<text transform="matrix(0.4705 0.9389 -0.8569 0.5155 67.9871 190.3809)" class="st1 st6 st7">p</text>
	<text transform="matrix(0.4705 0.9389 -0.8569 0.5155 49.3059 191.4335)" class="st1 st6 st7">d</text>
	<text transform="matrix(0.4705 0.9389 -0.8569 0.5155 53.4173 199.6389)" class="st1 st6 st7">r</text>
	<text transform="matrix(0.4705 0.9389 -0.8569 0.5155 56.045 204.8825)" class="st1 st6 st7">o</text>
	<text transform="matrix(0.4705 0.9389 -0.8569 0.5155 60.0108 212.8039)" class="st1 st6 st7">p</text>
</g>
</svg>
