<?xml version="1.0" encoding="UTF-8"?><svg id="uuid-ae9149a7-57d8-4f83-ba98-2330cea19600" xmlns="http://www.w3.org/2000/svg" width="91.57" height="115.2" viewBox="0 0 91.57 115.2"><defs><style>.uuid-2e69fca1-54ed-4ede-bafd-fe768f2d2078,.uuid-2ba1a3a6-447b-4058-9081-d7d05ef4387b{fill:none;}.uuid-2e69fca1-54ed-4ede-bafd-fe768f2d2078,.uuid-c167123a-98ee-4aeb-8bfb-734b53b52efb{stroke-width:0px;}.uuid-58b0ef29-6cb6-453e-8876-8896676ae1e6{fill:#d73847;font-family:Arial-BoldMT, Arial;font-size:12.99px;font-weight:700;}.uuid-58b0ef29-6cb6-453e-8876-8896676ae1e6,.uuid-bc03565c-cc41-4518-8923-213c109642d7,.uuid-1bee16c5-7e03-4869-9bb0-efb36cca81a1{isolation:isolate;}.uuid-bc03565c-cc41-4518-8923-213c109642d7{font-family:ArialMT, Arial;font-size:21.04px;}.uuid-2ba1a3a6-447b-4058-9081-d7d05ef4387b{stroke:#fff;stroke-miterlimit:10;}.uuid-c167123a-98ee-4aeb-8bfb-734b53b52efb{fill:#d83745;}</style></defs><line class="uuid-2ba1a3a6-447b-4058-9081-d7d05ef4387b" x1="21.13" y1="61.81" x2="21.39" y2="61.94"/><line class="uuid-2ba1a3a6-447b-4058-9081-d7d05ef4387b" x1="70.29" y1="114.62" x2="70.55" y2="114.75"/><line class="uuid-2e69fca1-54ed-4ede-bafd-fe768f2d2078" x1="2.52" y1="75.44" x2="89.49" y2="74.69"/><path class="uuid-c167123a-98ee-4aeb-8bfb-734b53b52efb" d="m2.65,77.62c9.84-.08,19.68-.17,29.51-.25,15.56-.13,31.13-.27,46.69-.4,3.59-.03,7.17-.06,10.76-.09,2.77-.02,2.53-4.4-.24-4.38-9.84.08-19.68.17-29.51.25-15.56.13-31.13.27-46.69.4-3.59.03-7.17.06-10.76.09-2.77.02-2.53,4.4.24,4.38h0Z"/><path class="uuid-c167123a-98ee-4aeb-8bfb-734b53b52efb" d="m2.83,56.15c9.75-.08,19.51-.17,29.26-.26,15.48-.13,30.96-.27,46.45-.41,3.55-.03,7.1-.06,10.66-.09,2.68-.02,2.45-4.26-.23-4.24-9.75.08-19.51.17-29.26.26-15.48.13-30.96.27-46.45.41-3.55.03-7.1.06-10.66.09-2.68.02-2.45,4.26.23,4.24h0Z"/><g class="uuid-1bee16c5-7e03-4869-9bb0-efb36cca81a1"><text class="uuid-58b0ef29-6cb6-453e-8876-8896676ae1e6" transform="translate(.09 68.3) rotate(-.49) scale(.92 1) skewX(-.02)"><tspan x="0" y="0">BEST IN CLASS</tspan></text></g><g class="uuid-1bee16c5-7e03-4869-9bb0-efb36cca81a1"><text class="uuid-bc03565c-cc41-4518-8923-213c109642d7" transform="translate(21.12 18.06) scale(.98 1)"><tspan x="0" y="0">drip</tspan></text><text class="uuid-bc03565c-cc41-4518-8923-213c109642d7" transform="translate(.43 43.31) scale(.98 1)"><tspan x="0" y="0" xml:space="preserve">      drop</tspan></text></g></svg>