<?xml version="1.0" encoding="UTF-8"?><svg id="uuid-ed8593cc-9049-402a-ba16-25f4a33779c2" xmlns="http://www.w3.org/2000/svg" width="383.9" height="493.98" viewBox="0 0 383.9 493.98"><defs><style>.uuid-dc846679-7b88-4501-9497-1b8f2825b08b{stroke-width:3px;}.uuid-dc846679-7b88-4501-9497-1b8f2825b08b,.uuid-0d3e0930-1b19-4233-8a6d-7a0ed17dcc24,.uuid-d2220ae0-cde7-4b97-af72-5989b7b21853,.uuid-d857e123-859f-412f-9176-50760c051d1d,.uuid-f09f47e3-71a3-4cfd-b04a-aa91cd8e9161,.uuid-78ff95da-55c2-4526-a4f7-688581ba755c,.uuid-0b3d57a0-83d0-44a3-9e73-2898626aa224,.uuid-24331edb-d705-4455-9155-04d2853327af,.uuid-c42e595a-9f4b-41e5-8f05-5bc0abbebef8,.uuid-b2e00d3a-747a-43b3-b89d-93b556ac2b4f,.uuid-e6ce2d12-7d01-4ae0-86a8-19c113b45005,.uuid-21836161-8fde-46aa-97be-3e73b902a7c7,.uuid-013f3aab-20a7-4ddf-aab2-6c18309bf4e6,.uuid-f98187bd-a738-4a15-9718-9cbe73f99ffd,.uuid-3fce4e2b-9648-44db-b5f0-60a996b23221,.uuid-baad9579-65f7-47a9-ba1f-b3369ffccbda,.uuid-75263a47-abdb-466f-bb28-f27cbcb8f74b,.uuid-891ee30d-b39a-4229-a953-604a0b4c16b6,.uuid-e132c817-93c2-496e-b048-75be3d5143b8,.uuid-e385155e-7728-4f99-90bc-daa691cb0225,.uuid-724cef52-03ee-43f5-a646-cfb01c5e765c,.uuid-dc1ca8c7-29f2-46c8-9050-3fc1ea6d854c,.uuid-7cc81644-4806-4300-aca8-97784139d5d5,.uuid-0af0be50-5312-40b5-aa74-6589e943e8fe,.uuid-907778c1-ba30-414b-bd9d-222fcb5d65e5,.uuid-153f432c-4508-462e-9d46-6b2300676971,.uuid-48e3d7a4-c4d5-4bd4-8645-8a474c555c1f,.uuid-535f9d69-44d0-44eb-bb6c-23ce2116ce46,.uuid-608dfb95-1ce8-4fb4-87f3-630f712ba10a,.uuid-d154aa1a-1119-483c-b6b1-9da9bca56682,.uuid-e747f32b-1d27-4160-92b3-fc6cc82c70f8,.uuid-44606ee1-c92b-437a-bce0-92dc4437eb25,.uuid-1e184636-ea3e-43c2-b347-faeb2cb8af78{stroke-miterlimit:10;}.uuid-dc846679-7b88-4501-9497-1b8f2825b08b,.uuid-0d3e0930-1b19-4233-8a6d-7a0ed17dcc24,.uuid-013f3aab-20a7-4ddf-aab2-6c18309bf4e6,.uuid-e132c817-93c2-496e-b048-75be3d5143b8,.uuid-e385155e-7728-4f99-90bc-daa691cb0225,.uuid-724cef52-03ee-43f5-a646-cfb01c5e765c,.uuid-dc1ca8c7-29f2-46c8-9050-3fc1ea6d854c,.uuid-7cc81644-4806-4300-aca8-97784139d5d5,.uuid-0af0be50-5312-40b5-aa74-6589e943e8fe,.uuid-907778c1-ba30-414b-bd9d-222fcb5d65e5,.uuid-153f432c-4508-462e-9d46-6b2300676971,.uuid-d154aa1a-1119-483c-b6b1-9da9bca56682,.uuid-e747f32b-1d27-4160-92b3-fc6cc82c70f8,.uuid-44606ee1-c92b-437a-bce0-92dc4437eb25,.uuid-1e184636-ea3e-43c2-b347-faeb2cb8af78{fill:none;}.uuid-dc846679-7b88-4501-9497-1b8f2825b08b,.uuid-d2220ae0-cde7-4b97-af72-5989b7b21853,.uuid-f09f47e3-71a3-4cfd-b04a-aa91cd8e9161,.uuid-baad9579-65f7-47a9-ba1f-b3369ffccbda,.uuid-891ee30d-b39a-4229-a953-604a0b4c16b6,.uuid-e132c817-93c2-496e-b048-75be3d5143b8,.uuid-724cef52-03ee-43f5-a646-cfb01c5e765c,.uuid-7cc81644-4806-4300-aca8-97784139d5d5,.uuid-153f432c-4508-462e-9d46-6b2300676971,.uuid-44606ee1-c92b-437a-bce0-92dc4437eb25{stroke:#221f20;}.uuid-0d3e0930-1b19-4233-8a6d-7a0ed17dcc24{stroke-width:15px;}.uuid-0d3e0930-1b19-4233-8a6d-7a0ed17dcc24,.uuid-c42e595a-9f4b-41e5-8f05-5bc0abbebef8,.uuid-e6ce2d12-7d01-4ae0-86a8-19c113b45005,.uuid-907778c1-ba30-414b-bd9d-222fcb5d65e5,.uuid-d154aa1a-1119-483c-b6b1-9da9bca56682,.uuid-1e184636-ea3e-43c2-b347-faeb2cb8af78{stroke:#d83832;}.uuid-d2220ae0-cde7-4b97-af72-5989b7b21853,.uuid-d857e123-859f-412f-9176-50760c051d1d,.uuid-f09f47e3-71a3-4cfd-b04a-aa91cd8e9161,.uuid-78ff95da-55c2-4526-a4f7-688581ba755c,.uuid-e132c817-93c2-496e-b048-75be3d5143b8,.uuid-e385155e-7728-4f99-90bc-daa691cb0225{stroke-width:2px;}.uuid-d2220ae0-cde7-4b97-af72-5989b7b21853,.uuid-baad9579-65f7-47a9-ba1f-b3369ffccbda{fill:#59b277;}.uuid-d857e123-859f-412f-9176-50760c051d1d{fill:#dd5f36;stroke:#dd5f36;}.uuid-f09f47e3-71a3-4cfd-b04a-aa91cd8e9161{fill:#d83745;}.uuid-78ff95da-55c2-4526-a4f7-688581ba755c,.uuid-535f9d69-44d0-44eb-bb6c-23ce2116ce46{fill:#d3373d;stroke:#d3373d;}.uuid-0b3d57a0-83d0-44a3-9e73-2898626aa224{fill:#e68d3d;stroke:#e68d3d;}.uuid-0b3d57a0-83d0-44a3-9e73-2898626aa224,.uuid-e6ce2d12-7d01-4ae0-86a8-19c113b45005,.uuid-21836161-8fde-46aa-97be-3e73b902a7c7,.uuid-44606ee1-c92b-437a-bce0-92dc4437eb25,.uuid-1e184636-ea3e-43c2-b347-faeb2cb8af78{stroke-width:.5px;}.uuid-24331edb-d705-4455-9155-04d2853327af{fill:#af312e;}.uuid-24331edb-d705-4455-9155-04d2853327af,.uuid-c42e595a-9f4b-41e5-8f05-5bc0abbebef8,.uuid-b2e00d3a-747a-43b3-b89d-93b556ac2b4f,.uuid-d154aa1a-1119-483c-b6b1-9da9bca56682,.uuid-e747f32b-1d27-4160-92b3-fc6cc82c70f8{stroke-width:.25px;}.uuid-24331edb-d705-4455-9155-04d2853327af,.uuid-e747f32b-1d27-4160-92b3-fc6cc82c70f8{stroke:#af312e;}.uuid-c42e595a-9f4b-41e5-8f05-5bc0abbebef8,.uuid-e6ce2d12-7d01-4ae0-86a8-19c113b45005{fill:#d83832;}.uuid-b2e00d3a-747a-43b3-b89d-93b556ac2b4f,.uuid-f98187bd-a738-4a15-9718-9cbe73f99ffd{fill:#87539a;stroke:#87539a;}.uuid-21836161-8fde-46aa-97be-3e73b902a7c7{fill:#e3833b;stroke:#e3833b;}.uuid-013f3aab-20a7-4ddf-aab2-6c18309bf4e6{stroke:#070505;}.uuid-013f3aab-20a7-4ddf-aab2-6c18309bf4e6,.uuid-48e3d7a4-c4d5-4bd4-8645-8a474c555c1f,.uuid-535f9d69-44d0-44eb-bb6c-23ce2116ce46,.uuid-608dfb95-1ce8-4fb4-87f3-630f712ba10a{stroke-width:.75px;}.uuid-3fce4e2b-9648-44db-b5f0-60a996b23221{fill:#8acbdc;stroke:#8acbdc;}.uuid-75263a47-abdb-466f-bb28-f27cbcb8f74b{fill:#188db5;}.uuid-75263a47-abdb-466f-bb28-f27cbcb8f74b,.uuid-dc1ca8c7-29f2-46c8-9050-3fc1ea6d854c{stroke:#198db5;}.uuid-891ee30d-b39a-4229-a953-604a0b4c16b6{fill:#116a3f;}.uuid-e385155e-7728-4f99-90bc-daa691cb0225{stroke:#d53363;}.uuid-724cef52-03ee-43f5-a646-cfb01c5e765c{stroke-width:4px;}.uuid-0af0be50-5312-40b5-aa74-6589e943e8fe,.uuid-608dfb95-1ce8-4fb4-87f3-630f712ba10a{stroke:#000;}.uuid-153f432c-4508-462e-9d46-6b2300676971{stroke-width:8px;}.uuid-48e3d7a4-c4d5-4bd4-8645-8a474c555c1f{stroke:#c63531;}.uuid-48e3d7a4-c4d5-4bd4-8645-8a474c555c1f,.uuid-5a6a5603-6729-4a0f-9e8f-172f60d3d18d{fill:#b7332f;}.uuid-5a6a5603-6729-4a0f-9e8f-172f60d3d18d{stroke-width:0px;}.uuid-608dfb95-1ce8-4fb4-87f3-630f712ba10a{fill:#c93f3f;}</style></defs><line class="uuid-c42e595a-9f4b-41e5-8f05-5bc0abbebef8" x1="64.41" y1="394.23" x2="66.55" y2="396.57"/><path class="uuid-44606ee1-c92b-437a-bce0-92dc4437eb25" d="m139.74,258.37c-.14.1-.56.43-.7,1.03-.17.73.16,1.5.71,1.9.52.38,1.08.32,1.27.3.16-.02.71-.09,1.16-.56.09-.09.63-.68.52-1.55-.12-.98-.97-1.4-1.02-1.42-.63-.3-1.39-.18-1.94.29Z"/><path class="uuid-891ee30d-b39a-4229-a953-604a0b4c16b6" d="m70.6,73.96c-28.63,16.75-43.32,40.98-48.53,50.61C2.15,161.3-2.24,211.06,10.5,217.13c3.66,1.74,7.79-.58,40.98-28.62,29.77-25.16,34.06-29.73,55.22-47.65,16.76-14.2,32.7-29.43,49.68-43.36,16.62-13.65,22.2-17.38,21.45-22.57-1.81-12.57-38.81-20.76-70.3-15.04-3.72.68-19.15,3.68-36.91,14.08Z"/><line class="uuid-724cef52-03ee-43f5-a646-cfb01c5e765c" x1="46.92" y1="71.52" x2="56.12" y2="83.68"/><line class="uuid-dc846679-7b88-4501-9497-1b8f2825b08b" x1="45.19" y1="107.59" x2="75.59" y2="155.24"/><line class="uuid-e132c817-93c2-496e-b048-75be3d5143b8" x1="82.94" y1="76.22" x2="156.37" y2="97.5"/><line class="uuid-e132c817-93c2-496e-b048-75be3d5143b8" x1="17.15" y1="162.47" x2="31.2" y2="200.25"/><path class="uuid-baad9579-65f7-47a9-ba1f-b3369ffccbda" d="m177.67,77.32c-5.17,17.88-14.68,41.92-32.91,65.61-45.57,59.22-111.28,71.61-130.47,74.49"/><polyline class="uuid-d2220ae0-cde7-4b97-af72-5989b7b21853" points="13.27 217.46 42.91 192.37 85.93 155.86 125.14 122.61 148.92 101.66 177.35 78.24"/><path class="uuid-f09f47e3-71a3-4cfd-b04a-aa91cd8e9161" d="m141.05,170.97c-1.27-2.02-4.89-7.15-11.29-9.02-8.56-2.49-18.6,1.88-24.64,11.14l2.72,7.05-2.72,1.22-2.66-7.19"/><line class="uuid-e132c817-93c2-496e-b048-75be3d5143b8" x1="101.96" y1="174.5" x2="105.33" y2="173.18"/><polygon class="uuid-d857e123-859f-412f-9176-50760c051d1d" points="103.75 175.02 104.96 174.5 106.69 179.49 105.42 180.17 103.75 175.02"/><path class="uuid-78ff95da-55c2-4526-a4f7-688581ba755c" d="m139.36,172.97c.48-1.24,1.53-3.48,3.72-5.4.84-.73,2.25-1.97,4.42-2.49.41-.1,5.55-1.24,8.44,2.39.23.29,2.07,2.67,1.51,5.61-.51,2.65-2.64,4.11-4.42,5.3-3.47,2.3-5.05,1.67-11.06,3.74-2.79.96-5.62,1.95-8.74,4.05-3.86,2.59-5.68,5.19-5.93,4.98-.28-.23,1.72-3.66,11.69-17.7"/><line class="uuid-e385155e-7728-4f99-90bc-daa691cb0225" x1="138.75" y1="173.07" x2="139.45" y2="172.1"/><path class="uuid-44606ee1-c92b-437a-bce0-92dc4437eb25" d="m154.46,165.56c.14,1.06.33,3.59-1.02,6.16-2.56,4.88-8.23,5.31-8.64,5.33"/><path class="uuid-7cc81644-4806-4300-aca8-97784139d5d5" d="m131.1,190.62c-.64-.83-1.21-.89-1.38-.9-1.42-.06-2.88,2.12-2.68,3.87.06.53.31,1,.82,1.93.55,1.02,1.11,1.79,1.51,2.29"/><path class="uuid-7cc81644-4806-4300-aca8-97784139d5d5" d="m130.08,191.18c-.68-.14-1.36.15-1.72.71-.44.7-.16,1.48-.13,1.55"/><line class="uuid-7cc81644-4806-4300-aca8-97784139d5d5" x1="128.36" y1="191.89" x2="129.33" y2="192.57"/><path class="uuid-013f3aab-20a7-4ddf-aab2-6c18309bf4e6" d="m147.53,181.6c1.5,4.12,1.44,7.25,1.07,9.41-.58,3.34-2.16,5.73-1.07,7.49.92,1.48,2.73.92,3.2,2.35.44,1.34-.59,3.47-2,4.41-1.1.73-2.18.57-2.4,1.32-.15.52.29.89.53,1.62.59,1.72-.3,4.19-1.6,5.14-.9.66-2.05.62-5.34-.59-2.15-.79-5.06-2.02-8.41-3.97"/><polyline class="uuid-013f3aab-20a7-4ddf-aab2-6c18309bf4e6" points="134.66 210.48 134.66 217 128.12 219.98 120.76 218.38 116.32 215.23 111.22 219.98 113.44 223.84 121.75 225.26"/><path class="uuid-013f3aab-20a7-4ddf-aab2-6c18309bf4e6" d="m138.18,224.4c1.38.69.24,2.47,1.38,3.65,0,.59-.57,1.18-1.15,1.78-3.44,1.18-6.88,1.78-10.32,1.78-5.73.59-11.47,0-16.63-2.37-2.29-.59-4.01-3.55-5.73-5.92-.57-.59,0-1.18.57-1.78,2.29-2.96,4.59-5.33,7.45-7.11.57-.59,2.29.59,3.24,1.28l2.34-7.51,1.22-.92,1.19-.57"/><line class="uuid-013f3aab-20a7-4ddf-aab2-6c18309bf4e6" x1="139.1" y1="224.55" x2="134.66" y2="217"/><path class="uuid-013f3aab-20a7-4ddf-aab2-6c18309bf4e6" d="m124.42,227.05c.89-1.1,2.26-2.45,3.83-2.33,1.67.14,2.23,1.85,4.05,2.56,1.2.47,3.15.57,6.3-1.4"/><path class="uuid-535f9d69-44d0-44eb-bb6c-23ce2116ce46" d="m127.41,190.4c-.57.74-1.25,1.75-1.83,2.98-.49,1.04-1.62,3.54-1.12,6.49.55,3.22,2.4,3.17,2.21,5.97-.19,2.76-2.09,4.15-2.73,4.58-.46.3-.89.53-1.21.68"/><path class="uuid-535f9d69-44d0-44eb-bb6c-23ce2116ce46" d="m110.19,178.1c-.36.57-5.75,9.47-.92,18.66,3.86,7.35,11.4,9.46,12.63,9.78l2.54-5.81-.53-4.43.26.5,1.42-4.14,2.16-3.75,5.82-8.75,5.97-8.24v-1.02l-18.6,1.37-14.25,1.21-.65.35.89,2.36,1.72,4.45"/><path class="uuid-78ff95da-55c2-4526-a4f7-688581ba755c" d="m108.6,179.94c-1.7,5.63-1.62,9.64.14,10.56.13.07.3.14.57.11,2.19-.22,6.31-6.4,9.81-12.27"/><path class="uuid-608dfb95-1ce8-4fb4-87f3-630f712ba10a" d="m104.24,181.47c-1.58,1.29-3.17,2.97-4.48,5.13-4.44,7.33-2.18,16.57-.63,23.31,1.43,6.2,2.45,6.52,3.28,12.05.7,4.68.6,8.62.18,13.56-.91,10.76-1.8,21.21-6.74,34.08-2.68,6.96-7.26,16.51-8.71,16.01-2.45-.86,12.47-27.41,2.05-47.35-4.44-8.49-11.09-11.2-13.09-22.41-1.35-7.52.17-14.54.64-16.63.84-3.73,2.04-9.05,5.85-14.01,6.44-8.39,16.08-10.24,19.38-10.71"/><polygon class="uuid-48e3d7a4-c4d5-4bd4-8645-8a474c555c1f" points="101.9 174.92 104.24 180.95 102.46 182.57 99.47 186.18 97.81 189.09 96.83 195.16 97.26 205.9 98.92 210.87 101.64 219.5 102.62 227.81 102.11 237.19 100.88 249.02 98.79 259.45 94.5 220.77 93.03 219.97 92.38 217.18 94.87 213.97 92.57 209.59 88 208.07 87.13 204.02 90.11 196.88 90.54 186.79 91.78 183.17 101.9 174.92"/><polygon class="uuid-48e3d7a4-c4d5-4bd4-8645-8a474c555c1f" points="106.04 173.84 113.97 177.06 119.13 195.27 121.75 190.4 120.23 186.65 125.07 183.32 141.05 178.35 141.17 182.38 141.17 182.98 136.88 184.56 133 186.99 130.08 189.33 127.41 189.52 126.77 190.62 126.64 193.77 124.82 201.19 121.75 206.72 119.13 205.85 106.04 173.84"/><polygon class="uuid-5a6a5603-6729-4a0f-9e8f-172f60d3d18d" points="119.74 206.28 116.35 204.43 112.05 201.04 109.68 198.21 107.64 194.19 106.77 191.2 106.27 186.54 107.45 182.36 108.48 179.63 108.66 178.91 107.83 177.55 106.12 172.67 109.7 180.16 120.39 206.33 119.74 206.28"/><polyline class="uuid-7cc81644-4806-4300-aca8-97784139d5d5" points="107.38 225.63 105.5 234.83 103.65 247.33 107.38 282.84"/><path class="uuid-7cc81644-4806-4300-aca8-97784139d5d5" d="m107.38,282.84c2.86-2.79,8.9-9.48,10.99-19.89,3.96-19.73-9.88-34.77-11.22-36.19"/><path class="uuid-7cc81644-4806-4300-aca8-97784139d5d5" d="m107.38,282.84c-6.33,4.45-12.66,8.9-18.99,13.35"/><path class="uuid-7cc81644-4806-4300-aca8-97784139d5d5" d="m88.39,296.19c1.85,3.19,3.93,7.98,4.12,13.92.55,17.13-18.75,30.34-18.7,30.4.06.06,20.89-10.7,32.45-30.96,4.42-7.74,3.32-9.64,11.27-25,5.39-10.41,7.04-11.77,9.35-17.04,3.27-7.47,6.17-19,3.57-36.08"/><polyline class="uuid-7cc81644-4806-4300-aca8-97784139d5d5" points="113.68 292.16 125.63 302.51 127.42 304.06 131.8 297.82 130.31 296.19 126.01 302.13 126.06 301.85"/><line class="uuid-7cc81644-4806-4300-aca8-97784139d5d5" x1="130.44" y1="296.52" x2="119.07" y2="281.64"/><path class="uuid-e132c817-93c2-496e-b048-75be3d5143b8" d="m125.96,292.16c-1.49,1.07-2.98,2.15-4.48,3.22"/><path class="uuid-e132c817-93c2-496e-b048-75be3d5143b8" d="m121.08,284.6c.12.21,1.18,2.01.41,3.84-.3.72-.77,1.18-1.1,1.44"/><path class="uuid-e132c817-93c2-496e-b048-75be3d5143b8" d="m121.58,231.73c1.39,3.43,3.13,8.89,3.37,15.73.35,10.26-2.89,17.93-5.2,23.36-1.78,4.22-4.78,10.14-9.78,16.42"/><line class="uuid-e132c817-93c2-496e-b048-75be3d5143b8" x1="131.42" y1="246.31" x2="142.7" y2="240.08"/><path class="uuid-e132c817-93c2-496e-b048-75be3d5143b8" d="m138.41,229.83c3.42,1.71,10.67,5.58,10.06,8.16-.18.76-1.18,2.01-6.73,2.43"/><path class="uuid-e132c817-93c2-496e-b048-75be3d5143b8" d="m147.65,236.42c3,1.62,4.88,5.51,4.69,9.65-.19,4.01-2.31,7.5-5.31,8.74"/><line class="uuid-e132c817-93c2-496e-b048-75be3d5143b8" x1="147.97" y1="254.32" x2="143.33" y2="280.41"/><path class="uuid-e132c817-93c2-496e-b048-75be3d5143b8" d="m147.41,254.63c-1.12.26-2.29.51-3.5.72-.71.13-1.41.24-2.1.35"/><line class="uuid-724cef52-03ee-43f5-a646-cfb01c5e765c" x1="98.4" y1="145.34" x2="111.88" y2="164.83"/><line class="uuid-724cef52-03ee-43f5-a646-cfb01c5e765c" x1="146.17" y1="212.99" x2="168.94" y2="248.68"/><path class="uuid-e132c817-93c2-496e-b048-75be3d5143b8" d="m142.26,255.7c-1.47-.26-2.94-.52-4.4-.78"/><path class="uuid-44606ee1-c92b-437a-bce0-92dc4437eb25" d="m139.74,258.37c-.14.1-.56.43-.7,1.03-.17.73.16,1.5.71,1.9.52.38,1.08.32,1.27.3.16-.02.71-.09,1.16-.56.09-.09.63-.68.52-1.55-.12-.98-.97-1.4-1.02-1.42-.63-.3-1.39-.18-1.94.29Z"/><path class="uuid-44606ee1-c92b-437a-bce0-92dc4437eb25" d="m140.06,268.3c-.14.1-.56.43-.7,1.03-.17.73.16,1.5.71,1.9.52.38,1.08.32,1.27.3.16-.02.71-.09,1.16-.56.09-.09.63-.68.52-1.55-.12-.98-.97-1.4-1.02-1.42-.63-.3-1.39-.18-1.94.29Z"/><path class="uuid-44606ee1-c92b-437a-bce0-92dc4437eb25" d="m147.06,259.3c4.44-1.4,8.87-2.81,13.31-4.21"/><path class="uuid-44606ee1-c92b-437a-bce0-92dc4437eb25" d="m160.37,255.46c.93,2.61,1.86,5.22,2.79,7.84l-17.27,6.4"/><polygon class="uuid-7cc81644-4806-4300-aca8-97784139d5d5" points="160.15 255.31 160.37 254.63 161.76 253.81 162.83 253.81 163.58 256.13 165.12 259.16 166.52 261.14 167.73 262.58 167.73 264.32 166.66 265.33 164.65 264.9 163.94 264.27 163.16 263.3 160.15 255.31"/><polyline class="uuid-7cc81644-4806-4300-aca8-97784139d5d5" points="165.46 256.56 163.67 255.16 164.07 254.37 165.8 250.88 169.25 251.49 169.83 252.32 169.6 252.85 167.73 252.32 166.49 252.14"/><polyline class="uuid-7cc81644-4806-4300-aca8-97784139d5d5" points="166.75 261.37 170.82 259.51 173.68 258.41 175.07 256.13 169.55 252.86"/><path class="uuid-44606ee1-c92b-437a-bce0-92dc4437eb25" d="m167.38,248.19c.3-.18,1.2-.65,2.06-.34.02,0,.14.05.27.13.84.49,1.52,2.09,1.11,3.47-.28.94-1.22,2.26-1.66,2.87-.09.12-.3.41-.23.73.09.38.55.7.91.73,1.1.11,2.57-2.23,2.8-4.5.1-.98.25-2.45-.8-3.32-1.14-.95-2.82-.46-3.01-.41"/><path class="uuid-44606ee1-c92b-437a-bce0-92dc4437eb25" d="m171.07,247.57c1.05,0,1.59.45,1.83.72,1.54,1.72.83,6.51-1.17,7.51-.32.16-.94.36-1.88-.02"/><path class="uuid-44606ee1-c92b-437a-bce0-92dc4437eb25" d="m173.69,249.64c.21.18.53.51.77.98,1.26,2.44-1.01,5.96-1.73,5.82-.15-.03-.32-.24-.41-1.05"/><path class="uuid-44606ee1-c92b-437a-bce0-92dc4437eb25" d="m174.82,251.92c.16.11.43.32.6.68.35.73.02,1.46-.07,1.66-.07.16-.37.81-1.07,1.09-.18.07-.34.1-.45.11"/><path class="uuid-44606ee1-c92b-437a-bce0-92dc4437eb25" d="m139.74,258.37c-.14.1-.56.43-.7,1.03-.17.73.16,1.5.71,1.9.52.38,1.08.32,1.27.3.16-.02.71-.09,1.16-.56.09-.09.63-.68.52-1.55-.12-.98-.97-1.4-1.02-1.42-.63-.3-1.39-.18-1.94.29Z"/><line class="uuid-153f432c-4508-462e-9d46-6b2300676971" x1="164.5" y1="241.72" x2="170.4" y2="250.97"/><path class="uuid-153f432c-4508-462e-9d46-6b2300676971" d="m173.48,255.73l3.09,4.84c.03.18.37,2.19,1.83,3.14,1.53,1,3.16.13,3.86-.78,1.18-1.54.81-4.68-1.22-7.48"/><line class="uuid-dc846679-7b88-4501-9497-1b8f2825b08b" x1="134.68" y1="295.69" x2="126.2" y2="306.99"/><path class="uuid-e132c817-93c2-496e-b048-75be3d5143b8" d="m121.08,278.19c.47,1.57.95,3.14,1.42,4.71"/><line class="uuid-7cc81644-4806-4300-aca8-97784139d5d5" x1="122.24" y1="280.97" x2="127.7" y2="282.9"/><line class="uuid-e132c817-93c2-496e-b048-75be3d5143b8" x1="143.33" y1="280.44" x2="144.61" y2="300.19"/><line class="uuid-e132c817-93c2-496e-b048-75be3d5143b8" x1="144.61" y1="300.19" x2="163.16" y2="381.69"/><path class="uuid-e132c817-93c2-496e-b048-75be3d5143b8" d="m163.16,380.95c-13.14,9.41-21.32,9.44-26.4,7.65-6.1-2.16-7.91-7.01-12.34-6.37-7.7,1.11-7.22,16.5-15.71,18.83-5.84,1.6-12.45-3.92-19.91-10.14-6.39-5.34-7.2-7.93-10.66-10.72-5.54-4.46-15.68-7.62-35.86-1.3"/><line class="uuid-e132c817-93c2-496e-b048-75be3d5143b8" x1="42.29" y1="378.89" x2="92.47" y2="312.44"/><polygon class="uuid-0af0be50-5312-40b5-aa74-6589e943e8fe" points="77.68 378.89 66.39 412.09 65.18 413.53 63.44 414.27 60.67 415.18 59.02 416.76 58 418.34 57.52 420.16 58.55 422.49 60.41 425.51 62.37 429.35 63.25 433.65 63.53 438.76 63.22 440.35 63.89 441.49 66.85 442.71 72.64 444.25 75.2 444.91 77 444.65 78.4 443.32 78.71 441.01 77.28 438.85 74.85 437.65 72.5 436.03 73.24 433.35 76.6 424.53 80.2 413.62 80.74 410.66 76.27 413.54 75.11 414.14 82.3 409.2 85.1 403.14 88.86 394.98 90.11 392.74 77.68 378.89"/><polyline class="uuid-0af0be50-5312-40b5-aa74-6589e943e8fe" points="57.46 420.56 55.92 421.73 55.52 422.89 55.64 424.82 56.84 427.34 58.04 429.93 59.54 431.3 61.01 432.27 61.76 433.49 61.94 436.41 61.15 441.07 60.97 443.62 61.32 444.93 63.49 446.19 67.17 446.95 70.74 447.98 74.42 448.6 75.73 448.25 76.59 446.79 77.01 445.9 76.95 444.97"/><polyline class="uuid-0af0be50-5312-40b5-aa74-6589e943e8fe" points="119.55 394.82 117.86 395.76 118.71 399.63 120.58 408.31 122.39 415.52 123.04 419.53 123.04 421.93 123.94 426.61 129.37 433.29 125.23 429.02 126.17 434.22 126.54 438.59 126.25 442.88 126.32 447.85 127.34 450.33 129.67 451.39 133.9 450.86 138.93 449.95 140.5 449.65 142.86 449.95 146.95 450.48 152.78 449.58 157.37 448.45 160.28 446.49 160.87 445.06 160.36 443.78 158.31 442.88 155.18 442.65 150.95 442.88 148.77 441.67 146.44 439.34 143.45 436.63 138.86 433.09 137.62 431.51 136.6 426.24 133.83 430 136.82 425.07 137.69 422.62 137.69 418.56 136.52 410.58 136.01 404.18 135.79 399.66 136.16 394.82 136.01 393.63 134.99 393.08 134.05 393.08 133.97 394.84 134.07 395.55 135.75 394.97 134.36 395.75 131.24 396.71 123.3 397.33 119.31 397.24 118.22 396.46 118 395.85"/><line class="uuid-0af0be50-5312-40b5-aa74-6589e943e8fe" x1="118.53" y1="387.61" x2="120.86" y2="397.28"/><polyline class="uuid-0af0be50-5312-40b5-aa74-6589e943e8fe" points="127.65 450.6 128.25 455.01 129.26 455.43 132.73 455.77 135.93 455.77 138.2 455.36 138.87 454.47 139.09 453.51 139.09 451.69 139.28 451.07 139.92 450.92 141.14 450.92 142.17 450.95 143.29 451 144.07 451.14 144.41 451.66 144.86 452.33 145.36 452.99 146.22 453.56 147.08 454 149.54 453.83 153 453.07 157.08 452.08 159.56 450.75 160.35 448.98 160.52 447.2 160.52 445.92"/><polygon class="uuid-d154aa1a-1119-483c-b6b1-9da9bca56682" points="118.42 396.96 118.79 398.72 119.41 401.56 120.31 405.68 121.73 411.78 122.65 415.4 122.76 416.1 123.31 419.38 123.31 420.59 123.31 421.85 123.75 424.23 124.18 426.5 127.43 430.44 129.6 433.09 129.13 433.51 125.68 429.93 126.16 432.58 126.47 434.26 126.82 438.65 126.54 442.79 126.59 447.84 127.55 450.14 129.75 451.1 133.81 450.57 140.46 449.37 146.93 450.18 152.66 449.3 157.36 448.13 160 446.32 160.52 445.05 160.03 443.95 158.26 443.17 155.17 442.94 150.87 443.18 148.59 441.9 146.12 439.44 143.37 436.99 140.37 434.62 138.62 433.3 137.32 431.6 136.43 426.96 134.05 430.17 133.54 429.81 134.42 428.45 136.23 425.44 136.54 424.93 137.38 422.59 137.39 418.57 136.58 412.95 136.22 410.52 135.93 406.92 135.7 403.52 135.5 399.64 135.75 396.53 135.84 395.28 134.48 396 131.22 397.02 124.27 397.54 123.17 397.62 119.19 397.53 118.42 396.96"/><polyline class="uuid-0d3e0930-1b19-4233-8a6d-7a0ed17dcc24" points="126.8 397.85 128.43 408.54 130.73 420.24 130.55 424.02"/><polyline class="uuid-1e184636-ea3e-43c2-b347-faeb2cb8af78" points="122.53 398.52 130.79 397.28 128.7 397.41 124.78 397.85 122.34 398.32 125.34 397.9 125.93 397.9 121.93 397.9 120.74 397.74 122.52 397.73 124.59 397.67 126.11 397.54 128.59 397.28"/><polyline class="uuid-907778c1-ba30-414b-bd9d-222fcb5d65e5" points="118.79 397.58 119.34 398.52 119.96 400.83 119.74 402.03 119.96 402.83 120.36 404.21 120.86 406.28 121.35 408.72 121.85 411.29 122.57 413.81 123.29 416.04 123.6 418.99 123.74 421.75 123.83 423.11 124.29 425.38 124.48 426.23 125.42 427.44 127.4 429.6 128.82 431.52 129.87 432.6"/><path class="uuid-1e184636-ea3e-43c2-b347-faeb2cb8af78" d="m125.39,427.83l.14.07s.05.02.07.04.03.05.02.08c0,0-.01-.01-.02-.02"/><path class="uuid-1e184636-ea3e-43c2-b347-faeb2cb8af78" d="m125.42,427.76c.05.04.11.08.15.12.09.08.17.21.27.27"/><path class="uuid-1e184636-ea3e-43c2-b347-faeb2cb8af78" d="m126.04,428.53c.16.17.31.34.45.53,0,0-.01-.01-.02-.02.19.29.45.54.72.77"/><path class="uuid-1e184636-ea3e-43c2-b347-faeb2cb8af78" d="m127.3,429.91c.08.18.18.36.3.53"/><path class="uuid-1e184636-ea3e-43c2-b347-faeb2cb8af78" d="m127.46,429.97c-.16-.1-.33-.2-.5-.29.05.04.11.13.15.16.05.04.1.08.14.13.02.03.03.07.06.09,0,0-.01-.01-.02-.02"/><path class="uuid-1e184636-ea3e-43c2-b347-faeb2cb8af78" d="m127.55,430.34l.59.72s-.02-.02-.02-.03c.27.21.45.47.65.75,0,0-.02-.01-.03-.02.45.13.8.57,1.07.97"/><path class="uuid-1e184636-ea3e-43c2-b347-faeb2cb8af78" d="m129.32,432.61l.47.39"/><path class="uuid-1e184636-ea3e-43c2-b347-faeb2cb8af78" d="m124.23,426.39c.27.15.48.42.56.73,0,.01.02.03.03.02"/><path class="uuid-1e184636-ea3e-43c2-b347-faeb2cb8af78" d="m124.97,427.35c0-.06-.02-.11-.04-.16-.03-.06-.09-.12-.11-.19"/><path class="uuid-1e184636-ea3e-43c2-b347-faeb2cb8af78" d="m123.36,418.76c-.03-.19-.02-.39-.06-.58-.02-.11-.07-.21-.09-.32-.03-.19-.02-.39-.02-.59s.05-.39,0-.58"/><path class="uuid-1e184636-ea3e-43c2-b347-faeb2cb8af78" d="m123.1,417.67c0-.15-.06-.29-.06-.44-.02-.47-.01-.94.02-1.41"/><path class="uuid-1e184636-ea3e-43c2-b347-faeb2cb8af78" d="m122.64,415.08v-.74"/><path class="uuid-1e184636-ea3e-43c2-b347-faeb2cb8af78" d="m119.61,401.77c0-.06-.02-.11-.03-.17-.01-.05,0-.07,0-.12.01-.12,0-.25,0-.37,0-.15-.03-.27-.06-.42-.1-.4.01-.76-.13-1.14-.13-.35-.28-.69-.45-1.02-.07-.14-.15-.28-.2-.43"/><path class="uuid-1e184636-ea3e-43c2-b347-faeb2cb8af78" d="m119.5,401.26v-.52"/><path class="uuid-1e184636-ea3e-43c2-b347-faeb2cb8af78" d="m119.27,400.55v-.48c0-.05,0-.11,0-.16,0,0,0,.01,0,.02"/><path class="uuid-1e184636-ea3e-43c2-b347-faeb2cb8af78" d="m119.18,399.9c-.01-.14-.03-.28-.02-.42,0-.06,0-.1,0-.16,0-.07-.02-.14-.01-.21"/><path class="uuid-1e184636-ea3e-43c2-b347-faeb2cb8af78" d="m119.21,400.04c0-.06,0-.12,0-.19"/><path class="uuid-1e184636-ea3e-43c2-b347-faeb2cb8af78" d="m119.13,399.35c-.03-.18-.1-.34-.1-.52"/><path class="uuid-1e184636-ea3e-43c2-b347-faeb2cb8af78" d="m119.06,399.5c-.02-.1-.02-.19-.02-.29"/><path class="uuid-1e184636-ea3e-43c2-b347-faeb2cb8af78" d="m118.91,398.87v-.4"/><path class="uuid-1e184636-ea3e-43c2-b347-faeb2cb8af78" d="m118.76,398.12l-.02-.19"/><path class="uuid-1e184636-ea3e-43c2-b347-faeb2cb8af78" d="m118.83,397.8c-.05-.06-.15-.1-.16-.18,0-.08-.06-.15-.09-.23"/><path class="uuid-1e184636-ea3e-43c2-b347-faeb2cb8af78" d="m118.87,397.6c-.07-.05-.14-.11-.21-.18"/><path class="uuid-1e184636-ea3e-43c2-b347-faeb2cb8af78" d="m118.71,397.42s-.02-.04-.03-.06"/><path class="uuid-1e184636-ea3e-43c2-b347-faeb2cb8af78" d="m118.53,397.24h.16"/><path class="uuid-1e184636-ea3e-43c2-b347-faeb2cb8af78" d="m118.85,397.57c-.03-.06-.07-.12-.11-.17"/><path class="uuid-1e184636-ea3e-43c2-b347-faeb2cb8af78" d="m119,397.52s-.04,0-.07-.02c-.02,0-.03,0-.05-.01"/><path class="uuid-1e184636-ea3e-43c2-b347-faeb2cb8af78" d="m118.78,397.37s-.02-.03-.04-.03"/><path class="uuid-1e184636-ea3e-43c2-b347-faeb2cb8af78" d="m118.64,397.33l.06.02s.03-.02.04-.02c.01,0,0-.01.01-.01"/><path class="uuid-1e184636-ea3e-43c2-b347-faeb2cb8af78" d="m118.53,397.14h0"/><path class="uuid-1e184636-ea3e-43c2-b347-faeb2cb8af78" d="m118.53,397.14h-.02"/><path class="uuid-1e184636-ea3e-43c2-b347-faeb2cb8af78" d="m118.52,397.12c.04.06.09.11.14.16"/><polygon class="uuid-e6ce2d12-7d01-4ae0-86a8-19c113b45005" points="119.21 397.6 120.54 404.45 125.06 404 123.19 397.93 119.21 397.6"/><polygon class="uuid-e6ce2d12-7d01-4ae0-86a8-19c113b45005" points="120.74 404.55 122.68 414.15 123.65 417.73 127.09 416.85 123.62 403.92 120.74 404.55"/><polygon class="uuid-e6ce2d12-7d01-4ae0-86a8-19c113b45005" points="123.65 417.73 124.23 425.08 125.85 428.15 128.68 431.33 131.33 423.88 125.99 416.58 123.65 417.73"/><polyline class="uuid-e6ce2d12-7d01-4ae0-86a8-19c113b45005" points="130.73 397.13 134.45 396.09 135.46 395.62 135.64 395.55 135.73 395.43"/><path class="uuid-1e184636-ea3e-43c2-b347-faeb2cb8af78" d="m135.73,395.49v-.07s.04.06,0,.07Z"/><polygon class="uuid-e6ce2d12-7d01-4ae0-86a8-19c113b45005" points="135.74 395.65 135.41 399.7 136.09 410.32 137.29 418.53 137.29 422.62 136.57 424.86 134.61 424.17 134.13 417.43 133.1 409.24 130.55 398.59 130.87 397.09 135.74 395.65"/><polygon class="uuid-e6ce2d12-7d01-4ae0-86a8-19c113b45005" points="131.07 423.81 136.26 424.13 136.51 424.99 133.44 429.81 129.87 432.85 127.88 430.25 131.07 423.81"/><polyline class="uuid-c42e595a-9f4b-41e5-8f05-5bc0abbebef8" points="126.04 431.53 125.73 430.18 125.94 430.2 127.21 431.7 129.14 433.63 129.22 433.82 136.51 440.95 149.19 449.83 146.82 450.17 140.45 449.24 135.86 450.17 129.69 451.07 127.65 450.08 126.77 440.14"/><polyline class="uuid-c42e595a-9f4b-41e5-8f05-5bc0abbebef8" points="126.77 440.73 126.57 442.31 126.62 443.93 126.67 447.81 127.58 450.02"/><polyline class="uuid-c42e595a-9f4b-41e5-8f05-5bc0abbebef8" points="129.13 433.51 133.44 429.81 134.05 430.17 137.27 431.33 138.62 433.3 142.24 436.09 145.65 439.02 148.59 441.9 150.74 443.11 149.94 449.72 148.78 449.89 129.87 435.76"/><path class="uuid-d154aa1a-1119-483c-b6b1-9da9bca56682" d="m133.69,440.53c1.32.21,2.6.67,3.76,1.35-.01-.31-.02-.64.16-.89.03-.04.06-.07.06-.12,0-.05-.03-.09-.05-.13-.29-.38-.76-.61-1.24-.6-.09,0-.21.06-.17.14.17.43.45.84.78,1.15.1-.98.6-1.83,1.16-2.63.44-.64.91-1.25,1.41-1.84"/><polygon class="uuid-c42e595a-9f4b-41e5-8f05-5bc0abbebef8" points="134.17 430.18 136.32 427.11 137.24 431.17 134.17 430.18"/><polyline class="uuid-c42e595a-9f4b-41e5-8f05-5bc0abbebef8" points="150.74 443.28 149.96 449.57 152.34 449.35 157.33 448.07 159.96 446.26 160.44 445.04 159.99 443.93 158.23 443.2 154.95 442.95 150.24 443.27"/><polygon class="uuid-c42e595a-9f4b-41e5-8f05-5bc0abbebef8" points="134.3 393.39 134.26 395.05 134.3 395.17 135.63 394.68 135.83 395.06 135.89 394.8 135.75 393.87 134.94 393.39 134.3 393.39"/><polygon class="uuid-c42e595a-9f4b-41e5-8f05-5bc0abbebef8" points="119.96 394.98 119.61 395.11 118.3 395.83 118.42 396.28 119.46 396.96 120.5 396.96 119.96 394.98"/><polyline class="uuid-24331edb-d705-4455-9155-04d2853327af" points="127.97 451.07 128.48 454.63 128.48 454.81 129.37 455.16 132.34 455.42 135.2 455.49 136.1 455.49 138.07 455.09"/><polygon class="uuid-24331edb-d705-4455-9155-04d2853327af" points="138.07 455.09 138.63 454.3 138.78 453.51 138.78 451.62 139.05 450.85 138.82 450.24 129.66 451.62 137.91 455.12 138.07 455.09"/><path class="uuid-e747f32b-1d27-4160-92b3-fc6cc82c70f8" d="m275.35,426.02c-.03.09.08.17.17.2s.21.05.24.14c-.09,0-.18.02-.27.03"/><polyline class="uuid-24331edb-d705-4455-9155-04d2853327af" points="143.3 450.69 144.24 450.9 145.56 452.78 147.09 453.68 149.51 453.55 156.99 451.8 146.95 450.77 143.3 450.3"/><polyline class="uuid-24331edb-d705-4455-9155-04d2853327af" points="147.29 450.75 152.65 449.89 157.51 448.7 160.22 446.87 160.08 448.93 159.3 450.62 156.94 451.81"/><polyline class="uuid-c42e595a-9f4b-41e5-8f05-5bc0abbebef8" points="77.14 380.46 66.59 412.27 65.3 413.85 60.82 415.47 59.19 416.97 58.17 418.54 57.83 420.2 75.05 413.82 82.08 408.96 86.46 399.63 88.6 394.84 89.78 392.79 88.46 391.29 80.35 383.39 77.33 380.6"/><polygon class="uuid-c42e595a-9f4b-41e5-8f05-5bc0abbebef8" points="77.47 380.4 77.37 380.64 80.83 384.05 81.22 384.24 78.66 381.37 77.47 380.4"/><polyline class="uuid-c42e595a-9f4b-41e5-8f05-5bc0abbebef8" points="74.94 413.86 75.25 414.37 76.42 413.78 80.33 411.27 79.89 413.71 78.37 418.27 76.33 424.38 73.31 432.46 72.19 436.14 69.98 443.23 66.76 442.39 64.01 441.23 63.45 440.16 63.81 438.73 63.53 433.43 62.81 430.22 62.6 429.17 61.47 427.02 60.66 425.39 58.79 422.43 57.75 420.29"/><polyline class="uuid-c42e595a-9f4b-41e5-8f05-5bc0abbebef8" points="72.17 436.19 72.48 436.34 73.2 436.88 74.63 437.87 77.1 439.07 78.45 441.15 78.12 443.23 76.91 444.4 75.11 444.63 69.89 443.23"/><polyline class="uuid-24331edb-d705-4455-9155-04d2853327af" points="57.52 420.91 56.14 421.93 55.78 422.91 55.9 424.72 58.28 429.74 59.8 431.19 61.22 432.06 61.99 433.26 62.58 431.77 62.09 429.25 59.92 425.27"/><polyline class="uuid-24331edb-d705-4455-9155-04d2853327af" points="61.99 433.36 62.21 436.43 61.66 439.79 63.26 438.79 62.95 433.66 62.58 431.77"/><polygon class="uuid-24331edb-d705-4455-9155-04d2853327af" points="61.66 439.9 61.39 441.31 61.24 443.56 61.55 444.8 63.55 445.93 67.16 446.65 63.7 441.71 62.87 440.41 63.15 438.86 61.66 439.9"/><polyline class="uuid-24331edb-d705-4455-9155-04d2853327af" points="63.75 441.78 66.82 443 75.15 445.17 76.69 444.99 76.69 445.85 75.53 448.06 74.37 448.33 70.66 447.69 67.16 446.65"/><polyline class="uuid-21836161-8fde-46aa-97be-3e73b902a7c7" points="153.11 340.48 157.7 357.83 160.87 372.41 162.38 380.95 156.82 384.38 151.69 386.88 147.41 388.33 144.61 388.72 141.43 388.94 137.79 388.33 134.07 386.88 129.31 383.12 126.88 381.87 124.6 381.65 122.03 382.39 119.4 384.82 117.04 389.31 114.34 395.49 112.05 398.47 109.84 400.04 106.35 401 103.86 400.42 100.65 399.09 96.51 396.28 89.53 390.95 85.35 386.96 81.82 383.11 77.37 378.89 73.05 376.59 69.13 375.33 64.82 374.76 60.79 374.76 54.94 375.33 50.03 376.19 43.85 377.73 71.78 340.78"/><polyline class="uuid-21836161-8fde-46aa-97be-3e73b902a7c7" points="113.68 292.77 110.31 301.34 107.95 307.01 104.67 312.73 100.47 318.61 93.86 325.97 84.99 333.76 78.02 338.47 73.82 340.75 107.34 340.75 134.35 340.48 153.2 340.19"/><polyline class="uuid-21836161-8fde-46aa-97be-3e73b902a7c7" points="71.78 340.78 75.92 335.28 77.53 337.16 73.55 340.36 73.54 340.75 71.94 340.78"/><polyline class="uuid-21836161-8fde-46aa-97be-3e73b902a7c7" points="77.59 337.07 79.3 335.52 80.42 334.45 81.97 332.82 84.54 329.92 86.55 327.16 88.36 324.3 89.92 321.23 91.18 317.71 91.55 316.46 91.93 314.52"/><polyline class="uuid-21836161-8fde-46aa-97be-3e73b902a7c7" points="92.02 314.01 91.78 314.3 90.66 315.75 88.89 318.14 75.92 335.28 77.59 337.07 91.13 316.76"/><polyline class="uuid-21836161-8fde-46aa-97be-3e73b902a7c7" points="125.18 306.54 125.52 306.45 127.18 304.23 125.18 302.51 120.45 298.4 117.23 295.63 113.87 292.69 113.76 292.92"/><polyline class="uuid-21836161-8fde-46aa-97be-3e73b902a7c7" points="121.49 302.57 122.37 302.36 125.73 306.54 126.83 307.5 135.31 296.22 144.09 300.02 145.12 304.91 149.03 322.07 153.2 340.19"/><path class="uuid-21836161-8fde-46aa-97be-3e73b902a7c7" d="m135.18,296.08l-1.2-.93-1.88,2.54c-1.88-1.98-3.06-3.48-3.06-3.48l-3.58-4.7-3.98-5.15-2.12-2.73,2.55,1.41,1.08-.36-.35-1.27,4.92,1.73.21-.56,15-2.36,1.28,19.63"/><polyline class="uuid-21836161-8fde-46aa-97be-3e73b902a7c7" points="120.72 279.2 119.37 281.49 121.9 282.87 120.77 279.09"/><polyline class="uuid-21836161-8fde-46aa-97be-3e73b902a7c7" points="127.63 282.57 122.41 280.7 121.63 278.03 121.37 278.03 122.96 275.38 125.44 271.09 127.14 267.37 128.76 263.56 139 269.42 139.18 269.45 139.18 269.87 139.31 270.42 139.54 270.98 139.82 271.23 140.32 271.55 140.74 271.68 141.7 271.68 142.15 271.43 142.61 271.04 142.91 270.65 143.17 270.03 144.49 270.44 142.78 280.23"/><polyline class="uuid-21836161-8fde-46aa-97be-3e73b902a7c7" points="139.23 269.29 139.44 268.67 139.97 268.18 140.98 267.67 141.77 267.75 142.27 268.01 142.6 268.28 142.88 268.61 143.11 269.15 143.19 269.84 144.55 270.3 145.32 265.96 145.65 263.82 146.07 261.54 147.2 255.31 144.84 255.7"/><polyline class="uuid-21836161-8fde-46aa-97be-3e73b902a7c7" points="142.43 258.5 141.81 256.24 144.84 255.7 143.22 259.7"/><polyline class="uuid-21836161-8fde-46aa-97be-3e73b902a7c7" points="142.72 258.88 142.86 259.77 142.79 260.23 143.05 260.32 143.38 258.88"/><polyline class="uuid-21836161-8fde-46aa-97be-3e73b902a7c7" points="142.72 260.32 142.5 260.88 141.91 261.48 140.93 261.76 139.83 261.51 135.03 266.96 139 269.49 139.18 269.45 140.39 267.13 143.33 260.53"/><polyline class="uuid-21836161-8fde-46aa-97be-3e73b902a7c7" points="139.72 261.46 139.18 260.94 138.88 260.04 138.88 259.07 131.06 253.81 130.2 258.36 128.71 263.44 135.03 267.15"/><polyline class="uuid-21836161-8fde-46aa-97be-3e73b902a7c7" points="139.03 259.01 139.26 258.66 140.1 257.92 140.73 257.77 141.48 257.81 142.23 258.3 141.64 256.18 137.76 255.49 135.12 256.38 131.06 253.62"/><polyline class="uuid-21836161-8fde-46aa-97be-3e73b902a7c7" points="131.06 253.62 131.68 247.02 142.84 240.91 137.93 254.42 137.76 255.31 134.96 256.44"/><polyline class="uuid-21836161-8fde-46aa-97be-3e73b902a7c7" points="138.09 254.32 142.13 255.17 147.41 254.06 148.79 253 150.22 251.45 151.42 248.53 151.84 245.52 151.38 242.21 149.99 239.12 148.51 239.12 147.67 239.75 145.8 240.42 143.07 240.91 142.84 240.83"/><polyline class="uuid-21836161-8fde-46aa-97be-3e73b902a7c7" points="148.59 238.68 148.88 238.3 149.01 237.93 149.69 238.68 148.69 239.05"/><polyline class="uuid-21836161-8fde-46aa-97be-3e73b902a7c7" points="119.07 282.27 114.11 292.27 119.97 297.44"/><polyline class="uuid-21836161-8fde-46aa-97be-3e73b902a7c7" points="122.24 286.35 122.35 287.07 122.24 288.08 121.76 289.08 120.72 290.29 119.48 291.28 119.97 297.18 121.18 294.9 125.64 291.76 126.15 291.37 122.5 286.43"/><polyline class="uuid-21836161-8fde-46aa-97be-3e73b902a7c7" points="125.76 291.96 126.23 291.59 127.91 293.81 129.89 296.44 129.64 296.78 129.5 296.96 129.33 297.18 129.23 297.33 126.25 292.77"/><polyline class="uuid-21836161-8fde-46aa-97be-3e73b902a7c7" points="126.15 292.74 121.83 295.86 120.67 297.83 125.76 302.23 129.18 297.29"/><line class="uuid-21836161-8fde-46aa-97be-3e73b902a7c7" x1="126.05" y1="292.64" x2="126.24" y2="292.47"/><polyline class="uuid-21836161-8fde-46aa-97be-3e73b902a7c7" points="107.38 227.4 105.5 236.05 103.88 247.15 107.55 282.22 110.9 278.42 114.11 273.61 115.8 270.3 117.47 265.33 118.87 257.7 118.7 254.92 118.46 250.53 117.47 245.55 115.35 239.94 112.66 234.7 107.72 227.83"/><polyline class="uuid-0b3d57a0-83d0-44a3-9e73-2898626aa224" points="130.32 296.79 126.05 302.72 127.38 303.86 131.46 298.02"/><polyline class="uuid-0b3d57a0-83d0-44a3-9e73-2898626aa224" points="160.49 255.35 160.59 254.81 161.82 254.13 162.54 254.13 163.35 256.25 164.93 259.42 167.38 262.58 167.45 264.34 166.58 265.04 164.65 264.55 163.37 263.15"/><polyline class="uuid-0b3d57a0-83d0-44a3-9e73-2898626aa224" points="130.72 231.73 131.46 237.32 131.74 245.62 141.89 240.11 147.03 238.75 147.75 238.19 147.75 237.32 147.24 236.21 145.24 234.48 142.03 232.41 138.09 230.25"/><polyline class="uuid-21836161-8fde-46aa-97be-3e73b902a7c7" points="147.69 259.42 145.89 269.49 162.75 263.22 159.87 255.46"/><polyline class="uuid-21836161-8fde-46aa-97be-3e73b902a7c7" points="147.63 259.34 151.04 258.32 151.62 258.16"/><polygon class="uuid-f98187bd-a738-4a15-9718-9cbe73f99ffd" points="114.26 214.48 114.94 214.68 115.93 215.25 114.71 216.45 110.89 219.89 106.69 224.25 105.65 222.82 106.69 221.4 109.58 218.07 112.88 215.09 114.26 214.48"/><polyline class="uuid-b2e00d3a-747a-43b3-b89d-93b556ac2b4f" points="111.48 220.02 113.56 223.63 121.72 225.06 128.14 220.22 120.7 218.6 116.34 215.5"/><polyline class="uuid-b2e00d3a-747a-43b3-b89d-93b556ac2b4f" points="111.05 220.12 113.27 224.04 121.69 225.47 119.97 231.33 118.78 231.2 116.89 230.83 114.82 230.33 111.59 229.08 110.19 228.5 108.74 227.15 106.59 224.11"/><polyline class="uuid-b2e00d3a-747a-43b3-b89d-93b556ac2b4f" points="121.69 225.47 124.25 226.91 124.87 226.19 125.9 225.26 126.83 224.71 127.68 224.55 128.28 224.55 129.13 224.71 128.3 220.12 121.72 225.06 121.69 225.73"/><polyline class="uuid-b2e00d3a-747a-43b3-b89d-93b556ac2b4f" points="128.3 220.12 134.53 217.3 138.76 224.34 138.71 226.04 138.5 225.73 138.17 225.9 136.97 226.56 136.02 226.95 134.58 227.31 133.39 227.31 132.5 227.15 131.34 226.54 130.27 225.59 129.23 224.8 129.07 224.71"/><polyline class="uuid-b2e00d3a-747a-43b3-b89d-93b556ac2b4f" points="121.69 225.47 120 231.42 122.18 231.57 124.35 231.57 126.46 231.5 128.3 231.42 131.24 231.33 124.59 227.16 124.29 226.91"/><polyline class="uuid-b2e00d3a-747a-43b3-b89d-93b556ac2b4f" points="124.59 227.16 125.41 226.27 125.91 225.8 126.68 225.26 127.17 225.06 127.71 224.91 128.22 224.91 129.01 225.14 129.5 225.47 130.17 226.04 131.08 226.83 132.11 227.46 132.81 227.65 133.99 227.81 134.81 227.7 135.61 227.56 136.88 230.17 131.16 231.28"/><polyline class="uuid-b2e00d3a-747a-43b3-b89d-93b556ac2b4f" points="135.64 227.56 136.88 227.07 138.6 226.14 138.76 226.39 138.76 226.91 138.98 227.56 139.34 228.1 138.95 228.96 138.29 229.62 136.88 230.11"/><polyline class="uuid-b2e00d3a-747a-43b3-b89d-93b556ac2b4f" points="107.55 226.23 107.46 226.64 108.81 228.27 109.77 229.44 110.59 230.58 109.66 228.49"/><polyline class="uuid-b2e00d3a-747a-43b3-b89d-93b556ac2b4f" points="109.8 228.62 111.47 229.47 113.45 230.28 115.54 230.88 112.38 233.22 110.74 230.8"/><polyline class="uuid-b2e00d3a-747a-43b3-b89d-93b556ac2b4f" points="115.54 230.88 117.47 231.42 121.09 231.82 122.63 236.45 123.61 240.69 124.29 245.5 124.4 248.67 124.25 252.35 123.86 255.77 122.9 260.48 121.82 263.95 117.58 243.74 115.83 239.55 112.67 233.45 112.38 233.22"/><polyline class="uuid-b2e00d3a-747a-43b3-b89d-93b556ac2b4f" points="118.99 260.69 118.57 263.26 117.84 266.29 116.56 269.9 115.63 271.97 118.19 272.74 118.39 272.33 120.62 267.69 122.19 262.75 120.88 259.49"/><polyline class="uuid-b2e00d3a-747a-43b3-b89d-93b556ac2b4f" points="115.63 271.97 114.4 274.23 111.37 278.92 107.54 283.09 101.53 287.24 88.74 296.34 109.55 286.9 112.57 282.84 116.21 276.83 118.31 272.48"/><polyline class="uuid-b2e00d3a-747a-43b3-b89d-93b556ac2b4f" points="109.55 286.9 110.41 287.64 113.51 291.91 109.73 301.25 107.38 306.93 92.29 306.26 91.09 299.61 88.74 296.34 91.37 302.27 92.02 303.48 100.29 295.64 109.36 287.24 89.07 296.19"/><polyline class="uuid-b2e00d3a-747a-43b3-b89d-93b556ac2b4f" points="88.74 296.34 91.99 302.08 101 296.34 107.88 290.38 109.15 286.9"/><polyline class="uuid-b2e00d3a-747a-43b3-b89d-93b556ac2b4f" points="91.21 301.19 92.05 303.71 98.28 298.96 95.87 297.04"/><polyline class="uuid-b2e00d3a-747a-43b3-b89d-93b556ac2b4f" points="92.29 306.26 92.76 309.29 92.76 312.6 92.02 316.76 96.03 322.78 99.52 318.95 102.79 314.48 106.18 309.19 107.38 306.93"/><polyline class="uuid-b2e00d3a-747a-43b3-b89d-93b556ac2b4f" points="92.02 316.97 91.12 319.62 89.45 323.51 87.11 327.3 86.21 331.86 90.26 328.48 95.87 322.94 97.29 320.93"/><line class="uuid-b2e00d3a-747a-43b3-b89d-93b556ac2b4f" x1="91.81" y1="327.31" x2="95.08" y2="324.17"/><polyline class="uuid-b2e00d3a-747a-43b3-b89d-93b556ac2b4f" points="86.98 327.56 84.76 330.49 81.43 334.22 76.96 338.37 77.59 338.17 80.41 336.38 83.69 334.01 86.35 331.86"/><polyline class="uuid-b2e00d3a-747a-43b3-b89d-93b556ac2b4f" points="122.3 231.99 126.03 231.99 130.23 231.73 130.49 233.64 130.94 238.24 131.18 243.92 131.06 248.06 124.57 239.9"/><polyline class="uuid-b2e00d3a-747a-43b3-b89d-93b556ac2b4f" points="124.65 240.2 125.41 245.43 125.49 249.28 125.36 253 124.97 257.18 129.82 257.05 130.36 254.96 130.81 251.21 131.18 247.86"/><polyline class="uuid-b2e00d3a-747a-43b3-b89d-93b556ac2b4f" points="124.97 255.47 124.4 259.01 122.61 265.2 121.57 267.89 125.49 269.83 127.32 265.8 128.71 261.68 129.85 256.94"/><polyline class="uuid-b2e00d3a-747a-43b3-b89d-93b556ac2b4f" points="121.57 267.98 120.32 270.96 118.75 274.45 117 277.7 115.07 281.09 110.41 287.64 113.68 292.16 115.82 287.34 119.25 280.68 122 275.9 124.27 272.18 125.54 269.72"/><polygon class="uuid-3fce4e2b-9648-44db-b5f0-60a996b23221" points="43.92 446.19 19.82 446.72 15.17 447.86 14 449.33 15.32 450.4 22.72 452.38 30.87 453.08 41.33 454.08 52.54 454.31 66.17 453.94 74.35 452.68 76.23 451.55 74.42 449.16 65.12 447.66 43.92 446.19"/><path class="uuid-dc1ca8c7-29f2-46c8-9050-3fc1ea6d854c" d="m14.78,447.88c-.18.09-1.41.72-1.31,1.43.07.5.76.81,1.15.97,5.18,2.13,8.25,2.11,8.25,2.11,5.56-.04,11.08,1.1,16.64,1.32,32.85,1.31,14.42.36,19.15.58,2.91.14,6.73.35,11.72-.49,2.34-.39,4.22-.9,5.49-1.28"/><polyline class="uuid-3fce4e2b-9648-44db-b5f0-60a996b23221" points="70.94 458.13 18.55 461.64 2.83 467.29 .74 470.96 12.03 474.7 46.84 476.43 106.2 478.23 124.55 478.1 93.7 484.99 92.75 486.49 103.31 488.67 158.44 492.55 188.81 493.47 196.37 488.77 186.23 482.52 210.94 479.02 251.45 473.28 256.61 469.69 250.64 463.57 238.44 459.97 162.4 455.12"/><polygon class="uuid-3fce4e2b-9648-44db-b5f0-60a996b23221" points="350.86 480.08 326.75 480.6 322.11 481.74 320.94 483.22 322.26 484.29 329.65 486.27 337.81 486.96 348.27 487.96 359.48 488.2 373.11 487.83 381.29 486.57 383.17 485.43 381.36 483.05 372.06 481.55 350.86 480.08"/><path class="uuid-dc1ca8c7-29f2-46c8-9050-3fc1ea6d854c" d="m321.72,481.76c-.18.09-1.41.72-1.31,1.43.07.5.76.81,1.15.97,5.18,2.13,8.25,2.11,8.25,2.11,5.56-.04,11.08,1.1,16.64,1.32,32.85,1.31,14.42.36,19.15.58,2.91.14,6.73.35,11.72-.49,2.34-.39,4.22-.9,5.49-1.28"/><polyline class="uuid-dc1ca8c7-29f2-46c8-9050-3fc1ea6d854c" points="2.83 467.29 .74 470.96 12.03 474.7 44.35 476.31 95.11 478.37 120.9 478.37 93.7 484.99 92.75 486.49 103.31 488.67 131.81 490.68 188.81 493.47 196.37 488.77 186.23 482.52 222.29 477.41 251.45 473.28 256.61 469.69 254.94 467.98 223.52 476.59 223.14 476.7"/><polyline class="uuid-75263a47-abdb-466f-bb28-f27cbcb8f74b" points="223.41 476.91 225.11 476.39 229.83 475.1 234.57 473.82 240.68 472.21 251.1 469.29 254.86 468.31 256.11 469.61 251.41 472.98 228.72 476.28"/><path class="uuid-75263a47-abdb-466f-bb28-f27cbcb8f74b" d="m217.92,465.68c-.98.92-.76,2.53,1,3.43,1.75.89,4.25.69,5.76-.16,1.35-.75,1.97-2.05,1.25-2.96-1.24-1.58-6.37-1.84-8.01-.31Z"/><path class="uuid-75263a47-abdb-466f-bb28-f27cbcb8f74b" d="m87.11,463.31c-2.45.98-1.9,2.7,2.49,3.66,4.35.95,10.57.73,14.32-.17,3.35-.8,4.89-2.19,3.11-3.16-3.09-1.69-15.85-1.97-19.93-.33Z"/><path class="uuid-75263a47-abdb-466f-bb28-f27cbcb8f74b" d="m123.52,483.25c-2.18.88-1.69,2.43,2.22,3.29,3.88.85,9.41.66,12.75-.15,2.98-.72,4.36-1.97,2.77-2.84-2.75-1.52-14.11-1.77-17.74-.3Z"/><path class="uuid-75263a47-abdb-466f-bb28-f27cbcb8f74b" d="m14.84,467.66c-1.42.44-1.1,1.21,1.45,1.64,2.53.43,6.15.33,8.33-.07,1.95-.36,2.85-.98,1.81-1.42-1.8-.76-9.22-.88-11.59-.15Z"/><path class="uuid-75263a47-abdb-466f-bb28-f27cbcb8f74b" d="m196.92,463.93c-1.36.59-1.06,1.61,1.39,2.19,2.43.57,5.89.44,7.98-.1,1.87-.48,2.73-1.31,1.73-1.89-1.72-1.01-8.83-1.17-11.1-.2Z"/></svg>