<?xml version="1.0" encoding="UTF-8"?><svg id="uuid-81fdf0ee-31b7-458d-ad51-431a840aed83" xmlns="http://www.w3.org/2000/svg" width="566.03" height="736.19" viewBox="0 0 566.03 736.19"><defs><style>.uuid-14dcec04-a23d-4948-b416-a5f94a392fc2{stroke-width:3px;}.uuid-14dcec04-a23d-4948-b416-a5f94a392fc2,.uuid-7f79b5b6-deb2-4f1b-89f7-c69d1e9182ad,.uuid-6636a5a9-4a72-4665-b28c-cc27a45d7733,.uuid-a16c3f74-462d-4859-b7fa-5c0a562b72fd,.uuid-ee931b8e-8b55-4336-a1f3-158f104166a5,.uuid-7a67d531-240e-49dc-9bce-4e7f5578a265,.uuid-5078a0c0-3051-4604-a781-235d74036f84,.uuid-d37e56ec-9f13-472d-b408-11b15230bbf8,.uuid-49add558-0080-4bda-ac58-4cab13a063f5,.uuid-aabb52b7-7b45-4b32-8753-2d6e4503d87c,.uuid-7845187d-d802-4d04-b279-1fb1c475f463,.uuid-260d1d28-e192-4dd2-b240-41307ff383ac,.uuid-c78ddd4c-c417-44d9-9011-264f6f90adc8,.uuid-a2561c4a-fff1-4277-a77c-682322e26346,.uuid-c91b6389-9929-4069-9fc6-1541e6762c02,.uuid-d0d601d8-3997-451c-aa34-74db654fd22c,.uuid-dc7a914e-8291-4bee-8fd4-a170af6ede07,.uuid-0755afb3-0b4b-4918-be40-7ae1394bf3e1,.uuid-8521476f-2597-42ba-b763-a58b1dfa022c,.uuid-e62c2269-fc7f-4fa9-8f35-2119eebea469,.uuid-3c1fad48-0f13-4d97-a949-e95da6ef3694,.uuid-c72a54a2-3d8d-414e-98dd-ea59ee1b2d70,.uuid-f2b56bba-fe84-4ec4-b9f0-6250ba5add65,.uuid-29897d05-64ae-4807-80f3-6a0f26f96da2,.uuid-8faf7658-ce8b-46ca-bba0-47521059c626,.uuid-ec7dcb5f-5403-468e-a277-3ebec78f535d,.uuid-f1403b42-a800-4125-b43e-67acc1b0c9a0,.uuid-f4894ce5-e63d-4374-b797-e7257f6ae1ba,.uuid-6e29a29d-1778-4b3e-a7ce-e3a9069f8bdd,.uuid-7aeeb239-127e-4e38-869b-255cc79f0c16,.uuid-d0a966ab-dea2-4cc4-a0a8-8177957e18da,.uuid-21d4399d-36ad-46ab-ba9e-b2616ee43ef4,.uuid-72f8430c-d0ff-4813-8d8d-8b366d7ba59b,.uuid-6e442946-dcb0-49ee-9c44-c99b414e5f7e,.uuid-e2111531-8a13-4405-8fbe-423973e52d1d,.uuid-429aa8e4-2942-4c90-9ab7-05be486e8de0{stroke-miterlimit:10;}.uuid-14dcec04-a23d-4948-b416-a5f94a392fc2,.uuid-7f79b5b6-deb2-4f1b-89f7-c69d1e9182ad,.uuid-c78ddd4c-c417-44d9-9011-264f6f90adc8,.uuid-8521476f-2597-42ba-b763-a58b1dfa022c,.uuid-e62c2269-fc7f-4fa9-8f35-2119eebea469,.uuid-3c1fad48-0f13-4d97-a949-e95da6ef3694,.uuid-c72a54a2-3d8d-414e-98dd-ea59ee1b2d70,.uuid-f2b56bba-fe84-4ec4-b9f0-6250ba5add65,.uuid-29897d05-64ae-4807-80f3-6a0f26f96da2,.uuid-8faf7658-ce8b-46ca-bba0-47521059c626,.uuid-ec7dcb5f-5403-468e-a277-3ebec78f535d,.uuid-7aeeb239-127e-4e38-869b-255cc79f0c16,.uuid-d0a966ab-dea2-4cc4-a0a8-8177957e18da,.uuid-21d4399d-36ad-46ab-ba9e-b2616ee43ef4,.uuid-72f8430c-d0ff-4813-8d8d-8b366d7ba59b,.uuid-6e442946-dcb0-49ee-9c44-c99b414e5f7e,.uuid-e2111531-8a13-4405-8fbe-423973e52d1d,.uuid-429aa8e4-2942-4c90-9ab7-05be486e8de0{fill:none;}.uuid-14dcec04-a23d-4948-b416-a5f94a392fc2,.uuid-6636a5a9-4a72-4665-b28c-cc27a45d7733,.uuid-ee931b8e-8b55-4336-a1f3-158f104166a5,.uuid-d0d601d8-3997-451c-aa34-74db654fd22c,.uuid-0755afb3-0b4b-4918-be40-7ae1394bf3e1,.uuid-8521476f-2597-42ba-b763-a58b1dfa022c,.uuid-3c1fad48-0f13-4d97-a949-e95da6ef3694,.uuid-f2b56bba-fe84-4ec4-b9f0-6250ba5add65,.uuid-ec7dcb5f-5403-468e-a277-3ebec78f535d,.uuid-72f8430c-d0ff-4813-8d8d-8b366d7ba59b{stroke:#221f20;}.uuid-7f79b5b6-deb2-4f1b-89f7-c69d1e9182ad{stroke-width:15px;}.uuid-7f79b5b6-deb2-4f1b-89f7-c69d1e9182ad,.uuid-49add558-0080-4bda-ac58-4cab13a063f5,.uuid-7845187d-d802-4d04-b279-1fb1c475f463,.uuid-8faf7658-ce8b-46ca-bba0-47521059c626,.uuid-7aeeb239-127e-4e38-869b-255cc79f0c16,.uuid-429aa8e4-2942-4c90-9ab7-05be486e8de0{stroke:#d83832;}.uuid-6636a5a9-4a72-4665-b28c-cc27a45d7733,.uuid-a16c3f74-462d-4859-b7fa-5c0a562b72fd,.uuid-ee931b8e-8b55-4336-a1f3-158f104166a5,.uuid-7a67d531-240e-49dc-9bce-4e7f5578a265,.uuid-8521476f-2597-42ba-b763-a58b1dfa022c,.uuid-e62c2269-fc7f-4fa9-8f35-2119eebea469{stroke-width:2px;}.uuid-6636a5a9-4a72-4665-b28c-cc27a45d7733,.uuid-d0d601d8-3997-451c-aa34-74db654fd22c{fill:#59b277;}.uuid-a16c3f74-462d-4859-b7fa-5c0a562b72fd{fill:#dd5f36;stroke:#dd5f36;}.uuid-ee931b8e-8b55-4336-a1f3-158f104166a5{fill:#d83745;}.uuid-7a67d531-240e-49dc-9bce-4e7f5578a265,.uuid-f4894ce5-e63d-4374-b797-e7257f6ae1ba{fill:#d3373d;stroke:#d3373d;}.uuid-5078a0c0-3051-4604-a781-235d74036f84{fill:#e68d3d;}.uuid-5078a0c0-3051-4604-a781-235d74036f84,.uuid-7845187d-d802-4d04-b279-1fb1c475f463,.uuid-260d1d28-e192-4dd2-b240-41307ff383ac,.uuid-72f8430c-d0ff-4813-8d8d-8b366d7ba59b,.uuid-6e442946-dcb0-49ee-9c44-c99b414e5f7e,.uuid-e2111531-8a13-4405-8fbe-423973e52d1d,.uuid-429aa8e4-2942-4c90-9ab7-05be486e8de0{stroke-width:.5px;}.uuid-5078a0c0-3051-4604-a781-235d74036f84,.uuid-21d4399d-36ad-46ab-ba9e-b2616ee43ef4,.uuid-6e442946-dcb0-49ee-9c44-c99b414e5f7e{stroke:#e68d3d;}.uuid-d37e56ec-9f13-472d-b408-11b15230bbf8{fill:#af312e;}.uuid-d37e56ec-9f13-472d-b408-11b15230bbf8,.uuid-49add558-0080-4bda-ac58-4cab13a063f5,.uuid-aabb52b7-7b45-4b32-8753-2d6e4503d87c,.uuid-7aeeb239-127e-4e38-869b-255cc79f0c16,.uuid-d0a966ab-dea2-4cc4-a0a8-8177957e18da,.uuid-21d4399d-36ad-46ab-ba9e-b2616ee43ef4{stroke-width:.25px;}.uuid-d37e56ec-9f13-472d-b408-11b15230bbf8,.uuid-d0a966ab-dea2-4cc4-a0a8-8177957e18da{stroke:#af312e;}.uuid-49add558-0080-4bda-ac58-4cab13a063f5,.uuid-7845187d-d802-4d04-b279-1fb1c475f463{fill:#d83832;}.uuid-aabb52b7-7b45-4b32-8753-2d6e4503d87c,.uuid-a2561c4a-fff1-4277-a77c-682322e26346{fill:#87539a;stroke:#87539a;}.uuid-260d1d28-e192-4dd2-b240-41307ff383ac{fill:#e3833b;}.uuid-260d1d28-e192-4dd2-b240-41307ff383ac,.uuid-e2111531-8a13-4405-8fbe-423973e52d1d{stroke:#e3833b;}.uuid-c78ddd4c-c417-44d9-9011-264f6f90adc8{stroke:#070505;}.uuid-c78ddd4c-c417-44d9-9011-264f6f90adc8,.uuid-f1403b42-a800-4125-b43e-67acc1b0c9a0,.uuid-f4894ce5-e63d-4374-b797-e7257f6ae1ba,.uuid-6e29a29d-1778-4b3e-a7ce-e3a9069f8bdd{stroke-width:.75px;}.uuid-c91b6389-9929-4069-9fc6-1541e6762c02{fill:#8acbdc;stroke:#8acbdc;}.uuid-dc7a914e-8291-4bee-8fd4-a170af6ede07{fill:#188db5;}.uuid-dc7a914e-8291-4bee-8fd4-a170af6ede07,.uuid-c72a54a2-3d8d-414e-98dd-ea59ee1b2d70{stroke:#198db5;}.uuid-0755afb3-0b4b-4918-be40-7ae1394bf3e1{fill:#116a3f;}.uuid-e62c2269-fc7f-4fa9-8f35-2119eebea469{stroke:#d53363;}.uuid-3c1fad48-0f13-4d97-a949-e95da6ef3694{stroke-width:4px;}.uuid-29897d05-64ae-4807-80f3-6a0f26f96da2,.uuid-6e29a29d-1778-4b3e-a7ce-e3a9069f8bdd{stroke:#000;}.uuid-ec7dcb5f-5403-468e-a277-3ebec78f535d{stroke-width:8px;}.uuid-f1403b42-a800-4125-b43e-67acc1b0c9a0{stroke:#c63531;}.uuid-f1403b42-a800-4125-b43e-67acc1b0c9a0,.uuid-4e17a4c3-7daf-46fc-81e2-e7966b4522ff{fill:#b7332f;}.uuid-4e17a4c3-7daf-46fc-81e2-e7966b4522ff{stroke-width:0px;}.uuid-6e29a29d-1778-4b3e-a7ce-e3a9069f8bdd{fill:#c93f3f;}</style></defs><path class="uuid-72f8430c-d0ff-4813-8d8d-8b366d7ba59b" d="m243.21,338.76c-.24.17-.97.73-1.22,1.74-.3,1.24.28,2.53,1.24,3.2.91.64,1.89.55,2.21.51.28-.03,1.23-.15,2.02-.94.15-.16,1.11-1.15.92-2.61-.22-1.65-1.7-2.36-1.78-2.4-1.1-.51-2.42-.31-3.38.5Z"/><path class="uuid-0755afb3-0b4b-4918-be40-7ae1394bf3e1" d="m122.61,27.4c-49.93,28.28-75.55,69.2-84.66,85.45C3.22,174.86-4.44,258.88,17.77,269.12c6.39,2.94,13.59-.97,71.48-48.32,51.93-42.48,59.42-50.2,96.31-80.45,29.24-23.97,57.05-49.68,86.65-73.21,28.99-23.04,38.72-29.34,37.41-38.11-3.16-21.23-67.69-35.05-122.63-25.4-6.49,1.14-33.4,6.22-64.38,23.77Z"/><line class="uuid-3c1fad48-0f13-4d97-a949-e95da6ef3694" x1="81.31" y1="23.29" x2="97.35" y2="43.81"/><line class="uuid-14dcec04-a23d-4948-b416-a5f94a392fc2" x1="78.29" y1="84.19" x2="131.31" y2="164.63"/><line class="uuid-8521476f-2597-42ba-b763-a58b1dfa022c" x1="144.13" y1="31.22" x2="272.21" y2="67.14"/><line class="uuid-8521476f-2597-42ba-b763-a58b1dfa022c" x1="29.38" y1="176.84" x2="53.88" y2="240.63"/><path class="uuid-d0d601d8-3997-451c-aa34-74db654fd22c" d="m309.38,33.08c-9.02,30.18-25.6,70.78-57.4,110.77-79.48,99.99-194.11,120.91-227.58,125.77"/><polyline class="uuid-6636a5a9-4a72-4665-b28c-cc27a45d7733" points="22.6 269.68 74.32 227.32 149.35 165.68 217.75 109.55 259.21 74.17 308.81 34.63"/><path class="uuid-ee931b8e-8b55-4336-a1f3-158f104166a5" d="m245.49,191.2c-2.21-3.41-8.52-12.08-19.7-15.22-14.94-4.2-32.44,3.18-42.98,18.8l4.75,11.9-4.75,2.05-4.64-12.14"/><line class="uuid-8521476f-2597-42ba-b763-a58b1dfa022c" x1="177.32" y1="197.16" x2="183.2" y2="194.92"/><polygon class="uuid-a16c3f74-462d-4859-b7fa-5c0a562b72fd" points="180.43 198.03 182.54 197.15 185.56 205.58 183.34 206.72 180.43 198.03"/><path class="uuid-7a67d531-240e-49dc-9bce-4e7f5578a265" d="m242.54,194.57c.83-2.1,2.66-5.87,6.49-9.12,1.46-1.24,3.93-3.33,7.71-4.21.72-.17,9.69-2.09,14.73,4.03.41.49,3.61,4.51,2.63,9.47-.88,4.47-4.61,6.95-7.71,8.94-6.05,3.89-8.8,2.82-19.29,6.31-4.87,1.62-9.79,3.29-15.25,6.84-6.74,4.38-9.91,8.76-10.34,8.42-.49-.38,3-6.18,20.39-29.88"/><line class="uuid-e62c2269-fc7f-4fa9-8f35-2119eebea469" x1="241.49" y1="195.96" x2="242.7" y2="194.34"/><path class="uuid-72f8430c-d0ff-4813-8d8d-8b366d7ba59b" d="m268.89,182.07c.25,1.79.57,6.06-1.79,10.4-4.46,8.24-14.35,8.97-15.06,9.01"/><path class="uuid-f2b56bba-fe84-4ec4-b9f0-6250ba5add65" d="m228.14,224.37c-1.11-1.4-2.11-1.5-2.41-1.51-2.47-.1-5.02,3.59-4.68,6.54.1.89.54,1.68,1.43,3.25.97,1.72,1.94,3.02,2.63,3.87"/><path class="uuid-f2b56bba-fe84-4ec4-b9f0-6250ba5add65" d="m226.35,225.31c-1.18-.23-2.37.25-2.99,1.2-.78,1.19-.27,2.5-.22,2.62"/><line class="uuid-f2b56bba-fe84-4ec4-b9f0-6250ba5add65" x1="223.36" y1="226.51" x2="225.05" y2="227.67"/><path class="uuid-c78ddd4c-c417-44d9-9011-264f6f90adc8" d="m256.79,209.13c2.61,6.96,2.52,12.24,1.86,15.88-1.01,5.64-3.78,9.68-1.86,12.65,1.6,2.49,4.76,1.55,5.59,3.97.77,2.26-1.04,5.87-3.49,7.44-1.92,1.23-3.81.95-4.19,2.23-.26.88.5,1.5.93,2.73,1.02,2.9-.52,7.08-2.79,8.68-1.57,1.11-3.58,1.05-9.31-.99-3.75-1.33-8.83-3.42-14.67-6.7"/><polyline class="uuid-c78ddd4c-c417-44d9-9011-264f6f90adc8" points="234.35 257.9 234.35 268.91 222.93 273.94 210.1 271.23 202.36 265.92 193.46 273.94 197.33 280.45 211.84 282.85"/><path class="uuid-c78ddd4c-c417-44d9-9011-264f6f90adc8" d="m240.48,281.4c2.41,1.17.41,4.17,2.41,6.17,0,1-1,2-2,3-6,2-12,3-18,3-10,1-20,0-29-4-4-1-7-6-10-10-1-1,0-2,1-3,4-5,8-9,13-12,1-1,4,1,5.65,2.17l4.09-12.68,2.13-1.55,2.08-.97"/><line class="uuid-c78ddd4c-c417-44d9-9011-264f6f90adc8" x1="242.09" y1="281.65" x2="234.35" y2="268.91"/><path class="uuid-c78ddd4c-c417-44d9-9011-264f6f90adc8" d="m216.48,285.87c1.55-1.86,3.95-4.14,6.68-3.93,2.91.23,3.89,3.13,7.07,4.32,2.1.79,5.5.96,11-2.36"/><path class="uuid-f4894ce5-e63d-4374-b797-e7257f6ae1ba" d="m221.7,224c-.99,1.24-2.19,2.95-3.19,5.02-.85,1.75-2.82,5.98-1.95,10.95.96,5.44,4.19,5.36,3.86,10.08-.33,4.66-3.65,7.01-4.77,7.73-.79.51-1.55.89-2.1,1.14"/><path class="uuid-f4894ce5-e63d-4374-b797-e7257f6ae1ba" d="m191.67,203.23c-.62.96-10.02,15.99-1.61,31.51,6.73,12.41,19.88,15.97,22.03,16.52l4.43-9.8-.93-7.48.46.84,2.47-6.98,3.76-6.34,10.15-14.77,10.42-13.91v-1.72l-32.44,2.31-24.86,2.04-1.14.58,1.56,3.98,3.01,7.52"/><path class="uuid-7a67d531-240e-49dc-9bce-4e7f5578a265" d="m188.9,206.34c-2.97,9.5-2.82,16.27.25,17.84.23.12.53.23.99.19,3.82-.38,11.02-10.8,17.12-20.71"/><path class="uuid-6e29a29d-1778-4b3e-a7ce-e3a9069f8bdd" d="m181.28,208.92c-2.76,2.18-5.53,5.01-7.81,8.66-7.74,12.37-3.8,27.98-1.09,39.35,2.5,10.47,4.27,11,5.72,20.35,1.23,7.91,1.05,14.55.32,22.89-1.59,18.17-3.14,35.82-11.76,57.55-4.67,11.75-12.67,27.88-15.2,27.02-4.27-1.45,21.76-46.28,3.57-79.94-7.75-14.33-19.34-18.91-22.84-37.83-2.35-12.7.3-24.55,1.12-28.08,1.47-6.29,3.56-15.27,10.2-23.66,11.23-14.16,28.05-17.28,33.8-18.08"/><polygon class="uuid-f1403b42-a800-4125-b43e-67acc1b0c9a0" points="177.2 197.85 181.28 208.03 178.18 210.78 172.97 216.87 170.07 221.78 168.36 232.03 169.11 250.16 172 258.56 176.76 273.12 178.47 287.16 177.58 302.99 175.42 322.97 171.78 340.58 164.3 275.28 161.73 273.93 160.6 269.22 164.94 263.8 160.92 256.4 152.97 253.83 151.44 247 156.64 234.94 157.39 217.9 159.56 211.79 177.2 197.85"/><polygon class="uuid-f1403b42-a800-4125-b43e-67acc1b0c9a0" points="184.42 196.04 198.25 201.48 207.25 232.22 211.84 224 209.17 217.66 217.62 212.03 245.49 203.65 245.7 210.46 245.7 211.46 238.22 214.13 231.45 218.23 226.35 222.2 221.7 222.51 220.59 224.37 220.36 229.68 217.18 242.21 211.84 251.55 207.25 250.08 184.42 196.04"/><polygon class="uuid-4e17a4c3-7daf-46fc-81e2-e7966b4522ff" points="208.33 250.8 202.4 247.69 194.91 241.97 190.78 237.18 187.21 230.4 185.69 225.34 184.82 217.47 186.89 210.43 188.68 205.82 188.99 204.59 187.55 202.3 184.56 194.06 190.81 206.71 209.45 250.89 208.33 250.8"/><polyline class="uuid-f2b56bba-fe84-4ec4-b9f0-6250ba5add65" points="186.75 283.48 183.48 299.01 180.26 320.12 186.75 380.07"/><path class="uuid-f2b56bba-fe84-4ec4-b9f0-6250ba5add65" d="m186.75,380.07c4.99-4.7,15.52-16,19.16-33.57,6.91-33.3-17.23-58.71-19.57-61.1"/><path class="uuid-f2b56bba-fe84-4ec4-b9f0-6250ba5add65" d="m186.75,380.07l-33.12,22.54"/><path class="uuid-f2b56bba-fe84-4ec4-b9f0-6250ba5add65" d="m153.64,402.61c3.23,5.39,6.86,13.47,7.19,23.5.96,28.92-32.71,51.22-32.61,51.32.1.11,36.44-18.06,56.6-52.28,7.7-13.07,5.79-16.27,19.66-42.21,9.4-17.57,12.29-19.87,16.31-28.78,5.7-12.62,10.76-32.07,6.24-60.91"/><polyline class="uuid-f2b56bba-fe84-4ec4-b9f0-6250ba5add65" points="197.75 395.79 218.6 413.27 221.71 415.89 229.35 405.36 226.76 402.6 219.26 412.63 219.35 412.17"/><line class="uuid-f2b56bba-fe84-4ec4-b9f0-6250ba5add65" x1="226.99" y1="403.16" x2="207.16" y2="378.03"/><path class="uuid-8521476f-2597-42ba-b763-a58b1dfa022c" d="m219.18,395.79c-2.6,1.81-5.2,3.62-7.81,5.44"/><path class="uuid-8521476f-2597-42ba-b763-a58b1dfa022c" d="m210.65,383.03c.22.35,2.05,3.39.71,6.49-.52,1.21-1.35,1.99-1.91,2.44"/><path class="uuid-8521476f-2597-42ba-b763-a58b1dfa022c" d="m211.53,293.78c2.42,5.8,5.46,15,5.87,26.55.61,17.33-5.05,30.27-9.06,39.45-3.11,7.12-8.34,17.12-17.06,27.72"/><line class="uuid-8521476f-2597-42ba-b763-a58b1dfa022c" x1="228.69" y1="318.73" x2="248.37" y2="308.31"/><path class="uuid-8521476f-2597-42ba-b763-a58b1dfa022c" d="m240.89,290.56c5.97,2.88,18.61,9.43,17.55,13.78-.31,1.28-2.06,3.4-11.74,4.11"/><path class="uuid-8521476f-2597-42ba-b763-a58b1dfa022c" d="m257,301.7c5.23,2.74,8.52,9.3,8.17,16.28-.33,6.78-4.02,12.66-9.26,14.75"/><line class="uuid-8521476f-2597-42ba-b763-a58b1dfa022c" x1="257.57" y1="331.92" x2="249.46" y2="375.96"/><path class="uuid-8521476f-2597-42ba-b763-a58b1dfa022c" d="m256.58,332.44c-1.96.44-4,.85-6.11,1.22-1.24.22-2.46.41-3.66.58"/><line class="uuid-3c1fad48-0f13-4d97-a949-e95da6ef3694" x1="171.09" y1="147.92" x2="194.62" y2="180.83"/><line class="uuid-3c1fad48-0f13-4d97-a949-e95da6ef3694" x1="254.42" y1="262.13" x2="294.14" y2="322.4"/><path class="uuid-72f8430c-d0ff-4813-8d8d-8b366d7ba59b" d="m253.08,263.01s.03-.08.06-.11c.16-.19.4-.28.61-.41-.07-.28.06-.57.26-.78s.5-.32.79-.28"/><path class="uuid-72f8430c-d0ff-4813-8d8d-8b366d7ba59b" d="m254.04,262.57c.01-.1.07-.18.13-.26.18-.23.37-.44.57-.66.07-.08.14-.16.23-.22"/><path class="uuid-72f8430c-d0ff-4813-8d8d-8b366d7ba59b" d="m254.95,261.86c0-.14-.02-.28.04-.41.01-.02.02-.04.04-.06.02-.01.04-.02.05-.02.07-.02.13-.04.2-.07"/><path class="uuid-72f8430c-d0ff-4813-8d8d-8b366d7ba59b" d="m254.77,261.79v-.85c0-.1,0-.21.05-.3.07-.13.23-.19.37-.2"/><path class="uuid-72f8430c-d0ff-4813-8d8d-8b366d7ba59b" d="m255.41,262.01v-.82c0-.09,0-.17-.02-.26-.03-.14-.13-.27-.21-.38"/><path class="uuid-72f8430c-d0ff-4813-8d8d-8b366d7ba59b" d="m256.09,261.34c-.07-.03-.13-.1-.18-.16-.18-.22-.34-.47-.49-.71-.06-.09-.11-.17-.17-.26"/><path class="uuid-72f8430c-d0ff-4813-8d8d-8b366d7ba59b" d="m255.1,260.77c-.02.12.04.24.04.41-.04.04-.1.06-.15.07"/><path class="uuid-72f8430c-d0ff-4813-8d8d-8b366d7ba59b" d="m255.52,261.22c.07.02.14.04.23.08"/><path class="uuid-72f8430c-d0ff-4813-8d8d-8b366d7ba59b" d="m255.09,260.01c.1.15.21.29.33.42"/><path class="uuid-8521476f-2597-42ba-b763-a58b1dfa022c" d="m247.6,334.25c-2.56-.44-5.12-.88-7.68-1.32"/><path class="uuid-72f8430c-d0ff-4813-8d8d-8b366d7ba59b" d="m243.21,338.76c-.24.17-.97.73-1.22,1.74-.3,1.24.28,2.53,1.24,3.2.91.64,1.89.55,2.21.51.28-.03,1.23-.15,2.02-.94.15-.16,1.11-1.15.92-2.61-.22-1.65-1.7-2.36-1.78-2.4-1.1-.51-2.42-.31-3.38.5Z"/><path class="uuid-72f8430c-d0ff-4813-8d8d-8b366d7ba59b" d="m243.76,355.53c-.24.17-.97.73-1.22,1.74-.3,1.24.28,2.53,1.24,3.2.91.64,1.89.55,2.21.51.28-.03,1.23-.15,2.02-.94.15-.16,1.11-1.15.92-2.61-.22-1.65-1.7-2.36-1.78-2.4-1.1-.51-2.42-.31-3.38.5Z"/><path class="uuid-72f8430c-d0ff-4813-8d8d-8b366d7ba59b" d="m255.98,340.53c7.74-2.35,15.48-4.7,23.21-7.06"/><path class="uuid-72f8430c-d0ff-4813-8d8d-8b366d7ba59b" d="m279.2,333.85c1.62,4.41,3.24,8.82,4.87,13.23l-30.13,10.8"/><polygon class="uuid-f2b56bba-fe84-4ec4-b9f0-6250ba5add65" points="278.81 333.59 279.2 332.44 281.62 331.06 283.49 331.06 284.79 334.97 287.48 340.09 289.92 343.43 292.04 345.86 292.04 348.8 290.16 350.51 286.66 349.78 285.42 348.72 284.06 347.08 278.81 333.59"/><polyline class="uuid-f2b56bba-fe84-4ec4-b9f0-6250ba5add65" points="288.07 335.7 284.96 333.34 285.64 332 288.66 326.11 294.69 327.13 295.69 328.54 295.29 329.44 292.04 328.54 289.86 328.23"/><polyline class="uuid-f2b56bba-fe84-4ec4-b9f0-6250ba5add65" points="290.32 343.82 297.42 340.68 302.4 338.82 304.84 334.97 295.2 329.45"/><path class="uuid-72f8430c-d0ff-4813-8d8d-8b366d7ba59b" d="m291.43,321.56c.52-.3,2.1-1.1,3.59-.57.03.01.25.09.47.21,1.46.83,2.65,3.53,1.93,5.87-.49,1.59-2.13,3.82-2.89,4.84-.15.21-.52.7-.4,1.23.15.65.97,1.18,1.6,1.23,1.92.18,4.49-3.77,4.89-7.6.17-1.66.43-4.13-1.4-5.6-1.99-1.61-4.93-.78-5.25-.69"/><path class="uuid-72f8430c-d0ff-4813-8d8d-8b366d7ba59b" d="m297.85,320.52c1.83-.01,2.77.77,3.18,1.22,2.68,2.9,1.44,10.99-2.04,12.68-.56.27-1.64.61-3.28-.03"/><path class="uuid-72f8430c-d0ff-4813-8d8d-8b366d7ba59b" d="m302.42,324.01c.36.31.92.86,1.35,1.66,2.19,4.12-1.76,10.07-3.01,9.82-.26-.05-.57-.41-.71-1.78"/><path class="uuid-72f8430c-d0ff-4813-8d8d-8b366d7ba59b" d="m304.39,327.87c.27.18.74.54,1.05,1.14.62,1.23.04,2.46-.13,2.81-.13.27-.64,1.36-1.86,1.83-.32.12-.6.17-.79.19"/><path class="uuid-72f8430c-d0ff-4813-8d8d-8b366d7ba59b" d="m243.21,338.76c-.24.17-.97.73-1.22,1.74-.3,1.24.28,2.53,1.24,3.2.91.64,1.89.55,2.21.51.28-.03,1.23-.15,2.02-.94.15-.16,1.11-1.15.92-2.61-.22-1.65-1.7-2.36-1.78-2.4-1.1-.51-2.42-.31-3.38.5Z"/><line class="uuid-ec7dcb5f-5403-468e-a277-3ebec78f535d" x1="286.39" y1="310.64" x2="296.69" y2="326.27"/><path class="uuid-ec7dcb5f-5403-468e-a277-3ebec78f535d" d="m302.06,334.3l5.39,8.18c.05.31.64,3.69,3.2,5.31,2.66,1.68,5.51.22,6.73-1.32,2.07-2.61,1.41-7.9-2.12-12.62"/><line class="uuid-14dcec04-a23d-4948-b416-a5f94a392fc2" x1="234.38" y1="401.76" x2="219.59" y2="420.84"/><path class="uuid-8521476f-2597-42ba-b763-a58b1dfa022c" d="m210.65,372.22c.83,2.65,1.65,5.3,2.48,7.95"/><line class="uuid-f2b56bba-fe84-4ec4-b9f0-6250ba5add65" x1="212.68" y1="376.91" x2="222.22" y2="380.17"/><line class="uuid-8521476f-2597-42ba-b763-a58b1dfa022c" x1="249.46" y1="375.96" x2="251.7" y2="409.08"/><line class="uuid-8521476f-2597-42ba-b763-a58b1dfa022c" x1="251.7" y1="409.08" x2="284.06" y2="545.7"/><path class="uuid-8521476f-2597-42ba-b763-a58b1dfa022c" d="m284.06,545.7c-22.93,15.88-37.19,15.94-46.05,12.91-10.63-3.64-13.79-11.84-21.52-10.76-13.44,1.88-12.59,27.86-27.4,31.8-10.18,2.71-21.72-6.61-34.73-17.12-11.15-9.01-12.55-13.39-18.59-18.1-9.67-7.54-27.34-12.87-62.55-2.19"/><line class="uuid-8521476f-2597-42ba-b763-a58b1dfa022c" x1="73.23" y1="542.23" x2="160.75" y2="430.04"/><polygon class="uuid-29897d05-64ae-4807-80f3-6a0f26f96da2" points="134.95 542.23 115.27 598.29 113.16 600.71 110.13 601.96 105.29 603.5 102.42 606.16 100.63 608.84 99.79 611.91 101.59 615.84 104.83 620.95 108.25 627.43 109.8 634.69 110.27 643.31 109.74 645.99 110.91 647.92 116.06 649.98 126.16 652.58 130.64 653.7 133.77 653.26 136.22 651.01 136.76 647.11 134.27 643.46 130.02 641.44 125.92 638.71 127.21 634.18 133.08 619.29 139.36 600.87 140.29 595.87 132.49 600.73 130.47 601.75 143.01 593.41 147.9 583.17 154.47 569.4 156.65 565.62 134.95 542.23"/><polyline class="uuid-29897d05-64ae-4807-80f3-6a0f26f96da2" points="99.69 612.58 97 614.55 96.3 616.51 96.51 619.77 98.6 624.03 100.7 628.4 103.31 630.72 105.89 632.35 107.19 634.41 107.51 639.35 106.13 647.21 105.82 651.52 106.43 653.73 110.21 655.85 116.63 657.13 122.85 658.88 129.27 659.93 131.56 659.34 133.06 656.87 133.79 655.36 133.69 653.79"/><polyline class="uuid-29897d05-64ae-4807-80f3-6a0f26f96da2" points="207.98 569.13 205.05 570.71 206.52 577.25 209.79 591.9 212.94 604.08 214.07 610.85 214.07 614.9 215.65 622.8 225.12 634.07 217.89 626.87 219.55 635.64 220.18 643.02 219.67 650.26 219.8 658.65 221.58 662.85 225.65 664.63 233.02 663.74 241.79 662.21 244.53 661.71 248.66 662.21 255.78 663.1 265.95 661.58 273.95 659.67 279.04 656.37 280.06 653.95 279.17 651.79 275.61 650.26 270.14 649.88 262.77 650.26 258.95 648.23 254.89 644.29 249.67 639.71 241.67 633.74 239.5 631.07 237.72 622.17 232.89 628.53 238.11 620.2 239.63 616.07 239.63 609.2 237.6 595.73 236.71 584.92 236.33 577.29 236.96 569.13 236.71 567.12 234.93 566.18 233.28 566.18 233.15 569.16 233.31 570.35 236.25 569.37 233.82 570.69 228.37 572.31 214.53 573.36 207.57 573.22 205.67 571.89 205.28 570.87"/><line class="uuid-29897d05-64ae-4807-80f3-6a0f26f96da2" x1="206.22" y1="556.95" x2="210.28" y2="573.27"/><line class="uuid-29897d05-64ae-4807-80f3-6a0f26f96da2" x1="231.81" y1="554.85" x2="233.31" y2="570.35"/><polyline class="uuid-29897d05-64ae-4807-80f3-6a0f26f96da2" points="222.12 663.3 223.17 670.75 224.92 671.45 230.98 672.03 236.57 672.03 240.53 671.33 241.69 669.84 242.07 668.21 242.07 665.14 242.4 664.1 243.53 663.85 245.65 663.85 247.44 663.89 249.39 663.97 250.77 664.22 251.35 665.1 252.14 666.22 253.02 667.34 254.51 668.3 256.01 669.05 260.3 668.76 266.33 667.47 273.45 665.8 277.78 663.56 279.15 660.56 279.45 657.57 279.45 655.4"/><polygon class="uuid-7aeeb239-127e-4e38-869b-255cc79f0c16" points="206.02 572.74 206.66 575.71 207.74 580.51 209.32 587.46 211.8 597.76 213.4 603.88 213.59 605.06 214.55 610.59 214.55 612.63 214.55 614.77 215.31 618.77 216.08 622.61 221.73 629.27 225.51 633.74 224.7 634.45 218.68 628.41 219.52 632.88 220.06 635.71 220.67 643.13 220.18 650.11 220.28 658.64 221.95 662.52 225.78 664.14 232.86 663.26 244.46 661.22 255.74 662.59 265.74 661.1 273.94 659.13 278.54 656.08 279.45 653.93 278.6 652.07 275.52 650.75 270.12 650.36 262.62 650.77 258.64 648.62 254.33 644.47 249.54 640.32 244.31 636.32 241.26 634.09 238.99 631.22 237.44 623.38 233.29 628.81 232.4 628.19 233.93 625.9 237.09 620.82 237.63 619.97 239.09 616.01 239.11 609.22 237.69 599.74 237.07 595.63 236.57 589.55 236.16 583.81 235.81 577.26 236.26 572.02 236.41 569.9 234.03 571.12 228.35 572.84 216.22 573.72 214.3 573.85 207.36 573.69 206.02 572.74"/><polyline class="uuid-7f79b5b6-deb2-4f1b-89f7-c69d1e9182ad" points="220.63 574.24 223.48 592.29 227.49 612.05 227.18 618.42"/><polyline class="uuid-429aa8e4-2942-4c90-9ab7-05be486e8de0" points="213.19 575.37 227.6 573.27 223.95 573.5 217.12 574.24 212.85 575.03 218.09 574.32 219.12 574.32 212.14 574.32 210.07 574.06 213.17 574.03 216.78 573.94 219.43 573.72 223.75 573.27"/><polyline class="uuid-8faf7658-ce8b-46ca-bba0-47521059c626" points="206.67 573.79 207.62 575.37 208.7 579.28 208.32 581.3 208.7 582.65 209.4 584.98 210.28 588.48 211.13 592.59 212 596.93 213.26 601.19 214.52 604.95 215.05 609.93 215.3 614.59 215.45 616.9 216.27 620.73 216.59 622.16 218.22 624.2 221.68 627.85 224.15 631.09 226 632.91"/><path class="uuid-429aa8e4-2942-4c90-9ab7-05be486e8de0" d="m218.17,624.86l.24.12s.08.04.12.08.05.08.04.13c-.01,0-.02-.02-.04-.03"/><path class="uuid-429aa8e4-2942-4c90-9ab7-05be486e8de0" d="m218.77,625.52c.26.18.51.39.73.63-.01-.01-.02-.02-.03-.04"/><path class="uuid-429aa8e4-2942-4c90-9ab7-05be486e8de0" d="m218.24,624.74c.09.06.18.13.27.2.16.13.3.35.47.45"/><path class="uuid-429aa8e4-2942-4c90-9ab7-05be486e8de0" d="m219.31,626.05c.28.28.55.58.79.9-.01-.01-.02-.02-.03-.03.33.5.79.92,1.25,1.29"/><path class="uuid-429aa8e4-2942-4c90-9ab7-05be486e8de0" d="m221.52,628.38c.15.31.32.61.52.89"/><path class="uuid-429aa8e4-2942-4c90-9ab7-05be486e8de0" d="m221.79,628.48c-.28-.18-.57-.34-.87-.49.08.06.19.22.27.28.09.06.18.13.24.22.03.05.06.11.11.14-.01-.01-.03-.02-.04-.03"/><path class="uuid-429aa8e4-2942-4c90-9ab7-05be486e8de0" d="m221.94,629.1l1.02,1.21s-.03-.03-.04-.05c.47.36.79.79,1.13,1.27-.01-.01-.03-.03-.04-.04.78.22,1.4.96,1.86,1.64"/><path class="uuid-429aa8e4-2942-4c90-9ab7-05be486e8de0" d="m224.2,631.89c.42.33.86.64,1.3.93"/><path class="uuid-429aa8e4-2942-4c90-9ab7-05be486e8de0" d="m224.71,632.44l1.26.89"/><path class="uuid-429aa8e4-2942-4c90-9ab7-05be486e8de0" d="m225.03,632.93l.81.65"/><path class="uuid-429aa8e4-2942-4c90-9ab7-05be486e8de0" d="m216.15,622.43c.47.26.83.71.97,1.23,0,.02.03.05.05.03"/><path class="uuid-429aa8e4-2942-4c90-9ab7-05be486e8de0" d="m217.44,624.05c0-.1-.03-.19-.07-.28-.06-.11-.15-.2-.18-.32"/><path class="uuid-429aa8e4-2942-4c90-9ab7-05be486e8de0" d="m214.93,615.8c0-.53,0-1.06-.04-1.58-.03-.42-.09-.8-.08-1.22,0-.2-.05-.41,0-.6"/><path class="uuid-429aa8e4-2942-4c90-9ab7-05be486e8de0" d="m214.64,609.55c-.05-.32-.04-.65-.11-.97-.04-.19-.12-.36-.15-.55-.06-.32-.04-.67-.03-.99s.08-.66,0-.98"/><path class="uuid-429aa8e4-2942-4c90-9ab7-05be486e8de0" d="m214.18,607.71c0-.25-.1-.49-.11-.74-.03-.79-.02-1.59.03-2.38"/><path class="uuid-429aa8e4-2942-4c90-9ab7-05be486e8de0" d="m213.87,605.51c0-.73,0-1.45,0-2.18"/><path class="uuid-429aa8e4-2942-4c90-9ab7-05be486e8de0" d="m213.64,604.34v-1.96"/><path class="uuid-429aa8e4-2942-4c90-9ab7-05be486e8de0" d="m213.38,603.34v-1.25"/><path class="uuid-429aa8e4-2942-4c90-9ab7-05be486e8de0" d="m213.68,604.66v-.8"/><path class="uuid-429aa8e4-2942-4c90-9ab7-05be486e8de0" d="m209.05,585.39c.07.24.15.47.24.69"/><path class="uuid-429aa8e4-2942-4c90-9ab7-05be486e8de0" d="m208.92,585.07c0,.22.03.43.11.64"/><path class="uuid-429aa8e4-2942-4c90-9ab7-05be486e8de0" d="m210.25,590.83c.03-.25,0-.51-.05-.76-.03-.12,0-.23,0-.36-.4-.47-.37-1.09-.53-1.67-.18-.65-.34-1.3-.47-1.96"/><path class="uuid-429aa8e4-2942-4c90-9ab7-05be486e8de0" d="m208.09,580.86c.01-.1-.03-.19-.06-.28-.02-.08,0-.12,0-.2.02-.2,0-.42,0-.62,0-.26-.05-.46-.11-.72-.17-.67.02-1.28-.22-1.92-.22-.59-.49-1.16-.79-1.72-.13-.24-.27-.47-.34-.73"/><path class="uuid-429aa8e4-2942-4c90-9ab7-05be486e8de0" d="m207.91,580v-.88"/><path class="uuid-429aa8e4-2942-4c90-9ab7-05be486e8de0" d="m207.83,580.2v-.4"/><path class="uuid-429aa8e4-2942-4c90-9ab7-05be486e8de0" d="m207.67,579.67s0-.13,0-.18c-.04-.3-.07-.61-.09-.92"/><path class="uuid-429aa8e4-2942-4c90-9ab7-05be486e8de0" d="m207.5,578.8v-.8c0-.09,0-.18.02-.27,0,.01,0,.02,0,.04"/><path class="uuid-429aa8e4-2942-4c90-9ab7-05be486e8de0" d="m207.35,577.7c-.02-.23-.04-.48-.03-.72,0-.1,0-.18,0-.28-.02-.12-.03-.23-.02-.35"/><path class="uuid-429aa8e4-2942-4c90-9ab7-05be486e8de0" d="m207.4,577.94c0-.1,0-.21,0-.31"/><path class="uuid-429aa8e4-2942-4c90-9ab7-05be486e8de0" d="m207.27,576.78c-.05-.3-.18-.58-.17-.88"/><path class="uuid-429aa8e4-2942-4c90-9ab7-05be486e8de0" d="m207.14,577.03c-.03-.16-.04-.33-.03-.49"/><path class="uuid-429aa8e4-2942-4c90-9ab7-05be486e8de0" d="m206.87,575.97l-.02-.68"/><path class="uuid-429aa8e4-2942-4c90-9ab7-05be486e8de0" d="m206.61,574.7l-.03-.32"/><path class="uuid-429aa8e4-2942-4c90-9ab7-05be486e8de0" d="m206.74,574.16c-.08-.1-.27-.18-.28-.31,0-.14-.11-.26-.15-.39"/><path class="uuid-429aa8e4-2942-4c90-9ab7-05be486e8de0" d="m206.8,573.81c-.13-.09-.25-.19-.36-.3"/><path class="uuid-429aa8e4-2942-4c90-9ab7-05be486e8de0" d="m206.52,573.52s-.04-.07-.06-.1"/><path class="uuid-429aa8e4-2942-4c90-9ab7-05be486e8de0" d="m206.22,573.22h.29"/><path class="uuid-429aa8e4-2942-4c90-9ab7-05be486e8de0" d="m206.77,573.76c-.06-.1-.12-.2-.19-.29"/><path class="uuid-429aa8e4-2942-4c90-9ab7-05be486e8de0" d="m207.03,573.69c-.05,0-.07,0-.12-.03-.03,0-.06,0-.08-.02"/><path class="uuid-429aa8e4-2942-4c90-9ab7-05be486e8de0" d="m206.65,573.43s-.04-.05-.07-.05"/><path class="uuid-429aa8e4-2942-4c90-9ab7-05be486e8de0" d="m206.41,573.36l.11.03s.05-.03.07-.03c.02,0,0-.02.02-.02"/><path class="uuid-429aa8e4-2942-4c90-9ab7-05be486e8de0" d="m206.22,573.04v.02"/><path class="uuid-429aa8e4-2942-4c90-9ab7-05be486e8de0" d="m206.21,573.04h-.04"/><path class="uuid-429aa8e4-2942-4c90-9ab7-05be486e8de0" d="m206.19,573.02c.07.1.15.19.24.27"/><polygon class="uuid-7845187d-d802-4d04-b279-1fb1c475f463" points="207.39 573.81 209.73 585.38 217.6 584.62 214.33 574.37 207.39 573.81"/><polygon class="uuid-7845187d-d802-4d04-b279-1fb1c475f463" points="210.07 585.55 213.45 601.77 215.14 607.8 221.15 606.33 215.08 584.5 210.07 585.55"/><polygon class="uuid-7845187d-d802-4d04-b279-1fb1c475f463" points="215.14 607.8 216.15 620.21 218.98 625.39 223.91 630.77 228.55 618.19 219.23 605.86 215.14 607.8"/><polyline class="uuid-7845187d-d802-4d04-b279-1fb1c475f463" points="227.49 573.02 233.99 571.27 235.74 570.47 236.05 570.35 236.21 570.16"/><path class="uuid-429aa8e4-2942-4c90-9ab7-05be486e8de0" d="m236.22,570.25v-.12c0,.07.07.1,0,.12Z"/><polygon class="uuid-7845187d-d802-4d04-b279-1fb1c475f463" points="236.23 570.53 235.65 577.37 236.84 595.3 238.94 609.16 238.94 616.06 237.68 619.84 234.26 618.67 233.42 607.3 231.62 593.47 227.18 575.5 227.74 572.95 236.23 570.53"/><polygon class="uuid-7845187d-d802-4d04-b279-1fb1c475f463" points="228.08 618.07 237.14 618.61 237.57 620.07 232.22 628.21 226 633.33 222.51 628.95 228.08 618.07"/><polyline class="uuid-49add558-0080-4bda-ac58-4cab13a063f5" points="219.31 631.11 218.77 628.82 219.14 628.86 221.36 631.4 224.71 634.65 224.85 634.97 237.57 647.01 259.68 662.01 255.56 662.57 244.45 661 236.44 662.57 225.68 664.1 222.12 662.42 220.59 645.64"/><polyline class="uuid-49add558-0080-4bda-ac58-4cab13a063f5" points="220.59 646.63 220.24 649.31 220.33 652.03 220.41 658.59 221.99 662.32"/><polyline class="uuid-49add558-0080-4bda-ac58-4cab13a063f5" points="224.7 634.45 232.22 628.21 233.29 628.81 238.9 630.77 241.26 634.09 247.56 638.81 253.51 643.76 258.64 648.62 262.4 650.66 261.01 661.81 258.98 662.11 226 638.24"/><path class="uuid-7aeeb239-127e-4e38-869b-255cc79f0c16" d="m232.66,646.3c2.3.35,4.53,1.13,6.55,2.28-.03-.52-.04-1.09.27-1.51.05-.06.1-.12.11-.2,0-.08-.04-.15-.09-.22-.51-.64-1.33-1.03-2.15-1.01-.15,0-.36.1-.3.24.3.72.78,1.42,1.36,1.95.18-1.66,1.05-3.08,2.02-4.44.77-1.07,1.59-2.11,2.46-3.1"/><path class="uuid-7aeeb239-127e-4e38-869b-255cc79f0c16" d="m239.25,645.04c-.72.31-1.23.96-1.65,1.62-.49.77-1.29,1.79-.9,2.73.21-.11.39-.29.47-.52-.18.2-.24.49-.12.73,1.76-.78,3.19-2.29,3.86-4.09.11-.29.2-.6.19-.91s-.14-.63-.39-.82c-.22-.16-.51-.2-.79-.19-.39.01-.8.11-1.08.38-.36.34-.45.88-.49,1.38-.11,1.41,0,2.83.33,4.2.03.14.17.32.28.23"/><path class="uuid-7aeeb239-127e-4e38-869b-255cc79f0c16" d="m237.21,646.21c.47.4.95.8,1.46,1.16.58.4,1.26.79,1.49,1.46"/><path class="uuid-7aeeb239-127e-4e38-869b-255cc79f0c16" d="m237.63,646.74c-.14.01-.29.04-.42.1.18.08.74.65.86.47.03-.04.03-.09.04-.14.03-.2.07-.42-.01-.61s-.32-.33-.5-.23l-.03-.22"/><path class="uuid-7aeeb239-127e-4e38-869b-255cc79f0c16" d="m237.1,648.19c1.25-.19,2.54-.07,3.73.36"/><path class="uuid-7aeeb239-127e-4e38-869b-255cc79f0c16" d="m237.71,646.71c.17.15.31.33.43.53.56.22,1.07.54,1.48.97"/><polygon class="uuid-49add558-0080-4bda-ac58-4cab13a063f5" points="233.49 628.82 237.24 623.64 238.85 630.49 233.49 628.82"/><polyline class="uuid-49add558-0080-4bda-ac58-4cab13a063f5" points="262.4 650.94 261.04 661.57 265.18 661.19 273.9 659.02 278.48 655.98 279.32 653.91 278.53 652.05 275.47 650.81 269.75 650.39 261.52 650.93"/><polygon class="uuid-49add558-0080-4bda-ac58-4cab13a063f5" points="233.73 566.71 233.64 569.52 233.73 569.72 236.05 568.89 236.39 569.54 236.49 569.1 236.25 567.52 234.84 566.71 233.73 566.71"/><polygon class="uuid-49add558-0080-4bda-ac58-4cab13a063f5" points="208.71 569.4 208.09 569.62 205.8 570.84 206.02 571.59 207.83 572.75 209.65 572.75 208.71 569.4"/><polyline class="uuid-d37e56ec-9f13-472d-b408-11b15230bbf8" points="222.68 664.1 223.57 670.11 223.57 670.41 225.12 671 230.3 671.44 235.3 671.56 236.85 671.56 240.29 670.88"/><polyline class="uuid-d37e56ec-9f13-472d-b408-11b15230bbf8" points="222.68 663.88 225.52 665.12 222.68 664.14 228.01 666.18"/><polygon class="uuid-d37e56ec-9f13-472d-b408-11b15230bbf8" points="240.29 670.88 241.28 669.55 241.54 668.21 241.54 665.03 242 663.72 241.61 662.7 225.63 665.03 240.01 670.94 240.29 670.88"/><path class="uuid-d0a966ab-dea2-4cc4-a0a8-8177957e18da" d="m228.01,666.02c-.03.1.08.18.18.2s.22.05.26.14c-.09.01-.19.02-.28.03"/><polyline class="uuid-d37e56ec-9f13-472d-b408-11b15230bbf8" points="242 663.72 243.36 663.35 245.59 663.35 249.42 663.35 249.42 662.8 244.54 662.21 241.25 662.75"/><polyline class="uuid-d37e56ec-9f13-472d-b408-11b15230bbf8" points="249.42 663.46 251.06 663.81 253.36 666.99 256.03 668.5 260.26 668.28 273.3 665.32 255.79 663.59 249.42 662.8"/><polyline class="uuid-d37e56ec-9f13-472d-b408-11b15230bbf8" points="256.38 663.55 265.73 662.11 274.2 660.09 278.93 657 278.69 660.48 277.33 663.33 273.21 665.34"/><polyline class="uuid-49add558-0080-4bda-ac58-4cab13a063f5" points="134.02 544.89 115.61 598.59 113.36 601.25 105.56 603.98 102.7 606.52 100.93 609.17 100.33 611.98 130.36 601.21 142.63 593.01 150.27 577.24 154.01 569.16 156.06 565.7 153.77 563.17 139.61 549.82 134.35 545.12"/><polygon class="uuid-49add558-0080-4bda-ac58-4cab13a063f5" points="134.58 544.78 134.41 545.18 140.46 550.95 141.14 551.26 136.67 546.42 134.58 544.78"/><line class="uuid-49add558-0080-4bda-ac58-4cab13a063f5" x1="138.34" y1="548.19" x2="140.48" y2="550.53"/><polyline class="uuid-49add558-0080-4bda-ac58-4cab13a063f5" points="130.18 601.27 130.73 602.14 132.75 601.14 139.57 596.9 138.81 601.02 136.16 608.72 132.61 619.04 127.34 632.68 125.37 638.89 121.52 650.85 115.91 649.44 111.11 647.48 110.14 645.67 110.77 643.26 110.27 634.32 109.03 628.9 108.66 627.12 106.68 623.49 105.27 620.74 102.01 615.74 100.19 612.14"/><polyline class="uuid-49add558-0080-4bda-ac58-4cab13a063f5" points="125.34 638.98 125.9 639.23 127.14 640.14 129.64 641.82 133.94 643.83 136.31 647.36 135.73 650.85 133.61 652.84 130.47 653.22 121.38 650.85"/><polyline class="uuid-d37e56ec-9f13-472d-b408-11b15230bbf8" points="99.79 613.17 97.39 614.9 96.76 616.55 96.98 619.6 101.11 628.09 103.77 630.53 106.25 632.01 107.59 634.02 108.62 631.5 107.76 627.26 103.99 620.54"/><polyline class="uuid-d37e56ec-9f13-472d-b408-11b15230bbf8" points="107.59 634.2 107.98 639.38 107.01 645.06 109.81 643.37 109.27 634.7 108.62 631.5"/><polygon class="uuid-d37e56ec-9f13-472d-b408-11b15230bbf8" points="107.01 645.24 106.54 647.61 106.29 651.42 106.83 653.51 110.31 655.41 116.61 656.63 110.57 648.29 109.13 646.1 109.61 643.49 107.01 645.24"/><polyline class="uuid-d37e56ec-9f13-472d-b408-11b15230bbf8" points="110.66 648.42 116.02 650.47 130.55 654.14 133.23 653.83 133.23 655.28 131.21 659.02 129.18 659.47 122.71 658.39 116.61 656.63"/><polyline class="uuid-260d1d28-e192-4dd2-b240-41307ff383ac" points="266.53 477.39 274.53 506.68 280.06 531.29 282.71 545.7 273.01 551.49 264.05 555.72 256.59 558.17 251.7 558.83 246.15 559.2 239.81 558.17 233.31 555.72 225.01 549.38 220.78 547.26 216.8 546.89 212.32 548.14 207.72 552.24 203.62 559.82 198.9 570.25 194.92 575.28 191.06 577.94 184.97 579.56 180.62 578.58 175.02 576.34 167.81 571.59 155.62 562.6 148.34 555.86 142.18 549.36 134.41 542.23 126.87 538.34 120.04 536.22 112.53 535.26 105.5 535.26 95.3 536.22 86.73 537.67 75.95 540.27 124.66 477.89"/><polyline class="uuid-260d1d28-e192-4dd2-b240-41307ff383ac" points="197.75 396.82 191.88 411.3 187.76 420.88 182.04 430.54 174.71 440.46 163.17 452.89 147.7 466.03 135.54 473.99 128.22 477.84 186.69 477.84 233.81 477.39 266.69 476.89"/><path class="uuid-e2111531-8a13-4405-8fbe-423973e52d1d" d="m265.23,477.17c-.34,0-.74.08-1.08.07-1.83-.01-3.67-.02-5.5-.03-2.07-.01-4.15-.03-6.22.15-2.36.2-4.72.65-7.07.38,1.61,0,3.58-.39,5.19-.39"/><path class="uuid-e2111531-8a13-4405-8fbe-423973e52d1d" d="m266.88,478.75c-.04-.56-.19-1.11-.46-1.61"/><path class="uuid-e2111531-8a13-4405-8fbe-423973e52d1d" d="m267.15,479.74c0-.26-.13-.48-.17-.72-.04-.23-.1-.44-.18-.67"/><path class="uuid-e2111531-8a13-4405-8fbe-423973e52d1d" d="m266.29,476.35c.16.23.21.46.23.73.02.3.14.59.16.89-.04-.23.02-.55-.07-.77"/><path class="uuid-e2111531-8a13-4405-8fbe-423973e52d1d" d="m266.05,477.71l-.23-.86"/><path class="uuid-e2111531-8a13-4405-8fbe-423973e52d1d" d="m265.54,477.91c-.16-.15-.26-.35-.3-.57s-.04-.43-.04-.65"/><path class="uuid-e2111531-8a13-4405-8fbe-423973e52d1d" d="m265.6,477.62v-1.22"/><path class="uuid-e2111531-8a13-4405-8fbe-423973e52d1d" d="m266.06,477.97v-1.24"/><polyline class="uuid-260d1d28-e192-4dd2-b240-41307ff383ac" points="124.66 477.89 131.89 468.61 134.7 471.77 127.76 477.18 127.73 477.84 124.95 477.89"/><polyline class="uuid-260d1d28-e192-4dd2-b240-41307ff383ac" points="134.81 471.63 137.79 469.01 139.74 467.21 142.44 464.46 146.93 459.56 150.43 454.89 153.58 450.07 156.3 444.89 158.5 438.94 159.14 436.83 159.82 433.55"/><polyline class="uuid-260d1d28-e192-4dd2-b240-41307ff383ac" points="159.97 432.69 159.56 433.19 157.61 435.64 154.51 439.67 131.89 468.61 134.81 471.63 158.41 437.33"/><path class="uuid-e2111531-8a13-4405-8fbe-423973e52d1d" d="m159.69,433.87v-.76c0,.29,0,.46,0,.76Z"/><polyline class="uuid-260d1d28-e192-4dd2-b240-41307ff383ac" points="217.82 420.07 218.41 419.93 221.31 416.18 217.82 413.28 209.56 406.33 203.94 401.66 198.09 396.69 197.89 397.09"/><polyline class="uuid-260d1d28-e192-4dd2-b240-41307ff383ac" points="211.37 413.38 212.91 413.02 218.77 420.07 220.69 421.7 235.47 402.66 250.8 409.08 252.59 417.33 259.42 446.3 266.69 476.89"/><path class="uuid-260d1d28-e192-4dd2-b240-41307ff383ac" d="m235.26,402.42l-2.09-1.58-3.28,4.29c-3.28-3.34-5.33-5.87-5.33-5.87l-6.24-7.94-6.95-8.7-3.69-4.6,4.45,2.38,1.88-.6-.6-2.14,8.59,2.91.36-.94,26.17-3.98,2.23,33.13"/><polyline class="uuid-260d1d28-e192-4dd2-b240-41307ff383ac" points="210.04 373.93 207.68 377.79 212.09 380.12 210.13 373.74"/><polyline class="uuid-260d1d28-e192-4dd2-b240-41307ff383ac" points="222.08 379.61 212.98 376.45 211.61 371.94 211.16 371.94 213.95 367.47 218.26 360.23 221.22 353.94 224.05 347.52 241.91 357.41 242.23 357.46 242.23 358.16 242.46 359.1 242.86 360.04 243.35 360.46 244.22 361 244.95 361.22 246.62 361.22 247.42 360.81 248.22 360.14 248.74 359.48 249.19 358.44 251.49 359.14 248.51 375.66"/><polyline class="uuid-260d1d28-e192-4dd2-b240-41307ff383ac" points="242.32 357.19 242.69 356.14 243.6 355.32 245.37 354.46 246.76 354.59 247.61 355.02 248.2 355.48 248.68 356.04 249.08 356.95 249.22 358.12 251.6 358.9 252.94 351.57 253.51 347.96 254.25 344.11 256.23 333.59 252.11 334.25"/><polyline class="uuid-260d1d28-e192-4dd2-b240-41307ff383ac" points="247.91 338.97 246.81 335.15 252.11 334.25 249.27 341.01"/><polyline class="uuid-260d1d28-e192-4dd2-b240-41307ff383ac" points="248.4 339.61 248.66 341.11 248.53 341.89 248.98 342.05 249.57 339.61"/><polyline class="uuid-260d1d28-e192-4dd2-b240-41307ff383ac" points="248.4 342.05 248.01 342.98 247 344 245.29 344.48 243.36 344.05 234.99 353.26 241.91 357.54 242.23 357.46 244.35 353.55 249.46 342.4"/><polyline class="uuid-260d1d28-e192-4dd2-b240-41307ff383ac" points="243.17 343.97 242.23 343.09 241.7 341.57 241.7 339.94 228.06 331.06 226.56 338.73 223.97 347.32 234.99 353.58"/><polyline class="uuid-260d1d28-e192-4dd2-b240-41307ff383ac" points="241.97 339.83 242.37 339.24 243.83 337.98 244.94 337.73 246.25 337.8 247.54 338.63 246.52 335.05 239.75 333.89 235.14 335.39 228.06 330.74"/><polyline class="uuid-260d1d28-e192-4dd2-b240-41307ff383ac" points="228.06 330.74 229.14 319.59 248.62 309.28 240.06 332.09 239.75 333.59 234.87 335.49"/><polyline class="uuid-260d1d28-e192-4dd2-b240-41307ff383ac" points="240.33 331.92 247.37 333.34 256.58 331.48 258.99 329.69 261.49 327.07 263.58 322.15 264.32 317.06 263.51 311.47 261.08 306.24 258.51 306.24 257.04 307.32 253.77 308.45 249.02 309.28 248.62 309.14"/><polyline class="uuid-260d1d28-e192-4dd2-b240-41307ff383ac" points="258.65 305.95 259.14 305.31 259.37 304.69 260.56 305.95 258.81 306.57"/><polyline class="uuid-260d1d28-e192-4dd2-b240-41307ff383ac" points="207.16 379.02 198.5 395.79 208.73 404.47"/><polyline class="uuid-260d1d28-e192-4dd2-b240-41307ff383ac" points="207.16 379.02 210.5 383.03 209.88 383.58 210.5 384.95 210.84 386.62 210.84 388.47 210.06 389.91 209 391.13 210.17 392.84 207.87 394.32"/><polyline class="uuid-260d1d28-e192-4dd2-b240-41307ff383ac" points="212.68 385.99 212.87 387.21 212.68 388.91 211.85 390.6 210.04 392.64 207.87 394.32 208.73 404.28 210.84 400.43 218.61 395.13 219.5 394.47 213.13 386.13"/><polyline class="uuid-260d1d28-e192-4dd2-b240-41307ff383ac" points="218.83 395.28 219.63 394.65 222.58 398.38 226.02 402.78 225.59 403.36 225.35 403.66 225.04 404.02 224.87 404.28 219.67 396.62"/><polyline class="uuid-260d1d28-e192-4dd2-b240-41307ff383ac" points="219.5 396.78 211.96 402.04 209.94 405.38 218.83 412.8 224.79 404.47"/><polyline class="uuid-260d1d28-e192-4dd2-b240-41307ff383ac" points="210.97 400.68 211.79 401.84 209.72 405.23 208.57 404.28"/><line class="uuid-260d1d28-e192-4dd2-b240-41307ff383ac" x1="219.34" y1="396.61" x2="219.66" y2="396.33"/><polyline class="uuid-260d1d28-e192-4dd2-b240-41307ff383ac" points="186.75 286.47 183.48 301.08 180.65 319.81 187.06 379.02 192.91 372.61 198.5 364.48 201.46 358.9 204.36 350.51 206.8 337.63 206.51 332.93 206.09 325.51 204.36 317.11 200.67 307.63 195.97 298.8 187.35 287.18"/><polyline class="uuid-5078a0c0-3051-4604-a781-235d74036f84" points="226.78 403.37 219.34 413.31 221.64 415.22 228.77 405.42"/><polyline class="uuid-5078a0c0-3051-4604-a781-235d74036f84" points="279.39 333.65 279.57 332.74 281.71 331.59 282.98 331.59 284.38 335.18 287.14 340.53 291.43 345.86 291.54 348.84 290.03 350.02 286.66 349.19 284.43 346.83"/><polyline class="uuid-5078a0c0-3051-4604-a781-235d74036f84" points="227.47 293.78 228.77 303.21 229.26 317.22 246.95 307.92 255.92 305.63 257.18 304.69 257.18 303.21 256.29 301.34 252.8 298.42 247.2 294.93 240.33 291.28"/><line class="uuid-5078a0c0-3051-4604-a781-235d74036f84" x1="238.69" y1="291.83" x2="240.38" y2="291.28"/><path class="uuid-6e442946-dcb0-49ee-9c44-c99b414e5f7e" d="m240.15,291.63s.02-.08.04-.11c.07-.1.16-.19.25-.27"/><path class="uuid-6e442946-dcb0-49ee-9c44-c99b414e5f7e" d="m239.87,291.53c.17-.02.33-.06.49-.1"/><path class="uuid-6e442946-dcb0-49ee-9c44-c99b414e5f7e" d="m240.29,291.26s.1-.03.14-.06"/><path class="uuid-21d4399d-36ad-46ab-ba9e-b2616ee43ef4" d="m240.33,291.23c.06-.03.14-.05.21-.04"/><path class="uuid-21d4399d-36ad-46ab-ba9e-b2616ee43ef4" d="m240.68,291.26s-.09-.05-.14-.08c-.01,0-.03-.02-.06-.04"/><path class="uuid-21d4399d-36ad-46ab-ba9e-b2616ee43ef4" d="m240.66,291.04s-.07.05-.1.07c-.01.01-.02.02-.04.03"/><polyline class="uuid-260d1d28-e192-4dd2-b240-41307ff383ac" points="257.07 340.53 253.93 357.54 283.34 346.94 278.32 333.85"/><polyline class="uuid-260d1d28-e192-4dd2-b240-41307ff383ac" points="256.97 340.59 262.92 338.87 263.93 338.61"/><polygon class="uuid-a2561c4a-fff1-4277-a77c-682322e26346" points="198.76 264.65 199.95 264.98 201.68 265.94 199.54 267.98 192.89 273.78 185.57 281.14 183.75 278.74 185.57 276.33 190.59 270.71 196.36 265.69 198.76 264.65"/><polyline class="uuid-aabb52b7-7b45-4b32-8753-2d6e4503d87c" points="193.92 274 197.54 280.1 211.78 282.51 222.98 274.34 210 271.6 202.39 266.37"/><polyline class="uuid-aabb52b7-7b45-4b32-8753-2d6e4503d87c" points="193.17 274.18 197.04 280.79 211.72 283.21 208.72 293.1 206.65 292.89 203.35 292.26 199.74 291.41 194.1 289.3 191.67 288.32 189.14 286.03 185.39 280.91"/><polyline class="uuid-aabb52b7-7b45-4b32-8753-2d6e4503d87c" points="211.72 283.21 216.18 285.63 217.26 284.42 219.07 282.85 220.69 281.93 222.18 281.65 223.21 281.65 224.7 281.93 223.26 274.18 211.78 282.51 211.72 283.64"/><polyline class="uuid-aabb52b7-7b45-4b32-8753-2d6e4503d87c" points="223.26 274.18 234.12 269.41 241.51 281.31 241.41 284.17 241.04 283.64 240.47 283.93 238.37 285.05 236.72 285.71 234.2 286.31 232.13 286.31 230.58 286.04 228.56 285.01 226.69 283.41 224.88 282.08 224.59 281.93"/><polyline class="uuid-aabb52b7-7b45-4b32-8753-2d6e4503d87c" points="211.72 283.21 208.78 293.26 212.57 293.51 216.37 293.51 220.05 293.39 223.26 293.26 228.38 293.1 216.78 286.06 216.25 285.63"/><polyline class="uuid-aabb52b7-7b45-4b32-8753-2d6e4503d87c" points="216.78 286.06 218.21 284.56 219.08 283.77 220.43 282.85 221.28 282.51 222.23 282.27 223.11 282.27 224.49 282.65 225.34 283.21 226.52 284.16 228.11 285.5 229.91 286.56 231.11 286.89 233.17 287.15 234.61 286.97 236 286.74 238.22 291.14 228.24 293.02"/><polyline class="uuid-aabb52b7-7b45-4b32-8753-2d6e4503d87c" points="236.06 286.74 238.22 285.91 241.22 284.33 241.51 284.77 241.51 285.63 241.88 286.74 242.5 287.64 241.82 289.09 240.68 290.21 238.22 291.04"/><polyline class="uuid-aabb52b7-7b45-4b32-8753-2d6e4503d87c" points="187.06 284.5 186.9 285.18 189.27 287.94 190.93 289.9 192.36 291.84 190.74 288.31"/><polyline class="uuid-aabb52b7-7b45-4b32-8753-2d6e4503d87c" points="190.99 288.53 193.89 289.96 197.34 291.33 201 292.34 195.48 296.29 192.62 292.21"/><polyline class="uuid-aabb52b7-7b45-4b32-8753-2d6e4503d87c" points="201 292.34 204.36 293.26 210.68 293.92 213.36 301.75 215.07 308.9 216.26 317.02 216.44 322.38 216.19 328.59 215.5 334.36 213.83 342.32 211.95 348.18 204.55 314.05 201.5 306.97 195.99 296.67 195.48 296.29"/><line class="uuid-aabb52b7-7b45-4b32-8753-2d6e4503d87c" x1="195.48" y1="296.36" x2="196.38" y2="297.73"/><polyline class="uuid-aabb52b7-7b45-4b32-8753-2d6e4503d87c" points="203.19 311.21 204.92 316.3 204.18 311.72"/><polyline class="uuid-aabb52b7-7b45-4b32-8753-2d6e4503d87c" points="207.16 326.66 207.58 331.75 207.58 336.64 207.47 339.71 207.01 342.55 210.82 342.97"/><polyline class="uuid-aabb52b7-7b45-4b32-8753-2d6e4503d87c" points="207.01 342.68 206.29 347.01 205.01 352.12 202.78 358.22 201.15 361.71 205.62 363.01 205.96 362.32 209.86 354.49 212.6 346.15 210.31 340.64"/><polyline class="uuid-aabb52b7-7b45-4b32-8753-2d6e4503d87c" points="201.15 361.71 199.01 365.53 193.73 373.45 187.04 380.48 176.56 387.49 154.26 402.86 190.54 386.93 195.82 380.07 202.17 369.91 205.83 362.58"/><polyline class="uuid-aabb52b7-7b45-4b32-8753-2d6e4503d87c" points="190.55 386.92 192.05 388.16 197.45 395.38 190.87 411.15 186.75 420.74 160.45 419.61 158.35 408.38 154.26 402.86 158.83 412.88 159.96 414.92 174.39 401.68 190.22 387.49 154.83 402.61"/><polyline class="uuid-aabb52b7-7b45-4b32-8753-2d6e4503d87c" points="154.26 402.86 159.91 412.55 175.63 402.86 187.64 392.79 189.84 386.92"/><polyline class="uuid-aabb52b7-7b45-4b32-8753-2d6e4503d87c" points="158.56 411.05 160.02 415.3 170.89 407.28 166.69 404.05"/><polyline class="uuid-aabb52b7-7b45-4b32-8753-2d6e4503d87c" points="160.45 419.61 161.26 424.72 161.26 430.32 159.97 437.33 166.96 447.49 173.05 441.03 178.75 433.49 184.68 424.56 186.75 420.74"/><polyline class="uuid-aabb52b7-7b45-4b32-8753-2d6e4503d87c" points="159.97 437.69 158.4 442.16 155.5 448.73 151.4 455.14 149.84 462.84 156.9 457.13 166.69 447.76 169.17 444.37"/><line class="uuid-aabb52b7-7b45-4b32-8753-2d6e4503d87c" x1="159.61" y1="454.54" x2="165.32" y2="449.28"/><polyline class="uuid-aabb52b7-7b45-4b32-8753-2d6e4503d87c" points="151.17 455.57 147.31 460.52 141.5 466.81 133.69 473.83 134.81 473.49 139.72 470.46 145.45 466.46 150.08 462.84"/><polyline class="uuid-aabb52b7-7b45-4b32-8753-2d6e4503d87c" points="212.79 294.21 219.3 294.21 226.62 293.78 227.07 296.99 227.86 304.77 228.28 314.35 228.06 321.34 216.74 307.56"/><polyline class="uuid-aabb52b7-7b45-4b32-8753-2d6e4503d87c" points="216.89 308.08 218.21 316.91 218.36 323.41 218.13 329.68 217.45 336.75 225.91 336.52 226.85 332.99 227.64 326.66 228.28 321"/><polyline class="uuid-aabb52b7-7b45-4b32-8753-2d6e4503d87c" points="217.45 333.86 216.44 339.83 213.32 350.28 211.52 354.82 218.36 358.09 221.55 351.29 223.97 344.34 225.96 336.34"/><line class="uuid-aabb52b7-7b45-4b32-8753-2d6e4503d87c" x1="224.86" y1="341.67" x2="225.68" y2="337.44"/><polyline class="uuid-aabb52b7-7b45-4b32-8753-2d6e4503d87c" points="211.52 354.97 209.34 360.01 206.59 365.91 203.55 371.4 200.17 377.11 192.05 388.16 197.75 395.79 201.48 387.66 207.48 376.43 212.26 368.34 216.23 362.07 218.44 357.91"/><polygon class="uuid-c91b6389-9929-4069-9fc6-1541e6762c02" points="76.08 655.86 34.03 656.75 25.92 658.67 23.89 661.16 26.19 662.97 39.09 666.31 53.31 667.48 71.55 669.17 91.1 669.57 114.88 668.95 129.15 666.82 132.43 664.9 129.28 660.87 113.06 658.34 76.08 655.86"/><path class="uuid-c72a54a2-3d8d-414e-98dd-ea59ee1b2d70" d="m25.25,658.7c-.32.16-2.46,1.21-2.29,2.42.12.85,1.33,1.37,2.01,1.64,9.04,3.6,14.39,3.57,14.39,3.57,9.7-.06,19.33,1.85,29.03,2.23,57.3,2.21,25.16.6,33.41.99,5.07.23,11.74.59,20.44-.82,4.07-.66,7.37-1.51,9.58-2.16"/><polyline class="uuid-c91b6389-9929-4069-9fc6-1541e6762c02" points="123.2 676.02 31.82 681.95 4.4 691.47 .75 697.68 20.45 703.99 81.17 706.92 184.7 709.95 216.7 709.74 162.9 721.36 161.25 723.89 179.66 727.59 275.83 734.13 328.81 735.68 341.98 727.75 324.3 717.19 367.39 711.28 438.06 701.59 447.07 695.54 436.64 685.19 415.36 679.12 282.73 670.94"/><polygon class="uuid-c91b6389-9929-4069-9fc6-1541e6762c02" points="508.93 717.2 466.88 718.09 458.77 720.01 456.74 722.5 459.04 724.31 471.94 727.65 486.16 728.82 504.41 730.51 523.95 730.91 547.74 730.29 562.01 728.16 565.28 726.24 562.13 722.21 545.91 719.68 508.93 717.2"/><path class="uuid-c72a54a2-3d8d-414e-98dd-ea59ee1b2d70" d="m458.1,720.04c-.32.16-2.46,1.21-2.29,2.42.12.85,1.33,1.37,2.01,1.64,9.04,3.6,14.39,3.57,14.39,3.57,9.7-.06,19.33,1.85,29.03,2.23,57.3,2.21,25.16.6,33.41.99,5.07.23,11.74.59,20.44-.82,4.07-.66,7.37-1.51,9.58-2.16"/><polyline class="uuid-c72a54a2-3d8d-414e-98dd-ea59ee1b2d70" points="4.4 691.47 .75 697.68 20.45 703.99 76.82 706.71 165.36 710.18 210.35 710.18 162.9 721.36 161.25 723.89 179.66 727.59 229.38 730.97 328.81 735.68 341.98 727.75 324.3 717.19 387.2 708.56 438.06 701.59 447.07 695.54 444.15 692.64 389.35 707.19 388.68 707.36"/><polyline class="uuid-dc7a914e-8291-4bee-8fd4-a170af6ede07" points="389.15 707.72 392.11 706.85 400.35 704.67 408.62 702.5 419.28 699.78 437.46 694.86 444.01 693.2 446.18 695.4 438 701.08 398.42 706.67"/><path class="uuid-dc7a914e-8291-4bee-8fd4-a170af6ede07" d="m379.57,688.77c-1.72,1.55-1.33,4.27,1.75,5.79,3.05,1.51,7.41,1.16,10.05-.26,2.35-1.27,3.43-3.46,2.18-5-2.17-2.67-11.12-3.11-13.98-.53Z"/><path class="uuid-dc7a914e-8291-4bee-8fd4-a170af6ede07" d="m151.41,683.93c-4.27,1.73-3.31,4.76,4.35,6.45,7.59,1.68,18.44,1.29,24.98-.29,5.85-1.42,8.54-3.85,5.43-5.57-5.39-2.98-27.65-3.46-34.76-.59Z"/><path class="uuid-dc7a914e-8291-4bee-8fd4-a170af6ede07" d="m214.92,719.04c-3.8,1.55-2.95,4.27,3.87,5.79,6.76,1.51,16.41,1.16,22.24-.26,5.2-1.27,7.6-3.46,4.83-5-4.8-2.67-24.61-3.11-30.94-.53Z"/><path class="uuid-dc7a914e-8291-4bee-8fd4-a170af6ede07" d="m25.35,691.61c-2.48.77-1.93,2.14,2.53,2.9,4.42.75,10.72.58,14.53-.13,3.4-.64,4.97-1.73,3.16-2.5-3.13-1.34-16.08-1.55-20.22-.26Z"/><path class="uuid-dc7a914e-8291-4bee-8fd4-a170af6ede07" d="m342.94,685.81c-2.38.99-1.85,2.72,2.42,3.69,4.23.96,10.27.74,13.92-.17,3.26-.81,4.75-2.21,3.03-3.19-3-1.71-15.4-1.98-19.36-.34Z"/></svg>