<?xml version="1.0" encoding="UTF-8"?><svg id="uuid-2afab0cf-0ebd-4d7e-99a3-8c4640f4c98b" xmlns="http://www.w3.org/2000/svg" width="383.9" height="494.2" viewBox="0 0 383.9 494.2"><defs><style>.uuid-f23dcb2a-7f21-47d3-badb-d71c59d5c9ca{stroke-width:3px;}.uuid-f23dcb2a-7f21-47d3-badb-d71c59d5c9ca,.uuid-d3fb2377-05e8-4bca-8af7-39d446c4b1a5,.uuid-c2aee061-4d19-4aa9-98c2-321001faab9f,.uuid-52efa6f2-f3f7-4fb1-aab3-3855e2dd27af,.uuid-25d98d83-1468-4c63-af58-61b6b99f8540,.uuid-872ae710-1443-4db1-aa69-911b080bc0ba,.uuid-ceb34f1e-3226-4b69-8e52-d976559c3862,.uuid-03b74782-7290-407f-9b60-a12b26bdce4a,.uuid-8e9e7fa8-f539-43af-833b-7b55c750a417,.uuid-97b876f3-e756-47cc-bf42-ba2744981240,.uuid-59171f2e-d401-49ee-b610-f04ed0036631,.uuid-155b1671-1d63-4d44-ad17-b05d96dff4f6,.uuid-a680abac-4a77-4912-af6d-aa44f51f339a,.uuid-332b3b62-a038-4cd9-9eb7-4f33457afcd7,.uuid-11fdf297-bcd8-415b-aa8c-bbfdf4cea684,.uuid-9c64cb52-a25d-4007-a382-2dea10301d99,.uuid-191c0e1d-29a4-4985-8edb-872df7514d6f,.uuid-adb99913-e63d-41cb-8a95-a18988169489,.uuid-02d3f375-a906-4592-a002-fc89413b2295,.uuid-b9fec393-4334-46b7-98a3-8a0fa7d19d8c,.uuid-309c5f5b-6523-4bd2-a295-7fc426615872,.uuid-0d1980fb-3cf1-4c51-b819-4f87c8c71bf0,.uuid-9bc70039-f914-44d8-86eb-093ed5c4f03b,.uuid-2da528e1-b471-4942-81e6-b3e12a583c14,.uuid-fec0dffa-056c-4b81-818e-86e714335126,.uuid-756d1034-5964-426b-ad27-bd9625c170c8,.uuid-ad7b652a-5b0d-4a7e-8d3c-936c55025e52,.uuid-5ece80d4-3815-4fbe-8e72-d98c6c28bb3c,.uuid-fcb6f270-a172-4514-aae1-48f5fbf87c11,.uuid-62081292-379d-409f-b725-7106e9b9d2c7,.uuid-d6ee5fd1-cc5e-440f-ae64-29519977838a,.uuid-be9ba647-5551-4026-9a5d-0e4a9cc72042,.uuid-62bf654d-a97e-441b-a8f8-6b3399503f38,.uuid-a83665f4-3c9f-4ea2-b96f-3ed3764de0eb{stroke-miterlimit:10;}.uuid-f23dcb2a-7f21-47d3-badb-d71c59d5c9ca,.uuid-d3fb2377-05e8-4bca-8af7-39d446c4b1a5,.uuid-332b3b62-a038-4cd9-9eb7-4f33457afcd7,.uuid-b9fec393-4334-46b7-98a3-8a0fa7d19d8c,.uuid-309c5f5b-6523-4bd2-a295-7fc426615872,.uuid-0d1980fb-3cf1-4c51-b819-4f87c8c71bf0,.uuid-9bc70039-f914-44d8-86eb-093ed5c4f03b,.uuid-2da528e1-b471-4942-81e6-b3e12a583c14,.uuid-fec0dffa-056c-4b81-818e-86e714335126,.uuid-756d1034-5964-426b-ad27-bd9625c170c8,.uuid-ad7b652a-5b0d-4a7e-8d3c-936c55025e52,.uuid-d6ee5fd1-cc5e-440f-ae64-29519977838a,.uuid-be9ba647-5551-4026-9a5d-0e4a9cc72042,.uuid-62bf654d-a97e-441b-a8f8-6b3399503f38,.uuid-a83665f4-3c9f-4ea2-b96f-3ed3764de0eb{fill:none;}.uuid-f23dcb2a-7f21-47d3-badb-d71c59d5c9ca,.uuid-c2aee061-4d19-4aa9-98c2-321001faab9f,.uuid-25d98d83-1468-4c63-af58-61b6b99f8540,.uuid-191c0e1d-29a4-4985-8edb-872df7514d6f,.uuid-02d3f375-a906-4592-a002-fc89413b2295,.uuid-b9fec393-4334-46b7-98a3-8a0fa7d19d8c,.uuid-0d1980fb-3cf1-4c51-b819-4f87c8c71bf0,.uuid-2da528e1-b471-4942-81e6-b3e12a583c14,.uuid-ad7b652a-5b0d-4a7e-8d3c-936c55025e52,.uuid-62bf654d-a97e-441b-a8f8-6b3399503f38{stroke:#221f20;}.uuid-d3fb2377-05e8-4bca-8af7-39d446c4b1a5{stroke-width:15px;}.uuid-d3fb2377-05e8-4bca-8af7-39d446c4b1a5,.uuid-97b876f3-e756-47cc-bf42-ba2744981240,.uuid-155b1671-1d63-4d44-ad17-b05d96dff4f6,.uuid-756d1034-5964-426b-ad27-bd9625c170c8,.uuid-d6ee5fd1-cc5e-440f-ae64-29519977838a,.uuid-a83665f4-3c9f-4ea2-b96f-3ed3764de0eb{stroke:#d83832;}.uuid-c2aee061-4d19-4aa9-98c2-321001faab9f,.uuid-52efa6f2-f3f7-4fb1-aab3-3855e2dd27af,.uuid-25d98d83-1468-4c63-af58-61b6b99f8540,.uuid-872ae710-1443-4db1-aa69-911b080bc0ba,.uuid-b9fec393-4334-46b7-98a3-8a0fa7d19d8c,.uuid-309c5f5b-6523-4bd2-a295-7fc426615872{stroke-width:2px;}.uuid-c2aee061-4d19-4aa9-98c2-321001faab9f,.uuid-191c0e1d-29a4-4985-8edb-872df7514d6f{fill:#59b277;}.uuid-52efa6f2-f3f7-4fb1-aab3-3855e2dd27af{fill:#dd5f36;stroke:#dd5f36;}.uuid-25d98d83-1468-4c63-af58-61b6b99f8540{fill:#d83745;}.uuid-872ae710-1443-4db1-aa69-911b080bc0ba,.uuid-fcb6f270-a172-4514-aae1-48f5fbf87c11{fill:#d3373d;stroke:#d3373d;}.uuid-ceb34f1e-3226-4b69-8e52-d976559c3862{fill:#f0b444;stroke:#f0b444;}.uuid-ceb34f1e-3226-4b69-8e52-d976559c3862,.uuid-8e9e7fa8-f539-43af-833b-7b55c750a417,.uuid-97b876f3-e756-47cc-bf42-ba2744981240,.uuid-59171f2e-d401-49ee-b610-f04ed0036631,.uuid-d6ee5fd1-cc5e-440f-ae64-29519977838a,.uuid-be9ba647-5551-4026-9a5d-0e4a9cc72042{stroke-width:.25px;}.uuid-03b74782-7290-407f-9b60-a12b26bdce4a{fill:#e68d3d;stroke:#e68d3d;}.uuid-03b74782-7290-407f-9b60-a12b26bdce4a,.uuid-155b1671-1d63-4d44-ad17-b05d96dff4f6,.uuid-a680abac-4a77-4912-af6d-aa44f51f339a,.uuid-62bf654d-a97e-441b-a8f8-6b3399503f38,.uuid-a83665f4-3c9f-4ea2-b96f-3ed3764de0eb{stroke-width:.5px;}.uuid-8e9e7fa8-f539-43af-833b-7b55c750a417{fill:#af312e;}.uuid-8e9e7fa8-f539-43af-833b-7b55c750a417,.uuid-be9ba647-5551-4026-9a5d-0e4a9cc72042{stroke:#af312e;}.uuid-97b876f3-e756-47cc-bf42-ba2744981240,.uuid-155b1671-1d63-4d44-ad17-b05d96dff4f6{fill:#d83832;}.uuid-59171f2e-d401-49ee-b610-f04ed0036631,.uuid-11fdf297-bcd8-415b-aa8c-bbfdf4cea684{fill:#87539a;stroke:#87539a;}.uuid-a680abac-4a77-4912-af6d-aa44f51f339a{fill:#e3833b;stroke:#e3833b;}.uuid-332b3b62-a038-4cd9-9eb7-4f33457afcd7{stroke:#070505;}.uuid-332b3b62-a038-4cd9-9eb7-4f33457afcd7,.uuid-5ece80d4-3815-4fbe-8e72-d98c6c28bb3c,.uuid-fcb6f270-a172-4514-aae1-48f5fbf87c11,.uuid-62081292-379d-409f-b725-7106e9b9d2c7{stroke-width:.75px;}.uuid-9c64cb52-a25d-4007-a382-2dea10301d99{fill:#8acbdc;stroke:#8acbdc;}.uuid-adb99913-e63d-41cb-8a95-a18988169489{fill:#188db5;}.uuid-adb99913-e63d-41cb-8a95-a18988169489,.uuid-9bc70039-f914-44d8-86eb-093ed5c4f03b{stroke:#198db5;}.uuid-02d3f375-a906-4592-a002-fc89413b2295{fill:#116a3f;}.uuid-309c5f5b-6523-4bd2-a295-7fc426615872{stroke:#d53363;}.uuid-0d1980fb-3cf1-4c51-b819-4f87c8c71bf0{stroke-width:4px;}.uuid-fec0dffa-056c-4b81-818e-86e714335126,.uuid-62081292-379d-409f-b725-7106e9b9d2c7{stroke:#000;}.uuid-ad7b652a-5b0d-4a7e-8d3c-936c55025e52{stroke-width:8px;}.uuid-5ece80d4-3815-4fbe-8e72-d98c6c28bb3c{stroke:#c63531;}.uuid-5ece80d4-3815-4fbe-8e72-d98c6c28bb3c,.uuid-26714b48-e54a-43ab-b1a2-9f2dfc3721ce{fill:#b7332f;}.uuid-26714b48-e54a-43ab-b1a2-9f2dfc3721ce{stroke-width:0px;}.uuid-62081292-379d-409f-b725-7106e9b9d2c7{fill:#c93f3f;}</style></defs><line class="uuid-97b876f3-e756-47cc-bf42-ba2744981240" x1="64.55" y1="394.23" x2="66.69" y2="396.57"/><path class="uuid-62bf654d-a97e-441b-a8f8-6b3399503f38" d="m139.74,258.6c-.14.1-.56.43-.7,1.03-.17.73.16,1.5.71,1.9.52.38,1.08.32,1.27.3.16-.02.71-.09,1.16-.56.09-.09.63-.68.52-1.55-.12-.98-.97-1.4-1.02-1.42-.63-.3-1.39-.18-1.94.29Z"/><path class="uuid-02d3f375-a906-4592-a002-fc89413b2295" d="m70.6,74.18c-28.63,16.75-43.32,40.98-48.53,50.61C2.15,161.52-2.24,211.29,10.5,217.35c3.66,1.74,7.79-.58,40.98-28.62,29.77-25.16,34.06-29.73,55.22-47.65,16.76-14.2,32.7-29.43,49.68-43.36,16.62-13.65,22.2-17.38,21.45-22.57-1.81-12.57-38.81-20.76-70.3-15.04-3.72.68-19.15,3.68-36.91,14.08Z"/><line class="uuid-0d1980fb-3cf1-4c51-b819-4f87c8c71bf0" x1="46.92" y1="71.75" x2="56.12" y2="83.9"/><line class="uuid-f23dcb2a-7f21-47d3-badb-d71c59d5c9ca" x1="45.19" y1="107.82" x2="75.59" y2="155.47"/><line class="uuid-b9fec393-4334-46b7-98a3-8a0fa7d19d8c" x1="82.94" y1="76.45" x2="156.37" y2="97.72"/><line class="uuid-b9fec393-4334-46b7-98a3-8a0fa7d19d8c" x1="17.15" y1="162.69" x2="31.2" y2="200.48"/><path class="uuid-191c0e1d-29a4-4985-8edb-872df7514d6f" d="m177.67,77.55c-5.17,17.88-14.68,41.92-32.91,65.61-45.57,59.22-111.28,71.61-130.47,74.49"/><polyline class="uuid-c2aee061-4d19-4aa9-98c2-321001faab9f" points="13.27 217.69 42.91 192.6 85.93 156.08 125.14 122.84 148.92 101.88 177.35 78.47"/><path class="uuid-25d98d83-1468-4c63-af58-61b6b99f8540" d="m141.05,171.2c-1.27-2.02-4.89-7.15-11.29-9.02-8.56-2.49-18.6,1.88-24.64,11.14l2.72,7.05-2.72,1.22-2.66-7.19"/><line class="uuid-b9fec393-4334-46b7-98a3-8a0fa7d19d8c" x1="101.96" y1="174.73" x2="105.33" y2="173.4"/><polygon class="uuid-52efa6f2-f3f7-4fb1-aab3-3855e2dd27af" points="103.75 175.25 104.96 174.72 106.69 179.72 105.42 180.4 103.75 175.25"/><path class="uuid-872ae710-1443-4db1-aa69-911b080bc0ba" d="m139.36,173.2c.48-1.24,1.53-3.48,3.72-5.4.84-.73,2.25-1.97,4.42-2.49.41-.1,5.55-1.24,8.44,2.39.23.29,2.07,2.67,1.51,5.61-.51,2.65-2.64,4.11-4.42,5.3-3.47,2.3-5.05,1.67-11.06,3.74-2.79.96-5.62,1.95-8.74,4.05-3.86,2.59-5.68,5.19-5.93,4.98-.28-.23,1.72-3.66,11.69-17.7"/><line class="uuid-309c5f5b-6523-4bd2-a295-7fc426615872" x1="138.75" y1="173.3" x2="139.45" y2="172.33"/><path class="uuid-62bf654d-a97e-441b-a8f8-6b3399503f38" d="m154.46,165.79c.14,1.06.33,3.59-1.02,6.16-2.56,4.88-8.23,5.31-8.64,5.33"/><path class="uuid-2da528e1-b471-4942-81e6-b3e12a583c14" d="m131.1,190.85c-.64-.83-1.21-.89-1.38-.9-1.42-.06-2.88,2.12-2.68,3.87.06.53.31,1,.82,1.93.55,1.02,1.11,1.79,1.51,2.29"/><path class="uuid-2da528e1-b471-4942-81e6-b3e12a583c14" d="m130.08,191.4c-.68-.14-1.36.15-1.72.71-.44.7-.16,1.48-.13,1.55"/><line class="uuid-2da528e1-b471-4942-81e6-b3e12a583c14" x1="128.36" y1="192.11" x2="129.33" y2="192.8"/><path class="uuid-332b3b62-a038-4cd9-9eb7-4f33457afcd7" d="m147.53,181.82c1.5,4.12,1.44,7.25,1.07,9.41-.58,3.34-2.16,5.73-1.07,7.49.92,1.48,2.73.92,3.2,2.35.44,1.34-.59,3.47-2,4.41-1.1.73-2.18.57-2.4,1.32-.15.52.29.89.53,1.62.59,1.72-.3,4.19-1.6,5.14-.9.66-2.05.62-5.34-.59-2.15-.79-5.06-2.02-8.41-3.97"/><polyline class="uuid-332b3b62-a038-4cd9-9eb7-4f33457afcd7" points="134.66 210.71 134.66 217.23 128.12 220.21 120.76 218.6 116.32 215.46 111.22 220.21 113.44 224.06 121.75 225.48"/><path class="uuid-332b3b62-a038-4cd9-9eb7-4f33457afcd7" d="m138.18,224.63c1.38.69.24,2.47,1.38,3.65,0,.59-.57,1.18-1.15,1.78-3.44,1.18-6.88,1.78-10.32,1.78-5.73.59-11.47,0-16.63-2.37-2.29-.59-4.01-3.55-5.73-5.92-.57-.59,0-1.18.57-1.78,2.29-2.96,4.59-5.33,7.45-7.11.57-.59,2.29.59,3.24,1.28l2.34-7.51,1.22-.92,1.19-.57"/><line class="uuid-332b3b62-a038-4cd9-9eb7-4f33457afcd7" x1="139.1" y1="224.77" x2="134.66" y2="217.23"/><path class="uuid-332b3b62-a038-4cd9-9eb7-4f33457afcd7" d="m124.42,227.27c.89-1.1,2.26-2.45,3.83-2.33,1.67.14,2.23,1.85,4.05,2.56,1.2.47,3.15.57,6.3-1.4"/><path class="uuid-fcb6f270-a172-4514-aae1-48f5fbf87c11" d="m127.41,190.63c-.57.74-1.25,1.75-1.83,2.98-.49,1.04-1.62,3.54-1.12,6.49.55,3.22,2.4,3.17,2.21,5.97-.19,2.76-2.09,4.15-2.73,4.58-.46.3-.89.53-1.21.68"/><path class="uuid-fcb6f270-a172-4514-aae1-48f5fbf87c11" d="m110.19,178.33c-.36.57-5.75,9.47-.92,18.66,3.86,7.35,11.4,9.46,12.63,9.78l2.54-5.81-.53-4.43.26.5,1.42-4.14,2.16-3.75,5.82-8.75,5.97-8.24v-1.02l-18.6,1.37-14.25,1.21-.65.35.89,2.36,1.72,4.45"/><path class="uuid-872ae710-1443-4db1-aa69-911b080bc0ba" d="m108.6,180.17c-1.7,5.63-1.62,9.64.14,10.56.13.07.3.14.57.11,2.19-.22,6.31-6.4,9.81-12.27"/><path class="uuid-62081292-379d-409f-b725-7106e9b9d2c7" d="m104.24,181.7c-1.58,1.29-3.17,2.97-4.48,5.13-4.44,7.33-2.18,16.57-.63,23.31,1.43,6.2,2.45,6.52,3.28,12.05.7,4.68.6,8.62.18,13.56-.91,10.76-1.8,21.21-6.74,34.08-2.68,6.96-7.26,16.51-8.71,16.01-2.45-.86,12.47-27.41,2.05-47.35-4.44-8.49-11.09-11.2-13.09-22.41-1.35-7.52.17-14.54.64-16.63.84-3.73,2.04-9.05,5.85-14.01,6.44-8.39,16.08-10.24,19.38-10.71"/><polygon class="uuid-5ece80d4-3815-4fbe-8e72-d98c6c28bb3c" points="101.9 175.14 104.24 181.17 102.46 182.8 99.47 186.41 97.81 189.31 96.83 195.39 97.26 206.12 98.92 211.1 101.64 219.72 102.62 228.04 102.11 237.41 100.88 249.25 98.79 259.68 94.5 221 93.03 220.2 92.38 217.41 94.87 214.2 92.57 209.82 88 208.3 87.13 204.25 90.11 197.11 90.54 187.02 91.78 183.4 101.9 175.14"/><polygon class="uuid-5ece80d4-3815-4fbe-8e72-d98c6c28bb3c" points="106.04 174.07 113.97 177.29 119.13 195.5 121.75 190.63 120.23 186.87 125.07 183.54 141.05 178.58 141.17 182.61 141.17 183.2 136.88 184.78 133 187.21 130.08 189.56 127.41 189.74 126.77 190.85 126.64 193.99 124.82 201.41 121.75 206.94 119.13 206.07 106.04 174.07"/><polygon class="uuid-26714b48-e54a-43ab-b1a2-9f2dfc3721ce" points="119.74 206.5 116.35 204.66 112.05 201.27 109.68 198.43 107.64 194.42 106.77 191.43 106.27 186.76 107.45 182.59 108.48 179.86 108.66 179.13 107.83 177.78 106.12 172.89 109.7 180.39 120.39 206.56 119.74 206.5"/><polyline class="uuid-2da528e1-b471-4942-81e6-b3e12a583c14" points="107.38 225.86 105.5 235.06 103.65 247.56 107.38 283.07"/><path class="uuid-2da528e1-b471-4942-81e6-b3e12a583c14" d="m107.38,283.07c2.86-2.79,8.9-9.48,10.99-19.89,3.96-19.73-9.88-34.77-11.22-36.19"/><path class="uuid-2da528e1-b471-4942-81e6-b3e12a583c14" d="m107.38,283.07c-6.33,4.45-12.66,8.9-18.99,13.35"/><path class="uuid-2da528e1-b471-4942-81e6-b3e12a583c14" d="m88.39,296.42c1.85,3.19,3.93,7.98,4.12,13.92.55,17.13-18.75,30.34-18.7,30.4.06.06,20.89-10.7,32.45-30.96,4.42-7.74,3.32-9.64,11.27-25,5.39-10.41,7.04-11.77,9.35-17.04,3.27-7.47,6.17-19,3.57-36.08"/><polyline class="uuid-2da528e1-b471-4942-81e6-b3e12a583c14" points="113.68 292.38 125.63 302.74 127.42 304.28 131.8 298.05 130.31 296.41 126.01 302.35 126.06 302.08"/><line class="uuid-2da528e1-b471-4942-81e6-b3e12a583c14" x1="130.44" y1="296.74" x2="119.07" y2="281.86"/><path class="uuid-b9fec393-4334-46b7-98a3-8a0fa7d19d8c" d="m125.96,292.38c-1.49,1.07-2.98,2.15-4.48,3.22l-1.1,2.07"/><path class="uuid-b9fec393-4334-46b7-98a3-8a0fa7d19d8c" d="m121.08,284.82c.12.21,1.18,2.01.41,3.84-.3.72-.77,1.18-1.1,1.44"/><path class="uuid-b9fec393-4334-46b7-98a3-8a0fa7d19d8c" d="m121.58,231.96c1.39,3.43,3.13,8.89,3.37,15.73.35,10.26-2.89,17.93-5.2,23.36-1.78,4.22-4.78,10.14-9.78,16.42"/><line class="uuid-b9fec393-4334-46b7-98a3-8a0fa7d19d8c" x1="131.42" y1="246.53" x2="142.7" y2="240.31"/><path class="uuid-b9fec393-4334-46b7-98a3-8a0fa7d19d8c" d="m138.41,230.05c3.42,1.71,10.67,5.58,10.06,8.16-.18.76-1.18,2.01-6.73,2.43"/><path class="uuid-b9fec393-4334-46b7-98a3-8a0fa7d19d8c" d="m147.65,236.65c3,1.62,4.88,5.51,4.69,9.65-.19,4.01-2.31,7.5-5.31,8.74"/><line class="uuid-b9fec393-4334-46b7-98a3-8a0fa7d19d8c" x1="147.97" y1="254.55" x2="143.33" y2="280.64"/><path class="uuid-b9fec393-4334-46b7-98a3-8a0fa7d19d8c" d="m147.41,254.86c-1.12.26-2.29.51-3.5.72-.71.13-1.41.24-2.1.35"/><line class="uuid-0d1980fb-3cf1-4c51-b819-4f87c8c71bf0" x1="98.4" y1="145.57" x2="111.88" y2="165.06"/><line class="uuid-0d1980fb-3cf1-4c51-b819-4f87c8c71bf0" x1="146.17" y1="213.21" x2="168.94" y2="248.91"/><path class="uuid-b9fec393-4334-46b7-98a3-8a0fa7d19d8c" d="m142.26,255.93c-1.47-.26-2.94-.52-4.4-.78"/><path class="uuid-62bf654d-a97e-441b-a8f8-6b3399503f38" d="m139.74,258.6c-.14.1-.56.43-.7,1.03-.17.73.16,1.5.71,1.9.52.38,1.08.32,1.27.3.16-.02.71-.09,1.16-.56.09-.09.63-.68.52-1.55-.12-.98-.97-1.4-1.02-1.42-.63-.3-1.39-.18-1.94.29Z"/><path class="uuid-62bf654d-a97e-441b-a8f8-6b3399503f38" d="m140.06,268.53c-.14.1-.56.43-.7,1.03-.17.73.16,1.5.71,1.9.52.38,1.08.32,1.27.3.16-.02.71-.09,1.16-.56.09-.09.63-.68.52-1.55-.12-.98-.97-1.4-1.02-1.42-.63-.3-1.39-.18-1.94.29Z"/><path class="uuid-62bf654d-a97e-441b-a8f8-6b3399503f38" d="m147.06,259.53c4.44-1.4,8.87-2.81,13.31-4.21"/><path class="uuid-62bf654d-a97e-441b-a8f8-6b3399503f38" d="m160.37,255.69c.93,2.61,1.86,5.22,2.79,7.84l-17.27,6.4"/><polygon class="uuid-2da528e1-b471-4942-81e6-b3e12a583c14" points="160.15 255.54 160.37 254.86 161.76 254.04 162.83 254.04 163.58 256.35 165.12 259.39 166.52 261.37 167.73 262.81 167.73 264.55 166.66 265.56 164.65 265.13 163.94 264.5 163.16 263.53 160.15 255.54"/><polyline class="uuid-2da528e1-b471-4942-81e6-b3e12a583c14" points="165.46 256.79 163.67 255.39 164.07 254.6 165.8 251.11 169.25 251.71 169.83 252.55 169.6 253.08 167.73 252.55 166.49 252.37"/><polyline class="uuid-2da528e1-b471-4942-81e6-b3e12a583c14" points="166.75 261.6 170.82 259.74 173.68 258.64 175.07 256.35 169.55 253.09"/><path class="uuid-62bf654d-a97e-441b-a8f8-6b3399503f38" d="m167.38,248.41c.3-.18,1.2-.65,2.06-.34.02,0,.14.05.27.13.84.49,1.52,2.09,1.11,3.47-.28.94-1.22,2.26-1.66,2.87-.09.12-.3.41-.23.73.09.38.55.7.91.73,1.1.11,2.57-2.23,2.8-4.5.1-.98.25-2.45-.8-3.32-1.14-.95-2.82-.46-3.01-.41"/><path class="uuid-62bf654d-a97e-441b-a8f8-6b3399503f38" d="m171.07,247.8c1.05,0,1.59.45,1.83.72,1.54,1.72.83,6.51-1.17,7.51-.32.16-.94.36-1.88-.02"/><path class="uuid-62bf654d-a97e-441b-a8f8-6b3399503f38" d="m173.69,249.86c.21.18.53.51.77.98,1.26,2.44-1.01,5.96-1.73,5.82-.15-.03-.32-.24-.41-1.05"/><path class="uuid-62bf654d-a97e-441b-a8f8-6b3399503f38" d="m174.82,252.15c.16.11.43.32.6.68.35.73.02,1.46-.07,1.66-.07.16-.37.81-1.07,1.09-.18.07-.34.1-.45.11"/><path class="uuid-62bf654d-a97e-441b-a8f8-6b3399503f38" d="m139.74,258.6c-.14.1-.56.43-.7,1.03-.17.73.16,1.5.71,1.9.52.38,1.08.32,1.27.3.16-.02.71-.09,1.16-.56.09-.09.63-.68.52-1.55-.12-.98-.97-1.4-1.02-1.42-.63-.3-1.39-.18-1.94.29Z"/><line class="uuid-ad7b652a-5b0d-4a7e-8d3c-936c55025e52" x1="164.5" y1="241.94" x2="170.4" y2="251.2"/><path class="uuid-ad7b652a-5b0d-4a7e-8d3c-936c55025e52" d="m173.48,255.96l3.09,4.84c.03.18.37,2.19,1.83,3.14,1.53,1,3.16.13,3.86-.78,1.18-1.54.81-4.68-1.22-7.48"/><line class="uuid-f23dcb2a-7f21-47d3-badb-d71c59d5c9ca" x1="134.68" y1="295.92" x2="126.2" y2="307.21"/><path class="uuid-b9fec393-4334-46b7-98a3-8a0fa7d19d8c" d="m121.08,278.42c.47,1.57.95,3.14,1.42,4.71"/><line class="uuid-2da528e1-b471-4942-81e6-b3e12a583c14" x1="122.24" y1="281.2" x2="127.7" y2="283.13"/><line class="uuid-b9fec393-4334-46b7-98a3-8a0fa7d19d8c" x1="143.33" y1="280.67" x2="144.61" y2="300.42"/><line class="uuid-b9fec393-4334-46b7-98a3-8a0fa7d19d8c" x1="144.61" y1="300.42" x2="163.16" y2="381.92"/><path class="uuid-b9fec393-4334-46b7-98a3-8a0fa7d19d8c" d="m163.16,381.17c-13.14,9.41-21.32,9.44-26.4,7.65-6.1-2.16-7.91-7.01-12.34-6.37-7.7,1.11-7.22,16.5-15.71,18.83-5.84,1.6-12.45-3.92-19.91-10.14-6.39-5.34-7.2-7.93-10.66-10.72-5.54-4.46-15.68-7.62-35.86-1.3"/><line class="uuid-b9fec393-4334-46b7-98a3-8a0fa7d19d8c" x1="42.29" y1="379.12" x2="92.47" y2="312.67"/><polygon class="uuid-fec0dffa-056c-4b81-818e-86e714335126" points="77.68 379.12 66.39 412.32 65.18 413.75 63.44 414.5 60.67 415.41 59.02 416.98 58 418.57 57.52 420.39 58.55 422.71 60.41 425.74 62.37 429.58 63.25 433.88 63.53 438.99 63.22 440.57 63.89 441.71 66.85 442.94 72.64 444.48 75.2 445.14 77 444.88 78.4 443.55 78.71 441.24 77.28 439.07 74.85 437.88 72.5 436.26 73.24 433.58 76.6 424.76 80.2 413.85 80.74 410.89 76.27 413.77 75.11 414.37 82.3 409.43 85.1 403.36 88.86 395.21 90.11 392.97 77.68 379.12"/><polyline class="uuid-fec0dffa-056c-4b81-818e-86e714335126" points="57.46 420.78 55.92 421.95 55.52 423.11 55.64 425.04 56.84 427.57 58.04 430.16 59.54 431.53 61.01 432.5 61.76 433.71 61.94 436.64 61.15 441.3 60.97 443.84 61.32 445.16 63.49 446.42 67.17 447.17 70.74 448.21 74.42 448.83 75.73 448.48 76.59 447.02 77.01 446.12 76.95 445.19"/><polyline class="uuid-fec0dffa-056c-4b81-818e-86e714335126" points="119.55 395.05 117.86 395.98 118.71 399.85 120.58 408.54 122.39 415.75 123.04 419.76 123.04 422.16 123.94 426.84 129.37 433.51 125.23 429.25 126.17 434.44 126.54 438.81 126.25 443.1 126.32 448.07 127.34 450.56 129.67 451.61 133.9 451.09 138.93 450.18 140.5 449.88 142.86 450.18 146.95 450.71 152.78 449.81 157.37 448.68 160.28 446.72 160.87 445.29 160.36 444.01 158.31 443.1 155.18 442.88 150.95 443.1 148.77 441.9 146.44 439.56 143.45 436.85 138.86 433.32 137.62 431.73 136.6 426.46 133.83 430.23 136.82 425.3 137.69 422.85 137.69 418.78 136.52 410.8 136.01 404.4 135.79 399.88 136.16 395.05 136.01 393.86 134.99 393.3 134.05 393.3 133.97 395.07 134.07 395.77 135.75 395.19 134.36 395.97 131.24 396.93 123.3 397.55 119.31 397.47 118.22 396.69 118 396.08"/><line class="uuid-fec0dffa-056c-4b81-818e-86e714335126" x1="118.53" y1="387.83" x2="120.86" y2="397.5"/><polyline class="uuid-fec0dffa-056c-4b81-818e-86e714335126" points="127.65 450.83 128.25 455.24 129.26 455.65 132.73 456 135.93 456 138.2 455.58 138.87 454.7 139.09 453.74 139.09 451.91 139.28 451.3 139.92 451.15 141.14 451.15 142.17 451.17 143.29 451.22 144.07 451.37 144.41 451.89 144.86 452.55 145.36 453.22 146.22 453.79 147.08 454.23 149.54 454.06 153 453.29 157.08 452.31 159.56 450.98 160.35 449.2 160.52 447.43 160.52 446.15"/><polygon class="uuid-d6ee5fd1-cc5e-440f-ae64-29519977838a" points="118.42 397.19 118.79 398.95 119.41 401.79 120.31 405.91 121.73 412.01 122.65 415.63 122.76 416.33 123.31 419.6 123.31 420.81 123.31 422.08 123.75 424.45 124.18 426.72 127.43 430.67 129.6 433.32 129.13 433.74 125.68 430.16 126.16 432.81 126.47 434.48 126.82 438.88 126.54 443.01 126.59 448.06 127.55 450.36 129.75 451.32 133.81 450.8 140.46 449.59 146.93 450.41 152.66 449.52 157.36 448.35 160 446.55 160.52 445.27 160.03 444.18 158.26 443.39 155.17 443.16 150.87 443.4 148.59 442.13 146.12 439.67 143.37 437.21 140.37 434.85 138.62 433.52 137.32 431.82 136.43 427.18 134.05 430.4 133.54 430.03 134.42 428.68 136.23 425.67 136.54 425.16 137.38 422.82 137.39 418.8 136.58 413.18 136.22 410.74 135.93 407.15 135.7 403.75 135.5 399.86 135.75 396.76 135.84 395.51 134.48 396.23 131.22 397.24 124.27 397.77 123.17 397.84 119.19 397.75 118.42 397.19"/><polyline class="uuid-d3fb2377-05e8-4bca-8af7-39d446c4b1a5" points="126.8 398.08 128.43 408.76 130.73 420.47 130.55 424.24"/><polyline class="uuid-a83665f4-3c9f-4ea2-b96f-3ed3764de0eb" points="122.53 398.75 130.79 397.5 128.7 397.63 124.78 398.08 122.34 398.54 125.34 398.12 125.93 398.12 121.93 398.12 120.74 397.97 122.52 397.95 124.59 397.89 126.11 397.76 128.59 397.5"/><polyline class="uuid-756d1034-5964-426b-ad27-bd9625c170c8" points="118.79 397.81 119.34 398.75 119.96 401.06 119.74 402.26 119.96 403.05 120.36 404.44 120.86 406.51 121.35 408.94 121.85 411.51 122.57 414.04 123.29 416.27 123.6 419.22 123.74 421.97 123.83 423.34 124.29 425.61 124.48 426.46 125.42 427.67 127.4 429.83 128.82 431.75 129.87 432.83"/><path class="uuid-a83665f4-3c9f-4ea2-b96f-3ed3764de0eb" d="m125.39,428.06l.14.07s.05.02.07.04.03.05.02.08c0,0-.01-.01-.02-.02"/><path class="uuid-a83665f4-3c9f-4ea2-b96f-3ed3764de0eb" d="m125.42,427.99c.05.04.11.08.15.12.09.08.17.21.27.27"/><path class="uuid-a83665f4-3c9f-4ea2-b96f-3ed3764de0eb" d="m126.04,428.76c.16.17.31.34.45.53,0,0-.01-.01-.02-.02.19.29.45.54.72.77"/><path class="uuid-a83665f4-3c9f-4ea2-b96f-3ed3764de0eb" d="m127.3,430.14c.08.18.18.36.3.53"/><path class="uuid-a83665f4-3c9f-4ea2-b96f-3ed3764de0eb" d="m127.46,430.2c-.16-.1-.33-.2-.5-.29.05.04.11.13.15.16.05.04.1.08.14.13.02.03.03.07.06.09,0,0-.01-.01-.02-.02"/><path class="uuid-a83665f4-3c9f-4ea2-b96f-3ed3764de0eb" d="m127.55,430.57l.59.72s-.02-.02-.02-.03c.27.21.45.47.65.75,0,0-.02-.01-.03-.02.45.13.8.57,1.07.97"/><path class="uuid-a83665f4-3c9f-4ea2-b96f-3ed3764de0eb" d="m129.32,432.83l.47.39"/><path class="uuid-a83665f4-3c9f-4ea2-b96f-3ed3764de0eb" d="m124.23,426.62c.27.15.48.42.56.73,0,.01.02.03.03.02"/><path class="uuid-a83665f4-3c9f-4ea2-b96f-3ed3764de0eb" d="m124.97,427.58c0-.06-.02-.11-.04-.16-.03-.06-.09-.12-.11-.19"/><path class="uuid-a83665f4-3c9f-4ea2-b96f-3ed3764de0eb" d="m123.36,418.99c-.03-.19-.02-.39-.06-.58-.02-.11-.07-.21-.09-.32-.03-.19-.02-.39-.02-.59s.05-.39,0-.58"/><path class="uuid-a83665f4-3c9f-4ea2-b96f-3ed3764de0eb" d="m123.1,417.9c0-.15-.06-.29-.06-.44-.02-.47-.01-.94.02-1.41"/><path class="uuid-a83665f4-3c9f-4ea2-b96f-3ed3764de0eb" d="m122.64,415.31v-.74"/><path class="uuid-a83665f4-3c9f-4ea2-b96f-3ed3764de0eb" d="m119.61,402c0-.06-.02-.11-.03-.17-.01-.05,0-.07,0-.12.01-.12,0-.25,0-.37,0-.15-.03-.27-.06-.42-.1-.4.01-.76-.13-1.14-.13-.35-.28-.69-.45-1.02-.07-.14-.15-.28-.2-.43"/><path class="uuid-a83665f4-3c9f-4ea2-b96f-3ed3764de0eb" d="m119.5,401.48v-.52"/><path class="uuid-a83665f4-3c9f-4ea2-b96f-3ed3764de0eb" d="m119.27,400.78v-.48c0-.05,0-.11,0-.16,0,0,0,.01,0,.02"/><path class="uuid-a83665f4-3c9f-4ea2-b96f-3ed3764de0eb" d="m119.18,400.12c-.01-.14-.03-.28-.02-.42,0-.06,0-.1,0-.16,0-.07-.02-.14-.01-.21"/><path class="uuid-a83665f4-3c9f-4ea2-b96f-3ed3764de0eb" d="m119.21,400.27c0-.06,0-.12,0-.19"/><path class="uuid-a83665f4-3c9f-4ea2-b96f-3ed3764de0eb" d="m119.13,399.58c-.03-.18-.1-.34-.1-.52"/><path class="uuid-a83665f4-3c9f-4ea2-b96f-3ed3764de0eb" d="m119.06,399.73c-.02-.1-.02-.19-.02-.29"/><path class="uuid-a83665f4-3c9f-4ea2-b96f-3ed3764de0eb" d="m118.91,399.1v-.4"/><path class="uuid-a83665f4-3c9f-4ea2-b96f-3ed3764de0eb" d="m118.76,398.35l-.02-.19"/><path class="uuid-a83665f4-3c9f-4ea2-b96f-3ed3764de0eb" d="m118.83,398.03c-.05-.06-.15-.1-.16-.18,0-.08-.06-.15-.09-.23"/><path class="uuid-a83665f4-3c9f-4ea2-b96f-3ed3764de0eb" d="m118.87,397.82c-.07-.05-.14-.11-.21-.18"/><path class="uuid-a83665f4-3c9f-4ea2-b96f-3ed3764de0eb" d="m118.71,397.65s-.02-.04-.03-.06"/><path class="uuid-a83665f4-3c9f-4ea2-b96f-3ed3764de0eb" d="m118.53,397.47h.16"/><path class="uuid-a83665f4-3c9f-4ea2-b96f-3ed3764de0eb" d="m118.85,397.79c-.03-.06-.07-.12-.11-.17"/><path class="uuid-a83665f4-3c9f-4ea2-b96f-3ed3764de0eb" d="m119,397.75s-.04,0-.07-.02c-.02,0-.03,0-.05-.01"/><path class="uuid-a83665f4-3c9f-4ea2-b96f-3ed3764de0eb" d="m118.78,397.6s-.02-.03-.04-.03"/><path class="uuid-a83665f4-3c9f-4ea2-b96f-3ed3764de0eb" d="m118.64,397.55l.06.02s.03-.02.04-.02c.01,0,0-.01.01-.01"/><path class="uuid-a83665f4-3c9f-4ea2-b96f-3ed3764de0eb" d="m118.53,397.37h0"/><path class="uuid-a83665f4-3c9f-4ea2-b96f-3ed3764de0eb" d="m118.53,397.36h-.02"/><path class="uuid-a83665f4-3c9f-4ea2-b96f-3ed3764de0eb" d="m118.52,397.35c.04.06.09.11.14.16"/><polygon class="uuid-155b1671-1d63-4d44-ad17-b05d96dff4f6" points="119.21 397.82 120.54 404.68 125.06 404.22 123.19 398.15 119.21 397.82"/><polygon class="uuid-155b1671-1d63-4d44-ad17-b05d96dff4f6" points="120.74 404.77 122.68 414.38 123.65 417.95 127.09 417.08 123.62 404.15 120.74 404.77"/><polygon class="uuid-155b1671-1d63-4d44-ad17-b05d96dff4f6" points="123.65 417.95 124.23 425.3 125.85 428.37 128.68 431.56 131.33 424.11 125.99 416.8 123.65 417.95"/><polyline class="uuid-155b1671-1d63-4d44-ad17-b05d96dff4f6" points="130.73 397.35 134.45 396.32 135.46 395.84 135.64 395.77 135.73 395.66"/><path class="uuid-a83665f4-3c9f-4ea2-b96f-3ed3764de0eb" d="m135.73,395.71v-.07s.04.06,0,.07Z"/><polygon class="uuid-155b1671-1d63-4d44-ad17-b05d96dff4f6" points="135.74 395.88 135.41 399.93 136.09 410.55 137.29 418.76 137.29 422.85 136.57 425.08 134.61 424.39 134.13 417.66 133.1 409.46 130.55 398.82 130.87 397.31 135.74 395.88"/><polygon class="uuid-155b1671-1d63-4d44-ad17-b05d96dff4f6" points="131.07 424.04 136.26 424.36 136.51 425.22 133.44 430.04 129.87 433.08 127.88 430.48 131.07 424.04"/><polyline class="uuid-97b876f3-e756-47cc-bf42-ba2744981240" points="126.04 431.76 125.73 430.4 125.94 430.43 127.21 431.93 129.14 433.85 129.22 434.05 136.51 441.18 149.19 450.06 146.82 450.39 140.45 449.46 135.86 450.39 129.69 451.3 127.65 450.31 126.77 440.36"/><polyline class="uuid-97b876f3-e756-47cc-bf42-ba2744981240" points="126.77 440.95 126.57 442.54 126.62 444.15 126.67 448.03 127.58 450.25"/><polyline class="uuid-97b876f3-e756-47cc-bf42-ba2744981240" points="129.13 433.74 133.44 430.04 134.05 430.4 137.27 431.56 138.62 433.52 142.24 436.32 145.65 439.25 148.59 442.13 150.74 443.34 149.94 449.94 148.78 450.12 129.87 435.98"/><path class="uuid-d6ee5fd1-cc5e-440f-ae64-29519977838a" d="m133.69,440.75c1.32.21,2.6.67,3.76,1.35-.01-.31-.02-.64.16-.89.03-.04.06-.07.06-.12,0-.05-.03-.09-.05-.13-.29-.38-.76-.61-1.24-.6-.09,0-.21.06-.17.14.17.43.45.84.78,1.15.1-.98.6-1.83,1.16-2.63.44-.64.91-1.25,1.41-1.84"/><polygon class="uuid-97b876f3-e756-47cc-bf42-ba2744981240" points="134.17 430.4 136.32 427.33 137.24 431.39 134.17 430.4"/><polyline class="uuid-97b876f3-e756-47cc-bf42-ba2744981240" points="150.74 443.5 149.96 449.8 152.34 449.57 157.33 448.29 159.96 446.49 160.44 445.26 159.99 444.16 158.23 443.43 154.95 443.18 150.24 443.5"/><polygon class="uuid-97b876f3-e756-47cc-bf42-ba2744981240" points="134.3 393.62 134.26 395.28 134.3 395.4 135.63 394.91 135.83 395.29 135.89 395.03 135.75 394.1 134.94 393.62 134.3 393.62"/><polygon class="uuid-97b876f3-e756-47cc-bf42-ba2744981240" points="119.96 395.21 119.61 395.34 118.3 396.06 118.42 396.51 119.46 397.19 120.5 397.19 119.96 395.21"/><polyline class="uuid-8e9e7fa8-f539-43af-833b-7b55c750a417" points="127.97 451.3 128.48 454.86 128.48 455.04 129.37 455.38 132.34 455.65 135.2 455.71 136.1 455.71 138.07 455.31"/><polygon class="uuid-8e9e7fa8-f539-43af-833b-7b55c750a417" points="138.07 455.31 138.63 454.52 138.78 453.73 138.78 451.85 139.05 451.07 138.82 450.47 129.66 451.85 137.91 455.35 138.07 455.31"/><path class="uuid-be9ba647-5551-4026-9a5d-0e4a9cc72042" d="m275.35,426.25c-.03.09.08.17.17.2s.21.05.24.14c-.09,0-.18.02-.27.03"/><polyline class="uuid-8e9e7fa8-f539-43af-833b-7b55c750a417" points="143.3 450.92 144.24 451.13 145.56 453.01 147.09 453.9 149.51 453.77 156.99 452.02 146.95 451 143.3 450.53"/><polyline class="uuid-8e9e7fa8-f539-43af-833b-7b55c750a417" points="147.29 450.97 152.65 450.12 157.51 448.92 160.22 447.1 160.08 449.16 159.3 450.84 156.94 452.03"/><polyline class="uuid-97b876f3-e756-47cc-bf42-ba2744981240" points="77.14 380.69 66.59 412.5 65.3 414.07 60.82 415.69 59.19 417.19 58.17 418.76 57.83 420.43 75.05 414.05 82.08 409.19 86.46 399.85 88.6 395.07 89.78 393.02 88.46 391.52 80.35 383.61 77.33 380.83"/><polygon class="uuid-97b876f3-e756-47cc-bf42-ba2744981240" points="77.47 380.63 77.37 380.86 80.83 384.28 81.22 384.46 78.66 381.6 77.47 380.63"/><polyline class="uuid-97b876f3-e756-47cc-bf42-ba2744981240" points="74.94 414.09 75.25 414.6 76.42 414.01 80.33 411.5 79.89 413.94 78.37 418.5 76.33 424.61 73.31 432.69 72.19 436.36 69.98 443.45 66.76 442.62 64.01 441.46 63.45 440.38 63.81 438.96 63.53 433.66 62.81 430.45 62.6 429.4 61.47 427.25 60.66 425.62 58.79 422.65 57.75 420.52"/><polyline class="uuid-97b876f3-e756-47cc-bf42-ba2744981240" points="72.17 436.42 72.48 436.57 73.2 437.11 74.63 438.1 77.1 439.29 78.45 441.38 78.12 443.45 76.91 444.63 75.11 444.86 69.89 443.45"/><polyline class="uuid-8e9e7fa8-f539-43af-833b-7b55c750a417" points="57.52 421.14 56.14 422.16 55.78 423.13 55.9 424.94 58.28 429.97 59.8 431.42 61.22 432.29 61.99 433.48 62.58 431.99 62.09 429.48 59.92 425.5"/><polyline class="uuid-8e9e7fa8-f539-43af-833b-7b55c750a417" points="61.99 433.59 62.21 436.66 61.66 440.02 63.26 439.02 62.95 433.89 62.58 431.99"/><polygon class="uuid-8e9e7fa8-f539-43af-833b-7b55c750a417" points="61.66 440.13 61.39 441.53 61.24 443.79 61.55 445.02 63.55 446.15 67.16 446.88 63.7 441.94 62.87 440.64 63.15 439.09 61.66 440.13"/><polyline class="uuid-8e9e7fa8-f539-43af-833b-7b55c750a417" points="63.75 442.01 66.82 443.22 75.15 445.4 76.69 445.22 76.69 446.08 75.53 448.29 74.37 448.56 70.66 447.92 67.16 446.88"/><polyline class="uuid-a680abac-4a77-4912-af6d-aa44f51f339a" points="153.11 340.71 157.7 358.06 160.87 372.63 162.38 381.17 156.82 384.6 151.69 387.11 147.41 388.56 144.61 388.95 141.43 389.17 137.79 388.56 134.07 387.11 129.31 383.35 126.88 382.1 124.6 381.88 122.03 382.61 119.4 385.04 117.04 389.54 114.34 395.71 112.05 398.69 109.84 400.27 106.35 401.22 103.86 400.64 100.65 399.32 96.51 396.51 89.53 391.18 85.35 387.19 81.82 383.34 77.37 379.12 73.05 376.81 69.13 375.56 64.82 374.99 60.79 374.99 54.94 375.56 50.03 376.41 43.85 377.95 71.78 341"/><polyline class="uuid-a680abac-4a77-4912-af6d-aa44f51f339a" points="113.68 292.99 110.31 301.57 107.95 307.24 104.67 312.96 100.47 318.84 93.86 326.2 84.99 333.99 78.02 338.7 73.82 340.98 107.34 340.98 134.35 340.71 153.2 340.42"/><polyline class="uuid-a680abac-4a77-4912-af6d-aa44f51f339a" points="71.78 341 75.92 335.51 77.53 337.38 73.55 340.59 73.54 340.98 71.94 341"/><polyline class="uuid-a680abac-4a77-4912-af6d-aa44f51f339a" points="77.59 337.3 79.3 335.75 80.42 334.68 81.97 333.05 84.54 330.15 86.55 327.38 88.36 324.53 89.92 321.46 91.18 317.94 91.55 316.69 91.93 314.74"/><polyline class="uuid-a680abac-4a77-4912-af6d-aa44f51f339a" points="92.02 314.24 91.78 314.53 90.66 315.98 88.89 318.37 75.92 335.51 77.59 337.3 91.13 316.98"/><polyline class="uuid-a680abac-4a77-4912-af6d-aa44f51f339a" points="125.18 306.76 125.52 306.68 127.18 304.46 125.18 302.74 120.45 298.63 117.23 295.86 113.87 292.91 113.76 293.15"/><polyline class="uuid-a680abac-4a77-4912-af6d-aa44f51f339a" points="121.49 302.8 122.37 302.58 125.73 306.76 126.83 307.72 135.31 296.45 144.09 300.25 145.12 305.14 149.03 322.3 153.2 340.42"/><path class="uuid-a680abac-4a77-4912-af6d-aa44f51f339a" d="m135.18,296.31l-1.2-.93-1.88,2.54c-1.88-1.98-3.06-3.48-3.06-3.48l-3.58-4.7-3.98-5.15-2.12-2.73,2.55,1.41,1.08-.36-.35-1.27,4.92,1.73.21-.56,15-2.36,1.28,19.63"/><polyline class="uuid-a680abac-4a77-4912-af6d-aa44f51f339a" points="120.72 279.43 119.37 281.72 121.9 283.1 120.77 279.32"/><polyline class="uuid-a680abac-4a77-4912-af6d-aa44f51f339a" points="127.63 282.79 122.41 280.92 121.63 278.26 121.37 278.26 122.96 275.6 125.44 271.32 127.14 267.59 128.76 263.79 139 269.65 139.18 269.68 139.18 270.09 139.31 270.65 139.54 271.21 139.82 271.45 140.32 271.77 140.74 271.91 141.7 271.91 142.15 271.66 142.61 271.27 142.91 270.88 143.17 270.26 144.49 270.67 142.78 280.46"/><polyline class="uuid-a680abac-4a77-4912-af6d-aa44f51f339a" points="139.23 269.52 139.44 268.9 139.97 268.41 140.98 267.9 141.77 267.98 142.27 268.23 142.6 268.5 142.88 268.83 143.11 269.37 143.19 270.07 144.55 270.53 145.32 266.19 145.65 264.05 146.07 261.77 147.2 255.54 144.84 255.93"/><polyline class="uuid-a680abac-4a77-4912-af6d-aa44f51f339a" points="142.43 258.73 141.81 256.46 144.84 255.93 143.22 259.93"/><polyline class="uuid-a680abac-4a77-4912-af6d-aa44f51f339a" points="142.72 259.11 142.86 259.99 142.79 260.45 143.05 260.55 143.38 259.11"/><polyline class="uuid-a680abac-4a77-4912-af6d-aa44f51f339a" points="142.72 260.55 142.5 261.1 141.91 261.71 140.93 261.99 139.83 261.74 135.03 267.19 139 269.72 139.18 269.68 140.39 267.36 143.33 260.75"/><polyline class="uuid-a680abac-4a77-4912-af6d-aa44f51f339a" points="139.72 261.69 139.18 261.17 138.88 260.26 138.88 259.3 131.06 254.04 130.2 258.58 128.71 263.67 135.03 267.38"/><polyline class="uuid-a680abac-4a77-4912-af6d-aa44f51f339a" points="139.03 259.24 139.26 258.89 140.1 258.14 140.73 257.99 141.48 258.03 142.23 258.53 141.64 256.41 137.76 255.72 135.12 256.61 131.06 253.85"/><polyline class="uuid-a680abac-4a77-4912-af6d-aa44f51f339a" points="131.06 253.85 131.68 247.24 142.84 241.14 137.93 254.65 137.76 255.54 134.96 256.66"/><polyline class="uuid-a680abac-4a77-4912-af6d-aa44f51f339a" points="138.09 254.55 142.13 255.39 147.41 254.29 148.79 253.23 150.22 251.67 151.42 248.76 151.84 245.75 151.38 242.43 149.99 239.34 148.51 239.34 147.67 239.98 145.8 240.65 143.07 241.14 142.84 241.06"/><polyline class="uuid-a680abac-4a77-4912-af6d-aa44f51f339a" points="148.59 238.91 148.88 238.52 149.01 238.15 149.69 238.91 148.69 239.28"/><polyline class="uuid-a680abac-4a77-4912-af6d-aa44f51f339a" points="119.07 282.5 114.11 292.5 119.97 297.67"/><polyline class="uuid-a680abac-4a77-4912-af6d-aa44f51f339a" points="122.24 286.57 122.35 287.3 122.24 288.31 121.76 289.3 120.72 290.52 119.48 291.51 119.97 297.41 121.18 295.13 125.64 291.99 126.15 291.6 122.5 286.66"/><polyline class="uuid-a680abac-4a77-4912-af6d-aa44f51f339a" points="125.76 292.19 126.23 291.82 127.91 294.04 129.89 296.67 129.64 297.01 129.5 297.19 129.33 297.41 129.23 297.56 126.25 292.99"/><polyline class="uuid-a680abac-4a77-4912-af6d-aa44f51f339a" points="126.15 292.96 121.83 296.08 120.67 298.06 125.76 302.45 129.18 297.52"/><line class="uuid-a680abac-4a77-4912-af6d-aa44f51f339a" x1="126.05" y1="292.86" x2="126.24" y2="292.7"/><polyline class="uuid-a680abac-4a77-4912-af6d-aa44f51f339a" points="107.38 227.63 105.5 236.28 103.88 247.38 107.55 282.45 110.9 278.65 114.11 273.84 115.8 270.53 117.47 265.56 118.87 257.93 118.7 255.15 118.46 250.76 117.47 245.78 115.35 240.16 112.66 234.93 107.72 228.05"/><polyline class="uuid-03b74782-7290-407f-9b60-a12b26bdce4a" points="130.32 297.02 126.05 302.94 127.38 304.09 131.46 298.24"/><polyline class="uuid-03b74782-7290-407f-9b60-a12b26bdce4a" points="160.49 255.57 160.59 255.03 161.82 254.36 162.54 254.36 163.35 256.48 164.93 259.65 167.38 262.81 167.45 264.57 166.58 265.27 164.65 264.78 163.37 263.38"/><polyline class="uuid-03b74782-7290-407f-9b60-a12b26bdce4a" points="130.72 231.96 131.46 237.54 131.74 245.84 141.89 240.33 147.03 238.98 147.75 238.42 147.75 237.54 147.24 236.44 145.24 234.71 142.03 232.64 138.09 230.48"/><polyline class="uuid-a680abac-4a77-4912-af6d-aa44f51f339a" points="147.69 259.65 145.89 269.72 162.75 263.45 159.87 255.69"/><polyline class="uuid-a680abac-4a77-4912-af6d-aa44f51f339a" points="147.63 259.57 151.04 258.55 151.62 258.39"/><polygon class="uuid-11fdf297-bcd8-415b-aa8c-bbfdf4cea684" points="114.26 214.71 114.94 214.9 115.93 215.47 114.71 216.68 110.89 220.11 106.69 224.47 105.65 223.05 106.69 221.63 109.58 218.3 112.88 215.32 114.26 214.71"/><polyline class="uuid-59171f2e-d401-49ee-b610-f04ed0036631" points="111.48 220.25 113.56 223.86 121.72 225.28 128.14 220.44 120.7 218.82 116.34 215.72"/><polyline class="uuid-59171f2e-d401-49ee-b610-f04ed0036631" points="111.05 220.35 113.27 224.27 121.69 225.7 119.97 231.56 118.78 231.43 116.89 231.06 114.82 230.55 111.59 229.3 110.19 228.72 108.74 227.37 106.59 224.34"/><polyline class="uuid-59171f2e-d401-49ee-b610-f04ed0036631" points="121.69 225.7 124.25 227.13 124.87 226.41 125.9 225.48 126.83 224.94 127.68 224.77 128.28 224.77 129.13 224.94 128.3 220.35 121.72 225.28 121.69 225.95"/><polyline class="uuid-59171f2e-d401-49ee-b610-f04ed0036631" points="128.3 220.35 134.53 217.52 138.76 224.57 138.71 226.27 138.5 225.95 138.17 226.13 136.97 226.79 136.02 227.18 134.58 227.54 133.39 227.54 132.5 227.38 131.34 226.76 130.27 225.82 129.23 225.03 129.07 224.94"/><polyline class="uuid-59171f2e-d401-49ee-b610-f04ed0036631" points="121.69 225.7 120 231.65 122.18 231.8 124.35 231.8 126.46 231.73 128.3 231.65 131.24 231.56 124.59 227.39 124.29 227.13"/><polyline class="uuid-59171f2e-d401-49ee-b610-f04ed0036631" points="124.59 227.39 125.41 226.5 125.91 226.03 126.68 225.48 127.17 225.28 127.71 225.14 128.22 225.14 129.01 225.37 129.5 225.7 130.17 226.26 131.08 227.06 132.11 227.68 132.81 227.88 133.99 228.03 134.81 227.93 135.61 227.79 136.88 230.4 131.16 231.51"/><polyline class="uuid-59171f2e-d401-49ee-b610-f04ed0036631" points="135.64 227.79 136.88 227.3 138.6 226.36 138.76 226.62 138.76 227.13 138.98 227.79 139.34 228.33 138.95 229.18 138.29 229.85 136.88 230.33"/><polyline class="uuid-59171f2e-d401-49ee-b610-f04ed0036631" points="107.55 226.46 107.46 226.86 108.81 228.5 109.77 229.66 110.59 230.81 109.66 228.72"/><polyline class="uuid-59171f2e-d401-49ee-b610-f04ed0036631" points="109.8 228.85 111.47 229.7 113.45 230.51 115.54 231.11 112.38 233.44 110.74 231.03"/><polyline class="uuid-59171f2e-d401-49ee-b610-f04ed0036631" points="115.54 231.11 117.47 231.65 121.09 232.05 122.63 236.68 123.61 240.91 124.29 245.72 124.4 248.9 124.25 252.58 123.86 255.99 122.9 260.71 121.82 264.18 117.58 243.96 115.83 239.77 112.67 233.67 112.38 233.44"/><polyline class="uuid-59171f2e-d401-49ee-b610-f04ed0036631" points="115.63 272.19 114.4 274.46 111.37 279.15 107.54 283.31 101.53 287.47 88.74 296.57 109.55 287.13 112.57 283.07 116.21 277.05 118.31 272.71"/><polyline class="uuid-59171f2e-d401-49ee-b610-f04ed0036631" points="109.55 287.13 110.41 287.86 113.51 292.14 109.73 301.48 107.38 307.16 92.29 306.49 91.09 299.84 88.74 296.57 91.37 302.5 92.02 303.71 100.29 295.87 109.36 287.47 89.07 296.42"/><polyline class="uuid-59171f2e-d401-49ee-b610-f04ed0036631" points="88.74 296.57 91.99 302.31 101 296.57 107.88 290.61 109.15 287.13"/><polyline class="uuid-59171f2e-d401-49ee-b610-f04ed0036631" points="91.21 301.42 92.05 303.93 98.28 299.18 95.87 297.27"/><polyline class="uuid-59171f2e-d401-49ee-b610-f04ed0036631" points="92.29 306.49 92.76 309.51 92.76 312.83 92.02 316.98 96.03 323 99.52 319.18 102.79 314.71 106.18 309.42 107.38 307.16"/><polyline class="uuid-59171f2e-d401-49ee-b610-f04ed0036631" points="92.02 317.2 91.12 319.85 89.45 323.74 87.11 327.53 86.21 332.09 90.26 328.71 95.87 323.16 97.29 321.15"/><line class="uuid-59171f2e-d401-49ee-b610-f04ed0036631" x1="91.81" y1="327.54" x2="95.08" y2="324.4"/><polyline class="uuid-59171f2e-d401-49ee-b610-f04ed0036631" points="86.98 327.79 84.76 330.72 81.43 334.44 76.96 338.6 77.59 338.4 80.41 336.61 83.69 334.24 86.35 332.09"/><polyline class="uuid-59171f2e-d401-49ee-b610-f04ed0036631" points="122.3 232.21 126.03 232.21 130.23 231.96 130.49 233.86 130.94 238.47 131.18 244.14 131.06 248.28 124.57 240.12"/><polyline class="uuid-59171f2e-d401-49ee-b610-f04ed0036631" points="124.65 240.43 125.41 245.66 125.49 249.51 125.36 253.23 124.97 257.41 129.82 257.28 130.36 255.18 130.81 251.43 131.18 248.08"/><polyline class="uuid-59171f2e-d401-49ee-b610-f04ed0036631" points="124.97 255.7 124.4 259.24 122.61 265.42 121.57 268.12 125.49 270.05 127.32 266.02 128.71 261.91 129.85 257.17"/><polyline class="uuid-59171f2e-d401-49ee-b610-f04ed0036631" points="121.57 268.2 120.32 271.19 118.75 274.68 117 277.93 115.07 281.31 110.41 287.86 113.68 292.38 115.82 287.57 119.25 280.91 122 276.12 124.27 272.41 125.54 269.94"/><polygon class="uuid-9c64cb52-a25d-4007-a382-2dea10301d99" points="43.92 446.42 19.82 446.94 15.17 448.08 14 449.56 15.32 450.63 22.72 452.61 30.87 453.3 41.33 454.3 52.54 454.54 66.17 454.17 74.35 452.91 76.23 451.77 74.42 449.39 65.12 447.89 43.92 446.42"/><path class="uuid-9bc70039-f914-44d8-86eb-093ed5c4f03b" d="m14.78,448.1c-.18.09-1.41.72-1.31,1.43.07.5.76.81,1.15.97,5.18,2.13,8.25,2.11,8.25,2.11,5.56-.04,11.08,1.1,16.64,1.32,32.85,1.31,14.42.36,19.15.58,2.91.14,6.73.35,11.72-.49,2.34-.39,4.22-.9,5.49-1.28"/><polyline class="uuid-9c64cb52-a25d-4007-a382-2dea10301d99" points="70.94 458.36 18.55 461.87 2.83 467.51 .74 471.19 12.03 474.93 46.84 476.66 106.2 478.45 124.55 478.33 93.7 485.21 92.75 486.71 103.31 488.9 158.44 492.78 188.81 493.7 196.37 489 186.23 482.74 210.94 479.24 251.45 473.5 256.61 469.92 250.64 463.79 238.44 460.2 162.4 455.35"/><polygon class="uuid-9c64cb52-a25d-4007-a382-2dea10301d99" points="350.86 480.3 326.75 480.83 322.11 481.97 320.94 483.44 322.26 484.52 329.65 486.5 337.81 487.19 348.27 488.19 359.48 488.42 373.11 488.06 381.29 486.79 383.17 485.66 381.36 483.27 372.06 481.78 350.86 480.3"/><path class="uuid-9bc70039-f914-44d8-86eb-093ed5c4f03b" d="m321.72,481.99c-.18.09-1.41.72-1.31,1.43.07.5.76.81,1.15.97,5.18,2.13,8.25,2.11,8.25,2.11,5.56-.04,11.08,1.1,16.64,1.32,32.85,1.31,14.42.36,19.15.58,2.91.14,6.73.35,11.72-.49,2.34-.39,4.22-.9,5.49-1.28"/><polyline class="uuid-9bc70039-f914-44d8-86eb-093ed5c4f03b" points="2.83 467.51 .74 471.19 12.03 474.93 44.35 476.53 95.11 478.59 120.9 478.59 93.7 485.21 92.75 486.71 103.31 488.9 131.81 490.91 188.81 493.7 196.37 489 186.23 482.74 222.29 477.63 251.45 473.5 256.61 469.92 254.94 468.2 223.52 476.82 223.14 476.92"/><polyline class="uuid-adb99913-e63d-41cb-8a95-a18988169489" points="223.41 477.14 225.11 476.62 229.83 475.33 234.57 474.04 240.68 472.43 251.1 469.52 254.86 468.54 256.11 469.84 251.41 473.2 228.72 476.51"/><path class="uuid-adb99913-e63d-41cb-8a95-a18988169489" d="m217.92,465.91c-.98.92-.76,2.53,1,3.43,1.75.89,4.25.69,5.76-.16,1.35-.75,1.97-2.05,1.25-2.96-1.24-1.58-6.37-1.84-8.01-.31Z"/><path class="uuid-adb99913-e63d-41cb-8a95-a18988169489" d="m87.11,463.53c-2.45.98-1.9,2.7,2.49,3.66,4.35.95,10.57.73,14.32-.17,3.35-.8,4.89-2.19,3.11-3.16-3.09-1.69-15.85-1.97-19.93-.33Z"/><path class="uuid-adb99913-e63d-41cb-8a95-a18988169489" d="m123.52,483.47c-2.18.88-1.69,2.43,2.22,3.29,3.88.85,9.41.66,12.75-.15,2.98-.72,4.36-1.97,2.77-2.84-2.75-1.52-14.11-1.77-17.74-.3Z"/><path class="uuid-adb99913-e63d-41cb-8a95-a18988169489" d="m14.84,467.89c-1.42.44-1.1,1.21,1.45,1.64,2.53.43,6.15.33,8.33-.07,1.95-.36,2.85-.98,1.81-1.42-1.8-.76-9.22-.88-11.59-.15Z"/><path class="uuid-adb99913-e63d-41cb-8a95-a18988169489" d="m196.92,464.16c-1.36.59-1.06,1.61,1.39,2.19,2.43.57,5.89.44,7.98-.1,1.87-.48,2.73-1.31,1.73-1.89-1.72-1.01-8.83-1.17-11.1-.2Z"/><polyline class="uuid-59171f2e-d401-49ee-b610-f04ed0036631" points="119.5 253.71 119.5 254.74 119.57 257.33 119.5 258.35 119.26 260.8 120.88 259.71 122.19 262.98 120.62 267.92 118.39 272.55 118.19 272.97 115.63 272.19 116.56 270.12 117.84 266.51 118.57 263.49 118.99 260.92"/><polyline class="uuid-59171f2e-d401-49ee-b610-f04ed0036631" points="119.74 254.26 119.54 256.18 119.64 257.6 119.82 259.88 119.82 260.8 119.38 259.58 119.29 260.45 119.29 261.07 120.13 259.71 120.6 258.38"/><polyline class="uuid-59171f2e-d401-49ee-b610-f04ed0036631" points="120.91 258.93 119.48 258.53 119.29 261.07 120.91 260.33"/><line class="uuid-fec0dffa-056c-4b81-818e-86e714335126" x1="132.82" y1="386.9" x2="133.53" y2="396.2"/><line class="uuid-62bf654d-a97e-441b-a8f8-6b3399503f38" x1="127.97" y1="304.47" x2="113.82" y2="292.16"/><line class="uuid-62bf654d-a97e-441b-a8f8-6b3399503f38" x1="132.23" y1="298.33" x2="118.99" y2="281.64"/><line class="uuid-62bf654d-a97e-441b-a8f8-6b3399503f38" x1="130.45" y1="296.19" x2="125.77" y2="302.51"/><polyline class="uuid-a680abac-4a77-4912-af6d-aa44f51f339a" points="119.31 282.57 119.21 282.84 119.62 289.25 120.01 288.97 120.53 288.35 120.89 287.46 120.89 286.51 120.37 285.17 120.89 284.76 119.8 283.11"/><polyline class="uuid-a680abac-4a77-4912-af6d-aa44f51f339a" points="120.05 289.25 120.69 290.04 119.62 291.05 119.12 289.59"/><polyline class="uuid-ceb34f1e-3226-4b69-8e52-d976559c3862" points="141.17 268.37 140.71 268.52 140.41 268.67 140.2 268.9 139.97 269.16 139.83 269.35 139.71 269.61 139.66 269.85 139.66 270.12 139.73 270.44 139.81 270.65 140.03 270.93 140.22 271.16 140.42 271.31 140.64 271.41 141 271.5 141.71 271.42 142.05 271.2 142.41 270.78 142.61 270.39 142.65 269.86 142.65 269.51 142.5 269.2 142.13 268.72 141.66 268.48 141.28 268.37 141.02 268.37 140.48 268.87 140.17 269.27 139.91 269.69 139.85 269.99 139.91 270.33 140.13 270.76 140.46 271.05 140.75 271.21 141.04 271.27 141.64 271.21 142.14 270.8 142.25 270.54 142.41 270.25 142.43 269.75 142.29 269.27 142.07 269 141.77 268.77 141.32 268.61 140.97 268.68 140.63 269.02 140.32 269.38 140.15 269.75 140.11 269.96 140.16 270.29 140.24 270.49 140.43 270.71 140.64 270.9 140.92 271 141.25 271.05 141.64 271.01 141.89 270.75 142.12 270.36 142.2 269.96 142.2 269.66 142.05 269.29 141.79 269.06 141.54 268.89 141.26 268.85 140.97 268.9 140.76 269.16 140.52 269.43 140.43 269.64 140.38 269.85 140.38 270.09 140.4 270.39 140.52 270.53 140.7 270.66 141.02 270.8 141.32 270.85 141.61 270.81 141.79 270.58 141.88 270.33 141.92 270.11 141.96 269.87 141.94 269.59 141.84 269.44 141.66 269.29 141.43 269.18 141.26 269.14 141.08 269.16 140.9 269.3 140.76 269.53 140.68 269.7 140.64 269.87 140.63 270.12 140.63 270.3 140.82 270.44 141.11 270.53 141.37 270.58 141.59 270.58 141.7 270.32 141.77 269.93 141.76 269.69 141.66 269.54 141.43 269.4 141.26 269.37 141.05 269.46 140.94 269.66 140.89 269.9 140.88 270.12 140.91 270.23 141.02 270.34 141.25 270.35 141.46 270.36 141.58 270.22 141.55 269.88 141.58 269.75 141.43 269.57 141.26 269.57 141.1 269.64 141.1 269.88 141.07 270.07 141.11 270.19 141.23 270.2 141.35 270.17 141.42 270.11 141.4 269.88 141.38 269.72 141.25 269.71 141.23 269.93 141.22 270.14"/><polyline class="uuid-ceb34f1e-3226-4b69-8e52-d976559c3862" points="140.85 258.46 140.38 258.61 140.08 258.76 139.86 258.98 139.62 259.23 139.48 259.42 139.36 259.68 139.31 259.91 139.31 260.18 139.38 260.49 139.46 260.69 139.69 260.97 139.88 261.19 140.08 261.34 140.31 261.44 140.67 261.52 141.4 261.44 141.74 261.23 142.11 260.82 142.31 260.44 142.35 259.92 142.35 259.58 142.2 259.28 141.82 258.81 141.35 258.57 140.96 258.46 140.69 258.46 140.15 258.96 139.83 259.35 139.56 259.75 139.51 260.05 139.57 260.38 139.79 260.81 140.13 261.08 140.42 261.25 140.72 261.3 141.32 261.24 141.84 260.84 141.94 260.58 142.11 260.3 142.13 259.82 141.99 259.35 141.76 259.08 141.46 258.85 141 258.7 140.65 258.77 140.3 259.1 139.99 259.45 139.81 259.82 139.77 260.02 139.81 260.34 139.9 260.54 140.1 260.75 140.3 260.94 140.59 261.04 140.92 261.09 141.33 261.05 141.58 260.79 141.81 260.41 141.89 260.02 141.89 259.72 141.74 259.36 141.48 259.14 141.22 258.97 140.94 258.94 140.64 258.98 140.43 259.24 140.19 259.51 140.09 259.7 140.05 259.91 140.05 260.14 140.06 260.44 140.19 260.58 140.37 260.7 140.69 260.84 141 260.89 141.29 260.85 141.48 260.62 141.57 260.38 141.61 260.16 141.65 259.93 141.63 259.66 141.53 259.51 141.34 259.36 141.11 259.26 140.94 259.22 140.76 259.24 140.57 259.38 140.43 259.6 140.35 259.77 140.31 259.93 140.29 260.18 140.3 260.35 140.49 260.49 140.79 260.58 141.05 260.62 141.27 260.62 141.38 260.37 141.46 259.99 141.45 259.75 141.34 259.61 141.11 259.47 140.94 259.44 140.73 259.53 140.62 259.73 140.56 259.96 140.56 260.17 140.58 260.29 140.7 260.39 140.93 260.4 141.14 260.41 141.26 260.28 141.23 259.94 141.27 259.82 141.11 259.64 140.94 259.64 140.78 259.71 140.78 259.94 140.74 260.13 140.79 260.24 140.91 260.25 141.03 260.23 141.1 260.17 141.08 259.94 141.06 259.79 140.93 259.78 140.91 259.99 140.89 260.19"/></svg>